<svg width="12" height="12" viewBox="0 0 12 12" fill="none" xmlns="http://www.w3.org/2000/svg">
<path d="M4.37469 7.37584C4.60924 7.14128 4.98891 7.14128 5.22347 7.37584L5.39897 7.55134V6.00008C5.39897 5.66877 5.66784 5.3999 5.99914 5.3999C6.33045 5.3999 6.59931 5.66877 6.59931 6.00008V7.55134L6.77482 7.37584C7.00937 7.14128 7.38904 7.14128 7.6236 7.37584C7.85759 7.60983 7.85759 7.99006 7.6236 8.22406L6.42327 9.42439C6.36477 9.48288 6.29671 9.52732 6.22359 9.55657C6.15609 9.58357 6.08184 9.59932 6.00479 9.59988H5.99916H5.99747C5.91479 9.59988 5.83604 9.58244 5.7646 9.55207C5.70329 9.5262 5.64536 9.48963 5.59361 9.44239C5.58686 9.43564 5.57955 9.42889 5.5728 9.42214L4.37471 8.22405C4.14072 7.99006 4.14069 7.60983 4.37469 7.37584Z" fill="#2FCC71"/>
<path fill-rule="evenodd" clip-rule="evenodd" d="M2.7398 0C2.3185 0 1.92758 0.221623 1.71103 0.582735L0.170995 3.14873C0.0590612 3.33548 0 3.54865 0 3.76634V10.2001C0 11.194 0.806043 12 1.79994 12H10.2001C11.194 12 12 11.194 12 10.2001V3.76634C12 3.73372 11.9983 3.7011 11.9961 3.66903C11.9983 3.64653 12 3.62347 12 3.59985C12 3.4626 11.9533 3.33549 11.8757 3.23423C11.8611 3.20498 11.8453 3.17686 11.829 3.14873L10.289 0.582735C10.0724 0.221623 9.68149 0 9.2602 0H2.7398ZM10.34 3.00029L9.26006 1.20035H2.7398L1.65983 3.00029H10.34ZM1.2002 4.20006V10.2001C1.2002 10.5314 1.46851 10.7997 1.79981 10.7997H10.1999C10.5312 10.7997 10.7995 10.5314 10.7995 10.2001V4.20006H1.2002Z" fill="#2FCC71"/>
</svg>
