<svg width="16" height="16" viewBox="0 0 16 16" fill="none" xmlns="http://www.w3.org/2000/svg">
<path d="M12.255 6.87422L7.35503 1.97422C7.15503 1.77422 7.0592 1.54088 7.06753 1.27422C7.07586 1.00755 7.18003 0.774218 7.38003 0.574218C7.58003 0.390885 7.81336 0.295051 8.08003 0.286718C8.3467 0.278385 8.58003 0.374218 8.78003 0.574218L15.38 7.17422C15.48 7.27422 15.5509 7.38255 15.5925 7.49922C15.6342 7.61589 15.655 7.74089 15.655 7.87422C15.655 8.00755 15.6342 8.13255 15.5925 8.24922C15.5509 8.36589 15.48 8.47422 15.38 8.57422L8.78003 15.1742C8.5967 15.3576 8.36753 15.4492 8.09253 15.4492C7.81753 15.4492 7.58003 15.3576 7.38003 15.1742C7.18003 14.9742 7.08003 14.7367 7.08003 14.4617C7.08003 14.1867 7.18003 13.9492 7.38003 13.7492L12.255 8.87422L1.08003 8.87422C0.796696 8.87422 0.559196 8.77838 0.36753 8.58672C0.175863 8.39505 0.0800301 8.15755 0.0800301 7.87422C0.0800302 7.59088 0.175863 7.35338 0.36753 7.16172C0.559196 6.97005 0.796696 6.87422 1.08003 6.87422L12.255 6.87422Z" fill="#A2A2A2"/>
</svg>
