<svg width="24" height="8" viewBox="0 0 24 8" fill="none" xmlns="http://www.w3.org/2000/svg">
<path d="M0.333333 4C0.333333 5.47276 1.52724 6.66667 3 6.66667C4.47276 6.66667 5.66667 5.47276 5.66667 4C5.66667 2.52724 4.47276 1.33333 3 1.33333C1.52724 1.33333 0.333333 2.52724 0.333333 4ZM23.3536 4.35355C23.5488 4.15829 23.5488 3.84171 23.3536 3.64644L20.1716 0.464465C19.9763 0.269202 19.6597 0.269202 19.4645 0.464465C19.2692 0.659727 19.2692 0.976309 19.4645 1.17157L22.2929 4L19.4645 6.82843C19.2692 7.02369 19.2692 7.34027 19.4645 7.53553C19.6597 7.73079 19.9763 7.73079 20.1716 7.53553L23.3536 4.35355ZM3 4.5L23 4.5L23 3.5L3 3.5L3 4.5Z" fill="#2FCC71"/>
</svg>
