<svg width="11" height="12" viewBox="0 0 11 12" fill="none" xmlns="http://www.w3.org/2000/svg">
<path d="M10.3347 1.90489H7.97989L7.75489 1.43965C7.48477 0.884767 7.32013 0.554887 7.00489 0.314646C6.92989 0.25488 6.85489 0.209763 6.77989 0.17988C6.43477 8.94071e-08 6.08965 0 5.44513 0C4.80001 0 4.44025 5.36442e-08 4.07989 0.19512C4.00489 0.240237 3.92989 0.285354 3.85489 0.345121C3.525 0.600001 3.38964 0.915241 3.12012 1.51524L2.94024 1.92012H0.540241C0.24024 1.92012 0 2.16036 0 2.46036C0 2.76036 0.24024 3.0006 0.540241 3.0006H0.840241L1.14024 7.95061C1.23048 9.45061 1.27501 10.2006 1.71036 10.8305C1.92012 11.1457 2.20548 11.4006 2.53536 11.5957C3.16466 12 3.9299 12 5.42992 12C6.92993 12 7.67992 12 8.33962 11.5951C8.6695 11.4 8.93962 11.1451 9.16462 10.8299C9.58474 10.2 9.62986 9.45 9.72009 7.95003L10.0201 3.00002H10.3201C10.6201 3.00002 10.8603 2.75978 10.8603 2.45978C10.8896 2.15978 10.6347 1.90489 10.3347 1.90489ZM4.51459 1.20001C4.54447 1.18477 4.5597 1.17012 4.58959 1.15489C4.7097 1.09512 4.97983 1.09512 5.44447 1.09512C5.89447 1.09512 6.16459 1.09512 6.28471 1.15489C6.31459 1.17012 6.32983 1.18477 6.35971 1.20001C6.46459 1.27501 6.58471 1.51525 6.76459 1.90489H4.12489C4.30477 1.51523 4.40969 1.29023 4.51459 1.20001ZM8.63959 7.89032C8.56459 9.18056 8.51947 9.84032 8.24935 10.2153C8.11458 10.3952 7.94935 10.5604 7.75423 10.6806C7.36399 10.9208 6.71947 10.9208 5.41393 10.9208C4.10905 10.9208 3.46392 10.9208 3.07362 10.6806C2.8785 10.5604 2.71386 10.4104 2.5785 10.2153C2.32362 9.84032 2.2785 9.1952 2.2035 7.89032L1.9035 3.00001H8.90836L8.63959 7.89032Z" fill="#2FCC71"/>
<path d="M4.06368 8.99995C4.36368 8.99995 4.60392 8.75971 4.60392 8.45971V5.17501C4.60392 4.87501 4.36368 4.63477 4.06368 4.63477C3.76368 4.63477 3.52344 4.87501 3.52344 5.17501V8.44516C3.52402 8.75982 3.76368 8.99995 4.06368 8.99995Z" fill="#2FCC71"/>
<path d="M6.79473 8.99995C7.09473 8.99995 7.33497 8.75971 7.33497 8.45971L7.33439 5.17501C7.33439 4.87501 7.09415 4.63477 6.79415 4.63477C6.49415 4.63477 6.25391 4.87501 6.25391 5.17501V8.44516C6.25449 8.75982 6.49473 8.99995 6.79473 8.99995Z" fill="#2FCC71"/>
</svg>
