<svg width="22" height="16" viewBox="0 0 22 16" fill="none" xmlns="http://www.w3.org/2000/svg">
<path d="M7.73328 12.2L19.0333 0.9C19.2999 0.633333 19.6111 0.5 19.9666 0.5C20.3222 0.5 20.6333 0.633333 20.9 0.9C21.1666 1.16667 21.2999 1.48333 21.2999 1.85C21.2999 2.21667 21.1666 2.53333 20.9 2.8L8.66662 15.0667C8.39995 15.3333 8.08884 15.4667 7.73328 15.4667C7.37773 15.4667 7.06662 15.3333 6.79995 15.0667L1.06662 9.33333C0.799951 9.06667 0.672173 8.75 0.683284 8.38333C0.694395 8.01667 0.833284 7.7 1.09995 7.43333C1.36662 7.16667 1.68328 7.03333 2.04995 7.03333C2.41662 7.03333 2.73328 7.16667 2.99995 7.43333L7.73328 12.2Z" fill="white"/>
</svg>
