<svg width="14" height="14" viewBox="0 0 14 14" fill="none" xmlns="http://www.w3.org/2000/svg">
<path d="M6.99999 8.3998L2.09999 13.2998C1.91665 13.4831 1.68332 13.5748 1.39999 13.5748C1.11665 13.5748 0.883321 13.4831 0.699988 13.2998C0.516654 13.1165 0.424988 12.8831 0.424988 12.5998C0.424988 12.3165 0.516654 12.0831 0.699988 11.8998L5.59999 6.9998L0.699988 2.0998C0.516654 1.91647 0.424988 1.68314 0.424988 1.3998C0.424988 1.11647 0.516654 0.883138 0.699988 0.699805C0.883321 0.516471 1.11665 0.424805 1.39999 0.424805C1.68332 0.424805 1.91665 0.516471 2.09999 0.699805L6.99999 5.5998L11.9 0.699805C12.0833 0.516471 12.3167 0.424805 12.6 0.424805C12.8833 0.424805 13.1167 0.516471 13.3 0.699805C13.4833 0.883138 13.575 1.11647 13.575 1.3998C13.575 1.68314 13.4833 1.91647 13.3 2.0998L8.39999 6.9998L13.3 11.8998C13.4833 12.0831 13.575 12.3165 13.575 12.5998C13.575 12.8831 13.4833 13.1165 13.3 13.2998C13.1167 13.4831 12.8833 13.5748 12.6 13.5748C12.3167 13.5748 12.0833 13.4831 11.9 13.2998L6.99999 8.3998Z" fill="#A2A2A2"/>
</svg>
