<svg width="37" height="36" viewBox="0 0 37 36" fill="none" xmlns="http://www.w3.org/2000/svg">
<path d="M18.9228 0C9.92285 0 0.922852 2.3175 0.922852 6.75V22.5C0.922852 25.2562 4.54535 27.4725 10.8566 28.5862L11.2503 26.3362C5.3216 25.3237 3.17285 23.4787 3.17285 22.5V18.0675C5.73785 19.7887 10.1141 20.7787 14.3216 21.1725L14.5241 18.9225C6.7841 18.2137 3.17285 15.9412 3.17285 14.625V10.1925C6.41285 12.375 12.6903 13.5 18.9228 13.5C25.1553 13.5 31.4328 12.375 34.6728 10.1925V12.375H36.9228V6.75C36.9228 2.3175 27.9228 0 18.9228 0ZM18.9228 11.25C9.3041 11.25 3.17285 8.58375 3.17285 6.75C3.17285 4.91625 9.3041 2.25 18.9228 2.25C28.5416 2.25 34.6728 4.91625 34.6728 6.75C34.6728 8.58375 28.5416 11.25 18.9228 11.25Z" fill="#2FCC71"/>
<path d="M26.7979 15.75C24.7953 15.75 22.8378 16.3438 21.1727 17.4564C19.5077 18.5689 18.2099 20.1502 17.4436 22.0003C16.6772 23.8504 16.4767 25.8862 16.8674 27.8503C17.2581 29.8143 18.2224 31.6184 19.6384 33.0345C21.0544 34.4505 22.8585 35.4148 24.8226 35.8054C26.7866 36.1961 28.8224 35.9956 30.6725 35.2293C32.5226 34.4629 34.1039 33.1652 35.2165 31.5001C36.329 29.8351 36.9229 27.8775 36.9229 25.875C36.9229 23.1897 35.8561 20.6143 33.9573 18.7155C32.0585 16.8167 29.4832 15.75 26.7979 15.75ZM26.7979 33.75C25.2403 33.75 23.7178 33.2881 22.4227 32.4228C21.1277 31.5575 20.1183 30.3276 19.5223 28.8886C18.9263 27.4497 18.7703 25.8663 19.0742 24.3387C19.378 22.8111 20.1281 21.4079 21.2294 20.3065C22.3307 19.2052 23.7339 18.4552 25.2615 18.1513C26.7891 17.8475 28.3725 18.0034 29.8115 18.5994C31.2505 19.1955 32.4804 20.2048 33.3457 21.4999C34.211 22.7949 34.6729 24.3175 34.6729 25.875C34.6729 27.9636 33.8432 29.9666 32.3663 31.4435C30.8895 32.9203 28.8864 33.75 26.7979 33.75Z" fill="#FF4242"/>
<path d="M27.9229 20.25H25.6729V27H27.9229V20.25Z" fill="#FF4242"/>
<path d="M27.9229 29.25H25.6729V31.5H27.9229V29.25Z" fill="#FF4242"/>
</svg>
