<svg width="24" height="24" viewBox="0 0 24 24" fill="none" xmlns="http://www.w3.org/2000/svg">
<path d="M22.207 18.3153C23.3445 16.4803 24.0008 14.3166 24.0008 12.0004C24.0008 9.68427 23.3445 7.52043 22.207 5.68555L15.582 11.2068C15.6383 11.4631 15.667 11.7281 15.667 12.0006C15.667 12.2731 15.6383 12.5381 15.582 12.7943L22.207 18.3153Z" fill="#FDFDFD"/>
<path d="M21.0125 19.9238C18.8137 22.4226 15.5914 24 12 24C5.37248 24 0 18.6275 0 12C0 5.37248 5.37248 0 12 0C15.5914 0 18.8138 1.5775 21.0125 4.07616L14.6038 9.41728C13.9388 8.74726 13.0176 8.33354 12.0001 8.33354C9.97511 8.33354 8.33386 9.97478 8.33386 11.9998C8.33386 14.0248 9.97511 15.666 12.0001 15.666C13.0176 15.666 13.9388 15.251 14.6038 14.5823L21.0125 19.9238Z" fill="#FDFDFD"/>
<path d="M10.334 12C10.334 11.08 11.0802 10.3337 12.0002 10.3337C12.9202 10.3337 13.6665 11.08 13.6665 12C13.6665 12.92 12.9202 13.6662 12.0002 13.6662C11.0802 13.6662 10.334 12.92 10.334 12Z" fill="#FDFDFD"/>
</svg>
