<svg width="29" height="24" viewBox="0 0 29 24" fill="none" xmlns="http://www.w3.org/2000/svg">
<path d="M28.3201 13.4404H22.5601C22.2961 13.4404 22.0801 13.6564 22.0801 13.9204V18.2404V19.2004V23.5204C22.0801 23.7844 22.2961 24.0004 22.5601 24.0004H28.3201C28.5841 24.0004 28.8001 23.7844 28.8001 23.5204V13.9204C28.8001 13.6564 28.5841 13.4404 28.3201 13.4404Z" fill="#010101"/>
<path d="M0.0818917 10.3488C0.173093 10.4832 0.321892 10.56 0.4803 10.56H7.2003C7.36829 10.56 7.5267 10.4736 7.61309 10.3248L10.3491 5.7648V5.76H10.3539H14.4003V12.48H14.8803H15.3603V5.28C15.3603 5.01601 15.1443 4.8 14.8803 4.8H10.3539L7.61309 0.235195C7.5267 0.0863965 7.36829 0 7.2003 0H0.4803C0.321892 0 0.173093 0.0767871 0.0818917 0.211201C-0.00450484 0.340781 -0.0236943 0.508799 0.0339034 0.657598L1.88189 5.28L0.0339034 9.9024C-0.0236943 10.0512 -0.00450484 10.2192 0.0818917 10.3488Z" fill="#010101"/>
<path d="M19.2 18.2404V13.9204C19.2 13.6564 18.984 13.4404 18.72 13.4404H15.36H14.88H14.6112H14.4H0.48C0.216006 13.4404 0 13.6564 0 13.9204V23.5204C0 23.7844 0.216006 24.0004 0.48 24.0004H18.72C18.984 24.0004 19.2 23.7844 19.2 23.5204V19.2004H20.16H21.12V18.2404H20.16H19.2Z" fill="#010101"/>
</svg>
