<svg width="375" height="201" viewBox="0 0 375 201" fill="none" xmlns="http://www.w3.org/2000/svg">
<g clip-path="url(#clip0_568_11643)">
<g filter="url(#filter0_f_568_11643)">
<ellipse cx="187.234" cy="175.399" rx="82.0702" ry="91.1006" fill="#33DDA0"/>
</g>
<g clip-path="url(#clip1_568_11643)">
<g filter="url(#filter1_b_568_11643)">
<ellipse cx="161.75" cy="114.473" rx="161.75" ry="114.473" transform="matrix(-1 0 0 1 187.5 116.17)" fill="url(#paint0_linear_568_11643)" fill-opacity="0.4"/>
<path d="M-135.469 230.643C-135.469 262.036 -117.49 290.509 -88.3177 311.154C-59.1465 331.799 -18.8192 344.585 25.75 344.585C70.3192 344.585 110.646 331.799 139.818 311.154C168.99 290.509 186.969 262.036 186.969 230.643C186.969 199.251 168.99 170.778 139.818 150.132C110.646 129.487 70.3192 116.701 25.75 116.701C-18.8192 116.701 -59.1465 129.487 -88.3177 150.132C-117.49 170.778 -135.469 199.251 -135.469 230.643Z" stroke="url(#paint1_linear_568_11643)" stroke-width="1.0624"/>
</g>
<g filter="url(#filter2_b_568_11643)">
<ellipse cx="125.097" cy="114.473" rx="125.097" ry="114.473" transform="matrix(-1 0 0 1 187.5 116.17)" fill="url(#paint2_linear_568_11643)" fill-opacity="0.4"/>
<path d="M-62.1634 230.643C-62.1634 293.528 -6.4386 344.585 62.4027 344.585C131.244 344.585 186.969 293.528 186.969 230.643C186.969 167.758 131.244 116.701 62.4027 116.701C-6.4386 116.701 -62.1634 167.758 -62.1634 230.643Z" stroke="url(#paint3_linear_568_11643)" stroke-width="1.0624"/>
</g>
<g filter="url(#filter3_b_568_11643)">
<ellipse cx="95.8814" cy="114.473" rx="95.8814" ry="114.473" transform="matrix(-1 0 0 1 187.5 116.17)" fill="url(#paint4_linear_568_11643)" fill-opacity="0.4"/>
<path d="M-3.73152 230.643C-3.73152 293.664 39.0425 344.585 91.6186 344.585C144.195 344.585 186.969 293.664 186.969 230.643C186.969 167.623 144.195 116.701 91.6186 116.701C39.0425 116.701 -3.73152 167.623 -3.73152 230.643Z" stroke="url(#paint5_linear_568_11643)" stroke-width="1.0624"/>
</g>
<g filter="url(#filter4_b_568_11643)">
<ellipse cx="70.915" cy="114.473" rx="70.915" ry="114.473" transform="matrix(-1 0 0 1 187.5 116.17)" fill="url(#paint6_linear_568_11643)" fill-opacity="0.4"/>
<path d="M46.2012 230.643C46.2012 262.171 54.1189 290.689 66.8921 311.308C79.6703 331.935 97.2539 344.585 116.585 344.585C135.916 344.585 153.5 331.935 166.278 311.308C179.051 290.689 186.969 262.171 186.969 230.643C186.969 199.115 179.051 170.597 166.278 149.978C153.5 129.351 135.916 116.701 116.585 116.701C97.2539 116.701 79.6703 129.351 66.8921 149.978C54.1189 170.597 46.2012 199.115 46.2012 230.643Z" stroke="url(#paint7_linear_568_11643)" stroke-width="1.0624"/>
</g>
<g filter="url(#filter5_b_568_11643)">
<ellipse cx="54.7135" cy="114.473" rx="54.7135" ry="114.473" transform="matrix(-1 0 0 1 187.5 116.17)" fill="url(#paint8_linear_568_11643)" fill-opacity="0.4"/>
<path d="M78.6043 230.643C78.6043 262.193 84.7175 290.73 94.5775 311.359C104.456 332.027 118 344.585 132.787 344.585C147.573 344.585 161.117 332.027 170.996 311.359C180.856 290.73 186.969 262.193 186.969 230.643C186.969 199.094 180.856 170.557 170.996 149.927C161.117 129.259 147.573 116.701 132.787 116.701C118 116.701 104.456 129.259 94.5775 149.927C84.7175 170.557 78.6043 199.094 78.6043 230.643Z" stroke="url(#paint9_linear_568_11643)" stroke-width="1.0624"/>
</g>
<g filter="url(#filter6_b_568_11643)">
<ellipse cx="40.1055" cy="114.473" rx="40.1055" ry="114.473" transform="matrix(-1 0 0 1 187.5 116.17)" fill="url(#paint10_linear_568_11643)" fill-opacity="0.4"/>
<path d="M107.82 230.643C107.82 262.211 112.304 290.767 119.537 311.412C123.154 321.738 127.45 330.056 132.193 335.782C136.939 341.511 142.078 344.585 147.394 344.585C152.711 344.585 157.85 341.511 162.596 335.782C167.339 330.056 171.635 321.738 175.252 311.412C182.485 290.767 186.969 262.211 186.969 230.643C186.969 199.076 182.485 170.52 175.252 149.874C171.635 139.549 167.339 131.231 162.596 125.505C157.85 119.775 152.711 116.701 147.394 116.701C142.078 116.701 136.939 119.775 132.193 125.505C127.45 131.231 123.154 139.549 119.537 149.874C112.304 170.52 107.82 199.076 107.82 230.643Z" stroke="url(#paint11_linear_568_11643)" stroke-width="1.0624"/>
</g>
<g filter="url(#filter7_b_568_11643)">
<ellipse cx="27.3567" cy="114.473" rx="27.3567" ry="114.473" transform="matrix(-1 0 0 1 187.5 116.17)" fill="url(#paint12_linear_568_11643)" fill-opacity="0.4"/>
<path d="M133.318 230.643C133.318 262.225 136.377 290.8 141.316 311.465C143.786 321.801 146.719 330.129 149.957 335.859C153.219 341.633 156.682 344.585 160.143 344.585C163.605 344.585 167.067 341.633 170.329 335.859C173.567 330.129 176.501 321.801 178.971 311.465C183.909 290.8 186.969 262.225 186.969 230.643C186.969 199.061 183.909 170.486 178.971 149.822C176.501 139.485 173.567 131.158 170.329 125.427C167.067 119.654 163.605 116.701 160.143 116.701C156.682 116.701 153.219 119.654 149.957 125.427C146.719 131.158 143.786 139.485 141.316 149.822C136.377 170.486 133.318 199.061 133.318 230.643Z" stroke="url(#paint13_linear_568_11643)" stroke-width="1.0624"/>
</g>
<g filter="url(#filter8_b_568_11643)">
<ellipse cx="17.7952" cy="114.473" rx="17.7952" ry="114.473" transform="matrix(-1 0 0 1 187.5 116.17)" fill="url(#paint14_linear_568_11643)" fill-opacity="0.4"/>
<path d="M152.441 230.643C152.441 262.236 154.432 290.825 157.647 311.507C159.255 321.851 161.166 330.193 163.277 335.937C164.333 338.813 165.429 341.005 166.541 342.47C167.663 343.945 168.724 344.585 169.705 344.585C170.685 344.585 171.747 343.945 172.868 342.47C173.981 341.005 175.076 338.813 176.133 335.937C178.244 330.193 180.155 321.851 181.763 311.507C184.978 290.825 186.969 262.236 186.969 230.643C186.969 199.051 184.978 170.461 181.763 149.78C180.155 139.435 178.244 131.093 176.133 125.349C175.076 122.474 173.981 120.281 172.868 118.817C171.747 117.341 170.685 116.701 169.705 116.701C168.724 116.701 167.663 117.341 166.541 118.817C165.429 120.281 164.333 122.474 163.277 125.349C161.166 131.093 159.255 139.435 157.647 149.78C154.432 170.461 152.441 199.051 152.441 230.643Z" stroke="url(#paint15_linear_568_11643)" stroke-width="1.0624"/>
</g>
<g filter="url(#filter9_b_568_11643)">
<ellipse cx="349.25" cy="230.643" rx="161.75" ry="114.473" fill="url(#paint16_linear_568_11643)" fill-opacity="0.4"/>
<path d="M510.469 230.643C510.469 262.036 492.49 290.509 463.318 311.154C434.146 331.799 393.819 344.585 349.25 344.585C304.681 344.585 264.354 331.799 235.182 311.154C206.01 290.509 188.031 262.036 188.031 230.643C188.031 199.251 206.01 170.778 235.182 150.132C264.354 129.487 304.681 116.701 349.25 116.701C393.819 116.701 434.146 129.487 463.318 150.132C492.49 170.778 510.469 199.251 510.469 230.643Z" stroke="url(#paint17_linear_568_11643)" stroke-width="1.0624"/>
</g>
<g filter="url(#filter10_b_568_11643)">
<ellipse cx="312.597" cy="230.643" rx="125.097" ry="114.473" fill="url(#paint18_linear_568_11643)" fill-opacity="0.4"/>
<path d="M437.163 230.643C437.163 293.528 381.439 344.585 312.597 344.585C243.756 344.585 188.031 293.528 188.031 230.643C188.031 167.758 243.756 116.701 312.597 116.701C381.439 116.701 437.163 167.758 437.163 230.643Z" stroke="url(#paint19_linear_568_11643)" stroke-width="1.0624"/>
</g>
<g filter="url(#filter11_b_568_11643)">
<ellipse cx="283.381" cy="230.643" rx="95.8814" ry="114.473" fill="url(#paint20_linear_568_11643)" fill-opacity="0.4"/>
<path d="M378.732 230.643C378.732 293.664 335.958 344.585 283.381 344.585C230.805 344.585 188.031 293.664 188.031 230.643C188.031 167.623 230.805 116.701 283.381 116.701C335.958 116.701 378.732 167.623 378.732 230.643Z" stroke="url(#paint21_linear_568_11643)" stroke-width="1.0624"/>
</g>
<g filter="url(#filter12_b_568_11643)">
<ellipse cx="258.415" cy="230.643" rx="70.915" ry="114.473" fill="url(#paint22_linear_568_11643)" fill-opacity="0.4"/>
<path d="M328.799 230.643C328.799 262.171 320.881 290.689 308.108 311.308C295.33 331.935 277.746 344.585 258.415 344.585C239.084 344.585 221.5 331.935 208.722 311.308C195.949 290.689 188.031 262.171 188.031 230.643C188.031 199.115 195.949 170.597 208.722 149.978C221.5 129.351 239.084 116.701 258.415 116.701C277.746 116.701 295.33 129.351 308.108 149.978C320.881 170.597 328.799 199.115 328.799 230.643Z" stroke="url(#paint23_linear_568_11643)" stroke-width="1.0624"/>
</g>
<g filter="url(#filter13_b_568_11643)">
<ellipse cx="242.213" cy="230.643" rx="54.7135" ry="114.473" fill="url(#paint24_linear_568_11643)" fill-opacity="0.4"/>
<path d="M296.396 230.643C296.396 262.193 290.283 290.73 280.422 311.359C270.544 332.027 257 344.585 242.213 344.585C227.427 344.585 213.883 332.027 204.004 311.359C194.144 290.73 188.031 262.193 188.031 230.643C188.031 199.094 194.144 170.557 204.004 149.927C213.883 129.259 227.427 116.701 242.213 116.701C257 116.701 270.544 129.259 280.422 149.927C290.283 170.557 296.396 199.094 296.396 230.643Z" stroke="url(#paint25_linear_568_11643)" stroke-width="1.0624"/>
</g>
<g filter="url(#filter14_b_568_11643)">
<ellipse cx="227.605" cy="230.643" rx="40.1055" ry="114.473" fill="url(#paint26_linear_568_11643)" fill-opacity="0.4"/>
<path d="M267.18 230.643C267.18 262.211 262.696 290.767 255.463 311.412C251.846 321.738 247.55 330.056 242.807 335.782C238.061 341.511 232.922 344.585 227.606 344.585C222.289 344.585 217.15 341.511 212.404 335.782C207.661 330.056 203.365 321.738 199.748 311.412C192.515 290.767 188.031 262.211 188.031 230.643C188.031 199.076 192.515 170.52 199.748 149.874C203.365 139.549 207.661 131.231 212.404 125.505C217.15 119.775 222.289 116.701 227.606 116.701C232.922 116.701 238.061 119.775 242.807 125.505C247.55 131.231 251.846 139.549 255.463 149.874C262.696 170.52 267.18 199.076 267.18 230.643Z" stroke="url(#paint27_linear_568_11643)" stroke-width="1.0624"/>
</g>
<g filter="url(#filter15_b_568_11643)">
<ellipse cx="214.857" cy="230.643" rx="27.3567" ry="114.473" fill="url(#paint28_linear_568_11643)" fill-opacity="0.4"/>
<path d="M241.682 230.643C241.682 262.225 238.623 290.8 233.684 311.465C231.214 321.801 228.281 330.129 225.043 335.859C221.781 341.633 218.318 344.585 214.857 344.585C211.395 344.585 207.933 341.633 204.671 335.859C201.433 330.129 198.499 321.801 196.029 311.465C191.091 290.8 188.031 262.225 188.031 230.643C188.031 199.061 191.091 170.486 196.029 149.822C198.499 139.485 201.433 131.158 204.671 125.427C207.933 119.654 211.395 116.701 214.857 116.701C218.318 116.701 221.781 119.654 225.043 125.427C228.281 131.158 231.214 139.485 233.684 149.822C238.623 170.486 241.682 199.061 241.682 230.643Z" stroke="url(#paint29_linear_568_11643)" stroke-width="1.0624"/>
</g>
<g filter="url(#filter16_b_568_11643)">
<ellipse cx="205.295" cy="230.643" rx="17.7952" ry="114.473" fill="url(#paint30_linear_568_11643)" fill-opacity="0.4"/>
<path d="M222.559 230.643C222.559 262.236 220.568 290.825 217.353 311.507C215.745 321.851 213.834 330.193 211.723 335.937C210.667 338.813 209.571 341.005 208.459 342.47C207.337 343.945 206.276 344.585 205.295 344.585C204.315 344.585 203.253 343.945 202.132 342.47C201.019 341.005 199.924 338.813 198.867 335.937C196.756 330.193 194.845 321.851 193.237 311.507C190.022 290.825 188.031 262.236 188.031 230.643C188.031 199.051 190.022 170.461 193.237 149.78C194.845 139.435 196.756 131.093 198.867 125.349C199.924 122.474 201.019 120.281 202.132 118.817C203.253 117.341 204.315 116.701 205.295 116.701C206.276 116.701 207.337 117.341 208.459 118.817C209.571 120.281 210.667 122.474 211.723 125.349C213.834 131.093 215.745 139.435 217.353 149.78C220.568 170.461 222.559 199.051 222.559 230.643Z" stroke="url(#paint31_linear_568_11643)" stroke-width="1.0624"/>
</g>
</g>
</g>
<defs>
<filter id="filter0_f_568_11643" x="11.2481" y="-9.61711" width="351.973" height="370.033" filterUnits="userSpaceOnUse" color-interpolation-filters="sRGB">
<feFlood flood-opacity="0" result="BackgroundImageFix"/>
<feBlend mode="normal" in="SourceGraphic" in2="BackgroundImageFix" result="shape"/>
<feGaussianBlur stdDeviation="46.958" result="effect1_foregroundBlur_568_11643"/>
</filter>
<filter id="filter1_b_568_11643" x="-138.125" y="114.045" width="327.75" height="233.197" filterUnits="userSpaceOnUse" color-interpolation-filters="sRGB">
<feFlood flood-opacity="0" result="BackgroundImageFix"/>
<feGaussianBlur in="BackgroundImageFix" stdDeviation="1.0624"/>
<feComposite in2="SourceAlpha" operator="in" result="effect1_backgroundBlur_568_11643"/>
<feBlend mode="normal" in="SourceGraphic" in2="effect1_backgroundBlur_568_11643" result="shape"/>
</filter>
<filter id="filter2_b_568_11643" x="-64.8191" y="114.045" width="254.444" height="233.197" filterUnits="userSpaceOnUse" color-interpolation-filters="sRGB">
<feFlood flood-opacity="0" result="BackgroundImageFix"/>
<feGaussianBlur in="BackgroundImageFix" stdDeviation="1.0624"/>
<feComposite in2="SourceAlpha" operator="in" result="effect1_backgroundBlur_568_11643"/>
<feBlend mode="normal" in="SourceGraphic" in2="effect1_backgroundBlur_568_11643" result="shape"/>
</filter>
<filter id="filter3_b_568_11643" x="-6.38749" y="114.045" width="196.012" height="233.197" filterUnits="userSpaceOnUse" color-interpolation-filters="sRGB">
<feFlood flood-opacity="0" result="BackgroundImageFix"/>
<feGaussianBlur in="BackgroundImageFix" stdDeviation="1.0624"/>
<feComposite in2="SourceAlpha" operator="in" result="effect1_backgroundBlur_568_11643"/>
<feBlend mode="normal" in="SourceGraphic" in2="effect1_backgroundBlur_568_11643" result="shape"/>
</filter>
<filter id="filter4_b_568_11643" x="43.5451" y="114.045" width="146.08" height="233.197" filterUnits="userSpaceOnUse" color-interpolation-filters="sRGB">
<feFlood flood-opacity="0" result="BackgroundImageFix"/>
<feGaussianBlur in="BackgroundImageFix" stdDeviation="1.0624"/>
<feComposite in2="SourceAlpha" operator="in" result="effect1_backgroundBlur_568_11643"/>
<feBlend mode="normal" in="SourceGraphic" in2="effect1_backgroundBlur_568_11643" result="shape"/>
</filter>
<filter id="filter5_b_568_11643" x="75.9484" y="114.045" width="113.676" height="233.197" filterUnits="userSpaceOnUse" color-interpolation-filters="sRGB">
<feFlood flood-opacity="0" result="BackgroundImageFix"/>
<feGaussianBlur in="BackgroundImageFix" stdDeviation="1.0624"/>
<feComposite in2="SourceAlpha" operator="in" result="effect1_backgroundBlur_568_11643"/>
<feBlend mode="normal" in="SourceGraphic" in2="effect1_backgroundBlur_568_11643" result="shape"/>
</filter>
<filter id="filter6_b_568_11643" x="105.164" y="114.045" width="84.4605" height="233.197" filterUnits="userSpaceOnUse" color-interpolation-filters="sRGB">
<feFlood flood-opacity="0" result="BackgroundImageFix"/>
<feGaussianBlur in="BackgroundImageFix" stdDeviation="1.0624"/>
<feComposite in2="SourceAlpha" operator="in" result="effect1_backgroundBlur_568_11643"/>
<feBlend mode="normal" in="SourceGraphic" in2="effect1_backgroundBlur_568_11643" result="shape"/>
</filter>
<filter id="filter7_b_568_11643" x="130.661" y="114.045" width="58.9635" height="233.197" filterUnits="userSpaceOnUse" color-interpolation-filters="sRGB">
<feFlood flood-opacity="0" result="BackgroundImageFix"/>
<feGaussianBlur in="BackgroundImageFix" stdDeviation="1.0624"/>
<feComposite in2="SourceAlpha" operator="in" result="effect1_backgroundBlur_568_11643"/>
<feBlend mode="normal" in="SourceGraphic" in2="effect1_backgroundBlur_568_11643" result="shape"/>
</filter>
<filter id="filter8_b_568_11643" x="149.785" y="114.045" width="39.8394" height="233.197" filterUnits="userSpaceOnUse" color-interpolation-filters="sRGB">
<feFlood flood-opacity="0" result="BackgroundImageFix"/>
<feGaussianBlur in="BackgroundImageFix" stdDeviation="1.0624"/>
<feComposite in2="SourceAlpha" operator="in" result="effect1_backgroundBlur_568_11643"/>
<feBlend mode="normal" in="SourceGraphic" in2="effect1_backgroundBlur_568_11643" result="shape"/>
</filter>
<filter id="filter9_b_568_11643" x="185.375" y="114.045" width="327.75" height="233.197" filterUnits="userSpaceOnUse" color-interpolation-filters="sRGB">
<feFlood flood-opacity="0" result="BackgroundImageFix"/>
<feGaussianBlur in="BackgroundImageFix" stdDeviation="1.0624"/>
<feComposite in2="SourceAlpha" operator="in" result="effect1_backgroundBlur_568_11643"/>
<feBlend mode="normal" in="SourceGraphic" in2="effect1_backgroundBlur_568_11643" result="shape"/>
</filter>
<filter id="filter10_b_568_11643" x="185.375" y="114.045" width="254.444" height="233.197" filterUnits="userSpaceOnUse" color-interpolation-filters="sRGB">
<feFlood flood-opacity="0" result="BackgroundImageFix"/>
<feGaussianBlur in="BackgroundImageFix" stdDeviation="1.0624"/>
<feComposite in2="SourceAlpha" operator="in" result="effect1_backgroundBlur_568_11643"/>
<feBlend mode="normal" in="SourceGraphic" in2="effect1_backgroundBlur_568_11643" result="shape"/>
</filter>
<filter id="filter11_b_568_11643" x="185.375" y="114.045" width="196.012" height="233.197" filterUnits="userSpaceOnUse" color-interpolation-filters="sRGB">
<feFlood flood-opacity="0" result="BackgroundImageFix"/>
<feGaussianBlur in="BackgroundImageFix" stdDeviation="1.0624"/>
<feComposite in2="SourceAlpha" operator="in" result="effect1_backgroundBlur_568_11643"/>
<feBlend mode="normal" in="SourceGraphic" in2="effect1_backgroundBlur_568_11643" result="shape"/>
</filter>
<filter id="filter12_b_568_11643" x="185.375" y="114.045" width="146.08" height="233.197" filterUnits="userSpaceOnUse" color-interpolation-filters="sRGB">
<feFlood flood-opacity="0" result="BackgroundImageFix"/>
<feGaussianBlur in="BackgroundImageFix" stdDeviation="1.0624"/>
<feComposite in2="SourceAlpha" operator="in" result="effect1_backgroundBlur_568_11643"/>
<feBlend mode="normal" in="SourceGraphic" in2="effect1_backgroundBlur_568_11643" result="shape"/>
</filter>
<filter id="filter13_b_568_11643" x="185.375" y="114.045" width="113.676" height="233.197" filterUnits="userSpaceOnUse" color-interpolation-filters="sRGB">
<feFlood flood-opacity="0" result="BackgroundImageFix"/>
<feGaussianBlur in="BackgroundImageFix" stdDeviation="1.0624"/>
<feComposite in2="SourceAlpha" operator="in" result="effect1_backgroundBlur_568_11643"/>
<feBlend mode="normal" in="SourceGraphic" in2="effect1_backgroundBlur_568_11643" result="shape"/>
</filter>
<filter id="filter14_b_568_11643" x="185.375" y="114.045" width="84.4605" height="233.197" filterUnits="userSpaceOnUse" color-interpolation-filters="sRGB">
<feFlood flood-opacity="0" result="BackgroundImageFix"/>
<feGaussianBlur in="BackgroundImageFix" stdDeviation="1.0624"/>
<feComposite in2="SourceAlpha" operator="in" result="effect1_backgroundBlur_568_11643"/>
<feBlend mode="normal" in="SourceGraphic" in2="effect1_backgroundBlur_568_11643" result="shape"/>
</filter>
<filter id="filter15_b_568_11643" x="185.375" y="114.045" width="58.9635" height="233.197" filterUnits="userSpaceOnUse" color-interpolation-filters="sRGB">
<feFlood flood-opacity="0" result="BackgroundImageFix"/>
<feGaussianBlur in="BackgroundImageFix" stdDeviation="1.0624"/>
<feComposite in2="SourceAlpha" operator="in" result="effect1_backgroundBlur_568_11643"/>
<feBlend mode="normal" in="SourceGraphic" in2="effect1_backgroundBlur_568_11643" result="shape"/>
</filter>
<filter id="filter16_b_568_11643" x="185.375" y="114.045" width="39.8394" height="233.197" filterUnits="userSpaceOnUse" color-interpolation-filters="sRGB">
<feFlood flood-opacity="0" result="BackgroundImageFix"/>
<feGaussianBlur in="BackgroundImageFix" stdDeviation="1.0624"/>
<feComposite in2="SourceAlpha" operator="in" result="effect1_backgroundBlur_568_11643"/>
<feBlend mode="normal" in="SourceGraphic" in2="effect1_backgroundBlur_568_11643" result="shape"/>
</filter>
<linearGradient id="paint0_linear_568_11643" x1="323.5" y1="114.473" x2="0" y2="114.473" gradientUnits="userSpaceOnUse">
<stop stop-color="#444444"/>
<stop offset="0.66" stop-color="#1E1E1E"/>
</linearGradient>
<linearGradient id="paint1_linear_568_11643" x1="-136" y1="230.643" x2="187.5" y2="230.643" gradientUnits="userSpaceOnUse">
<stop stop-color="#666666"/>
<stop offset="0.65" stop-color="#0A0A0A"/>
</linearGradient>
<linearGradient id="paint2_linear_568_11643" x1="250.195" y1="114.473" x2="0" y2="114.473" gradientUnits="userSpaceOnUse">
<stop stop-color="#444444"/>
<stop offset="0.66" stop-color="#1E1E1E"/>
</linearGradient>
<linearGradient id="paint3_linear_568_11643" x1="-62.6946" y1="230.643" x2="187.5" y2="230.643" gradientUnits="userSpaceOnUse">
<stop stop-color="#666666"/>
<stop offset="0.65" stop-color="#0A0A0A"/>
</linearGradient>
<linearGradient id="paint4_linear_568_11643" x1="191.763" y1="114.473" x2="0" y2="114.473" gradientUnits="userSpaceOnUse">
<stop stop-color="#444444"/>
<stop offset="0.66" stop-color="#1E1E1E"/>
</linearGradient>
<linearGradient id="paint5_linear_568_11643" x1="-4.26273" y1="230.643" x2="187.5" y2="230.643" gradientUnits="userSpaceOnUse">
<stop stop-color="#666666"/>
<stop offset="0.65" stop-color="#0A0A0A"/>
</linearGradient>
<linearGradient id="paint6_linear_568_11643" x1="141.83" y1="114.473" x2="0" y2="114.473" gradientUnits="userSpaceOnUse">
<stop stop-color="#444444"/>
<stop offset="0.66" stop-color="#1E1E1E"/>
</linearGradient>
<linearGradient id="paint7_linear_568_11643" x1="45.67" y1="230.643" x2="187.5" y2="230.643" gradientUnits="userSpaceOnUse">
<stop stop-color="#666666"/>
<stop offset="0.65" stop-color="#0A0A0A"/>
</linearGradient>
<linearGradient id="paint8_linear_568_11643" x1="109.427" y1="114.473" x2="0" y2="114.473" gradientUnits="userSpaceOnUse">
<stop stop-color="#444444"/>
<stop offset="0.66" stop-color="#1E1E1E"/>
</linearGradient>
<linearGradient id="paint9_linear_568_11643" x1="78.0731" y1="230.643" x2="187.5" y2="230.643" gradientUnits="userSpaceOnUse">
<stop stop-color="#666666"/>
<stop offset="0.65" stop-color="#0A0A0A"/>
</linearGradient>
<linearGradient id="paint10_linear_568_11643" x1="80.211" y1="114.473" x2="0" y2="114.473" gradientUnits="userSpaceOnUse">
<stop stop-color="#444444"/>
<stop offset="0.66" stop-color="#1E1E1E"/>
</linearGradient>
<linearGradient id="paint11_linear_568_11643" x1="107.289" y1="230.643" x2="187.5" y2="230.643" gradientUnits="userSpaceOnUse">
<stop stop-color="#666666"/>
<stop offset="0.65" stop-color="#0A0A0A"/>
</linearGradient>
<linearGradient id="paint12_linear_568_11643" x1="54.7135" y1="114.473" x2="0" y2="114.473" gradientUnits="userSpaceOnUse">
<stop stop-color="#444444"/>
<stop offset="0.66" stop-color="#1E1E1E"/>
</linearGradient>
<linearGradient id="paint13_linear_568_11643" x1="132.787" y1="230.643" x2="187.5" y2="230.643" gradientUnits="userSpaceOnUse">
<stop stop-color="#666666"/>
<stop offset="0.65" stop-color="#0A0A0A"/>
</linearGradient>
<linearGradient id="paint14_linear_568_11643" x1="35.5903" y1="114.473" x2="0" y2="114.473" gradientUnits="userSpaceOnUse">
<stop stop-color="#444444"/>
<stop offset="0.66" stop-color="#1E1E1E"/>
</linearGradient>
<linearGradient id="paint15_linear_568_11643" x1="151.91" y1="230.643" x2="187.5" y2="230.643" gradientUnits="userSpaceOnUse">
<stop stop-color="#666666"/>
<stop offset="0.65" stop-color="#0A0A0A"/>
</linearGradient>
<linearGradient id="paint16_linear_568_11643" x1="511" y1="230.643" x2="187.5" y2="230.643" gradientUnits="userSpaceOnUse">
<stop stop-color="#444444"/>
<stop offset="0.66" stop-color="#1E1E1E"/>
</linearGradient>
<linearGradient id="paint17_linear_568_11643" x1="511" y1="230.643" x2="187.5" y2="230.643" gradientUnits="userSpaceOnUse">
<stop stop-color="#666666"/>
<stop offset="0.65" stop-color="#0A0A0A"/>
</linearGradient>
<linearGradient id="paint18_linear_568_11643" x1="437.695" y1="230.643" x2="187.5" y2="230.643" gradientUnits="userSpaceOnUse">
<stop stop-color="#444444"/>
<stop offset="0.66" stop-color="#1E1E1E"/>
</linearGradient>
<linearGradient id="paint19_linear_568_11643" x1="437.695" y1="230.643" x2="187.5" y2="230.643" gradientUnits="userSpaceOnUse">
<stop stop-color="#666666"/>
<stop offset="0.65" stop-color="#0A0A0A"/>
</linearGradient>
<linearGradient id="paint20_linear_568_11643" x1="379.263" y1="230.643" x2="187.5" y2="230.643" gradientUnits="userSpaceOnUse">
<stop stop-color="#444444"/>
<stop offset="0.66" stop-color="#1E1E1E"/>
</linearGradient>
<linearGradient id="paint21_linear_568_11643" x1="379.263" y1="230.643" x2="187.5" y2="230.643" gradientUnits="userSpaceOnUse">
<stop stop-color="#666666"/>
<stop offset="0.65" stop-color="#0A0A0A"/>
</linearGradient>
<linearGradient id="paint22_linear_568_11643" x1="329.33" y1="230.643" x2="187.5" y2="230.643" gradientUnits="userSpaceOnUse">
<stop stop-color="#444444"/>
<stop offset="0.66" stop-color="#1E1E1E"/>
</linearGradient>
<linearGradient id="paint23_linear_568_11643" x1="329.33" y1="230.643" x2="187.5" y2="230.643" gradientUnits="userSpaceOnUse">
<stop stop-color="#666666"/>
<stop offset="0.65" stop-color="#0A0A0A"/>
</linearGradient>
<linearGradient id="paint24_linear_568_11643" x1="296.927" y1="230.643" x2="187.5" y2="230.643" gradientUnits="userSpaceOnUse">
<stop stop-color="#444444"/>
<stop offset="0.66" stop-color="#1E1E1E"/>
</linearGradient>
<linearGradient id="paint25_linear_568_11643" x1="296.927" y1="230.643" x2="187.5" y2="230.643" gradientUnits="userSpaceOnUse">
<stop stop-color="#666666"/>
<stop offset="0.65" stop-color="#0A0A0A"/>
</linearGradient>
<linearGradient id="paint26_linear_568_11643" x1="267.711" y1="230.643" x2="187.5" y2="230.643" gradientUnits="userSpaceOnUse">
<stop stop-color="#444444"/>
<stop offset="0.66" stop-color="#1E1E1E"/>
</linearGradient>
<linearGradient id="paint27_linear_568_11643" x1="267.711" y1="230.643" x2="187.5" y2="230.643" gradientUnits="userSpaceOnUse">
<stop stop-color="#666666"/>
<stop offset="0.65" stop-color="#0A0A0A"/>
</linearGradient>
<linearGradient id="paint28_linear_568_11643" x1="242.213" y1="230.643" x2="187.5" y2="230.643" gradientUnits="userSpaceOnUse">
<stop stop-color="#444444"/>
<stop offset="0.66" stop-color="#1E1E1E"/>
</linearGradient>
<linearGradient id="paint29_linear_568_11643" x1="242.213" y1="230.643" x2="187.5" y2="230.643" gradientUnits="userSpaceOnUse">
<stop stop-color="#666666"/>
<stop offset="0.65" stop-color="#0A0A0A"/>
</linearGradient>
<linearGradient id="paint30_linear_568_11643" x1="223.09" y1="230.643" x2="187.5" y2="230.643" gradientUnits="userSpaceOnUse">
<stop stop-color="#444444"/>
<stop offset="0.66" stop-color="#1E1E1E"/>
</linearGradient>
<linearGradient id="paint31_linear_568_11643" x1="223.09" y1="230.643" x2="187.5" y2="230.643" gradientUnits="userSpaceOnUse">
<stop stop-color="#666666"/>
<stop offset="0.65" stop-color="#0A0A0A"/>
</linearGradient>
<clipPath id="clip0_568_11643">
<rect width="375" height="201" fill="white"/>
</clipPath>
<clipPath id="clip1_568_11643">
<rect width="647" height="84.9918" fill="white" transform="translate(-136 116.17)"/>
</clipPath>
</defs>
</svg>
