<svg width="32" height="32" viewBox="0 0 32 32" fill="none" xmlns="http://www.w3.org/2000/svg">
<path d="M6.40023 12.8006C6.40023 7.49813 10.6974 3.20092 15.9999 3.20092C21.3024 3.20092 25.5996 7.49813 25.5996 12.8006V16.273C23.7352 16.9315 22.4002 18.7105 22.4002 20.7998V27.2002C22.4002 29.8506 24.5482 32 27.2001 32C29.8505 32 31.9999 29.8506 31.9999 27.2002V20.7998C31.9999 18.7104 30.6635 16.9316 28.799 16.273V12.8006C28.799 5.7314 23.0692 0 16 0C8.93075 0 3.20088 5.7314 3.20088 12.8006V16.273C1.33643 16.9315 0 18.7105 0 20.7998V27.2002C0 29.8506 2.14945 32 4.79985 32C7.45174 32 9.59969 29.8506 9.59969 27.2002V20.7998C9.59969 18.7104 8.26472 16.9316 6.40031 16.273L6.40023 12.8006Z" fill="white"/>
</svg>
