<svg width="196" height="200" viewBox="0 0 196 200" fill="none" xmlns="http://www.w3.org/2000/svg">
<rect x="62.9453" y="65.0215" width="70.0375" height="70.9472" fill="url(#paint0_linear_38_1856)"/>
<path d="M126.459 59.166L126.459 46.2045L146.242 26.4211L146.242 13.687L142.376 9.82129" stroke="url(#paint1_linear_38_1856)" stroke-width="0.454789"/>
<rect width="3.18352" height="0.90958" transform="matrix(-1 -8.7423e-08 -8.74226e-08 1 128.05 60.7588)" fill="#33DDA0"/>
<rect width="2.27394" height="1.81916" transform="matrix(-1 -8.7423e-08 -8.74226e-08 1 127.597 58.9385)" fill="#33DDA0"/>
<rect width="3.18352" height="0.90958" transform="matrix(-1 -8.7423e-08 -8.74226e-08 1 121.683 60.7588)" fill="#33DDA0"/>
<rect width="2.27394" height="1.81916" transform="matrix(-1 -8.7423e-08 -8.74226e-08 1 121.229 58.9385)" fill="#33DDA0"/>
<rect width="3.18352" height="0.90958" transform="matrix(-1 -8.7423e-08 -8.74226e-08 1 115.318 60.7588)" fill="#33DDA0"/>
<rect width="2.27394" height="1.81916" transform="matrix(-1 -8.7423e-08 -8.74226e-08 1 114.865 58.9385)" fill="#33DDA0"/>
<rect width="3.18352" height="0.90958" transform="matrix(-1 -8.7423e-08 -8.74226e-08 1 108.948 60.7588)" fill="#33DDA0"/>
<rect width="2.27394" height="1.81916" transform="matrix(-1 -8.7423e-08 -8.74226e-08 1 108.495 58.9385)" fill="#33DDA0"/>
<rect width="3.18352" height="0.90958" transform="matrix(-1 -8.7423e-08 -8.74226e-08 1 102.128 60.7588)" fill="#33DDA0"/>
<rect width="2.27394" height="1.81916" transform="matrix(-1 -8.7423e-08 -8.74226e-08 1 101.675 58.9385)" fill="#33DDA0"/>
<rect width="3.18352" height="0.90958" transform="matrix(-1 -8.7423e-08 -8.74226e-08 1 95.7593 60.7588)" fill="#33DDA0"/>
<rect width="2.27394" height="1.81916" transform="matrix(-1 -8.7423e-08 -8.74226e-08 1 95.3062 58.9385)" fill="#33DDA0"/>
<rect width="3.18352" height="0.90958" transform="matrix(-1 -8.7423e-08 -8.74226e-08 1 89.3936 60.7588)" fill="#33DDA0"/>
<rect width="2.27394" height="1.81916" transform="matrix(-1 -8.7423e-08 -8.74226e-08 1 88.9404 58.9385)" fill="#33DDA0"/>
<rect width="3.18352" height="0.90958" transform="matrix(-1 -8.7423e-08 -8.74226e-08 1 83.0264 60.7588)" fill="#33DDA0"/>
<rect width="2.27394" height="1.81916" transform="matrix(-1 -8.7423e-08 -8.74226e-08 1 82.5732 58.9385)" fill="#33DDA0"/>
<rect width="3.18352" height="0.90958" transform="matrix(-1 -8.7423e-08 -8.74226e-08 1 76.2075 60.7588)" fill="#33DDA0"/>
<rect width="2.27394" height="1.81916" transform="matrix(-1 -8.7423e-08 -8.74226e-08 1 75.7544 58.9385)" fill="#33DDA0"/>
<rect width="3.18352" height="0.90958" transform="matrix(-1 -8.7423e-08 -8.74226e-08 1 70.2891 60.7588)" fill="#33DDA0"/>
<rect width="2.27394" height="1.81916" transform="matrix(-1 -8.7423e-08 -8.74226e-08 1 69.8359 58.9385)" fill="#33DDA0"/>
<ellipse cx="1.13697" cy="1.13697" rx="1.13697" ry="1.13697" transform="matrix(-1 -8.7423e-08 -8.74226e-08 1 127.595 54.8477)" fill="#74FFD1"/>
<path d="M94.394 58.9398L94.394 48.2523L87.1174 41.203L87.1174 28.2415L90.5283 25.2854L90.5283 11.6417L80.7504 2.5459" stroke="url(#paint2_linear_38_1856)" stroke-width="0.454789"/>
<path d="M94.394 58.9398L94.394 48.2523L87.1174 41.203L87.1174 28.2415L90.5283 25.2854L90.5283 11.6417L80.7504 2.5459" stroke="url(#paint3_linear_38_1856)" stroke-width="0.454789"/>
<path d="M100.761 58.9387L100.761 46.432L94.6211 40.5197L94.6211 0.725585" stroke="url(#paint4_linear_38_1856)" stroke-width="0.454789"/>
<path d="M100.761 58.9387L100.761 46.432L94.6211 40.5197L94.6211 0.725585" stroke="url(#paint5_linear_38_1856)" stroke-width="0.454789"/>
<path d="M87.8003 58.9394L87.8003 49.8436L79.6141 41.6574L79.6141 13.6878L74.1566 8.00293" stroke="url(#paint6_linear_38_1856)" stroke-width="0.454789"/>
<path d="M87.8003 58.9394L87.8003 49.8436L79.6141 41.6574L79.6141 13.6878L74.1566 8.00293" stroke="url(#paint7_linear_38_1856)" stroke-width="0.454789"/>
<path d="M107.586 58.9398L107.586 43.4769L103.038 38.7016L103.038 24.8305L109.405 18.4635L109.405 7.09375" stroke="url(#paint8_linear_38_1856)" stroke-width="0.454789"/>
<path d="M107.586 58.9398L107.586 43.4769L103.038 38.7016L103.038 24.8305L109.405 18.4635L109.405 7.09375" stroke="url(#paint9_linear_38_1856)" stroke-width="0.454789"/>
<path d="M120.091 58.9369L120.091 39.381L134.417 24.8277L134.417 10.2744" stroke="url(#paint10_linear_38_1856)" stroke-width="0.454789"/>
<path d="M120.091 58.9369L120.091 39.381L134.417 24.8277L134.417 10.2744" stroke="url(#paint11_linear_38_1856)" stroke-width="0.454789"/>
<path d="M113.726 59.1684L113.726 41.4316L109.861 38.0207L109.861 30.9715L119.411 22.1031L119.411 7.5498" stroke="url(#paint12_linear_38_1856)" stroke-width="0.454789"/>
<path d="M113.726 59.1684L113.726 41.4316L109.861 38.0207L109.861 30.9715L119.411 22.1031L119.411 7.5498" stroke="url(#paint13_linear_38_1856)" stroke-width="0.454789"/>
<path d="M81.4355 59.1647L81.4355 48.4771L74.1589 40.9731L74.1589 20.7349L67.1097 13.9131" stroke="url(#paint14_linear_38_1856)" stroke-width="0.454789"/>
<path d="M81.4355 59.1647L81.4355 48.4771L74.1589 40.9731L74.1589 20.7349L67.1097 13.9131" stroke="url(#paint15_linear_38_1856)" stroke-width="0.454789"/>
<path d="M74.6128 58.94L74.6128 48.0251L63.4705 36.8827L63.4705 30.9704L67.5636 27.1047L67.5636 20.2829L60.287 13.0062L60.287 4.36523" stroke="url(#paint16_linear_38_1856)" stroke-width="0.454789"/>
<path d="M74.6128 58.94L74.6128 48.0251L63.4705 36.8827L63.4705 30.9704L67.5636 27.1047L67.5636 20.2829L60.287 13.0062L60.287 4.36523" stroke="url(#paint17_linear_38_1856)" stroke-width="0.454789"/>
<path d="M68.4756 58.9409L68.4756 46.2068L50.9662 29.3796L50.9662 15.9633L43.4622 8.91406" stroke="url(#paint18_linear_38_1856)" stroke-width="0.454789"/>
<path d="M68.4756 58.9409L68.4756 46.2068L50.9662 29.3796L50.9662 15.9633L43.4622 8.91406" stroke="url(#paint19_linear_38_1856)" stroke-width="0.454789"/>
<ellipse cx="1.13697" cy="1.13697" rx="1.13697" ry="1.13697" transform="matrix(-1 -8.7423e-08 -8.74226e-08 1 69.8379 54.8477)" fill="#B5FFFF"/>
<ellipse cx="1.13697" cy="1.13697" rx="1.13697" ry="1.13697" transform="matrix(-1 -8.7423e-08 -8.74226e-08 1 108.495 54.8477)" fill="#B5FFFF"/>
<ellipse cx="1.13697" cy="1.13697" rx="1.13697" ry="1.13697" transform="matrix(-1 -8.7423e-08 -8.74226e-08 1 101.673 54.8477)" fill="#B5FFFF"/>
<ellipse cx="1.13697" cy="1.13697" rx="1.13697" ry="1.13697" transform="matrix(-1 -8.7423e-08 -8.74226e-08 1 95.3047 54.8477)" fill="#B5FFFF"/>
<ellipse cx="1.13697" cy="1.13697" rx="1.13697" ry="1.13697" transform="matrix(-1 -8.7423e-08 -8.74226e-08 1 88.9385 54.8477)" fill="#B5FFFF"/>
<ellipse cx="1.13697" cy="1.13697" rx="1.13697" ry="1.13697" transform="matrix(-1 -8.7423e-08 -8.74226e-08 1 82.5723 54.8477)" fill="#B5FFFF"/>
<ellipse cx="1.13697" cy="1.13697" rx="1.13697" ry="1.13697" transform="matrix(-1 -8.7423e-08 -8.74226e-08 1 75.751 54.8477)" fill="#B5FFFF"/>
<ellipse cx="1.13697" cy="1.13697" rx="1.13697" ry="1.13697" transform="matrix(-1 -8.7423e-08 -8.74226e-08 1 114.862 54.8477)" fill="#B5FFFF"/>
<ellipse cx="1.13697" cy="1.13697" rx="1.13697" ry="1.13697" transform="matrix(-1 -8.7423e-08 -8.74226e-08 1 121.228 54.8477)" fill="#B5FFFF"/>
<path d="M126.459 140.604L126.459 153.565L146.242 173.348L146.242 186.083L142.376 189.948" stroke="url(#paint20_linear_38_1856)" stroke-width="0.454789"/>
<rect x="128.05" y="139.012" width="3.18352" height="0.90958" transform="rotate(180 128.05 139.012)" fill="#33DDA0"/>
<rect x="127.597" y="140.832" width="2.27394" height="1.81916" transform="rotate(180 127.597 140.832)" fill="#33DDA0"/>
<rect x="121.683" y="139.012" width="3.18352" height="0.90958" transform="rotate(180 121.683 139.012)" fill="#33DDA0"/>
<rect x="121.229" y="140.832" width="2.27394" height="1.81916" transform="rotate(180 121.229 140.832)" fill="#33DDA0"/>
<rect x="115.318" y="139.012" width="3.18352" height="0.90958" transform="rotate(180 115.318 139.012)" fill="#33DDA0"/>
<rect x="114.865" y="140.832" width="2.27394" height="1.81916" transform="rotate(180 114.865 140.832)" fill="#33DDA0"/>
<rect x="108.948" y="139.012" width="3.18352" height="0.90958" transform="rotate(180 108.948 139.012)" fill="#33DDA0"/>
<rect x="108.495" y="140.832" width="2.27394" height="1.81916" transform="rotate(180 108.495 140.832)" fill="#33DDA0"/>
<rect x="102.128" y="139.012" width="3.18352" height="0.90958" transform="rotate(180 102.128 139.012)" fill="#33DDA0"/>
<rect x="101.675" y="140.832" width="2.27394" height="1.81916" transform="rotate(180 101.675 140.832)" fill="#33DDA0"/>
<rect x="95.7593" y="139.012" width="3.18352" height="0.90958" transform="rotate(180 95.7593 139.012)" fill="#33DDA0"/>
<rect x="95.3062" y="140.832" width="2.27394" height="1.81916" transform="rotate(180 95.3062 140.832)" fill="#33DDA0"/>
<rect x="89.3936" y="139.012" width="3.18352" height="0.90958" transform="rotate(180 89.3936 139.012)" fill="#33DDA0"/>
<rect x="88.9404" y="140.832" width="2.27394" height="1.81916" transform="rotate(180 88.9404 140.832)" fill="#33DDA0"/>
<rect x="83.0264" y="139.012" width="3.18352" height="0.90958" transform="rotate(180 83.0264 139.012)" fill="#33DDA0"/>
<rect x="82.5732" y="140.832" width="2.27394" height="1.81916" transform="rotate(180 82.5732 140.832)" fill="#33DDA0"/>
<rect x="76.2075" y="139.012" width="3.18352" height="0.90958" transform="rotate(180 76.2075 139.012)" fill="#33DDA0"/>
<rect x="75.7544" y="140.832" width="2.27394" height="1.81916" transform="rotate(180 75.7544 140.832)" fill="#33DDA0"/>
<rect x="70.2891" y="139.012" width="3.18352" height="0.90958" transform="rotate(180 70.2891 139.012)" fill="#33DDA0"/>
<rect x="69.8359" y="140.832" width="2.27394" height="1.81916" transform="rotate(180 69.8359 140.832)" fill="#33DDA0"/>
<ellipse cx="126.458" cy="143.785" rx="1.13697" ry="1.13697" transform="rotate(180 126.458 143.785)" fill="#74FFD1"/>
<path d="M94.394 140.83L94.394 151.517L87.1174 158.567L87.1174 171.528L90.5283 174.484L90.5283 188.128L80.7504 197.224" stroke="url(#paint21_linear_38_1856)" stroke-width="0.454789"/>
<path d="M94.394 140.83L94.394 151.517L87.1174 158.567L87.1174 171.528L90.5283 174.484L90.5283 188.128L80.7504 197.224" stroke="url(#paint22_linear_38_1856)" stroke-width="0.454789"/>
<path d="M100.761 140.831L100.761 153.338L94.6211 159.25L94.6211 199.044" stroke="url(#paint23_linear_38_1856)" stroke-width="0.454789"/>
<path d="M100.761 140.831L100.761 153.338L94.6211 159.25L94.6211 199.044" stroke="url(#paint24_linear_38_1856)" stroke-width="0.454789"/>
<path d="M87.8003 140.83L87.8003 149.926L79.6141 158.112L79.6141 186.082L74.1566 191.767" stroke="url(#paint25_linear_38_1856)" stroke-width="0.454789"/>
<path d="M87.8003 140.83L87.8003 149.926L79.6141 158.112L79.6141 186.082L74.1566 191.767" stroke="url(#paint26_linear_38_1856)" stroke-width="0.454789"/>
<path d="M107.586 140.83L107.586 156.293L103.038 161.068L103.038 174.939L109.405 181.306L109.405 192.676" stroke="url(#paint27_linear_38_1856)" stroke-width="0.454789"/>
<path d="M107.586 140.83L107.586 156.293L103.038 161.068L103.038 174.939L109.405 181.306L109.405 192.676" stroke="url(#paint28_linear_38_1856)" stroke-width="0.454789"/>
<path d="M120.091 140.833L120.091 160.389L134.417 174.942L134.417 189.495" stroke="url(#paint29_linear_38_1856)" stroke-width="0.454789"/>
<path d="M120.091 140.833L120.091 160.389L134.417 174.942L134.417 189.495" stroke="url(#paint30_linear_38_1856)" stroke-width="0.454789"/>
<path d="M113.726 140.601L113.726 158.338L109.861 161.749L109.861 168.798L119.411 177.666L119.411 192.22" stroke="url(#paint31_linear_38_1856)" stroke-width="0.454789"/>
<path d="M113.726 140.601L113.726 158.338L109.861 161.749L109.861 168.798L119.411 177.666L119.411 192.22" stroke="url(#paint32_linear_38_1856)" stroke-width="0.454789"/>
<path d="M81.4355 140.605L81.4355 151.292L74.1589 158.796L74.1589 179.035L67.1097 185.856" stroke="url(#paint33_linear_38_1856)" stroke-width="0.454789"/>
<path d="M81.4355 140.605L81.4355 151.292L74.1589 158.796L74.1589 179.035L67.1097 185.856" stroke="url(#paint34_linear_38_1856)" stroke-width="0.454789"/>
<path d="M74.6128 140.83L74.6128 151.744L63.4705 162.887L63.4705 168.799L67.5636 172.665L67.5636 179.487L60.287 186.763L60.287 195.404" stroke="url(#paint35_linear_38_1856)" stroke-width="0.454789"/>
<path d="M74.6128 140.83L74.6128 151.744L63.4705 162.887L63.4705 168.799L67.5636 172.665L67.5636 179.487L60.287 186.763L60.287 195.404" stroke="url(#paint36_linear_38_1856)" stroke-width="0.454789"/>
<path d="M68.4756 140.829L68.4756 153.563L50.9662 170.39L50.9662 183.806L43.4622 190.855" stroke="url(#paint37_linear_38_1856)" stroke-width="0.454789"/>
<path d="M68.4756 140.829L68.4756 153.563L50.9662 170.39L50.9662 183.806L43.4622 190.855" stroke="url(#paint38_linear_38_1856)" stroke-width="0.454789"/>
<ellipse cx="68.7009" cy="143.785" rx="1.13697" ry="1.13697" transform="rotate(180 68.7009 143.785)" fill="#B5FFFF"/>
<ellipse cx="107.358" cy="143.785" rx="1.13697" ry="1.13697" transform="rotate(180 107.358 143.785)" fill="#B5FFFF"/>
<ellipse cx="100.536" cy="143.785" rx="1.13697" ry="1.13697" transform="rotate(180 100.536 143.785)" fill="#B5FFFF"/>
<ellipse cx="94.1677" cy="143.785" rx="1.13697" ry="1.13697" transform="rotate(180 94.1677 143.785)" fill="#B5FFFF"/>
<ellipse cx="87.8015" cy="143.785" rx="1.13697" ry="1.13697" transform="rotate(180 87.8015 143.785)" fill="#B5FFFF"/>
<ellipse cx="81.4353" cy="143.785" rx="1.13697" ry="1.13697" transform="rotate(180 81.4353 143.785)" fill="#B5FFFF"/>
<ellipse cx="74.614" cy="143.785" rx="1.13697" ry="1.13697" transform="rotate(180 74.614 143.785)" fill="#B5FFFF"/>
<ellipse cx="113.725" cy="143.785" rx="1.13697" ry="1.13697" transform="rotate(180 113.725 143.785)" fill="#B5FFFF"/>
<ellipse cx="120.091" cy="143.785" rx="1.13697" ry="1.13697" transform="rotate(180 120.091 143.785)" fill="#B5FFFF"/>
<path d="M137.3 71.1593L150.262 71.1593L170.045 51.376L182.779 51.376L186.645 55.2417" stroke="url(#paint39_linear_38_1856)" stroke-width="0.454789"/>
<rect x="135.708" y="69.5684" width="3.18353" height="0.909577" transform="rotate(90 135.708 69.5684)" fill="#33DDA0"/>
<rect x="137.528" y="70.0215" width="2.27395" height="1.81915" transform="rotate(90 137.528 70.0215)" fill="#33DDA0"/>
<rect x="135.708" y="75.9365" width="3.18353" height="0.909577" transform="rotate(90 135.708 75.9365)" fill="#33DDA0"/>
<rect x="137.528" y="76.3896" width="2.27395" height="1.81915" transform="rotate(90 137.528 76.3896)" fill="#33DDA0"/>
<rect x="135.708" y="82.3008" width="3.18353" height="0.909577" transform="rotate(90 135.708 82.3008)" fill="#33DDA0"/>
<rect x="137.528" y="82.7539" width="2.27395" height="1.81915" transform="rotate(90 137.528 82.7539)" fill="#33DDA0"/>
<rect x="135.708" y="88.668" width="3.18353" height="0.909577" transform="rotate(90 135.708 88.668)" fill="#33DDA0"/>
<rect x="137.528" y="89.1211" width="2.27395" height="1.81915" transform="rotate(90 137.528 89.1211)" fill="#33DDA0"/>
<rect x="135.708" y="95.4902" width="3.18353" height="0.909577" transform="rotate(90 135.708 95.4902)" fill="#33DDA0"/>
<rect x="137.528" y="95.9434" width="2.27395" height="1.81915" transform="rotate(90 137.528 95.9434)" fill="#33DDA0"/>
<rect x="135.708" y="101.86" width="3.18353" height="0.909577" transform="rotate(90 135.708 101.86)" fill="#33DDA0"/>
<rect x="137.528" y="102.313" width="2.27395" height="1.81915" transform="rotate(90 137.528 102.313)" fill="#33DDA0"/>
<rect x="135.708" y="108.226" width="3.18353" height="0.909577" transform="rotate(90 135.708 108.226)" fill="#33DDA0"/>
<rect x="137.528" y="108.679" width="2.27395" height="1.81915" transform="rotate(90 137.528 108.679)" fill="#33DDA0"/>
<rect x="135.708" y="114.594" width="3.18353" height="0.909577" transform="rotate(90 135.708 114.594)" fill="#33DDA0"/>
<rect x="137.528" y="115.047" width="2.27395" height="1.81915" transform="rotate(90 137.528 115.047)" fill="#33DDA0"/>
<rect x="135.708" y="121.415" width="3.18353" height="0.909577" transform="rotate(90 135.708 121.415)" fill="#33DDA0"/>
<rect x="137.528" y="121.868" width="2.27395" height="1.81915" transform="rotate(90 137.528 121.868)" fill="#33DDA0"/>
<rect x="135.708" y="127.329" width="3.18353" height="0.909577" transform="rotate(90 135.708 127.329)" fill="#33DDA0"/>
<rect x="137.528" y="127.782" width="2.27395" height="1.81915" transform="rotate(90 137.528 127.782)" fill="#33DDA0"/>
<ellipse cx="140.482" cy="71.1604" rx="1.13697" ry="1.13697" transform="rotate(90 140.482 71.1604)" fill="#74FFD1"/>
<path d="M137.527 103.224L148.215 103.224L155.264 110.5L168.225 110.5L171.181 107.089L184.825 107.089L193.921 116.867" stroke="url(#paint40_linear_38_1856)" stroke-width="0.454789"/>
<path d="M137.527 103.224L148.215 103.224L155.264 110.5L168.225 110.5L171.181 107.089L184.825 107.089L193.921 116.867" stroke="url(#paint41_linear_38_1856)" stroke-width="0.454789"/>
<path d="M137.528 96.8574L150.034 96.8574L155.947 102.997L195.741 102.997" stroke="url(#paint42_linear_38_1856)" stroke-width="0.454789"/>
<path d="M137.528 96.8574L150.034 96.8574L155.947 102.997L195.741 102.997" stroke="url(#paint43_linear_38_1856)" stroke-width="0.454789"/>
<path d="M137.527 109.817L146.623 109.817L154.809 118.004L182.779 118.004L188.463 123.461" stroke="url(#paint44_linear_38_1856)" stroke-width="0.454789"/>
<path d="M137.527 109.817L146.623 109.817L154.809 118.004L182.779 118.004L188.463 123.461" stroke="url(#paint45_linear_38_1856)" stroke-width="0.454789"/>
<path d="M137.527 90.033L152.99 90.033L157.765 94.5809L171.636 94.5809L178.003 88.2139L189.373 88.2139" stroke="url(#paint46_linear_38_1856)" stroke-width="0.454789"/>
<path d="M137.527 90.033L152.99 90.033L157.765 94.5809L171.636 94.5809L178.003 88.2139L189.373 88.2139" stroke="url(#paint47_linear_38_1856)" stroke-width="0.454789"/>
<path d="M137.53 77.527L157.085 77.527L171.639 63.2012L186.192 63.2012" stroke="url(#paint48_linear_38_1856)" stroke-width="0.454789"/>
<path d="M137.53 77.527L157.085 77.527L171.639 63.2012L186.192 63.2012" stroke="url(#paint49_linear_38_1856)" stroke-width="0.454789"/>
<path d="M137.298 83.8919L155.035 83.8919L158.446 87.7576L165.495 87.7576L174.364 78.207L188.917 78.207" stroke="url(#paint50_linear_38_1856)" stroke-width="0.454789"/>
<path d="M137.298 83.8919L155.035 83.8919L158.446 87.7576L165.495 87.7576L174.364 78.207L188.917 78.207" stroke="url(#paint51_linear_38_1856)" stroke-width="0.454789"/>
<path d="M137.302 116.183L147.989 116.183L155.493 123.459L175.731 123.459L182.553 130.508" stroke="url(#paint52_linear_38_1856)" stroke-width="0.454789"/>
<path d="M137.302 116.183L147.989 116.183L155.493 123.459L175.731 123.459L182.553 130.508" stroke="url(#paint53_linear_38_1856)" stroke-width="0.454789"/>
<path d="M137.526 123.005L148.441 123.005L159.583 134.147L165.495 134.147L169.361 130.054L176.183 130.054L183.46 137.331L192.101 137.331" stroke="url(#paint54_linear_38_1856)" stroke-width="0.454789"/>
<path d="M137.526 123.005L148.441 123.005L159.583 134.147L165.495 134.147L169.361 130.054L176.183 130.054L183.46 137.331L192.101 137.331" stroke="url(#paint55_linear_38_1856)" stroke-width="0.454789"/>
<path d="M137.526 129.143L150.26 129.143L167.087 146.652L180.504 146.652L187.553 154.156" stroke="url(#paint56_linear_38_1856)" stroke-width="0.454789"/>
<path d="M137.526 129.143L150.26 129.143L167.087 146.652L180.504 146.652L187.553 154.156" stroke="url(#paint57_linear_38_1856)" stroke-width="0.454789"/>
<ellipse cx="140.482" cy="128.917" rx="1.13697" ry="1.13697" transform="rotate(90 140.482 128.917)" fill="#B5FFFF"/>
<ellipse cx="140.482" cy="90.26" rx="1.13697" ry="1.13697" transform="rotate(90 140.482 90.26)" fill="#B5FFFF"/>
<ellipse cx="140.482" cy="97.0823" rx="1.13697" ry="1.13697" transform="rotate(90 140.482 97.0823)" fill="#B5FFFF"/>
<ellipse cx="140.482" cy="103.45" rx="1.13697" ry="1.13697" transform="rotate(90 140.482 103.45)" fill="#B5FFFF"/>
<ellipse cx="140.482" cy="109.817" rx="1.13697" ry="1.13697" transform="rotate(90 140.482 109.817)" fill="#B5FFFF"/>
<ellipse cx="140.482" cy="116.183" rx="1.13697" ry="1.13697" transform="rotate(90 140.482 116.183)" fill="#B5FFFF"/>
<ellipse cx="140.482" cy="123.004" rx="1.13697" ry="1.13697" transform="rotate(90 140.482 123.004)" fill="#B5FFFF"/>
<ellipse cx="140.482" cy="83.8938" rx="1.13697" ry="1.13697" transform="rotate(90 140.482 83.8938)" fill="#B5FFFF"/>
<ellipse cx="140.482" cy="77.5276" rx="1.13697" ry="1.13697" transform="rotate(90 140.482 77.5276)" fill="#B5FFFF"/>
<path d="M58.9339 71.1593L45.9724 71.1593L26.1891 51.376L13.4551 51.376L9.58936 55.2417" stroke="url(#paint58_linear_38_1856)" stroke-width="0.454789"/>
<rect width="3.18353" height="0.909577" transform="matrix(4.37113e-08 1 1 -4.37115e-08 60.5259 69.5684)" fill="#33DDA0"/>
<rect width="2.27395" height="1.81915" transform="matrix(4.37113e-08 1 1 -4.37115e-08 58.7061 70.0215)" fill="#33DDA0"/>
<rect width="3.18353" height="0.909577" transform="matrix(4.37113e-08 1 1 -4.37115e-08 60.5259 75.9365)" fill="#33DDA0"/>
<rect width="2.27395" height="1.81915" transform="matrix(4.37113e-08 1 1 -4.37115e-08 58.7061 76.3896)" fill="#33DDA0"/>
<rect width="3.18353" height="0.909577" transform="matrix(4.37113e-08 1 1 -4.37115e-08 60.5259 82.3008)" fill="#33DDA0"/>
<rect width="2.27395" height="1.81915" transform="matrix(4.37113e-08 1 1 -4.37115e-08 58.7061 82.7539)" fill="#33DDA0"/>
<rect width="3.18353" height="0.909577" transform="matrix(4.37113e-08 1 1 -4.37115e-08 60.5259 88.668)" fill="#33DDA0"/>
<rect width="2.27395" height="1.81915" transform="matrix(4.37113e-08 1 1 -4.37115e-08 58.7061 89.1211)" fill="#33DDA0"/>
<rect width="3.18353" height="0.909577" transform="matrix(4.37113e-08 1 1 -4.37115e-08 60.5259 95.4902)" fill="#33DDA0"/>
<rect width="2.27395" height="1.81915" transform="matrix(4.37113e-08 1 1 -4.37115e-08 58.7061 95.9434)" fill="#33DDA0"/>
<rect width="3.18353" height="0.909577" transform="matrix(4.37113e-08 1 1 -4.37115e-08 60.5259 101.86)" fill="#33DDA0"/>
<rect width="2.27395" height="1.81915" transform="matrix(4.37113e-08 1 1 -4.37115e-08 58.7061 102.313)" fill="#33DDA0"/>
<rect width="3.18353" height="0.909577" transform="matrix(4.37113e-08 1 1 -4.37115e-08 60.5259 108.226)" fill="#33DDA0"/>
<rect width="2.27395" height="1.81915" transform="matrix(4.37113e-08 1 1 -4.37115e-08 58.7061 108.679)" fill="#33DDA0"/>
<rect width="3.18353" height="0.909577" transform="matrix(4.37113e-08 1 1 -4.37115e-08 60.5259 114.594)" fill="#33DDA0"/>
<rect width="2.27395" height="1.81915" transform="matrix(4.37113e-08 1 1 -4.37115e-08 58.7061 115.047)" fill="#33DDA0"/>
<rect width="3.18353" height="0.909577" transform="matrix(4.37113e-08 1 1 -4.37115e-08 60.5259 121.415)" fill="#33DDA0"/>
<rect width="2.27395" height="1.81915" transform="matrix(4.37113e-08 1 1 -4.37115e-08 58.7061 121.868)" fill="#33DDA0"/>
<rect width="3.18353" height="0.909577" transform="matrix(4.37113e-08 1 1 -4.37115e-08 60.5259 127.329)" fill="#33DDA0"/>
<rect width="2.27395" height="1.81915" transform="matrix(4.37113e-08 1 1 -4.37115e-08 58.7061 127.782)" fill="#33DDA0"/>
<ellipse cx="1.13697" cy="1.13697" rx="1.13697" ry="1.13697" transform="matrix(4.37113e-08 1 1 -4.37115e-08 54.6152 70.0234)" fill="#74FFD1"/>
<path d="M58.7073 103.224L48.0197 103.224L40.9705 110.5L28.009 110.5L25.0529 107.089L11.4093 107.089L2.31348 116.867" stroke="url(#paint59_linear_38_1856)" stroke-width="0.454789"/>
<path d="M58.7073 103.224L48.0197 103.224L40.9705 110.5L28.009 110.5L25.0529 107.089L11.4093 107.089L2.31348 116.867" stroke="url(#paint60_linear_38_1856)" stroke-width="0.454789"/>
<path d="M58.7066 96.8574L46.1999 96.8574L40.2877 102.997L0.493653 102.997" stroke="url(#paint61_linear_38_1856)" stroke-width="0.454789"/>
<path d="M58.7066 96.8574L46.1999 96.8574L40.2877 102.997L0.493653 102.997" stroke="url(#paint62_linear_38_1856)" stroke-width="0.454789"/>
<path d="M58.7073 109.817L49.6115 109.817L41.4254 118.004L13.4559 118.004L7.771 123.461" stroke="url(#paint63_linear_38_1856)" stroke-width="0.454789"/>
<path d="M58.7073 109.817L49.6115 109.817L41.4254 118.004L13.4559 118.004L7.771 123.461" stroke="url(#paint64_linear_38_1856)" stroke-width="0.454789"/>
<path d="M58.7072 90.033L43.2444 90.033L38.4691 94.5809L24.5981 94.5809L18.231 88.2139L6.86133 88.2139" stroke="url(#paint65_linear_38_1856)" stroke-width="0.454789"/>
<path d="M58.7072 90.033L43.2444 90.033L38.4691 94.5809L24.5981 94.5809L18.231 88.2139L6.86133 88.2139" stroke="url(#paint66_linear_38_1856)" stroke-width="0.454789"/>
<path d="M58.7049 77.527L39.149 77.527L24.5957 63.2012L10.0425 63.2012" stroke="url(#paint67_linear_38_1856)" stroke-width="0.454789"/>
<path d="M58.7049 77.527L39.149 77.527L24.5957 63.2012L10.0425 63.2012" stroke="url(#paint68_linear_38_1856)" stroke-width="0.454789"/>
<path d="M58.9359 83.8919L41.1991 83.8919L37.7882 87.7576L30.739 87.7576L21.8706 78.207L7.31738 78.207" stroke="url(#paint69_linear_38_1856)" stroke-width="0.454789"/>
<path d="M58.9359 83.8919L41.1991 83.8919L37.7882 87.7576L30.739 87.7576L21.8706 78.207L7.31738 78.207" stroke="url(#paint70_linear_38_1856)" stroke-width="0.454789"/>
<path d="M58.9326 116.183L48.2451 116.183L40.7411 123.459L20.503 123.459L13.6812 130.508" stroke="url(#paint71_linear_38_1856)" stroke-width="0.454789"/>
<path d="M58.9326 116.183L48.2451 116.183L40.7411 123.459L20.503 123.459L13.6812 130.508" stroke="url(#paint72_linear_38_1856)" stroke-width="0.454789"/>
<path d="M58.7084 123.005L47.7935 123.005L36.6512 134.147L30.7389 134.147L26.8732 130.054L20.0514 130.054L12.7748 137.331L4.13379 137.331" stroke="url(#paint73_linear_38_1856)" stroke-width="0.454789"/>
<path d="M58.7084 123.005L47.7935 123.005L36.6512 134.147L30.7389 134.147L26.8732 130.054L20.0514 130.054L12.7748 137.331L4.13379 137.331" stroke="url(#paint74_linear_38_1856)" stroke-width="0.454789"/>
<path d="M58.7084 129.143L45.9743 129.143L29.1471 146.652L15.7309 146.652L8.68164 154.156" stroke="url(#paint75_linear_38_1856)" stroke-width="0.454789"/>
<path d="M58.7084 129.143L45.9743 129.143L29.1471 146.652L15.7309 146.652L8.68164 154.156" stroke="url(#paint76_linear_38_1856)" stroke-width="0.454789"/>
<ellipse cx="1.13697" cy="1.13697" rx="1.13697" ry="1.13697" transform="matrix(4.37113e-08 1 1 -4.37115e-08 54.6152 127.78)" fill="#B5FFFF"/>
<ellipse cx="1.13697" cy="1.13697" rx="1.13697" ry="1.13697" transform="matrix(4.37113e-08 1 1 -4.37115e-08 54.6152 89.123)" fill="#B5FFFF"/>
<ellipse cx="1.13697" cy="1.13697" rx="1.13697" ry="1.13697" transform="matrix(4.37113e-08 1 1 -4.37115e-08 54.6152 95.9453)" fill="#B5FFFF"/>
<ellipse cx="1.13697" cy="1.13697" rx="1.13697" ry="1.13697" transform="matrix(4.37113e-08 1 1 -4.37115e-08 54.6152 102.313)" fill="#B5FFFF"/>
<ellipse cx="1.13697" cy="1.13697" rx="1.13697" ry="1.13697" transform="matrix(4.37113e-08 1 1 -4.37115e-08 54.6152 108.68)" fill="#B5FFFF"/>
<ellipse cx="1.13697" cy="1.13697" rx="1.13697" ry="1.13697" transform="matrix(4.37113e-08 1 1 -4.37115e-08 54.6152 115.046)" fill="#B5FFFF"/>
<ellipse cx="1.13697" cy="1.13697" rx="1.13697" ry="1.13697" transform="matrix(4.37113e-08 1 1 -4.37115e-08 54.6152 121.867)" fill="#B5FFFF"/>
<ellipse cx="1.13697" cy="1.13697" rx="1.13697" ry="1.13697" transform="matrix(4.37113e-08 1 1 -4.37115e-08 54.6152 82.7568)" fill="#B5FFFF"/>
<ellipse cx="1.13697" cy="1.13697" rx="1.13697" ry="1.13697" transform="matrix(4.37113e-08 1 1 -4.37115e-08 54.6152 76.3906)" fill="#B5FFFF"/>
<rect x="65.6745" y="68.6589" width="64.58" height="64.1254" stroke="#FFDAFF" stroke-width="0.909578"/>
<path fill-rule="evenodd" clip-rule="evenodd" d="M68.8574 71.3867H127.07V129.6H68.8574V71.3867ZM98.7483 90.5557H87.5212C83.8009 90.5557 80.7849 93.5716 80.7849 97.292H92.012C95.7324 97.292 98.7483 94.276 98.7483 90.5557ZM87.5212 100.661H98.7483C98.7483 104.381 95.7324 107.397 92.012 107.397H80.7849C80.7849 103.677 83.8009 100.661 87.5212 100.661ZM116.713 83.82H105.486C101.765 83.82 98.7493 86.836 98.7493 90.5563H109.976C113.697 90.5563 116.713 87.5404 116.713 83.82ZM105.486 93.9254H116.713C116.713 97.6457 113.697 100.662 109.976 100.662H98.7493C98.7493 96.9413 101.765 93.9254 105.486 93.9254Z" fill="url(#paint77_linear_38_1856)"/>
<path d="M115.863 120.469V116.556H116.393V119.986H118.135V120.469H115.863Z" fill="white"/>
<path d="M109.915 120.469V116.556H110.445V119.986H112.187V120.469H109.915Z" fill="white"/>
<path d="M103.526 120.469L104.539 116.556H105.242L106.249 120.469H105.708L105.461 119.45H104.314L104.068 120.469H103.526ZM104.422 119.011H105.354L105.075 117.842C105.022 117.628 104.979 117.445 104.947 117.295C104.915 117.145 104.895 117.043 104.888 116.99C104.881 117.043 104.861 117.145 104.829 117.295C104.797 117.445 104.756 117.626 104.706 117.837L104.422 119.011Z" fill="white"/>
<path d="M97.8203 120.469V116.556H100.157V117.043H98.3402V118.276H100.018V118.759H98.351V120.469H97.8203Z" fill="white"/>
<path d="M92.7315 120.469V119.016L91.5576 116.556H92.1204L92.844 118.099C92.8869 118.192 92.9209 118.276 92.9459 118.351C92.9745 118.426 92.9923 118.48 92.9995 118.512C93.0102 118.48 93.0281 118.426 93.0531 118.351C93.0817 118.276 93.1192 118.192 93.1656 118.099L93.8839 116.556H94.4306L93.2621 119.016V120.469H92.7315Z" fill="white"/>
<path d="M85.9087 120.469V116.556H86.4393V118.217H86.9861L87.8222 116.556H88.4011L87.4524 118.437L88.4494 120.469H87.849L86.9754 118.684H86.4393V120.469H85.9087Z" fill="white"/>
<path d="M81.12 120.52C80.734 120.52 80.4267 120.42 80.198 120.22C79.9693 120.016 79.855 119.738 79.855 119.384H80.3856C80.3856 119.591 80.4517 119.754 80.584 119.872C80.7162 119.989 80.8948 120.048 81.12 120.048C81.3344 120.048 81.5041 119.989 81.6292 119.872C81.7578 119.75 81.8221 119.589 81.8221 119.389C81.8221 119.239 81.781 119.109 81.6989 118.998C81.6167 118.883 81.5005 118.807 81.3504 118.767L80.7716 118.612C80.5178 118.54 80.3159 118.412 80.1659 118.226C80.0194 118.037 79.9461 117.813 79.9461 117.556C79.9461 117.345 79.9926 117.161 80.0855 117.004C80.1819 116.843 80.3159 116.72 80.4875 116.634C80.659 116.545 80.8573 116.5 81.0824 116.5C81.3111 116.5 81.5113 116.545 81.6828 116.634C81.8579 116.72 81.9937 116.841 82.0901 116.998C82.1866 117.156 82.2349 117.338 82.2349 117.545H81.7096C81.7096 117.374 81.6506 117.234 81.5327 117.127C81.4183 117.02 81.2683 116.966 81.0824 116.966C80.8966 116.966 80.7465 117.02 80.6322 117.127C80.5214 117.234 80.466 117.374 80.466 117.545C80.466 117.685 80.5036 117.803 80.5786 117.899C80.6536 117.992 80.7591 118.058 80.8948 118.097L81.4898 118.258C81.7578 118.33 81.9669 118.467 82.1169 118.671C82.267 118.871 82.3421 119.11 82.3421 119.389C82.3421 119.618 82.292 119.818 82.192 119.989C82.0919 120.157 81.949 120.288 81.7632 120.381C81.5809 120.474 81.3665 120.52 81.12 120.52Z" fill="white"/>
<defs>
<linearGradient id="paint0_linear_38_1856" x1="133.071" y1="65.1491" x2="63.0473" y2="136.107" gradientUnits="userSpaceOnUse">
<stop stop-color="#1D9B95"/>
<stop offset="1" stop-color="#23B9A8"/>
</linearGradient>
<linearGradient id="paint1_linear_38_1856" x1="142.021" y1="9.49152" x2="141.581" y2="59.166" gradientUnits="userSpaceOnUse">
<stop stop-color="#03091F"/>
<stop offset="1" stop-color="#33DDA0"/>
</linearGradient>
<linearGradient id="paint2_linear_38_1856" x1="87.5722" y1="2.5459" x2="87.5722" y2="58.9398" gradientUnits="userSpaceOnUse">
<stop stop-color="#03091F"/>
<stop offset="1" stop-color="#377AE5"/>
</linearGradient>
<linearGradient id="paint3_linear_38_1856" x1="91.483" y1="2.16902" x2="90.6487" y2="58.932" gradientUnits="userSpaceOnUse">
<stop stop-color="#03091F"/>
<stop offset="1" stop-color="#33DDA0"/>
</linearGradient>
<linearGradient id="paint4_linear_38_1856" x1="97.6909" y1="0.725586" x2="97.6909" y2="58.9387" gradientUnits="userSpaceOnUse">
<stop stop-color="#03091F"/>
<stop offset="1" stop-color="#377AE5"/>
</linearGradient>
<linearGradient id="paint5_linear_38_1856" x1="99.4508" y1="0.336553" x2="97.477" y2="58.8767" gradientUnits="userSpaceOnUse">
<stop stop-color="#03091F"/>
<stop offset="1" stop-color="#33DDA0"/>
</linearGradient>
<linearGradient id="paint6_linear_38_1856" x1="80.9785" y1="8.00293" x2="80.9785" y2="58.9394" gradientUnits="userSpaceOnUse">
<stop stop-color="#03091F"/>
<stop offset="1" stop-color="#377AE5"/>
</linearGradient>
<linearGradient id="paint7_linear_38_1856" x1="84.8893" y1="7.66253" x2="84.2086" y2="58.9344" gradientUnits="userSpaceOnUse">
<stop stop-color="#03091F"/>
<stop offset="1" stop-color="#33DDA0"/>
</linearGradient>
<linearGradient id="paint8_linear_38_1856" x1="106.221" y1="7.09375" x2="106.221" y2="58.9398" gradientUnits="userSpaceOnUse">
<stop stop-color="#03091F"/>
<stop offset="1" stop-color="#377AE5"/>
</linearGradient>
<linearGradient id="paint9_linear_38_1856" x1="108.046" y1="6.74727" x2="106.536" y2="58.9002" gradientUnits="userSpaceOnUse">
<stop stop-color="#03091F"/>
<stop offset="1" stop-color="#33DDA0"/>
</linearGradient>
<linearGradient id="paint10_linear_38_1856" x1="127.254" y1="10.2744" x2="127.254" y2="58.9369" gradientUnits="userSpaceOnUse">
<stop stop-color="#03091F"/>
<stop offset="1" stop-color="#377AE5"/>
</linearGradient>
<linearGradient id="paint11_linear_38_1856" x1="131.36" y1="9.94921" x2="130.769" y2="58.9336" gradientUnits="userSpaceOnUse">
<stop stop-color="#03091F"/>
<stop offset="1" stop-color="#33DDA0"/>
</linearGradient>
<linearGradient id="paint12_linear_38_1856" x1="114.636" y1="7.5498" x2="114.636" y2="59.1684" gradientUnits="userSpaceOnUse">
<stop stop-color="#03091F"/>
<stop offset="1" stop-color="#377AE5"/>
</linearGradient>
<linearGradient id="paint13_linear_38_1856" x1="117.373" y1="7.20484" x2="116.375" y2="59.1533" gradientUnits="userSpaceOnUse">
<stop stop-color="#03091F"/>
<stop offset="1" stop-color="#33DDA0"/>
</linearGradient>
<linearGradient id="paint14_linear_38_1856" x1="74.2726" y1="13.9131" x2="74.2726" y2="59.1647" gradientUnits="userSpaceOnUse">
<stop stop-color="#03091F"/>
<stop offset="1" stop-color="#377AE5"/>
</linearGradient>
<linearGradient id="paint15_linear_38_1856" x1="78.379" y1="13.6107" x2="77.8673" y2="59.1625" gradientUnits="userSpaceOnUse">
<stop stop-color="#03091F"/>
<stop offset="1" stop-color="#33DDA0"/>
</linearGradient>
<linearGradient id="paint16_linear_38_1856" x1="67.4499" y1="4.36523" x2="67.4499" y2="58.94" gradientUnits="userSpaceOnUse">
<stop stop-color="#03091F"/>
<stop offset="1" stop-color="#377AE5"/>
</linearGradient>
<linearGradient id="paint17_linear_38_1856" x1="71.5562" y1="4.00052" x2="70.812" y2="58.9343" gradientUnits="userSpaceOnUse">
<stop stop-color="#03091F"/>
<stop offset="1" stop-color="#33DDA0"/>
</linearGradient>
<linearGradient id="paint18_linear_38_1856" x1="55.9689" y1="8.91406" x2="55.9689" y2="58.9409" gradientUnits="userSpaceOnUse">
<stop stop-color="#03091F"/>
<stop offset="1" stop-color="#377AE5"/>
</linearGradient>
<linearGradient id="paint19_linear_38_1856" x1="63.1387" y1="8.57974" x2="62.7805" y2="58.9423" gradientUnits="userSpaceOnUse">
<stop stop-color="#03091F"/>
<stop offset="1" stop-color="#33DDA0"/>
</linearGradient>
<linearGradient id="paint20_linear_38_1856" x1="142.021" y1="190.278" x2="141.581" y2="140.604" gradientUnits="userSpaceOnUse">
<stop stop-color="#03091F"/>
<stop offset="1" stop-color="#33DDA0"/>
</linearGradient>
<linearGradient id="paint21_linear_38_1856" x1="87.5722" y1="197.224" x2="87.5722" y2="140.83" gradientUnits="userSpaceOnUse">
<stop stop-color="#03091F"/>
<stop offset="1" stop-color="#377AE5"/>
</linearGradient>
<linearGradient id="paint22_linear_38_1856" x1="91.483" y1="197.601" x2="90.6487" y2="140.837" gradientUnits="userSpaceOnUse">
<stop stop-color="#03091F"/>
<stop offset="1" stop-color="#33DDA0"/>
</linearGradient>
<linearGradient id="paint23_linear_38_1856" x1="97.6909" y1="199.044" x2="97.6909" y2="140.831" gradientUnits="userSpaceOnUse">
<stop stop-color="#03091F"/>
<stop offset="1" stop-color="#377AE5"/>
</linearGradient>
<linearGradient id="paint24_linear_38_1856" x1="99.4508" y1="199.433" x2="97.477" y2="140.893" gradientUnits="userSpaceOnUse">
<stop stop-color="#03091F"/>
<stop offset="1" stop-color="#33DDA0"/>
</linearGradient>
<linearGradient id="paint25_linear_38_1856" x1="80.9785" y1="191.767" x2="80.9785" y2="140.83" gradientUnits="userSpaceOnUse">
<stop stop-color="#03091F"/>
<stop offset="1" stop-color="#377AE5"/>
</linearGradient>
<linearGradient id="paint26_linear_38_1856" x1="84.8893" y1="192.107" x2="84.2086" y2="140.835" gradientUnits="userSpaceOnUse">
<stop stop-color="#03091F"/>
<stop offset="1" stop-color="#33DDA0"/>
</linearGradient>
<linearGradient id="paint27_linear_38_1856" x1="106.221" y1="192.676" x2="106.221" y2="140.83" gradientUnits="userSpaceOnUse">
<stop stop-color="#03091F"/>
<stop offset="1" stop-color="#377AE5"/>
</linearGradient>
<linearGradient id="paint28_linear_38_1856" x1="108.046" y1="193.022" x2="106.536" y2="140.869" gradientUnits="userSpaceOnUse">
<stop stop-color="#03091F"/>
<stop offset="1" stop-color="#33DDA0"/>
</linearGradient>
<linearGradient id="paint29_linear_38_1856" x1="127.254" y1="189.495" x2="127.254" y2="140.833" gradientUnits="userSpaceOnUse">
<stop stop-color="#03091F"/>
<stop offset="1" stop-color="#377AE5"/>
</linearGradient>
<linearGradient id="paint30_linear_38_1856" x1="131.36" y1="189.82" x2="130.769" y2="140.836" gradientUnits="userSpaceOnUse">
<stop stop-color="#03091F"/>
<stop offset="1" stop-color="#33DDA0"/>
</linearGradient>
<linearGradient id="paint31_linear_38_1856" x1="114.636" y1="192.22" x2="114.636" y2="140.601" gradientUnits="userSpaceOnUse">
<stop stop-color="#03091F"/>
<stop offset="1" stop-color="#377AE5"/>
</linearGradient>
<linearGradient id="paint32_linear_38_1856" x1="117.373" y1="192.565" x2="116.375" y2="140.616" gradientUnits="userSpaceOnUse">
<stop stop-color="#03091F"/>
<stop offset="1" stop-color="#33DDA0"/>
</linearGradient>
<linearGradient id="paint33_linear_38_1856" x1="74.2726" y1="185.856" x2="74.2726" y2="140.605" gradientUnits="userSpaceOnUse">
<stop stop-color="#03091F"/>
<stop offset="1" stop-color="#377AE5"/>
</linearGradient>
<linearGradient id="paint34_linear_38_1856" x1="78.379" y1="186.159" x2="77.8673" y2="140.607" gradientUnits="userSpaceOnUse">
<stop stop-color="#03091F"/>
<stop offset="1" stop-color="#33DDA0"/>
</linearGradient>
<linearGradient id="paint35_linear_38_1856" x1="67.4499" y1="195.404" x2="67.4499" y2="140.83" gradientUnits="userSpaceOnUse">
<stop stop-color="#03091F"/>
<stop offset="1" stop-color="#377AE5"/>
</linearGradient>
<linearGradient id="paint36_linear_38_1856" x1="71.5562" y1="195.769" x2="70.812" y2="140.835" gradientUnits="userSpaceOnUse">
<stop stop-color="#03091F"/>
<stop offset="1" stop-color="#33DDA0"/>
</linearGradient>
<linearGradient id="paint37_linear_38_1856" x1="55.9689" y1="190.855" x2="55.9689" y2="140.829" gradientUnits="userSpaceOnUse">
<stop stop-color="#03091F"/>
<stop offset="1" stop-color="#377AE5"/>
</linearGradient>
<linearGradient id="paint38_linear_38_1856" x1="63.1387" y1="191.19" x2="62.7805" y2="140.827" gradientUnits="userSpaceOnUse">
<stop stop-color="#03091F"/>
<stop offset="1" stop-color="#33DDA0"/>
</linearGradient>
<linearGradient id="paint39_linear_38_1856" x1="186.975" y1="55.597" x2="137.3" y2="56.0376" gradientUnits="userSpaceOnUse">
<stop stop-color="#03091F"/>
<stop offset="1" stop-color="#33DDA0"/>
</linearGradient>
<linearGradient id="paint40_linear_38_1856" x1="193.921" y1="110.045" x2="137.527" y2="110.045" gradientUnits="userSpaceOnUse">
<stop stop-color="#03091F"/>
<stop offset="1" stop-color="#377AE5"/>
</linearGradient>
<linearGradient id="paint41_linear_38_1856" x1="194.298" y1="106.135" x2="137.535" y2="106.969" gradientUnits="userSpaceOnUse">
<stop stop-color="#03091F"/>
<stop offset="1" stop-color="#33DDA0"/>
</linearGradient>
<linearGradient id="paint42_linear_38_1856" x1="195.741" y1="99.9273" x2="137.528" y2="99.9273" gradientUnits="userSpaceOnUse">
<stop stop-color="#03091F"/>
<stop offset="1" stop-color="#377AE5"/>
</linearGradient>
<linearGradient id="paint43_linear_38_1856" x1="196.13" y1="98.1674" x2="137.59" y2="100.141" gradientUnits="userSpaceOnUse">
<stop stop-color="#03091F"/>
<stop offset="1" stop-color="#33DDA0"/>
</linearGradient>
<linearGradient id="paint44_linear_38_1856" x1="188.463" y1="116.639" x2="137.527" y2="116.639" gradientUnits="userSpaceOnUse">
<stop stop-color="#03091F"/>
<stop offset="1" stop-color="#377AE5"/>
</linearGradient>
<linearGradient id="paint45_linear_38_1856" x1="188.804" y1="112.728" x2="137.532" y2="113.409" gradientUnits="userSpaceOnUse">
<stop stop-color="#03091F"/>
<stop offset="1" stop-color="#33DDA0"/>
</linearGradient>
<linearGradient id="paint46_linear_38_1856" x1="189.373" y1="91.3974" x2="137.527" y2="91.3974" gradientUnits="userSpaceOnUse">
<stop stop-color="#03091F"/>
<stop offset="1" stop-color="#377AE5"/>
</linearGradient>
<linearGradient id="paint47_linear_38_1856" x1="189.72" y1="89.5723" x2="137.567" y2="91.0825" gradientUnits="userSpaceOnUse">
<stop stop-color="#03091F"/>
<stop offset="1" stop-color="#33DDA0"/>
</linearGradient>
<linearGradient id="paint48_linear_38_1856" x1="186.192" y1="70.3641" x2="137.53" y2="70.3641" gradientUnits="userSpaceOnUse">
<stop stop-color="#03091F"/>
<stop offset="1" stop-color="#377AE5"/>
</linearGradient>
<linearGradient id="paint49_linear_38_1856" x1="186.517" y1="66.2578" x2="137.533" y2="66.8494" gradientUnits="userSpaceOnUse">
<stop stop-color="#03091F"/>
<stop offset="1" stop-color="#33DDA0"/>
</linearGradient>
<linearGradient id="paint50_linear_38_1856" x1="188.917" y1="82.9823" x2="137.298" y2="82.9823" gradientUnits="userSpaceOnUse">
<stop stop-color="#03091F"/>
<stop offset="1" stop-color="#377AE5"/>
</linearGradient>
<linearGradient id="paint51_linear_38_1856" x1="189.262" y1="80.2448" x2="137.314" y2="81.2432" gradientUnits="userSpaceOnUse">
<stop stop-color="#03091F"/>
<stop offset="1" stop-color="#33DDA0"/>
</linearGradient>
<linearGradient id="paint52_linear_38_1856" x1="182.553" y1="123.346" x2="137.302" y2="123.346" gradientUnits="userSpaceOnUse">
<stop stop-color="#03091F"/>
<stop offset="1" stop-color="#377AE5"/>
</linearGradient>
<linearGradient id="paint53_linear_38_1856" x1="182.856" y1="119.239" x2="137.304" y2="119.751" gradientUnits="userSpaceOnUse">
<stop stop-color="#03091F"/>
<stop offset="1" stop-color="#33DDA0"/>
</linearGradient>
<linearGradient id="paint54_linear_38_1856" x1="192.101" y1="130.168" x2="137.526" y2="130.168" gradientUnits="userSpaceOnUse">
<stop stop-color="#03091F"/>
<stop offset="1" stop-color="#377AE5"/>
</linearGradient>
<linearGradient id="paint55_linear_38_1856" x1="192.465" y1="126.061" x2="137.532" y2="126.806" gradientUnits="userSpaceOnUse">
<stop stop-color="#03091F"/>
<stop offset="1" stop-color="#33DDA0"/>
</linearGradient>
<linearGradient id="paint56_linear_38_1856" x1="187.553" y1="141.649" x2="137.526" y2="141.649" gradientUnits="userSpaceOnUse">
<stop stop-color="#03091F"/>
<stop offset="1" stop-color="#377AE5"/>
</linearGradient>
<linearGradient id="paint57_linear_38_1856" x1="187.887" y1="134.479" x2="137.525" y2="134.838" gradientUnits="userSpaceOnUse">
<stop stop-color="#03091F"/>
<stop offset="1" stop-color="#33DDA0"/>
</linearGradient>
<linearGradient id="paint58_linear_38_1856" x1="9.25959" y1="55.597" x2="58.9339" y2="56.0376" gradientUnits="userSpaceOnUse">
<stop stop-color="#03091F"/>
<stop offset="1" stop-color="#33DDA0"/>
</linearGradient>
<linearGradient id="paint59_linear_38_1856" x1="2.31348" y1="110.045" x2="58.7073" y2="110.045" gradientUnits="userSpaceOnUse">
<stop stop-color="#03091F"/>
<stop offset="1" stop-color="#377AE5"/>
</linearGradient>
<linearGradient id="paint60_linear_38_1856" x1="1.9366" y1="106.135" x2="58.6995" y2="106.969" gradientUnits="userSpaceOnUse">
<stop stop-color="#03091F"/>
<stop offset="1" stop-color="#33DDA0"/>
</linearGradient>
<linearGradient id="paint61_linear_38_1856" x1="0.493652" y1="99.9273" x2="58.7066" y2="99.9273" gradientUnits="userSpaceOnUse">
<stop stop-color="#03091F"/>
<stop offset="1" stop-color="#377AE5"/>
</linearGradient>
<linearGradient id="paint62_linear_38_1856" x1="0.104621" y1="98.1674" x2="58.6447" y2="100.141" gradientUnits="userSpaceOnUse">
<stop stop-color="#03091F"/>
<stop offset="1" stop-color="#33DDA0"/>
</linearGradient>
<linearGradient id="paint63_linear_38_1856" x1="7.771" y1="116.639" x2="58.7073" y2="116.639" gradientUnits="userSpaceOnUse">
<stop stop-color="#03091F"/>
<stop offset="1" stop-color="#377AE5"/>
</linearGradient>
<linearGradient id="paint64_linear_38_1856" x1="7.43059" y1="112.728" x2="58.7023" y2="113.409" gradientUnits="userSpaceOnUse">
<stop stop-color="#03091F"/>
<stop offset="1" stop-color="#33DDA0"/>
</linearGradient>
<linearGradient id="paint65_linear_38_1856" x1="6.86133" y1="91.3974" x2="58.7072" y2="91.3974" gradientUnits="userSpaceOnUse">
<stop stop-color="#03091F"/>
<stop offset="1" stop-color="#377AE5"/>
</linearGradient>
<linearGradient id="paint66_linear_38_1856" x1="6.51485" y1="89.5723" x2="58.6676" y2="91.0825" gradientUnits="userSpaceOnUse">
<stop stop-color="#03091F"/>
<stop offset="1" stop-color="#33DDA0"/>
</linearGradient>
<linearGradient id="paint67_linear_38_1856" x1="10.0425" y1="70.3641" x2="58.7049" y2="70.3641" gradientUnits="userSpaceOnUse">
<stop stop-color="#03091F"/>
<stop offset="1" stop-color="#377AE5"/>
</linearGradient>
<linearGradient id="paint68_linear_38_1856" x1="9.71727" y1="66.2578" x2="58.7016" y2="66.8494" gradientUnits="userSpaceOnUse">
<stop stop-color="#03091F"/>
<stop offset="1" stop-color="#33DDA0"/>
</linearGradient>
<linearGradient id="paint69_linear_38_1856" x1="7.31738" y1="82.9823" x2="58.9359" y2="82.9823" gradientUnits="userSpaceOnUse">
<stop stop-color="#03091F"/>
<stop offset="1" stop-color="#377AE5"/>
</linearGradient>
<linearGradient id="paint70_linear_38_1856" x1="6.97242" y1="80.2448" x2="58.9208" y2="81.2432" gradientUnits="userSpaceOnUse">
<stop stop-color="#03091F"/>
<stop offset="1" stop-color="#33DDA0"/>
</linearGradient>
<linearGradient id="paint71_linear_38_1856" x1="13.6812" y1="123.346" x2="58.9326" y2="123.346" gradientUnits="userSpaceOnUse">
<stop stop-color="#03091F"/>
<stop offset="1" stop-color="#377AE5"/>
</linearGradient>
<linearGradient id="paint72_linear_38_1856" x1="13.3787" y1="119.239" x2="58.9305" y2="119.751" gradientUnits="userSpaceOnUse">
<stop stop-color="#03091F"/>
<stop offset="1" stop-color="#33DDA0"/>
</linearGradient>
<linearGradient id="paint73_linear_38_1856" x1="4.13379" y1="130.168" x2="58.7084" y2="130.168" gradientUnits="userSpaceOnUse">
<stop stop-color="#03091F"/>
<stop offset="1" stop-color="#377AE5"/>
</linearGradient>
<linearGradient id="paint74_linear_38_1856" x1="3.76907" y1="126.061" x2="58.7027" y2="126.806" gradientUnits="userSpaceOnUse">
<stop stop-color="#03091F"/>
<stop offset="1" stop-color="#33DDA0"/>
</linearGradient>
<linearGradient id="paint75_linear_38_1856" x1="8.68164" y1="141.649" x2="58.7084" y2="141.649" gradientUnits="userSpaceOnUse">
<stop stop-color="#03091F"/>
<stop offset="1" stop-color="#377AE5"/>
</linearGradient>
<linearGradient id="paint76_linear_38_1856" x1="8.34732" y1="134.479" x2="58.7098" y2="134.838" gradientUnits="userSpaceOnUse">
<stop stop-color="#03091F"/>
<stop offset="1" stop-color="#33DDA0"/>
</linearGradient>
<linearGradient id="paint77_linear_38_1856" x1="127.47" y1="71.6821" x2="68.6494" y2="133.303" gradientUnits="userSpaceOnUse">
<stop stop-color="#4B4B4B"/>
<stop offset="0.295" stop-color="#494848"/>
<stop offset="0.68" stop-color="#00221F"/>
<stop offset="1" stop-color="#1C1C1C"/>
</linearGradient>
</defs>
</svg>
