<svg width="20" height="20" viewBox="0 0 20 20" fill="none" xmlns="http://www.w3.org/2000/svg">
<path d="M12.0984 0C10.5356 0 9.00788 0.463422 7.70847 1.33166C6.40905 2.19991 5.39628 3.43397 4.79822 4.8778C4.20017 6.32164 4.04369 7.91039 4.34858 9.44316C4.65346 10.9759 5.40602 12.3839 6.51108 13.4889C7.61614 14.594 9.02408 15.3465 10.5568 15.6514C12.0896 15.9563 13.6784 15.7998 15.1222 15.2018C16.566 14.6037 17.8001 13.5909 18.6683 12.2915C19.5366 10.9921 20 9.46442 20 7.90163C20 6.86397 19.7956 5.83647 19.3985 4.8778C19.0014 3.91914 18.4194 3.04807 17.6857 2.31433C16.9519 1.5806 16.0809 0.998569 15.1222 0.601475C14.1635 0.204382 13.136 0 12.0984 0ZM12.0984 13.6483C10.9618 13.6483 9.85074 13.3112 8.90571 12.6798C7.96069 12.0483 7.22412 11.1508 6.78918 10.1008C6.35423 9.05071 6.24042 7.89525 6.46216 6.78051C6.68389 5.66577 7.23121 4.64182 8.03489 3.83814C8.83857 3.03446 9.86252 2.48714 10.9773 2.26541C12.092 2.04367 13.2475 2.15748 14.2975 2.59243C15.3476 3.02737 16.2451 3.76394 16.8765 4.70897C17.508 5.654 17.845 6.76505 17.845 7.90163C17.845 9.42573 17.2396 10.8874 16.1619 11.9651C15.0842 13.0428 13.6225 13.6483 12.0984 13.6483ZM6.86175 14.1583L5.83454 15.1783C6.02732 15.579 6.09146 16.0294 6.01815 16.468C5.94485 16.9065 5.7377 17.3116 5.42509 17.6278L3.47842 19.5457C3.06382 19.8684 2.54566 20.0284 2.02133 19.9958C1.49701 19.9633 1.00265 19.7403 0.631184 19.3688C0.259718 18.9974 0.0367336 18.503 0.00415135 17.9787C-0.0284309 17.4543 0.131633 16.9362 0.454252 16.5216L2.37219 14.6036C2.69304 14.3013 3.0964 14.101 3.53119 14.0281C3.96597 13.9552 4.41261 14.013 4.81451 14.1942L5.84172 13.167L6.86175 14.1583ZM9.22506 10.7749H10.6617V12.2116H9.22506V10.7749ZM11.38 9.33828H12.8167V12.2116H11.38V9.33828ZM13.535 7.90163H14.9717V12.2116H13.535V7.90163Z" fill="white"/>
</svg>
