<svg width="194" height="59" viewBox="0 0 194 59" fill="none" xmlns="http://www.w3.org/2000/svg">
<path fill-rule="evenodd" clip-rule="evenodd" d="M96.82 43.2528C104.112 43.2528 110.023 37.3417 110.023 30.05C110.023 22.7583 104.112 16.8472 96.82 16.8472C89.5283 16.8472 83.6172 22.7583 83.6172 30.05C83.6172 37.3417 89.5283 43.2528 96.82 43.2528ZM96.5767 21.8991C96.6401 21.8358 96.7256 21.7984 96.8151 21.7984C96.9079 21.7972 96.9973 21.8334 97.0629 21.8991L99.1225 23.9587C99.4603 24.2827 98.9604 24.7826 98.6363 24.4448L97.1636 22.9722V26.9557C97.1636 29.1337 98.8427 30.9075 100.979 31.0661C101.15 30.1009 101.996 29.3625 103.009 29.3625C104.144 29.3625 105.072 30.2902 105.072 31.4254C105.072 32.5607 104.144 33.4884 103.009 33.4884C101.985 33.4884 101.133 32.7334 100.975 31.7531C99.355 31.6476 97.9546 30.7402 97.1636 29.4223V34.176H98.8828V38.3019H94.7569V34.176H96.476V29.4223C95.6851 30.7402 94.2847 31.6476 92.6651 31.7531C92.5067 32.7334 91.6545 33.4884 90.631 33.4884C89.4958 33.4884 88.5681 32.5607 88.5681 31.4254C88.5681 30.2902 89.4958 29.3625 90.631 29.3625C91.6438 29.3625 92.4892 30.1009 92.6604 31.0661C94.797 30.9075 96.476 29.1337 96.476 26.9557V22.9722L95.0033 24.4448C94.6793 24.7837 94.1783 24.2827 94.5172 23.9587L96.5767 21.8991ZM98.1951 34.8637H95.4445V37.6143H98.1951V34.8637Z" fill="#2FCC71"/>
<path d="M108.924 30.0501H119.926C121.141 30.0501 122.127 29.0649 122.127 27.8496V10.7959C122.127 9.58065 123.112 8.59546 124.327 8.59546H128.178" stroke="#2FCC71" stroke-width="0.550118"/>
<path d="M108.924 30.6003H119.926C121.141 30.6003 122.127 31.5855 122.127 32.8008V49.8545C122.127 51.0697 123.112 52.0549 124.327 52.0549H128.178" stroke="#2FCC71" stroke-width="0.550118"/>
<path d="M119.926 30.05H127.627" stroke="#2FCC71" stroke-width="0.550118"/>
<path d="M85.2676 30.0501H74.2652C73.0499 30.0501 72.0647 29.0649 72.0647 27.8496V10.7959C72.0647 9.58065 71.0796 8.59546 69.8643 8.59546H66.0134" stroke="#2FCC71" stroke-width="0.550118"/>
<path d="M85.2676 30.6003H74.2652C73.0499 30.6003 72.0647 31.5855 72.0647 32.8008V49.8545C72.0647 51.0697 71.0796 52.0549 69.8643 52.0549H66.0134" stroke="#2FCC71" stroke-width="0.550118"/>
<path d="M74.2656 30.05H66.564" stroke="#2FCC71" stroke-width="0.550118"/>
<rect x="127.902" y="0.618809" width="65.6527" height="15.8508" fill="#161616"/>
<rect x="127.902" y="0.618809" width="65.6527" height="15.8508" stroke="#585858" stroke-width="0.550118"/>
<path d="M135.091 11.5442V10.6992H136.385V5.96379H135.091V5.11881H138.647V5.96379H137.353V10.6992H138.647V11.5442H135.091ZM140.219 11.5442V5.11881H141.416L143.291 10.4616C143.279 10.2914 143.265 10.0889 143.247 9.85423C143.229 9.61951 143.215 9.37599 143.203 9.12367C143.197 8.87135 143.194 8.6425 143.194 8.43712V5.11881H144.074V11.5442H142.877L141.011 6.20144C141.023 6.35401 141.035 6.54472 141.047 6.77356C141.064 7.00241 141.076 7.24006 141.082 7.48652C141.093 7.73297 141.099 7.96182 141.099 8.17307V11.5442H140.219ZM147.46 11.6322C147.061 11.6322 146.712 11.5589 146.412 11.4122C146.119 11.2596 145.89 11.0425 145.726 10.7608C145.567 10.4733 145.488 10.1388 145.488 9.75741V6.90559C145.488 6.51831 145.567 6.18384 145.726 5.90218C145.89 5.62052 146.119 5.40634 146.412 5.25964C146.712 5.10707 147.061 5.03079 147.46 5.03079C147.859 5.03079 148.205 5.10707 148.498 5.25964C148.792 5.41221 149.018 5.62932 149.176 5.91098C149.34 6.18677 149.423 6.51831 149.423 6.90559H148.472C148.472 6.57112 148.384 6.31587 148.208 6.13983C148.032 5.96379 147.782 5.87577 147.46 5.87577C147.137 5.87577 146.885 5.96379 146.703 6.13983C146.527 6.31587 146.439 6.56819 146.439 6.89679V9.75741C146.439 10.086 146.527 10.3413 146.703 10.5232C146.885 10.6992 147.137 10.7872 147.46 10.7872C147.782 10.7872 148.032 10.6992 148.208 10.5232C148.384 10.3413 148.472 10.086 148.472 9.75741H149.423C149.423 10.1388 149.34 10.4704 149.176 10.752C149.018 11.0337 148.792 11.2508 148.498 11.4034C148.205 11.5559 147.859 11.6322 147.46 11.6322ZM152.702 11.6322C152.297 11.6322 151.945 11.553 151.646 11.3946C151.353 11.2361 151.124 11.0161 150.959 10.7344C150.795 10.4469 150.713 10.1124 150.713 9.731V6.932C150.713 6.54472 150.792 6.21024 150.951 5.92858C151.115 5.64692 151.347 5.42688 151.646 5.26844C151.945 5.11001 152.297 5.03079 152.702 5.03079C153.113 5.03079 153.465 5.11001 153.758 5.26844C154.058 5.42688 154.287 5.64692 154.445 5.92858C154.609 6.21024 154.691 6.54472 154.691 6.932V9.731C154.691 10.1124 154.609 10.4469 154.445 10.7344C154.281 11.0161 154.049 11.2361 153.75 11.3946C153.456 11.553 153.107 11.6322 152.702 11.6322ZM152.702 10.8136C153.031 10.8136 153.292 10.7139 153.486 10.5144C153.685 10.3149 153.785 10.0537 153.785 9.731V6.932C153.785 6.60926 153.685 6.34814 153.486 6.14863C153.292 5.94912 153.031 5.84937 152.702 5.84937C152.374 5.84937 152.11 5.94912 151.91 6.14863C151.716 6.34814 151.62 6.60926 151.62 6.932V9.731C151.62 10.0537 151.716 10.3149 151.91 10.5144C152.11 10.7139 152.374 10.8136 152.702 10.8136ZM152.702 8.87722C152.538 8.87722 152.403 8.82441 152.297 8.71878C152.198 8.61316 152.148 8.47526 152.148 8.30509C152.148 8.14079 152.198 8.00876 152.297 7.90901C152.403 7.80339 152.538 7.75057 152.702 7.75057C152.866 7.75057 152.999 7.80339 153.098 7.90901C153.204 8.00876 153.257 8.14079 153.257 8.30509C153.257 8.47526 153.204 8.61316 153.098 8.71878C152.999 8.82441 152.866 8.87722 152.702 8.87722ZM156.105 11.5442V10.6992H157.813V5.94619L156.096 7.22246V6.19264L157.566 5.11881H158.763V10.6992H160.145V11.5442H156.105ZM163.258 11.6322C162.853 11.6322 162.501 11.553 162.201 11.3946C161.908 11.2361 161.679 11.0161 161.515 10.7344C161.35 10.4469 161.268 10.1124 161.268 9.731V6.932C161.268 6.54472 161.348 6.21024 161.506 5.92858C161.67 5.64692 161.902 5.42688 162.201 5.26844C162.501 5.11001 162.853 5.03079 163.258 5.03079C163.668 5.03079 164.02 5.11001 164.314 5.26844C164.613 5.42688 164.842 5.64692 165 5.92858C165.165 6.21024 165.247 6.54472 165.247 6.932V9.731C165.247 10.1124 165.165 10.4469 165 10.7344C164.836 11.0161 164.604 11.2361 164.305 11.3946C164.012 11.553 163.662 11.6322 163.258 11.6322ZM163.258 10.8136C163.586 10.8136 163.847 10.7139 164.041 10.5144C164.24 10.3149 164.34 10.0537 164.34 9.731V6.932C164.34 6.60926 164.24 6.34814 164.041 6.14863C163.847 5.94912 163.586 5.84937 163.258 5.84937C162.929 5.84937 162.665 5.94912 162.465 6.14863C162.272 6.34814 162.175 6.60926 162.175 6.932V9.731C162.175 10.0537 162.272 10.3149 162.465 10.5144C162.665 10.7139 162.929 10.8136 163.258 10.8136ZM163.258 8.87722C163.093 8.87722 162.958 8.82441 162.853 8.71878C162.753 8.61316 162.703 8.47526 162.703 8.30509C162.703 8.14079 162.753 8.00876 162.853 7.90901C162.958 7.80339 163.093 7.75057 163.258 7.75057C163.422 7.75057 163.554 7.80339 163.654 7.90901C163.759 8.00876 163.812 8.14079 163.812 8.30509C163.812 8.47526 163.759 8.61316 163.654 8.71878C163.554 8.82441 163.422 8.87722 163.258 8.87722ZM169.415 11.5442V10.2063H166.537V8.7804L169.037 5.11881H170.093L167.453 9.00924V9.35252H169.415V7.8474H170.357V11.5442H169.415ZM171.921 11.5442V10.6024L173.91 8.55155C174.215 8.23468 174.438 7.95008 174.579 7.69776C174.725 7.43957 174.799 7.18432 174.799 6.932C174.799 6.60339 174.708 6.34521 174.526 6.15743C174.35 5.96966 174.106 5.87577 173.795 5.87577C173.455 5.87577 173.185 5.97553 172.986 6.17504C172.792 6.36868 172.695 6.63567 172.695 6.97601H171.745C171.756 6.57699 171.847 6.23372 172.017 5.94619C172.188 5.65279 172.425 5.42688 172.73 5.26844C173.035 5.11001 173.393 5.03079 173.804 5.03079C174.197 5.03079 174.541 5.10707 174.834 5.25964C175.127 5.41221 175.353 5.62638 175.512 5.90218C175.67 6.17797 175.749 6.50364 175.749 6.87919C175.749 7.2606 175.65 7.63322 175.45 7.99703C175.256 8.36084 174.937 8.76573 174.491 9.21169L173.038 10.6816H175.846V11.5442H171.921ZM179.971 11.5442V10.2063H177.093V8.7804L179.592 5.11881H180.649L178.008 9.00924V9.35252H179.971V7.8474H180.913V11.5442H179.971ZM182.476 11.5442V10.6024L184.465 8.55155C184.77 8.23468 184.993 7.95008 185.134 7.69776C185.281 7.43957 185.354 7.18432 185.354 6.932C185.354 6.60339 185.263 6.34521 185.081 6.15743C184.905 5.96966 184.662 5.87577 184.351 5.87577C184.01 5.87577 183.74 5.97553 183.541 6.17504C183.347 6.36868 183.251 6.63567 183.251 6.97601H182.3C182.312 6.57699 182.403 6.23372 182.573 5.94619C182.743 5.65279 182.981 5.42688 183.286 5.26844C183.591 5.11001 183.949 5.03079 184.36 5.03079C184.753 5.03079 185.096 5.10707 185.389 5.25964C185.683 5.41221 185.909 5.62638 186.067 5.90218C186.226 6.17797 186.305 6.50364 186.305 6.87919C186.305 7.2606 186.205 7.63322 186.005 7.99703C185.812 8.36084 185.492 8.76573 185.046 9.21169L183.594 10.6816H186.402V11.5442H182.476Z" fill="white"/>
<rect x="127.902" y="21.4208" width="65.6527" height="15.8508" fill="#161616"/>
<rect x="127.902" y="21.4208" width="65.6527" height="15.8508" stroke="#585858" stroke-width="0.550118"/>
<path d="M135.091 32.3462V31.5012H136.385V26.7658H135.091V25.9208H138.647V26.7658H137.353V31.5012H138.647V32.3462H135.091ZM140.219 32.3462V25.9208H141.416L143.291 31.2636C143.279 31.0934 143.265 30.8909 143.247 30.6562C143.229 30.4215 143.215 30.178 143.203 29.9257C143.197 29.6734 143.194 29.4445 143.194 29.2391V25.9208H144.074V32.3462H142.877L141.011 27.0034C141.023 27.156 141.035 27.3467 141.047 27.5756C141.064 27.8044 141.076 28.0421 141.082 28.2885C141.093 28.535 141.099 28.7638 141.099 28.9751V32.3462H140.219ZM147.46 32.4342C147.061 32.4342 146.712 32.3609 146.412 32.2142C146.119 32.0616 145.89 31.8445 145.726 31.5628C145.567 31.2753 145.488 30.9408 145.488 30.5594V27.7076C145.488 27.3203 145.567 26.9858 145.726 26.7042C145.89 26.4225 146.119 26.2083 146.412 26.0616C146.712 25.9091 147.061 25.8328 147.46 25.8328C147.859 25.8328 148.205 25.9091 148.498 26.0616C148.792 26.2142 149.018 26.4313 149.176 26.713C149.34 26.9888 149.423 27.3203 149.423 27.7076H148.472C148.472 27.3731 148.384 27.1179 148.208 26.9418C148.032 26.7658 147.782 26.6778 147.46 26.6778C147.137 26.6778 146.885 26.7658 146.703 26.9418C146.527 27.1179 146.439 27.3702 146.439 27.6988V30.5594C146.439 30.888 146.527 31.1433 146.703 31.3252C146.885 31.5012 147.137 31.5892 147.46 31.5892C147.782 31.5892 148.032 31.5012 148.208 31.3252C148.384 31.1433 148.472 30.888 148.472 30.5594H149.423C149.423 30.9408 149.34 31.2724 149.176 31.554C149.018 31.8357 148.792 32.0528 148.498 32.2054C148.205 32.3579 147.859 32.4342 147.46 32.4342ZM152.702 32.4342C152.297 32.4342 151.945 32.355 151.646 32.1966C151.353 32.0381 151.124 31.8181 150.959 31.5364C150.795 31.2489 150.713 30.9144 150.713 30.533V27.734C150.713 27.3467 150.792 27.0122 150.951 26.7306C151.115 26.4489 151.347 26.2289 151.646 26.0704C151.945 25.912 152.297 25.8328 152.702 25.8328C153.113 25.8328 153.465 25.912 153.758 26.0704C154.058 26.2289 154.287 26.4489 154.445 26.7306C154.609 27.0122 154.691 27.3467 154.691 27.734V30.533C154.691 30.9144 154.609 31.2489 154.445 31.5364C154.281 31.8181 154.049 32.0381 153.75 32.1966C153.456 32.355 153.107 32.4342 152.702 32.4342ZM152.702 31.6156C153.031 31.6156 153.292 31.5159 153.486 31.3164C153.685 31.1169 153.785 30.8557 153.785 30.533V27.734C153.785 27.4113 153.685 27.1501 153.486 26.9506C153.292 26.7511 153.031 26.6514 152.702 26.6514C152.374 26.6514 152.11 26.7511 151.91 26.9506C151.716 27.1501 151.62 27.4113 151.62 27.734V30.533C151.62 30.8557 151.716 31.1169 151.91 31.3164C152.11 31.5159 152.374 31.6156 152.702 31.6156ZM152.702 29.6792C152.538 29.6792 152.403 29.6264 152.297 29.5208C152.198 29.4152 152.148 29.2773 152.148 29.1071C152.148 28.9428 152.198 28.8108 152.297 28.711C152.403 28.6054 152.538 28.5526 152.702 28.5526C152.866 28.5526 152.999 28.6054 153.098 28.711C153.204 28.8108 153.257 28.9428 153.257 29.1071C153.257 29.2773 153.204 29.4152 153.098 29.5208C152.999 29.6264 152.866 29.6792 152.702 29.6792ZM156.105 32.3462V31.5012H157.813V26.7482L156.096 28.0245V26.9946L157.566 25.9208H158.763V31.5012H160.145V32.3462H156.105ZM163.258 32.4342C162.853 32.4342 162.501 32.355 162.201 32.1966C161.908 32.0381 161.679 31.8181 161.515 31.5364C161.35 31.2489 161.268 30.9144 161.268 30.533V27.734C161.268 27.3467 161.348 27.0122 161.506 26.7306C161.67 26.4489 161.902 26.2289 162.201 26.0704C162.501 25.912 162.853 25.8328 163.258 25.8328C163.668 25.8328 164.02 25.912 164.314 26.0704C164.613 26.2289 164.842 26.4489 165 26.7306C165.165 27.0122 165.247 27.3467 165.247 27.734V30.533C165.247 30.9144 165.165 31.2489 165 31.5364C164.836 31.8181 164.604 32.0381 164.305 32.1966C164.012 32.355 163.662 32.4342 163.258 32.4342ZM163.258 31.6156C163.586 31.6156 163.847 31.5159 164.041 31.3164C164.24 31.1169 164.34 30.8557 164.34 30.533V27.734C164.34 27.4113 164.24 27.1501 164.041 26.9506C163.847 26.7511 163.586 26.6514 163.258 26.6514C162.929 26.6514 162.665 26.7511 162.465 26.9506C162.272 27.1501 162.175 27.4113 162.175 27.734V30.533C162.175 30.8557 162.272 31.1169 162.465 31.3164C162.665 31.5159 162.929 31.6156 163.258 31.6156ZM163.258 29.6792C163.093 29.6792 162.958 29.6264 162.853 29.5208C162.753 29.4152 162.703 29.2773 162.703 29.1071C162.703 28.9428 162.753 28.8108 162.853 28.711C162.958 28.6054 163.093 28.5526 163.258 28.5526C163.422 28.5526 163.554 28.6054 163.654 28.711C163.759 28.8108 163.812 28.9428 163.812 29.1071C163.812 29.2773 163.759 29.4152 163.654 29.5208C163.554 29.6264 163.422 29.6792 163.258 29.6792ZM168.518 32.4342C167.96 32.4342 167.508 32.2934 167.162 32.0117C166.816 31.7242 166.622 31.3398 166.581 30.8587H167.523C167.552 31.0934 167.652 31.2753 167.822 31.4044C167.992 31.5335 168.227 31.598 168.526 31.598C168.861 31.598 169.113 31.51 169.283 31.334C169.459 31.1521 169.547 30.8997 169.547 30.577V29.9521C169.547 29.6235 169.462 29.3712 169.292 29.1951C169.122 29.0132 168.87 28.9223 168.535 28.9223C168.324 28.9223 168.142 28.9721 167.99 29.0719C167.837 29.1658 167.725 29.2978 167.655 29.468H166.713L166.757 25.9208H170.26V26.7834H167.664L167.646 28.7814H167.893L167.637 29.0103C167.637 28.7345 167.746 28.5174 167.963 28.3589C168.18 28.2005 168.471 28.1213 168.835 28.1213C169.357 28.1213 169.762 28.2827 170.049 28.6054C170.343 28.9223 170.489 29.3712 170.489 29.9521V30.577C170.489 31.1462 170.316 31.598 169.97 31.9325C169.624 32.267 169.14 32.4342 168.518 32.4342ZM173.813 32.4342C173.402 32.4342 173.047 32.3638 172.748 32.223C172.449 32.0821 172.217 31.8826 172.053 31.6244C171.888 31.3604 171.806 31.0552 171.806 30.709C171.806 30.3218 171.912 29.9902 172.123 29.7144C172.334 29.4386 172.66 29.198 173.1 28.9927L174.024 28.5614C174.259 28.4499 174.441 28.3032 174.57 28.1213C174.699 27.9335 174.764 27.7281 174.764 27.5052C174.764 27.2411 174.678 27.0328 174.508 26.8802C174.338 26.7277 174.106 26.6514 173.813 26.6514C173.52 26.6514 173.285 26.7306 173.109 26.889C172.939 27.0416 172.854 27.2499 172.854 27.514C172.854 27.7311 172.918 27.9335 173.047 28.1213C173.176 28.3032 173.352 28.447 173.575 28.5526L174.5 28.9751C174.963 29.1922 175.298 29.4416 175.503 29.7232C175.714 29.999 175.82 30.3276 175.82 30.709C175.82 31.2372 175.638 31.6567 175.274 31.9677C174.916 32.2787 174.429 32.4342 173.813 32.4342ZM173.813 31.6068C174.142 31.6068 174.403 31.5217 174.596 31.3516C174.79 31.1755 174.887 30.9467 174.887 30.665C174.887 30.4362 174.822 30.2249 174.693 30.0313C174.564 29.8318 174.385 29.6763 174.156 29.5648L173.206 29.1159C172.771 28.9105 172.449 28.6758 172.237 28.4117C172.026 28.1477 171.921 27.8308 171.921 27.4611C171.921 27.1384 171.997 26.8538 172.149 26.6074C172.308 26.3609 172.528 26.1702 172.81 26.0352C173.091 25.8944 173.426 25.824 173.813 25.824C174.2 25.824 174.535 25.8944 174.816 26.0352C175.098 26.1702 175.315 26.3609 175.468 26.6074C175.62 26.8538 175.697 27.1384 175.697 27.4611C175.697 27.8367 175.591 28.1536 175.38 28.4117C175.174 28.6699 174.852 28.9076 174.411 29.1247L173.452 29.5736C173.229 29.6792 173.053 29.8289 172.924 30.0225C172.801 30.2161 172.739 30.4244 172.739 30.6474C172.739 30.935 172.836 31.1667 173.03 31.3428C173.223 31.5188 173.484 31.6068 173.813 31.6068ZM179.091 32.4342C178.68 32.4342 178.325 32.3638 178.026 32.223C177.726 32.0821 177.495 31.8826 177.33 31.6244C177.166 31.3604 177.084 31.0552 177.084 30.709C177.084 30.3218 177.189 29.9902 177.401 29.7144C177.612 29.4386 177.938 29.198 178.378 28.9927L179.302 28.5614C179.537 28.4499 179.719 28.3032 179.848 28.1213C179.977 27.9335 180.041 27.7281 180.041 27.5052C180.041 27.2411 179.956 27.0328 179.786 26.8802C179.616 26.7277 179.384 26.6514 179.091 26.6514C178.797 26.6514 178.563 26.7306 178.387 26.889C178.216 27.0416 178.131 27.2499 178.131 27.514C178.131 27.7311 178.196 27.9335 178.325 28.1213C178.454 28.3032 178.63 28.447 178.853 28.5526L179.777 28.9751C180.241 29.1922 180.575 29.4416 180.781 29.7232C180.992 29.999 181.097 30.3276 181.097 30.709C181.097 31.2372 180.916 31.6567 180.552 31.9677C180.194 32.2787 179.707 32.4342 179.091 32.4342ZM179.091 31.6068C179.419 31.6068 179.68 31.5217 179.874 31.3516C180.068 31.1755 180.164 30.9467 180.164 30.665C180.164 30.4362 180.1 30.2249 179.971 30.0313C179.842 29.8318 179.663 29.6763 179.434 29.5648L178.483 29.1159C178.049 28.9105 177.726 28.6758 177.515 28.4117C177.304 28.1477 177.198 27.8308 177.198 27.4611C177.198 27.1384 177.275 26.8538 177.427 26.6074C177.586 26.3609 177.806 26.1702 178.087 26.0352C178.369 25.8944 178.703 25.824 179.091 25.824C179.478 25.824 179.812 25.8944 180.094 26.0352C180.376 26.1702 180.593 26.3609 180.745 26.6074C180.898 26.8538 180.974 27.1384 180.974 27.4611C180.974 27.8367 180.869 28.1536 180.657 28.4117C180.452 28.6699 180.129 28.9076 179.689 29.1247L178.73 29.5736C178.507 29.6792 178.331 29.8289 178.202 30.0225C178.078 30.2161 178.017 30.4244 178.017 30.6474C178.017 30.935 178.114 31.1667 178.307 31.3428C178.501 31.5188 178.762 31.6068 179.091 31.6068ZM184.368 32.4342C183.958 32.4342 183.603 32.3638 183.303 32.223C183.004 32.0821 182.772 31.8826 182.608 31.6244C182.444 31.3604 182.362 31.0552 182.362 30.709C182.362 30.3218 182.467 29.9902 182.678 29.7144C182.89 29.4386 183.215 29.198 183.655 28.9927L184.58 28.5614C184.814 28.4499 184.996 28.3032 185.125 28.1213C185.254 27.9335 185.319 27.7281 185.319 27.5052C185.319 27.2411 185.234 27.0328 185.064 26.8802C184.894 26.7277 184.662 26.6514 184.368 26.6514C184.075 26.6514 183.84 26.7306 183.664 26.889C183.494 27.0416 183.409 27.2499 183.409 27.514C183.409 27.7311 183.473 27.9335 183.603 28.1213C183.732 28.3032 183.908 28.447 184.131 28.5526L185.055 28.9751C185.518 29.1922 185.853 29.4416 186.058 29.7232C186.27 29.999 186.375 30.3276 186.375 30.709C186.375 31.2372 186.193 31.6567 185.829 31.9677C185.472 32.2787 184.984 32.4342 184.368 32.4342ZM184.368 31.6068C184.697 31.6068 184.958 31.5217 185.152 31.3516C185.345 31.1755 185.442 30.9467 185.442 30.665C185.442 30.4362 185.378 30.2249 185.249 30.0313C185.119 29.8318 184.94 29.6763 184.712 29.5648L183.761 29.1159C183.327 28.9105 183.004 28.6758 182.793 28.4117C182.582 28.1477 182.476 27.8308 182.476 27.4611C182.476 27.1384 182.552 26.8538 182.705 26.6074C182.863 26.3609 183.083 26.1702 183.365 26.0352C183.647 25.8944 183.981 25.824 184.368 25.824C184.756 25.824 185.09 25.8944 185.372 26.0352C185.653 26.1702 185.871 26.3609 186.023 26.6074C186.176 26.8538 186.252 27.1384 186.252 27.4611C186.252 27.8367 186.146 28.1536 185.935 28.4117C185.73 28.6699 185.407 28.9076 184.967 29.1247L184.007 29.5736C183.784 29.6792 183.608 29.8289 183.479 30.0225C183.356 30.2161 183.295 30.4244 183.295 30.6474C183.295 30.935 183.391 31.1667 183.585 31.3428C183.779 31.5188 184.04 31.6068 184.368 31.6068Z" fill="white"/>
<rect x="127.902" y="42.2226" width="65.6527" height="15.8508" fill="#161616"/>
<rect x="127.902" y="42.2226" width="65.6527" height="15.8508" stroke="#585858" stroke-width="0.550118"/>
<path d="M135.091 53.1479V52.303H136.385V47.5676H135.091V46.7226H138.647V47.5676H137.353V52.303H138.647V53.1479H135.091ZM140.219 53.1479V46.7226H141.416L143.291 52.0653C143.279 51.8951 143.265 51.6927 143.247 51.458C143.229 51.2233 143.215 50.9798 143.203 50.7274C143.197 50.4751 143.194 50.2463 143.194 50.0409V46.7226H144.074V53.1479H142.877L141.011 47.8052C141.023 47.9578 141.035 48.1485 141.047 48.3773C141.064 48.6062 141.076 48.8438 141.082 49.0903C141.093 49.3367 141.099 49.5656 141.099 49.7768V53.1479H140.219ZM147.46 53.236C147.061 53.236 146.712 53.1626 146.412 53.0159C146.119 52.8634 145.89 52.6462 145.726 52.3646C145.567 52.0771 145.488 51.7426 145.488 51.3612V48.5094C145.488 48.1221 145.567 47.7876 145.726 47.5059C145.89 47.2243 146.119 47.0101 146.412 46.8634C146.712 46.7108 147.061 46.6346 147.46 46.6346C147.859 46.6346 148.205 46.7108 148.498 46.8634C148.792 47.016 149.018 47.2331 149.176 47.5147C149.34 47.7905 149.423 48.1221 149.423 48.5094H148.472C148.472 48.1749 148.384 47.9196 148.208 47.7436C148.032 47.5676 147.782 47.4795 147.46 47.4795C147.137 47.4795 146.885 47.5676 146.703 47.7436C146.527 47.9196 146.439 48.1719 146.439 48.5006V51.3612C146.439 51.6898 146.527 51.945 146.703 52.1269C146.885 52.303 147.137 52.391 147.46 52.391C147.782 52.391 148.032 52.303 148.208 52.1269C148.384 51.945 148.472 51.6898 148.472 51.3612H149.423C149.423 51.7426 149.34 52.0741 149.176 52.3558C149.018 52.6374 148.792 52.8546 148.498 53.0071C148.205 53.1597 147.859 53.236 147.46 53.236ZM152.702 53.236C152.297 53.236 151.945 53.1568 151.646 52.9983C151.353 52.8399 151.124 52.6198 150.959 52.3382C150.795 52.0506 150.713 51.7162 150.713 51.3348V48.5358C150.713 48.1485 150.792 47.814 150.951 47.5323C151.115 47.2507 151.347 47.0306 151.646 46.8722C151.945 46.7138 152.297 46.6346 152.702 46.6346C153.113 46.6346 153.465 46.7138 153.758 46.8722C154.058 47.0306 154.287 47.2507 154.445 47.5323C154.609 47.814 154.691 48.1485 154.691 48.5358V51.3348C154.691 51.7162 154.609 52.0506 154.445 52.3382C154.281 52.6198 154.049 52.8399 153.75 52.9983C153.456 53.1568 153.107 53.236 152.702 53.236ZM152.702 52.4174C153.031 52.4174 153.292 52.3176 153.486 52.1181C153.685 51.9186 153.785 51.6575 153.785 51.3348V48.5358C153.785 48.213 153.685 47.9519 153.486 47.7524C153.292 47.5529 153.031 47.4531 152.702 47.4531C152.374 47.4531 152.11 47.5529 151.91 47.7524C151.716 47.9519 151.62 48.213 151.62 48.5358V51.3348C151.62 51.6575 151.716 51.9186 151.91 52.1181C152.11 52.3176 152.374 52.4174 152.702 52.4174ZM152.702 50.481C152.538 50.481 152.403 50.4282 152.297 50.3225C152.198 50.2169 152.148 50.079 152.148 49.9089C152.148 49.7446 152.198 49.6125 152.297 49.5128C152.403 49.4071 152.538 49.3543 152.702 49.3543C152.866 49.3543 152.999 49.4071 153.098 49.5128C153.204 49.6125 153.257 49.7446 153.257 49.9089C153.257 50.079 153.204 50.2169 153.098 50.3225C152.999 50.4282 152.866 50.481 152.702 50.481ZM156.105 53.1479V52.303H157.813V47.5499L156.096 48.8262V47.7964L157.566 46.7226H158.763V52.303H160.145V53.1479H156.105ZM163.258 53.236C162.853 53.236 162.501 53.1568 162.201 52.9983C161.908 52.8399 161.679 52.6198 161.515 52.3382C161.35 52.0506 161.268 51.7162 161.268 51.3348V48.5358C161.268 48.1485 161.348 47.814 161.506 47.5323C161.67 47.2507 161.902 47.0306 162.201 46.8722C162.501 46.7138 162.853 46.6346 163.258 46.6346C163.668 46.6346 164.02 46.7138 164.314 46.8722C164.613 47.0306 164.842 47.2507 165 47.5323C165.165 47.814 165.247 48.1485 165.247 48.5358V51.3348C165.247 51.7162 165.165 52.0506 165 52.3382C164.836 52.6198 164.604 52.8399 164.305 52.9983C164.012 53.1568 163.662 53.236 163.258 53.236ZM163.258 52.4174C163.586 52.4174 163.847 52.3176 164.041 52.1181C164.24 51.9186 164.34 51.6575 164.34 51.3348V48.5358C164.34 48.213 164.24 47.9519 164.041 47.7524C163.847 47.5529 163.586 47.4531 163.258 47.4531C162.929 47.4531 162.665 47.5529 162.465 47.7524C162.272 47.9519 162.175 48.213 162.175 48.5358V51.3348C162.175 51.6575 162.272 51.9186 162.465 52.1181C162.665 52.3176 162.929 52.4174 163.258 52.4174ZM163.258 50.481C163.093 50.481 162.958 50.4282 162.853 50.3225C162.753 50.2169 162.703 50.079 162.703 49.9089C162.703 49.7446 162.753 49.6125 162.853 49.5128C162.958 49.4071 163.093 49.3543 163.258 49.3543C163.422 49.3543 163.554 49.4071 163.654 49.5128C163.759 49.6125 163.812 49.7446 163.812 49.9089C163.812 50.079 163.759 50.2169 163.654 50.3225C163.554 50.4282 163.422 50.481 163.258 50.481ZM168.544 53.236C168.122 53.236 167.752 53.1479 167.435 52.9719C167.118 52.7959 166.872 52.5494 166.696 52.2326C166.52 51.9098 166.432 51.5401 166.432 51.1235C166.432 50.8066 166.479 50.4898 166.572 50.1729C166.672 49.8502 166.813 49.5421 166.995 49.2487L168.562 46.7226H169.618L167.752 49.68L167.796 49.7064C167.913 49.5362 168.069 49.4071 168.262 49.3191C168.462 49.2252 168.682 49.1783 168.923 49.1783C169.269 49.1783 169.571 49.2604 169.829 49.4247C170.087 49.5891 170.287 49.8208 170.428 50.1201C170.568 50.4135 170.639 50.7626 170.639 51.1675C170.639 51.5783 170.551 51.9392 170.375 52.2502C170.199 52.5612 169.955 52.8047 169.644 52.9807C169.333 53.1509 168.967 53.236 168.544 53.236ZM168.535 52.4174C168.887 52.4174 169.169 52.303 169.38 52.0741C169.591 51.8453 169.697 51.5431 169.697 51.1675C169.697 50.792 169.591 50.4898 169.38 50.2609C169.169 50.0321 168.887 49.9177 168.535 49.9177C168.183 49.9177 167.902 50.0321 167.69 50.2609C167.479 50.4898 167.373 50.792 167.373 51.1675C167.373 51.5431 167.479 51.8453 167.69 52.0741C167.902 52.303 168.183 52.4174 168.535 52.4174ZM173.822 53.236C173.399 53.236 173.03 53.1479 172.713 52.9719C172.396 52.7959 172.149 52.5494 171.973 52.2326C171.797 51.9098 171.709 51.5401 171.709 51.1235C171.709 50.8066 171.756 50.4898 171.85 50.1729C171.95 49.8502 172.091 49.5421 172.273 49.2487L173.839 46.7226H174.896L173.03 49.68L173.074 49.7064C173.191 49.5362 173.346 49.4071 173.54 49.3191C173.74 49.2252 173.96 49.1783 174.2 49.1783C174.546 49.1783 174.849 49.2604 175.107 49.4247C175.365 49.5891 175.565 49.8208 175.705 50.1201C175.846 50.4135 175.917 50.7626 175.917 51.1675C175.917 51.5783 175.829 51.9392 175.653 52.2502C175.477 52.5612 175.233 52.8047 174.922 52.9807C174.611 53.1509 174.244 53.236 173.822 53.236ZM173.813 52.4174C174.165 52.4174 174.447 52.303 174.658 52.0741C174.869 51.8453 174.975 51.5431 174.975 51.1675C174.975 50.792 174.869 50.4898 174.658 50.2609C174.447 50.0321 174.165 49.9177 173.813 49.9177C173.461 49.9177 173.179 50.0321 172.968 50.2609C172.757 50.4898 172.651 50.792 172.651 51.1675C172.651 51.5431 172.757 51.8453 172.968 52.0741C173.179 52.303 173.461 52.4174 173.813 52.4174ZM179.099 53.236C178.677 53.236 178.307 53.1479 177.99 52.9719C177.674 52.7959 177.427 52.5494 177.251 52.2326C177.075 51.9098 176.987 51.5401 176.987 51.1235C176.987 50.8066 177.034 50.4898 177.128 50.1729C177.228 49.8502 177.368 49.5421 177.55 49.2487L179.117 46.7226H180.173L178.307 49.68L178.351 49.7064C178.469 49.5362 178.624 49.4071 178.818 49.3191C179.017 49.2252 179.237 49.1783 179.478 49.1783C179.824 49.1783 180.126 49.2604 180.385 49.4247C180.643 49.5891 180.842 49.8208 180.983 50.1201C181.124 50.4135 181.194 50.7626 181.194 51.1675C181.194 51.5783 181.106 51.9392 180.93 52.2502C180.754 52.5612 180.511 52.8047 180.2 52.9807C179.889 53.1509 179.522 53.236 179.099 53.236ZM179.091 52.4174C179.443 52.4174 179.724 52.303 179.936 52.0741C180.147 51.8453 180.253 51.5431 180.253 51.1675C180.253 50.792 180.147 50.4898 179.936 50.2609C179.724 50.0321 179.443 49.9177 179.091 49.9177C178.739 49.9177 178.457 50.0321 178.246 50.2609C178.034 50.4898 177.929 50.792 177.929 51.1675C177.929 51.5431 178.034 51.8453 178.246 52.0741C178.457 52.303 178.739 52.4174 179.091 52.4174ZM184.377 53.236C183.955 53.236 183.585 53.1479 183.268 52.9719C182.951 52.7959 182.705 52.5494 182.529 52.2326C182.353 51.9098 182.265 51.5401 182.265 51.1235C182.265 50.8066 182.312 50.4898 182.406 50.1729C182.505 49.8502 182.646 49.5421 182.828 49.2487L184.395 46.7226H185.451L183.585 49.68L183.629 49.7064C183.746 49.5362 183.902 49.4071 184.095 49.3191C184.295 49.2252 184.515 49.1783 184.756 49.1783C185.102 49.1783 185.404 49.2604 185.662 49.4247C185.92 49.5891 186.12 49.8208 186.261 50.1201C186.402 50.4135 186.472 50.7626 186.472 51.1675C186.472 51.5783 186.384 51.9392 186.208 52.2502C186.032 52.5612 185.788 52.8047 185.477 52.9807C185.166 53.1509 184.8 53.236 184.377 53.236ZM184.368 52.4174C184.72 52.4174 185.002 52.303 185.213 52.0741C185.425 51.8453 185.53 51.5431 185.53 51.1675C185.53 50.792 185.425 50.4898 185.213 50.2609C185.002 50.0321 184.72 49.9177 184.368 49.9177C184.016 49.9177 183.735 50.0321 183.523 50.2609C183.312 50.4898 183.206 50.792 183.206 51.1675C183.206 51.5431 183.312 51.8453 183.523 52.0741C183.735 52.303 184.016 52.4174 184.368 52.4174Z" fill="white"/>
<rect x="0.275059" y="0.618809" width="65.6527" height="15.8508" fill="#161616"/>
<rect x="0.275059" y="0.618809" width="65.6527" height="15.8508" stroke="#585858" stroke-width="0.550118"/>
<path d="M7.46415 11.5442V10.6992H8.75803V5.96379H7.46415V5.11881H11.0201V5.96379H9.72623V10.6992H11.0201V11.5442H7.46415ZM12.5922 11.5442V5.11881H13.7893L15.6641 10.4616C15.6523 10.2914 15.6377 10.0889 15.6201 9.85423C15.6025 9.61951 15.5878 9.37599 15.5761 9.12367C15.5702 8.87135 15.5673 8.6425 15.5673 8.43712V5.11881H16.4474V11.5442H15.2504L13.3844 6.20144C13.3961 6.35401 13.4079 6.54472 13.4196 6.77356C13.4372 7.00241 13.4489 7.24006 13.4548 7.48652C13.4665 7.73297 13.4724 7.96182 13.4724 8.17307V11.5442H12.5922ZM19.8327 11.6322C19.4337 11.6322 19.0846 11.5589 18.7853 11.4122C18.4919 11.2596 18.2631 11.0425 18.0988 10.7608C17.9403 10.4733 17.8611 10.1388 17.8611 9.75741V6.90559C17.8611 6.51831 17.9403 6.18384 18.0988 5.90218C18.2631 5.62052 18.4919 5.40634 18.7853 5.25964C19.0846 5.10707 19.4337 5.03079 19.8327 5.03079C20.2317 5.03079 20.578 5.10707 20.8714 5.25964C21.1647 5.41221 21.3907 5.62932 21.5491 5.91098C21.7134 6.18677 21.7956 6.51831 21.7956 6.90559H20.8449C20.8449 6.57112 20.7569 6.31587 20.5809 6.13983C20.4049 5.96379 20.1555 5.87577 19.8327 5.87577C19.51 5.87577 19.2577 5.96379 19.0758 6.13983C18.8997 6.31587 18.8117 6.56819 18.8117 6.89679V9.75741C18.8117 10.086 18.8997 10.3413 19.0758 10.5232C19.2577 10.6992 19.51 10.7872 19.8327 10.7872C20.1555 10.7872 20.4049 10.6992 20.5809 10.5232C20.7569 10.3413 20.8449 10.086 20.8449 9.75741H21.7956C21.7956 10.1388 21.7134 10.4704 21.5491 10.752C21.3907 11.0337 21.1647 11.2508 20.8714 11.4034C20.578 11.5559 20.2317 11.6322 19.8327 11.6322ZM25.0752 11.6322C24.6703 11.6322 24.3183 11.553 24.019 11.3946C23.7256 11.2361 23.4967 11.0161 23.3324 10.7344C23.1681 10.4469 23.086 10.1124 23.086 9.731V6.932C23.086 6.54472 23.1652 6.21024 23.3236 5.92858C23.4879 5.64692 23.7197 5.42688 24.019 5.26844C24.3183 5.11001 24.6703 5.03079 25.0752 5.03079C25.486 5.03079 25.838 5.11001 26.1314 5.26844C26.4307 5.42688 26.6596 5.64692 26.818 5.92858C26.9823 6.21024 27.0644 6.54472 27.0644 6.932V9.731C27.0644 10.1124 26.9823 10.4469 26.818 10.7344C26.6537 11.0161 26.4219 11.2361 26.1226 11.3946C25.8292 11.553 25.4801 11.6322 25.0752 11.6322ZM25.0752 10.8136C25.4038 10.8136 25.6649 10.7139 25.8586 10.5144C26.0581 10.3149 26.1579 10.0537 26.1579 9.731V6.932C26.1579 6.60926 26.0581 6.34814 25.8586 6.14863C25.6649 5.94912 25.4038 5.84937 25.0752 5.84937C24.7466 5.84937 24.4826 5.94912 24.283 6.14863C24.0894 6.34814 23.9926 6.60926 23.9926 6.932V9.731C23.9926 10.0537 24.0894 10.3149 24.283 10.5144C24.4826 10.7139 24.7466 10.8136 25.0752 10.8136ZM25.0752 8.87722C24.9109 8.87722 24.776 8.82441 24.6703 8.71878C24.5706 8.61316 24.5207 8.47526 24.5207 8.30509C24.5207 8.14079 24.5706 8.00876 24.6703 7.90901C24.776 7.80339 24.9109 7.75057 25.0752 7.75057C25.2395 7.75057 25.3715 7.80339 25.4713 7.90901C25.5769 8.00876 25.6297 8.14079 25.6297 8.30509C25.6297 8.47526 25.5769 8.61316 25.4713 8.71878C25.3715 8.82441 25.2395 8.87722 25.0752 8.87722ZM28.4781 11.5442V10.6992H30.1857V5.94619L28.4693 7.22246V6.19264L29.9392 5.11881H31.1363V10.6992H32.5182V11.5442H28.4781ZM35.6306 11.6322C35.2257 11.6322 34.8736 11.553 34.5744 11.3946C34.281 11.2361 34.0521 11.0161 33.8878 10.7344C33.7235 10.4469 33.6414 10.1124 33.6414 9.731V6.932C33.6414 6.54472 33.7206 6.21024 33.879 5.92858C34.0433 5.64692 34.2751 5.42688 34.5744 5.26844C34.8736 5.11001 35.2257 5.03079 35.6306 5.03079C36.0414 5.03079 36.3934 5.11001 36.6868 5.26844C36.9861 5.42688 37.215 5.64692 37.3734 5.92858C37.5377 6.21024 37.6198 6.54472 37.6198 6.932V9.731C37.6198 10.1124 37.5377 10.4469 37.3734 10.7344C37.2091 11.0161 36.9773 11.2361 36.678 11.3946C36.3846 11.553 36.0355 11.6322 35.6306 11.6322ZM35.6306 10.8136C35.9592 10.8136 36.2203 10.7139 36.414 10.5144C36.6135 10.3149 36.7132 10.0537 36.7132 9.731V6.932C36.7132 6.60926 36.6135 6.34814 36.414 6.14863C36.2203 5.94912 35.9592 5.84937 35.6306 5.84937C35.302 5.84937 35.038 5.94912 34.8384 6.14863C34.6448 6.34814 34.548 6.60926 34.548 6.932V9.731C34.548 10.0537 34.6448 10.3149 34.8384 10.5144C35.038 10.7139 35.302 10.8136 35.6306 10.8136ZM35.6306 8.87722C35.4663 8.87722 35.3313 8.82441 35.2257 8.71878C35.126 8.61316 35.0761 8.47526 35.0761 8.30509C35.0761 8.14079 35.126 8.00876 35.2257 7.90901C35.3313 7.80339 35.4663 7.75057 35.6306 7.75057C35.7949 7.75057 35.9269 7.80339 36.0267 7.90901C36.1323 8.00876 36.1851 8.14079 36.1851 8.30509C36.1851 8.47526 36.1323 8.61316 36.0267 8.71878C35.9269 8.82441 35.7949 8.87722 35.6306 8.87722ZM39.0159 11.5442V10.6024L41.0051 8.55155C41.3103 8.23468 41.5332 7.95008 41.6741 7.69776C41.8208 7.43957 41.8941 7.18432 41.8941 6.932C41.8941 6.60339 41.8032 6.34521 41.6213 6.15743C41.4452 5.96966 41.2017 5.87577 40.8907 5.87577C40.5504 5.87577 40.2804 5.97553 40.0809 6.17504C39.8873 6.36868 39.7905 6.63567 39.7905 6.97601H38.8399C38.8516 6.57699 38.9425 6.23372 39.1127 5.94619C39.2829 5.65279 39.5205 5.42688 39.8257 5.26844C40.1308 5.11001 40.4887 5.03079 40.8995 5.03079C41.2927 5.03079 41.6359 5.10707 41.9293 5.25964C42.2227 5.41221 42.4486 5.62638 42.6071 5.90218C42.7655 6.17797 42.8447 6.50364 42.8447 6.87919C42.8447 7.2606 42.745 7.63322 42.5455 7.99703C42.3518 8.36084 42.032 8.76573 41.5861 9.21169L40.1337 10.6816H42.9415V11.5442H39.0159ZM45.0418 11.5442L47.3479 5.9902H45.1034V6.932H44.1616V5.11881H48.2897V6.03421L46.0628 11.5442H45.0418ZM51.4637 11.6322C51.0588 11.6322 50.7067 11.553 50.4075 11.3946C50.1141 11.2361 49.8852 11.0161 49.7209 10.7344C49.5566 10.4469 49.4745 10.1124 49.4745 9.731V6.932C49.4745 6.54472 49.5537 6.21024 49.7121 5.92858C49.8764 5.64692 50.1082 5.42688 50.4075 5.26844C50.7067 5.11001 51.0588 5.03079 51.4637 5.03079C51.8745 5.03079 52.2265 5.11001 52.5199 5.26844C52.8192 5.42688 53.048 5.64692 53.2065 5.92858C53.3708 6.21024 53.4529 6.54472 53.4529 6.932V9.731C53.4529 10.1124 53.3708 10.4469 53.2065 10.7344C53.0422 11.0161 52.8104 11.2361 52.5111 11.3946C52.2177 11.553 51.8686 11.6322 51.4637 11.6322ZM51.4637 10.8136C51.7923 10.8136 52.0534 10.7139 52.2471 10.5144C52.4466 10.3149 52.5463 10.0537 52.5463 9.731V6.932C52.5463 6.60926 52.4466 6.34814 52.2471 6.14863C52.0534 5.94912 51.7923 5.84937 51.4637 5.84937C51.1351 5.84937 50.871 5.94912 50.6715 6.14863C50.4779 6.34814 50.3811 6.60926 50.3811 6.932V9.731C50.3811 10.0537 50.4779 10.3149 50.6715 10.5144C50.871 10.7139 51.1351 10.8136 51.4637 10.8136ZM51.4637 8.87722C51.2994 8.87722 51.1644 8.82441 51.0588 8.71878C50.9591 8.61316 50.9092 8.47526 50.9092 8.30509C50.9092 8.14079 50.9591 8.00876 51.0588 7.90901C51.1644 7.80339 51.2994 7.75057 51.4637 7.75057C51.628 7.75057 51.76 7.80339 51.8598 7.90901C51.9654 8.00876 52.0182 8.14079 52.0182 8.30509C52.0182 8.47526 51.9654 8.61316 51.8598 8.71878C51.76 8.82441 51.628 8.87722 51.4637 8.87722ZM56.7414 11.6322C56.3306 11.6322 55.9756 11.5618 55.6764 11.421C55.3771 11.2801 55.1453 11.0806 54.981 10.8224C54.8167 10.5584 54.7346 10.2532 54.7346 9.90704C54.7346 9.51975 54.8402 9.18822 55.0514 8.91242C55.2627 8.63663 55.5883 8.39605 56.0284 8.19067L56.9526 7.75938C57.1874 7.64789 57.3693 7.50119 57.4984 7.31928C57.6275 7.13151 57.692 6.92613 57.692 6.70315C57.692 6.43909 57.6069 6.23078 57.4367 6.07822C57.2666 5.92565 57.0348 5.84937 56.7414 5.84937C56.448 5.84937 56.2133 5.92858 56.0372 6.08702C55.8671 6.23958 55.782 6.44789 55.782 6.71195C55.782 6.92906 55.8465 7.13151 55.9756 7.31928C56.1047 7.50119 56.2808 7.64495 56.5037 7.75057L57.4279 8.17307C57.8915 8.39018 58.226 8.63957 58.4314 8.92123C58.6426 9.19702 58.7482 9.52562 58.7482 9.90704C58.7482 10.4352 58.5663 10.8547 58.2025 11.1657C57.8446 11.4767 57.3575 11.6322 56.7414 11.6322ZM56.7414 10.8048C57.07 10.8048 57.3311 10.7197 57.5248 10.5496C57.7184 10.3735 57.8152 10.1447 57.8152 9.86303C57.8152 9.63418 57.7507 9.42293 57.6216 9.22929C57.4925 9.02978 57.3135 8.87428 57.0847 8.76279L56.1341 8.3139C55.6998 8.10852 55.3771 7.8738 55.1659 7.60974C54.9546 7.34569 54.849 7.02882 54.849 6.65914C54.849 6.3364 54.9253 6.05181 55.0778 5.80536C55.2363 5.5589 55.4563 5.3682 55.738 5.23323C56.0196 5.0924 56.3541 5.02199 56.7414 5.02199C57.1287 5.02199 57.4631 5.0924 57.7448 5.23323C58.0265 5.3682 58.2436 5.5589 58.3961 5.80536C58.5487 6.05181 58.625 6.3364 58.625 6.65914C58.625 7.03469 58.5194 7.35156 58.3081 7.60974C58.1028 7.86793 57.78 8.10558 57.3399 8.3227L56.3805 8.77159C56.1575 8.87722 55.9815 9.02685 55.8524 9.22049C55.7292 9.41413 55.6676 9.62244 55.6676 9.84542C55.6676 10.133 55.7644 10.3647 55.958 10.5408C56.1517 10.7168 56.4128 10.8048 56.7414 10.8048Z" fill="white"/>
<rect x="0.275059" y="21.4208" width="65.6527" height="15.8508" fill="#161616"/>
<rect x="0.275059" y="21.4208" width="65.6527" height="15.8508" stroke="#585858" stroke-width="0.550118"/>
<path d="M7.46415 32.3462V31.5012H8.75803V26.7658H7.46415V25.9208H11.0201V26.7658H9.72623V31.5012H11.0201V32.3462H7.46415ZM12.5922 32.3462V25.9208H13.7893L15.6641 31.2636C15.6523 31.0934 15.6377 30.8909 15.6201 30.6562C15.6025 30.4215 15.5878 30.178 15.5761 29.9257C15.5702 29.6734 15.5673 29.4445 15.5673 29.2391V25.9208H16.4474V32.3462H15.2504L13.3844 27.0034C13.3961 27.156 13.4079 27.3467 13.4196 27.5756C13.4372 27.8044 13.4489 28.0421 13.4548 28.2885C13.4665 28.535 13.4724 28.7638 13.4724 28.9751V32.3462H12.5922ZM19.8327 32.4342C19.4337 32.4342 19.0846 32.3609 18.7853 32.2142C18.4919 32.0616 18.2631 31.8445 18.0988 31.5628C17.9403 31.2753 17.8611 30.9408 17.8611 30.5594V27.7076C17.8611 27.3203 17.9403 26.9858 18.0988 26.7042C18.2631 26.4225 18.4919 26.2083 18.7853 26.0616C19.0846 25.9091 19.4337 25.8328 19.8327 25.8328C20.2317 25.8328 20.578 25.9091 20.8714 26.0616C21.1647 26.2142 21.3907 26.4313 21.5491 26.713C21.7134 26.9888 21.7956 27.3203 21.7956 27.7076H20.8449C20.8449 27.3731 20.7569 27.1179 20.5809 26.9418C20.4049 26.7658 20.1555 26.6778 19.8327 26.6778C19.51 26.6778 19.2577 26.7658 19.0758 26.9418C18.8997 27.1179 18.8117 27.3702 18.8117 27.6988V30.5594C18.8117 30.888 18.8997 31.1433 19.0758 31.3252C19.2577 31.5012 19.51 31.5892 19.8327 31.5892C20.1555 31.5892 20.4049 31.5012 20.5809 31.3252C20.7569 31.1433 20.8449 30.888 20.8449 30.5594H21.7956C21.7956 30.9408 21.7134 31.2724 21.5491 31.554C21.3907 31.8357 21.1647 32.0528 20.8714 32.2054C20.578 32.3579 20.2317 32.4342 19.8327 32.4342ZM25.0752 32.4342C24.6703 32.4342 24.3183 32.355 24.019 32.1966C23.7256 32.0381 23.4967 31.8181 23.3324 31.5364C23.1681 31.2489 23.086 30.9144 23.086 30.533V27.734C23.086 27.3467 23.1652 27.0122 23.3236 26.7306C23.4879 26.4489 23.7197 26.2289 24.019 26.0704C24.3183 25.912 24.6703 25.8328 25.0752 25.8328C25.486 25.8328 25.838 25.912 26.1314 26.0704C26.4307 26.2289 26.6596 26.4489 26.818 26.7306C26.9823 27.0122 27.0644 27.3467 27.0644 27.734V30.533C27.0644 30.9144 26.9823 31.2489 26.818 31.5364C26.6537 31.8181 26.4219 32.0381 26.1226 32.1966C25.8292 32.355 25.4801 32.4342 25.0752 32.4342ZM25.0752 31.6156C25.4038 31.6156 25.6649 31.5159 25.8586 31.3164C26.0581 31.1169 26.1579 30.8557 26.1579 30.533V27.734C26.1579 27.4113 26.0581 27.1501 25.8586 26.9506C25.6649 26.7511 25.4038 26.6514 25.0752 26.6514C24.7466 26.6514 24.4826 26.7511 24.283 26.9506C24.0894 27.1501 23.9926 27.4113 23.9926 27.734V30.533C23.9926 30.8557 24.0894 31.1169 24.283 31.3164C24.4826 31.5159 24.7466 31.6156 25.0752 31.6156ZM25.0752 29.6792C24.9109 29.6792 24.776 29.6264 24.6703 29.5208C24.5706 29.4152 24.5207 29.2773 24.5207 29.1071C24.5207 28.9428 24.5706 28.8108 24.6703 28.711C24.776 28.6054 24.9109 28.5526 25.0752 28.5526C25.2395 28.5526 25.3715 28.6054 25.4713 28.711C25.5769 28.8108 25.6297 28.9428 25.6297 29.1071C25.6297 29.2773 25.5769 29.4152 25.4713 29.5208C25.3715 29.6264 25.2395 29.6792 25.0752 29.6792ZM28.4781 32.3462V31.5012H30.1857V26.7482L28.4693 28.0245V26.9946L29.9392 25.9208H31.1363V31.5012H32.5182V32.3462H28.4781ZM35.6306 32.4342C35.2257 32.4342 34.8736 32.355 34.5744 32.1966C34.281 32.0381 34.0521 31.8181 33.8878 31.5364C33.7235 31.2489 33.6414 30.9144 33.6414 30.533V27.734C33.6414 27.3467 33.7206 27.0122 33.879 26.7306C34.0433 26.4489 34.2751 26.2289 34.5744 26.0704C34.8736 25.912 35.2257 25.8328 35.6306 25.8328C36.0414 25.8328 36.3934 25.912 36.6868 26.0704C36.9861 26.2289 37.215 26.4489 37.3734 26.7306C37.5377 27.0122 37.6198 27.3467 37.6198 27.734V30.533C37.6198 30.9144 37.5377 31.2489 37.3734 31.5364C37.2091 31.8181 36.9773 32.0381 36.678 32.1966C36.3846 32.355 36.0355 32.4342 35.6306 32.4342ZM35.6306 31.6156C35.9592 31.6156 36.2203 31.5159 36.414 31.3164C36.6135 31.1169 36.7132 30.8557 36.7132 30.533V27.734C36.7132 27.4113 36.6135 27.1501 36.414 26.9506C36.2203 26.7511 35.9592 26.6514 35.6306 26.6514C35.302 26.6514 35.038 26.7511 34.8384 26.9506C34.6448 27.1501 34.548 27.4113 34.548 27.734V30.533C34.548 30.8557 34.6448 31.1169 34.8384 31.3164C35.038 31.5159 35.302 31.6156 35.6306 31.6156ZM35.6306 29.6792C35.4663 29.6792 35.3313 29.6264 35.2257 29.5208C35.126 29.4152 35.0761 29.2773 35.0761 29.1071C35.0761 28.9428 35.126 28.8108 35.2257 28.711C35.3313 28.6054 35.4663 28.5526 35.6306 28.5526C35.7949 28.5526 35.9269 28.6054 36.0267 28.711C36.1323 28.8108 36.1851 28.9428 36.1851 29.1071C36.1851 29.2773 36.1323 29.4152 36.0267 29.5208C35.9269 29.6264 35.7949 29.6792 35.6306 29.6792ZM40.8291 32.4342C40.4242 32.4342 40.0721 32.3579 39.7729 32.2054C39.4736 32.0528 39.2418 31.8386 39.0775 31.5628C38.9191 31.2812 38.8399 30.9555 38.8399 30.5858H39.7905C39.7905 30.9085 39.8814 31.1609 40.0633 31.3428C40.2511 31.5247 40.5093 31.6156 40.8379 31.6156C41.1724 31.6156 41.4306 31.5217 41.6125 31.334C41.7944 31.1462 41.8853 30.8968 41.8853 30.5858V30.1105C41.8853 29.7819 41.7944 29.5296 41.6125 29.3535C41.4306 29.1716 41.1724 29.0807 40.8379 29.0807H40.1513V28.1829L41.6477 26.757H39.1127V25.9208H42.6159V26.8186L40.8467 28.4822V28.2533C41.457 28.2533 41.9411 28.4205 42.299 28.755C42.6569 29.0895 42.8359 29.5384 42.8359 30.1017V30.5858C42.8359 30.9555 42.7538 31.2812 42.5895 31.5628C42.4252 31.8386 42.1904 32.0528 41.8853 32.2054C41.5861 32.3579 41.234 32.4342 40.8291 32.4342ZM44.3112 32.3462V31.5012H46.0188V26.7482L44.3024 28.0245V26.9946L45.7723 25.9208H46.9694V31.5012H48.3513V32.3462H44.3112ZM49.5713 32.3462V31.4044L51.5605 29.3535C51.8657 29.0367 52.0886 28.7521 52.2295 28.4998C52.3762 28.2416 52.4495 27.9863 52.4495 27.734C52.4495 27.4054 52.3586 27.1472 52.1767 26.9594C52.0006 26.7717 51.7571 26.6778 51.4461 26.6778C51.1058 26.6778 50.8358 26.7775 50.6363 26.977C50.4427 27.1707 50.3459 27.4377 50.3459 27.778H49.3953C49.407 27.379 49.4979 27.0357 49.6681 26.7482C49.8383 26.4548 50.0759 26.2289 50.3811 26.0704C50.6862 25.912 51.0441 25.8328 51.4549 25.8328C51.848 25.8328 52.1913 25.9091 52.4847 26.0616C52.7781 26.2142 53.004 26.4284 53.1625 26.7042C53.3209 26.98 53.4001 27.3056 53.4001 27.6812C53.4001 28.0626 53.3004 28.4352 53.1009 28.799C52.9072 29.1628 52.5874 29.5677 52.1414 30.0137L50.6891 31.4836H53.4969V32.3462H49.5713ZM54.849 32.3462V31.4044L56.8382 29.3535C57.1433 29.0367 57.3663 28.7521 57.5072 28.4998C57.6539 28.2416 57.7272 27.9863 57.7272 27.734C57.7272 27.4054 57.6363 27.1472 57.4543 26.9594C57.2783 26.7717 57.0348 26.6778 56.7238 26.6778C56.3834 26.6778 56.1135 26.7775 55.914 26.977C55.7204 27.1707 55.6236 27.4377 55.6236 27.778H54.6729C54.6847 27.379 54.7756 27.0357 54.9458 26.7482C55.116 26.4548 55.3536 26.2289 55.6588 26.0704C55.9639 25.912 56.3218 25.8328 56.7326 25.8328C57.1257 25.8328 57.469 25.9091 57.7624 26.0616C58.0558 26.2142 58.2817 26.4284 58.4402 26.7042C58.5986 26.98 58.6778 27.3056 58.6778 27.6812C58.6778 28.0626 58.5781 28.4352 58.3785 28.799C58.1849 29.1628 57.8651 29.5677 57.4191 30.0137L55.9668 31.4836H58.7746V32.3462H54.849Z" fill="white"/>
<rect x="0.275059" y="42.2226" width="65.6527" height="15.8508" fill="#161616"/>
<rect x="0.275059" y="42.2226" width="65.6527" height="15.8508" stroke="#585858" stroke-width="0.550118"/>
<path d="M7.46415 53.1479V52.303H8.75803V47.5676H7.46415V46.7226H11.0201V47.5676H9.72623V52.303H11.0201V53.1479H7.46415ZM12.5922 53.1479V46.7226H13.7893L15.6641 52.0653C15.6523 51.8951 15.6377 51.6927 15.6201 51.458C15.6025 51.2233 15.5878 50.9798 15.5761 50.7274C15.5702 50.4751 15.5673 50.2463 15.5673 50.0409V46.7226H16.4474V53.1479H15.2504L13.3844 47.8052C13.3961 47.9578 13.4079 48.1485 13.4196 48.3773C13.4372 48.6062 13.4489 48.8438 13.4548 49.0903C13.4665 49.3367 13.4724 49.5656 13.4724 49.7768V53.1479H12.5922ZM19.8327 53.236C19.4337 53.236 19.0846 53.1626 18.7853 53.0159C18.4919 52.8634 18.2631 52.6462 18.0988 52.3646C17.9403 52.0771 17.8611 51.7426 17.8611 51.3612V48.5094C17.8611 48.1221 17.9403 47.7876 18.0988 47.5059C18.2631 47.2243 18.4919 47.0101 18.7853 46.8634C19.0846 46.7108 19.4337 46.6346 19.8327 46.6346C20.2317 46.6346 20.578 46.7108 20.8714 46.8634C21.1647 47.016 21.3907 47.2331 21.5491 47.5147C21.7134 47.7905 21.7956 48.1221 21.7956 48.5094H20.8449C20.8449 48.1749 20.7569 47.9196 20.5809 47.7436C20.4049 47.5676 20.1555 47.4795 19.8327 47.4795C19.51 47.4795 19.2577 47.5676 19.0758 47.7436C18.8997 47.9196 18.8117 48.1719 18.8117 48.5006V51.3612C18.8117 51.6898 18.8997 51.945 19.0758 52.1269C19.2577 52.303 19.51 52.391 19.8327 52.391C20.1555 52.391 20.4049 52.303 20.5809 52.1269C20.7569 51.945 20.8449 51.6898 20.8449 51.3612H21.7956C21.7956 51.7426 21.7134 52.0741 21.5491 52.3558C21.3907 52.6374 21.1647 52.8546 20.8714 53.0071C20.578 53.1597 20.2317 53.236 19.8327 53.236ZM25.0752 53.236C24.6703 53.236 24.3183 53.1568 24.019 52.9983C23.7256 52.8399 23.4967 52.6198 23.3324 52.3382C23.1681 52.0506 23.086 51.7162 23.086 51.3348V48.5358C23.086 48.1485 23.1652 47.814 23.3236 47.5323C23.4879 47.2507 23.7197 47.0306 24.019 46.8722C24.3183 46.7138 24.6703 46.6346 25.0752 46.6346C25.486 46.6346 25.838 46.7138 26.1314 46.8722C26.4307 47.0306 26.6596 47.2507 26.818 47.5323C26.9823 47.814 27.0644 48.1485 27.0644 48.5358V51.3348C27.0644 51.7162 26.9823 52.0506 26.818 52.3382C26.6537 52.6198 26.4219 52.8399 26.1226 52.9983C25.8292 53.1568 25.4801 53.236 25.0752 53.236ZM25.0752 52.4174C25.4038 52.4174 25.6649 52.3176 25.8586 52.1181C26.0581 51.9186 26.1579 51.6575 26.1579 51.3348V48.5358C26.1579 48.213 26.0581 47.9519 25.8586 47.7524C25.6649 47.5529 25.4038 47.4531 25.0752 47.4531C24.7466 47.4531 24.4826 47.5529 24.283 47.7524C24.0894 47.9519 23.9926 48.213 23.9926 48.5358V51.3348C23.9926 51.6575 24.0894 51.9186 24.283 52.1181C24.4826 52.3176 24.7466 52.4174 25.0752 52.4174ZM25.0752 50.481C24.9109 50.481 24.776 50.4282 24.6703 50.3225C24.5706 50.2169 24.5207 50.079 24.5207 49.9089C24.5207 49.7446 24.5706 49.6125 24.6703 49.5128C24.776 49.4071 24.9109 49.3543 25.0752 49.3543C25.2395 49.3543 25.3715 49.4071 25.4713 49.5128C25.5769 49.6125 25.6297 49.7446 25.6297 49.9089C25.6297 50.079 25.5769 50.2169 25.4713 50.3225C25.3715 50.4282 25.2395 50.481 25.0752 50.481ZM28.4781 53.1479V52.303H30.1857V47.5499L28.4693 48.8262V47.7964L29.9392 46.7226H31.1363V52.303H32.5182V53.1479H28.4781ZM35.6306 53.236C35.2257 53.236 34.8736 53.1568 34.5744 52.9983C34.281 52.8399 34.0521 52.6198 33.8878 52.3382C33.7235 52.0506 33.6414 51.7162 33.6414 51.3348V48.5358C33.6414 48.1485 33.7206 47.814 33.879 47.5323C34.0433 47.2507 34.2751 47.0306 34.5744 46.8722C34.8736 46.7138 35.2257 46.6346 35.6306 46.6346C36.0414 46.6346 36.3934 46.7138 36.6868 46.8722C36.9861 47.0306 37.215 47.2507 37.3734 47.5323C37.5377 47.814 37.6198 48.1485 37.6198 48.5358V51.3348C37.6198 51.7162 37.5377 52.0506 37.3734 52.3382C37.2091 52.6198 36.9773 52.8399 36.678 52.9983C36.3846 53.1568 36.0355 53.236 35.6306 53.236ZM35.6306 52.4174C35.9592 52.4174 36.2203 52.3176 36.414 52.1181C36.6135 51.9186 36.7132 51.6575 36.7132 51.3348V48.5358C36.7132 48.213 36.6135 47.9519 36.414 47.7524C36.2203 47.5529 35.9592 47.4531 35.6306 47.4531C35.302 47.4531 35.038 47.5529 34.8384 47.7524C34.6448 47.9519 34.548 48.213 34.548 48.5358V51.3348C34.548 51.6575 34.6448 51.9186 34.8384 52.1181C35.038 52.3176 35.302 52.4174 35.6306 52.4174ZM35.6306 50.481C35.4663 50.481 35.3313 50.4282 35.2257 50.3225C35.126 50.2169 35.0761 50.079 35.0761 49.9089C35.0761 49.7446 35.126 49.6125 35.2257 49.5128C35.3313 49.4071 35.4663 49.3543 35.6306 49.3543C35.7949 49.3543 35.9269 49.4071 36.0267 49.5128C36.1323 49.6125 36.1851 49.7446 36.1851 49.9089C36.1851 50.079 36.1323 50.2169 36.0267 50.3225C35.9269 50.4282 35.7949 50.481 35.6306 50.481ZM40.8291 53.236C40.4242 53.236 40.0721 53.1597 39.7729 53.0071C39.4736 52.8546 39.2418 52.6404 39.0775 52.3646C38.9191 52.0829 38.8399 51.7573 38.8399 51.3876H39.7905C39.7905 51.7103 39.8814 51.9626 40.0633 52.1445C40.2511 52.3264 40.5093 52.4174 40.8379 52.4174C41.1724 52.4174 41.4306 52.3235 41.6125 52.1357C41.7944 51.948 41.8853 51.6986 41.8853 51.3876V50.9123C41.8853 50.5837 41.7944 50.3313 41.6125 50.1553C41.4306 49.9734 41.1724 49.8824 40.8379 49.8824H40.1513V48.9847L41.6477 47.5587H39.1127V46.7226H42.6159V47.6204L40.8467 49.2839V49.0551C41.457 49.0551 41.9411 49.2223 42.299 49.5568C42.6569 49.8912 42.8359 50.3401 42.8359 50.9035V51.3876C42.8359 51.7573 42.7538 52.0829 42.5895 52.3646C42.4252 52.6404 42.1904 52.8546 41.8853 53.0071C41.5861 53.1597 41.234 53.236 40.8291 53.236ZM45.1034 53.1479L46.9694 50.1905L46.9254 50.1641C46.808 50.3343 46.6496 50.4663 46.4501 50.5602C46.2564 50.6482 46.0393 50.6922 45.7987 50.6922C45.4525 50.6922 45.1503 50.6101 44.8921 50.4458C44.6339 50.2815 44.4344 50.0497 44.2936 49.7504C44.1528 49.4512 44.0824 49.102 44.0824 48.703C44.0824 48.2864 44.1704 47.9255 44.3464 47.6204C44.5224 47.3094 44.766 47.0688 45.077 46.8986C45.3938 46.7226 45.7606 46.6346 46.1772 46.6346C46.5997 46.6346 46.9694 46.7226 47.2862 46.8986C47.6031 47.0746 47.8496 47.3211 48.0256 47.638C48.2016 47.9548 48.2897 48.3245 48.2897 48.747C48.2897 49.058 48.2398 49.3749 48.14 49.6976C48.0461 50.0203 47.9082 50.3284 47.7263 50.6218L46.1596 53.1479H45.1034ZM46.186 49.9529C46.5381 49.9529 46.8197 49.8384 47.031 49.6096C47.2422 49.3807 47.3479 49.0785 47.3479 48.703C47.3479 48.3274 47.2422 48.0252 47.031 47.7964C46.8197 47.5676 46.5381 47.4531 46.186 47.4531C45.8339 47.4531 45.5523 47.5676 45.341 47.7964C45.1298 48.0252 45.0242 48.3274 45.0242 48.703C45.0242 49.0785 45.1298 49.3807 45.341 49.6096C45.5523 49.8384 45.8339 49.9529 46.186 49.9529ZM51.4637 53.236C51.0529 53.236 50.6979 53.1656 50.3987 53.0247C50.0994 52.8839 49.8676 52.6844 49.7033 52.4262C49.539 52.1621 49.4569 51.857 49.4569 51.5108C49.4569 51.1235 49.5625 50.792 49.7737 50.5162C49.985 50.2404 50.3107 49.9998 50.7507 49.7944L51.6749 49.3631C51.9097 49.2516 52.0916 49.1049 52.2207 48.923C52.3498 48.7353 52.4143 48.5299 52.4143 48.3069C52.4143 48.0429 52.3292 47.8345 52.159 47.682C51.9889 47.5294 51.7571 47.4531 51.4637 47.4531C51.1703 47.4531 50.9356 47.5323 50.7595 47.6908C50.5894 47.8433 50.5043 48.0517 50.5043 48.3157C50.5043 48.5328 50.5688 48.7353 50.6979 48.923C50.827 49.1049 51.0031 49.2487 51.226 49.3543L52.1502 49.7768C52.6138 49.9939 52.9483 50.2433 53.1537 50.525C53.3649 50.8008 53.4705 51.1294 53.4705 51.5108C53.4705 52.0389 53.2886 52.4585 52.9248 52.7695C52.5669 53.0805 52.0798 53.236 51.4637 53.236ZM51.4637 52.4086C51.7923 52.4086 52.0534 52.3235 52.2471 52.1533C52.4407 51.9773 52.5375 51.7484 52.5375 51.4668C52.5375 51.2379 52.473 51.0267 52.3439 50.8331C52.2148 50.6335 52.0358 50.478 51.807 50.3666L50.8564 49.9177C50.4221 49.7123 50.0994 49.4776 49.8882 49.2135C49.6769 48.9494 49.5713 48.6326 49.5713 48.2629C49.5713 47.9402 49.6476 47.6556 49.8001 47.4091C49.9586 47.1627 50.1786 46.972 50.4603 46.837C50.7419 46.6962 51.0764 46.6257 51.4637 46.6257C51.851 46.6257 52.1855 46.6962 52.4671 46.837C52.7488 46.972 52.9659 47.1627 53.1185 47.4091C53.271 47.6556 53.3473 47.9402 53.3473 48.2629C53.3473 48.6384 53.2417 48.9553 53.0304 49.2135C52.8251 49.4717 52.5023 49.7093 52.0622 49.9265L51.1028 50.3754C50.8798 50.481 50.7038 50.6306 50.5747 50.8243C50.4515 51.0179 50.3899 51.2262 50.3899 51.4492C50.3899 51.7367 50.4867 51.9685 50.6803 52.1445C50.874 52.3206 51.1351 52.4086 51.4637 52.4086ZM54.849 53.1479V52.2061L56.8382 50.1553C57.1433 49.8384 57.3663 49.5538 57.5072 49.3015C57.6539 49.0433 57.7272 48.7881 57.7272 48.5358C57.7272 48.2072 57.6363 47.949 57.4543 47.7612C57.2783 47.5734 57.0348 47.4795 56.7238 47.4795C56.3834 47.4795 56.1135 47.5793 55.914 47.7788C55.7204 47.9724 55.6236 48.2394 55.6236 48.5798H54.6729C54.6847 48.1807 54.7756 47.8375 54.9458 47.5499C55.116 47.2566 55.3536 47.0306 55.6588 46.8722C55.9639 46.7138 56.3218 46.6346 56.7326 46.6346C57.1257 46.6346 57.469 46.7108 57.7624 46.8634C58.0558 47.016 58.2817 47.2301 58.4402 47.5059C58.5986 47.7817 58.6778 48.1074 58.6778 48.4829C58.6778 48.8644 58.5781 49.237 58.3785 49.6008C58.1849 49.9646 57.8651 50.3695 57.4191 50.8154L55.9668 52.2854H58.7746V53.1479H54.849Z" fill="white"/>
</svg>
