<svg width="12" height="12" viewBox="0 0 12 12" fill="none" xmlns="http://www.w3.org/2000/svg">
<path d="M0 9.29385C0 9.61293 0.261633 9.87457 0.580719 9.87457H3.63181L2.49382 11.0126C2.26697 11.2394 2.26697 11.6069 2.49382 11.833C2.72067 12.0598 3.09571 12.0515 3.31424 11.833L4.45223 10.695C4.82577 10.3214 5.03295 9.82164 5.03295 9.29385C5.03295 8.7653 4.82577 8.26625 4.45223 7.89271L3.31424 6.75471C3.09571 6.53619 2.71234 6.53619 2.49382 6.75471C2.27529 6.97324 2.26697 7.34904 2.49382 7.57513L3.63181 8.71313H0.580719C0.261633 8.71313 0 8.97476 0 9.29385Z" fill="#2FCC71"/>
<path d="M11.6138 9.29374C11.6138 8.97465 11.3522 8.71302 11.0331 8.71302H7.98197L9.11997 7.57503C9.34681 7.34818 9.34681 6.9807 9.11997 6.75461C9.00957 6.64421 8.86439 6.58447 8.70938 6.58447C8.55437 6.58447 8.40919 6.64421 8.29879 6.75461L7.1608 7.8926C6.78726 8.26614 6.58008 8.76594 6.58008 9.29374C6.58008 9.82229 6.78726 10.3213 7.1608 10.6949L8.29879 11.8329C8.51732 12.0514 8.90069 12.0514 9.11921 11.8329C9.33774 11.6143 9.34606 11.2385 9.11921 11.0125L7.98122 9.87446H11.0323C11.3514 9.87446 11.613 9.61282 11.613 9.29374H11.6138Z" fill="#2FCC71"/>
<path d="M9.92237 1.42685L9.80063 1.30511C9.30158 0.803792 8.93939 0.443863 8.4048 0.220789C7.87021 4.61514e-08 7.35981 0 6.65281 0H4.83882C3.1821 0 2.08795 0 1.23662 0.849901C0.386719 1.6998 0.386719 2.7955 0.386719 4.4521V5.03282C0.386719 5.3519 0.648352 5.61353 0.967437 5.61353C1.28652 5.61353 1.54816 5.3519 1.54816 5.03282V4.4521C1.54816 2.83774 1.56782 2.16252 2.0593 1.67259C2.54928 1.18108 3.22452 1.16144 4.83882 1.16144H6.65281C7.33788 1.16144 7.65395 1.16749 7.96169 1.29528C8.26943 1.42306 8.49628 1.6416 8.98021 2.12779L9.10195 2.24953C9.58588 2.73347 9.80441 2.96031 9.9322 3.26805C10.06 3.5758 10.066 3.89113 10.066 4.57694V5.03592C10.066 5.355 10.3277 5.61664 10.6468 5.61664C10.9658 5.61664 11.2275 5.355 11.2275 5.03592V4.57694C11.2275 3.86842 11.2275 3.35727 11.0067 2.82495C10.7859 2.29036 10.4237 1.93043 9.92466 1.42911L9.92237 1.42685Z" fill="#2FCC71"/>
</svg>
