<svg width="109" height="38" viewBox="0 0 109 38" fill="none" xmlns="http://www.w3.org/2000/svg">
<rect width="109" height="38" fill="url(#paint0_linear_2002_9162)"/>
<rect x="74" y="3" width="35" height="2" fill="url(#paint1_linear_2002_9162)"/>
<rect x="74" y="9" width="35" height="2" fill="url(#paint2_linear_2002_9162)"/>
<rect x="74" y="15" width="35" height="2" fill="url(#paint3_linear_2002_9162)"/>
<rect x="74" y="21" width="35" height="2" fill="url(#paint4_linear_2002_9162)"/>
<path d="M26.2164 28.9338V31.0562L19.6232 31.0546V28.9338H26.2164ZM29.6807 32.2442C29.558 31.9779 29.2939 31.8093 29.005 31.8125H16.8316C16.5427 31.8109 16.2801 31.9795 16.1589 32.2442L15.2765 34.1318C15.188 34.3193 15.1988 34.5399 15.3091 34.7164C15.4179 34.8929 15.6074 35 15.8125 35H30.0304C30.2355 35 30.4266 34.8929 30.5353 34.7164C30.644 34.5399 30.6565 34.3193 30.5679 34.1318L29.6807 32.2442ZM7.01159 24.6573H38.8685V5.042H7.01159V24.6573ZM40.8399 4.91292V26.2707C40.8384 27.3154 40.0041 28.16 38.9757 28.1631H6.86424C5.83582 28.1599 5.00155 27.3154 5 26.2707V4.89235C5.00155 3.84771 5.83582 3.00315 6.86424 3H38.9757C39.4728 3.00158 39.9497 3.20483 40.2993 3.56249C40.6504 3.92174 40.8446 4.40714 40.8399 4.91292ZM39.5955 4.6624C39.5955 4.56155 39.5567 4.46544 39.4868 4.39454C39.4153 4.32363 39.3206 4.28267 39.2211 4.28267H6.61416C6.40754 4.28267 6.23976 4.45284 6.23976 4.6624V25.0199C6.24286 25.2279 6.40909 25.3949 6.61416 25.3949H39.2259C39.431 25.3949 39.5972 25.2279 39.6003 25.0199L39.5955 4.6624Z" fill="white"/>
<path d="M55.084 4.9C55.084 5.13869 54.9892 5.36761 54.8204 5.5364C54.6516 5.70518 54.4227 5.8 54.184 5.8H50.8V9.184C50.8 9.42269 50.7052 9.65161 50.5364 9.8204C50.3676 9.98918 50.1387 10.084 49.9 10.084C49.6613 10.084 49.4324 9.98918 49.2636 9.8204C49.0948 9.65161 49 9.42269 49 9.184V4.9C49 4.66131 49.0948 4.43239 49.2636 4.2636C49.4324 4.09482 49.6613 4 49.9 4H54.184C54.4227 4 54.6516 4.09482 54.8204 4.2636C54.9892 4.43239 55.084 4.66131 55.084 4.9ZM66.1 4H61.816C61.5773 4 61.3484 4.09482 61.1796 4.2636C61.0108 4.43239 60.916 4.66131 60.916 4.9C60.916 5.13869 61.0108 5.36761 61.1796 5.5364C61.3484 5.70518 61.5773 5.8 61.816 5.8H65.2V9.184C65.2 9.42269 65.2948 9.65161 65.4636 9.8204C65.6324 9.98918 65.8613 10.084 66.1 10.084C66.3387 10.084 66.5676 9.98918 66.7364 9.8204C66.9052 9.65161 67 9.42269 67 9.184V4.9C67 4.66131 66.9052 4.43239 66.7364 4.2636C66.5676 4.09482 66.3387 4 66.1 4ZM66.1 15.916C65.8613 15.916 65.6324 16.0108 65.4636 16.1796C65.2948 16.3484 65.2 16.5773 65.2 16.816V20.2H61.816C61.5773 20.2 61.3484 20.2948 61.1796 20.4636C61.0108 20.6324 60.916 20.8613 60.916 21.1C60.916 21.3387 61.0108 21.5676 61.1796 21.7364C61.3484 21.9052 61.5773 22 61.816 22H66.1C66.3387 22 66.5676 21.9052 66.7364 21.7364C66.9052 21.5676 67 21.3387 67 21.1V16.816C67 16.5773 66.9052 16.3484 66.7364 16.1796C66.5676 16.0108 66.3387 15.916 66.1 15.916ZM58 15.988C57.822 15.988 57.648 16.0408 57.5 16.1397C57.352 16.2386 57.2366 16.3791 57.1685 16.5436C57.1004 16.708 57.0826 16.889 57.1173 17.0636C57.152 17.2382 57.2377 17.3985 57.3636 17.5244C57.4895 17.6503 57.6498 17.736 57.8244 17.7707C57.999 17.8054 58.18 17.7876 58.3444 17.7195C58.5089 17.6514 58.6494 17.536 58.7483 17.388C58.8472 17.24 58.9 17.066 58.9 16.888C58.9 16.6493 58.8052 16.4204 58.6364 16.2516C58.4676 16.0828 58.2387 15.988 58 15.988ZM54.184 20.2H50.8V16.816C50.8 16.5773 50.7052 16.3484 50.5364 16.1796C50.3676 16.0108 50.1387 15.916 49.9 15.916C49.6613 15.916 49.4324 16.0108 49.2636 16.1796C49.0948 16.3484 49 16.5773 49 16.816V21.1C49 21.3387 49.0948 21.5676 49.2636 21.7364C49.4324 21.9052 49.6613 22 49.9 22H54.184C54.4227 22 54.6516 21.9052 54.8204 21.7364C54.9892 21.5676 55.084 21.3387 55.084 21.1C55.084 20.8613 54.9892 20.6324 54.8204 20.4636C54.6516 20.2948 54.4227 20.2 54.184 20.2ZM58 8.572C57.7613 8.572 57.5324 8.66682 57.3636 8.8356C57.1948 9.00439 57.1 9.2333 57.1 9.472V13.783C57.1 14.0217 57.1948 14.2506 57.3636 14.4194C57.5324 14.5882 57.7613 14.683 58 14.683C58.2387 14.683 58.4676 14.5882 58.6364 14.4194C58.8052 14.2506 58.9 14.0217 58.9 13.783V9.472C58.9 9.2333 58.8052 9.00439 58.6364 8.8356C58.4676 8.66682 58.2387 8.572 58 8.572Z" fill="#FF4242"/>
<defs>
<linearGradient id="paint0_linear_2002_9162" x1="105.697" y1="1.39024" x2="5.93894" y2="50.1504" gradientUnits="userSpaceOnUse">
<stop stop-color="#171717"/>
<stop offset="1" stop-color="#2B2B2B"/>
</linearGradient>
<linearGradient id="paint1_linear_2002_9162" x1="109" y1="4" x2="104.292" y2="15.9419" gradientUnits="userSpaceOnUse">
<stop stop-color="#171717"/>
<stop offset="1" stop-color="#E03333"/>
</linearGradient>
<linearGradient id="paint2_linear_2002_9162" x1="109" y1="10" x2="104.292" y2="21.9419" gradientUnits="userSpaceOnUse">
<stop stop-color="#171717"/>
<stop offset="1" stop-color="#E03333"/>
</linearGradient>
<linearGradient id="paint3_linear_2002_9162" x1="109" y1="16" x2="104.292" y2="27.9419" gradientUnits="userSpaceOnUse">
<stop stop-color="#171717"/>
<stop offset="1" stop-color="#E03333"/>
</linearGradient>
<linearGradient id="paint4_linear_2002_9162" x1="109" y1="22" x2="104.292" y2="33.9419" gradientUnits="userSpaceOnUse">
<stop stop-color="#171717"/>
<stop offset="1" stop-color="#E03333"/>
</linearGradient>
</defs>
</svg>
