<svg width="34" height="32" viewBox="0 0 34 32" fill="none" xmlns="http://www.w3.org/2000/svg">
<path fill-rule="evenodd" clip-rule="evenodd" d="M3.18802 0H30.5602C32.3138 0 33.7472 1.43445 33.7472 3.18802V18.0605H0V3.18802C0 1.43445 1.43445 0 3.18696 0H3.18802ZM26.1583 30.3949C26.6015 30.3949 26.9609 30.7543 26.9609 31.1974C26.9609 31.6406 26.6015 32 26.1583 32H7.58997C7.1468 32 6.7874 31.6406 6.7874 31.1974C6.7874 30.7543 7.1468 30.3949 7.58997 30.3949H12.5485V26.6916H21.2008V30.3949H26.1594H26.1583ZM33.7472 19.6656V21.8984C33.7472 23.652 32.3128 25.0854 30.5602 25.0854H3.18802C1.43445 25.0854 0.00106022 23.6509 0.00106022 21.8984V19.6656H33.7483H33.7472Z" fill="white"/>
</svg>
