<svg width="186" height="79" viewBox="0 0 186 79" fill="none" xmlns="http://www.w3.org/2000/svg">
<path d="M7.93484 31.4459C9.51528 31.4459 10.8013 30.1598 10.8013 28.5794C10.8013 26.9989 9.51528 25.7129 7.93484 25.7129C6.35441 25.7129 5.06836 26.9989 5.06836 28.5794C5.06836 30.1598 6.35294 31.4459 7.93484 31.4459ZM7.93484 27.1907C8.70091 27.1907 9.3234 27.8132 9.3234 28.5792C9.3234 29.3453 8.70087 29.9678 7.93484 29.9678C7.16881 29.9678 6.54628 29.3453 6.54628 28.5792C6.54481 27.8132 7.16881 27.1907 7.93484 27.1907Z" fill="white"/>
<path d="M5.36325 36.0861H10.506C10.9132 36.0861 11.2443 35.7551 11.2443 35.3479C11.2443 34.9407 10.9132 34.6096 10.506 34.6096H5.36325C4.95606 34.6096 4.625 34.9406 4.625 35.3479C4.625 35.755 4.95457 36.0861 5.36325 36.0861Z" fill="white"/>
<path d="M15.5924 48.8307V23.7382C15.5924 23.3311 15.2613 23 14.8541 23H0.738247C0.331064 23 0 23.331 0 23.7382V52.6974V52.6989V54.253C0 54.6601 0.33103 54.9912 0.738247 54.9912H9.33638C9.36567 54.9956 9.39644 55 9.42573 55C9.45502 55 9.48579 54.9956 9.51508 54.9912L14.8539 54.9897C15.2611 54.9897 15.5922 54.6587 15.5922 54.2515V48.832L15.5924 48.8307ZM6.04817 53.5134L11.6581 47.9034H14.116V48.5244L9.12846 53.5134L6.04817 53.5134ZM14.1161 24.4762V46.4267H1.47687V24.4762H14.1161ZM1.47687 47.9034H4.48835L1.47687 50.9149V47.9034ZM1.47687 53.0038L6.57725 47.9034H9.57119L3.96122 53.5134H1.47848L1.47687 53.0038ZM11.2175 53.5135L14.1163 50.6148V53.5135H11.2175Z" fill="white"/>
<path d="M151.951 32.3344C153.136 32.3344 154.101 31.3699 154.101 30.1845C154.101 28.9992 153.136 28.0347 151.951 28.0347C150.765 28.0347 149.801 28.9992 149.801 30.1845C149.801 31.3699 150.764 32.3344 151.951 32.3344ZM151.951 29.143C152.525 29.143 152.992 29.6099 152.992 30.1844C152.992 30.759 152.525 31.2258 151.951 31.2258C151.376 31.2258 150.909 30.7589 150.909 30.1844C150.908 29.6099 151.376 29.143 151.951 29.143Z" fill="#A2A2A2"/>
<path d="M150.022 35.8146H153.88C154.185 35.8146 154.433 35.5664 154.433 35.261C154.433 34.9556 154.185 34.7073 153.88 34.7073H150.022C149.717 34.7073 149.469 34.9555 149.469 35.261C149.469 35.5663 149.716 35.8146 150.022 35.8146Z" fill="#A2A2A2"/>
<path d="M157.694 45.373V26.5537C157.694 26.2483 157.446 26 157.141 26H146.554C146.248 26 146 26.2483 146 26.5537V48.2731V48.2742V49.4397C146 49.7451 146.248 49.9934 146.554 49.9934H153.002C153.024 49.9967 153.047 50 153.069 50C153.091 50 153.114 49.9967 153.136 49.9934L157.14 49.9923C157.446 49.9923 157.694 49.744 157.694 49.4386V45.374L157.694 45.373ZM150.536 48.885L154.744 44.6775H156.587V45.1433L152.846 48.8851L150.536 48.885ZM156.587 27.1071V43.5701H147.108V27.1071H156.587ZM147.108 44.6775H149.366L147.108 46.9362V44.6775ZM147.108 48.5028L150.933 44.6775H153.178L148.971 48.885H147.109L147.108 48.5028ZM154.413 48.8851L156.587 46.7111V48.8851H154.413Z" fill="#A2A2A2"/>
<path d="M165.644 32.3344C166.829 32.3344 167.794 31.3699 167.794 30.1845C167.794 28.9992 166.829 28.0347 165.644 28.0347C164.459 28.0347 163.494 28.9992 163.494 30.1845C163.494 31.3699 164.458 32.3344 165.644 32.3344ZM165.644 29.143C166.219 29.143 166.685 29.6099 166.685 30.1844C166.685 30.759 166.219 31.2258 165.644 31.2258C165.069 31.2258 164.603 30.7589 164.603 30.1844C164.601 29.6099 165.069 29.143 165.644 29.143Z" fill="#A2A2A2"/>
<path d="M163.716 35.8146H167.573C167.878 35.8146 168.127 35.5664 168.127 35.261C168.127 34.9556 167.878 34.7073 167.573 34.7073H163.716C163.41 34.7073 163.162 34.9555 163.162 35.261C163.162 35.5663 163.409 35.8146 163.716 35.8146Z" fill="#A2A2A2"/>
<path d="M171.388 45.373V26.5537C171.388 26.2483 171.139 26 170.834 26H160.247C159.942 26 159.693 26.2483 159.693 26.5537V48.2731V48.2742V49.4397C159.693 49.7451 159.942 49.9934 160.247 49.9934H166.696C166.718 49.9967 166.741 50 166.763 50C166.785 50 166.808 49.9967 166.83 49.9934L170.834 49.9923C171.139 49.9923 171.388 49.744 171.388 49.4386V45.374L171.388 45.373ZM164.229 48.885L168.437 44.6775H170.28V45.1433L166.54 48.8851L164.229 48.885ZM170.28 27.1071V43.5701H160.801V27.1071H170.28ZM160.801 44.6775H163.06L160.801 46.9362V44.6775ZM160.801 48.5028L164.626 44.6775H166.872L162.664 48.885H160.802L160.801 48.5028ZM168.107 48.8851L170.281 46.7111V48.8851H168.107Z" fill="#A2A2A2"/>
<path d="M179.339 32.3344C180.525 32.3344 181.489 31.3699 181.489 30.1845C181.489 28.9992 180.525 28.0347 179.339 28.0347C178.154 28.0347 177.189 28.9992 177.189 30.1845C177.189 31.3699 178.153 32.3344 179.339 32.3344ZM179.339 29.143C179.914 29.143 180.381 29.6099 180.381 30.1844C180.381 30.759 179.914 31.2258 179.339 31.2258C178.765 31.2258 178.298 30.7589 178.298 30.1844C178.297 29.6099 178.765 29.143 179.339 29.143Z" fill="#A2A2A2"/>
<path d="M177.411 35.8146H181.268C181.574 35.8146 181.822 35.5664 181.822 35.261C181.822 34.9556 181.574 34.7073 181.268 34.7073H177.411C177.106 34.7073 176.857 34.9555 176.857 35.261C176.857 35.5663 177.105 35.8146 177.411 35.8146Z" fill="#A2A2A2"/>
<path d="M185.083 45.373V26.5537C185.083 26.2483 184.835 26 184.529 26H173.942C173.637 26 173.389 26.2483 173.389 26.5537V48.2731V48.2742V49.4397C173.389 49.7451 173.637 49.9934 173.942 49.9934H180.391C180.413 49.9967 180.436 50 180.458 50C180.48 50 180.503 49.9967 180.525 49.9934L184.529 49.9923C184.835 49.9923 185.083 49.744 185.083 49.4386V45.374L185.083 45.373ZM177.925 48.885L182.132 44.6775H183.976V45.1433L180.235 48.8851L177.925 48.885ZM183.976 27.1071V43.5701H174.496V27.1071H183.976ZM174.496 44.6775H176.755L174.496 46.9362V44.6775ZM174.496 48.5028L178.322 44.6775H180.567L176.36 48.885H174.498L174.496 48.5028ZM181.802 48.8851L183.976 46.7111V48.8851H181.802Z" fill="#A2A2A2"/>
<circle opacity="0.2" cx="81" cy="39" r="20" fill="#FF4242"/>
<circle opacity="0.4" cx="81" cy="39" r="17" fill="#FF4242"/>
<path d="M89.3333 29.6667H84.7953C84.5919 29.6673 84.3935 29.7297 84.2263 29.8455C84.0591 29.9613 83.931 30.1252 83.859 30.3154L82.021 35.2154C82.0053 35.2574 81.9982 35.3021 82.0001 35.3469C82.0021 35.3917 82.013 35.4356 82.0323 35.4761C82.0517 35.5166 82.079 35.5527 82.1126 35.5824C82.1462 35.612 82.1855 35.6346 82.228 35.6487L83.5813 36.1001L81.148 37.7221C81.1023 37.7526 81.0649 37.794 81.0391 37.8425C81.0133 37.891 80.9998 37.9451 81 38.0001V39.3064L80.037 38.5361L80.659 35.7391C80.6703 35.688 80.6694 35.635 80.6565 35.5843C80.6435 35.5337 80.6188 35.4868 80.5843 35.4474L78.8427 33.4571L80.286 33.6634C80.3503 33.6726 80.4159 33.6628 80.4748 33.6352C80.5336 33.6076 80.5831 33.5634 80.6171 33.508C80.6512 33.4527 80.6683 33.3886 80.6664 33.3236C80.6644 33.2587 80.6436 33.1957 80.6063 33.1424L78.473 30.0934C78.3807 29.9616 78.258 29.8539 78.1153 29.7796C77.9725 29.7054 77.8139 29.6666 77.653 29.6667H73.3333C72.9797 29.6667 72.6406 29.8072 72.3905 30.0573C72.1405 30.3073 72 30.6465 72 31.0001V42.6667C72 43.0204 72.1405 43.3595 72.3905 43.6096C72.6406 43.8596 72.9797 44.0001 73.3333 44.0001H79.3227C79.219 45.6131 78.366 45.6651 78.3273 45.6667C77.9748 45.6683 77.6372 45.8095 77.3884 46.0594C77.1396 46.3093 77 46.6475 77 47.0001V47.3334C77 47.5102 77.0702 47.6798 77.1953 47.8048C77.3203 47.9298 77.4899 48.0001 77.6667 48.0001H85C85.1768 48.0001 85.3464 47.9298 85.4714 47.8048C85.5964 47.6798 85.6667 47.5102 85.6667 47.3334V47.0001C85.6667 46.6475 85.527 46.3093 85.2783 46.0594C85.0295 45.8095 84.6919 45.6683 84.3393 45.6667C84.3007 45.6651 83.4477 45.6131 83.344 44.0001H89.3333C89.687 44.0001 90.0261 43.8596 90.2761 43.6096C90.5262 43.3595 90.6667 43.0204 90.6667 42.6667V31.0001C90.6667 30.6465 90.5262 30.3073 90.2761 30.0573C90.0261 29.8072 89.687 29.6667 89.3333 29.6667ZM73.3333 30.3334H77.653C77.7065 30.3335 77.7593 30.3465 77.8067 30.3713C77.8542 30.396 77.895 30.4319 77.9257 30.4757L79.619 32.8947L78.0473 32.6701C77.98 32.6604 77.9112 32.6716 77.8504 32.7021C77.7896 32.7327 77.7395 32.7811 77.707 32.841C77.6746 32.9008 77.6612 32.9691 77.6687 33.0368C77.6762 33.1044 77.7042 33.1682 77.749 33.2194L79.9713 35.7591L79.341 38.5944C79.3274 38.6554 79.3311 38.719 79.3519 38.7779C79.3726 38.8368 79.4095 38.8888 79.4583 38.9277L81.125 40.2611C81.1741 40.3004 81.2333 40.325 81.2957 40.3321C81.3582 40.3392 81.4214 40.3285 81.478 40.3012C81.5347 40.2739 81.5824 40.2311 81.6158 40.1779C81.6492 40.1246 81.6668 40.0629 81.6667 40.0001V38.1784L84.5183 36.2784C84.5702 36.2438 84.6113 36.1953 84.6369 36.1384C84.6626 36.0816 84.6718 36.0187 84.6635 35.9569C84.6552 35.8951 84.6297 35.8369 84.59 35.7888C84.5502 35.7408 84.4978 35.7048 84.4387 35.6851L82.7667 35.1267L84.4833 30.5494C84.5074 30.4861 84.5501 30.4316 84.6058 30.393C84.6615 30.3545 84.7276 30.3337 84.7953 30.3334H89.3333C89.5101 30.3334 89.6797 30.4037 89.8047 30.5287C89.9298 30.6537 90 30.8233 90 31.0001V41.0001H72.6667V31.0001C72.6667 30.8233 72.7369 30.6537 72.8619 30.5287C72.987 30.4037 73.1565 30.3334 73.3333 30.3334ZM85 47.0001V47.3334H77.6667V47.0001C77.6667 46.8233 77.7369 46.6537 77.8619 46.5287C77.987 46.4037 78.1565 46.3334 78.3333 46.3334H84.3333C84.5101 46.3334 84.6797 46.4037 84.8047 46.5287C84.9298 46.6537 85 46.8233 85 47.0001ZM83.1747 45.6667H79.492C79.813 45.17 79.9848 44.5916 79.987 44.0001H82.6797C82.6818 44.5916 82.8536 45.17 83.1747 45.6667ZM89.3333 43.3334H73.3333C73.1565 43.3334 72.987 43.2632 72.8619 43.1382C72.7369 43.0131 72.6667 42.8436 72.6667 42.6667V41.6667H90V42.6667C90 42.8436 89.9298 43.0131 89.8047 43.1382C89.6797 43.2632 89.5101 43.3334 89.3333 43.3334Z" fill="white"/>
<path d="M79.5617 28.6842C79.4779 28.7122 79.4087 28.7723 79.3692 28.8513C79.3297 28.9303 79.3231 29.0217 79.351 29.1055L79.6843 30.1055C79.7123 30.1895 79.7724 30.2589 79.8516 30.2986C79.9307 30.3382 80.0224 30.3448 80.1063 30.3168C80.1903 30.2889 80.2598 30.2288 80.2994 30.1496C80.339 30.0705 80.3456 29.9788 80.3177 29.8948L79.9843 28.8948C79.9705 28.8532 79.9486 28.8147 79.9198 28.7816C79.891 28.7485 79.856 28.7213 79.8168 28.7018C79.7775 28.6822 79.7347 28.6706 79.691 28.6675C79.6472 28.6645 79.6033 28.6702 79.5617 28.6842Z" fill="white"/>
<path d="M82.6844 28.8944L82.351 29.8944C82.3372 29.936 82.3317 29.9799 82.3348 30.0236C82.338 30.0673 82.3497 30.11 82.3693 30.1492C82.3889 30.1884 82.4161 30.2233 82.4492 30.252C82.4823 30.2807 82.5208 30.3026 82.5624 30.3164C82.604 30.3302 82.6479 30.3357 82.6916 30.3326C82.7353 30.3295 82.778 30.3178 82.8171 30.2981C82.8563 30.2785 82.8913 30.2514 82.92 30.2182C82.9487 30.1851 82.9705 30.1467 82.9844 30.1051L83.3177 29.1051C83.3315 29.0635 83.337 29.0196 83.3339 28.9759C83.3308 28.9322 83.3191 28.8895 83.2994 28.8503C83.2798 28.8111 83.2527 28.7762 83.2195 28.7475C83.1864 28.7188 83.148 28.6969 83.1064 28.6831C83.0648 28.6692 83.0209 28.6637 82.9772 28.6669C82.9335 28.67 82.8908 28.6817 82.8516 28.7013C82.8124 28.721 82.7775 28.7481 82.7488 28.7812C82.7201 28.8144 82.6982 28.8528 82.6844 28.8944Z" fill="white"/>
<path d="M81 28.3333V29.6667C81 29.7551 81.0351 29.8399 81.0976 29.9024C81.1601 29.9649 81.2449 30 81.3333 30C81.4217 30 81.5065 29.9649 81.569 29.9024C81.6315 29.8399 81.6667 29.7551 81.6667 29.6667V28.3333C81.6667 28.2449 81.6315 28.1601 81.569 28.0976C81.5065 28.0351 81.4217 28 81.3333 28C81.2449 28 81.1601 28.0351 81.0976 28.0976C81.0351 28.1601 81 28.2449 81 28.3333Z" fill="white"/>
<path d="M18.8667 38C18.8667 39.1782 19.8218 40.1333 21 40.1333C22.1782 40.1333 23.1333 39.1782 23.1333 38C23.1333 36.8218 22.1782 35.8667 21 35.8667C19.8218 35.8667 18.8667 36.8218 18.8667 38ZM57.2828 38.2828C57.4391 38.1266 57.4391 37.8734 57.2828 37.7172L54.7373 35.1716C54.5811 35.0154 54.3278 35.0154 54.1716 35.1716C54.0154 35.3278 54.0154 35.581 54.1716 35.7373L56.4343 38L54.1716 40.2627C54.0154 40.419 54.0154 40.6722 54.1716 40.8284C54.3278 40.9846 54.5811 40.9846 54.7373 40.8284L57.2828 38.2828ZM21 38.4H57V37.6H21V38.4Z" fill="#2FCC71"/>
<path d="M103.867 38C103.867 39.1782 104.822 40.1333 106 40.1333C107.178 40.1333 108.133 39.1782 108.133 38C108.133 36.8218 107.178 35.8667 106 35.8667C104.822 35.8667 103.867 36.8218 103.867 38ZM142.283 38.2828C142.439 38.1266 142.439 37.8734 142.283 37.7172L139.737 35.1716C139.581 35.0154 139.328 35.0154 139.172 35.1716C139.015 35.3278 139.015 35.5811 139.172 35.7373L141.434 38L139.172 40.2627C139.015 40.419 139.015 40.6722 139.172 40.8284C139.328 40.9846 139.581 40.9846 139.737 40.8284L142.283 38.2828ZM106 38.4L142 38.4L142 37.6L106 37.6L106 38.4Z" fill="#2FCC71"/>
<path d="M19.5067 27.12C20.1252 27.9447 21.2953 28.1119 22.12 27.4933C22.9447 26.8748 23.1119 25.7047 22.4933 24.88C21.8748 24.0553 20.7047 23.8881 19.88 24.5067C19.0553 25.1252 18.8881 26.2953 19.5067 27.12ZM41.21 11.28C41.3646 11.164 41.396 10.9446 41.28 10.79C41.164 10.6354 40.9446 10.604 40.79 10.72L41.21 11.28ZM21.21 26.28L41.21 11.28L40.79 10.72L20.79 25.72L21.21 26.28Z" fill="url(#paint0_linear_164_12844)"/>
<path d="M166 21.8667C167.031 21.8667 167.867 21.0309 167.867 20C167.867 18.9691 167.031 18.1333 166 18.1333C164.969 18.1333 164.133 18.9691 164.133 20C164.133 21.0309 164.969 21.8667 166 21.8667ZM166.35 1C166.35 0.8067 166.193 0.65 166 0.65C165.807 0.65 165.65 0.8067 165.65 1L166.35 1ZM166.35 20L166.35 1L165.65 1L165.65 20L166.35 20Z" fill="url(#paint1_linear_164_12844)"/>
<path d="M166 54.1333C164.969 54.1333 164.133 54.9691 164.133 56C164.133 57.0309 164.969 57.8667 166 57.8667C167.031 57.8667 167.867 57.0309 167.867 56C167.867 54.9691 167.031 54.1333 166 54.1333ZM165.65 78C165.65 78.1933 165.807 78.35 166 78.35C166.193 78.35 166.35 78.1933 166.35 78L165.65 78ZM165.65 56L165.65 78L166.35 78L166.35 56L165.65 56Z" fill="url(#paint2_linear_164_12844)"/>
<path d="M19.5067 48.88C20.1252 48.0553 21.2953 47.8881 22.12 48.5067C22.9447 49.1252 23.1119 50.2953 22.4933 51.12C21.8748 51.9447 20.7047 52.1119 19.88 51.4933C19.0553 50.8748 18.8881 49.7047 19.5067 48.88ZM41.21 64.72C41.3646 64.836 41.396 65.0554 41.28 65.21C41.164 65.3646 40.9446 65.396 40.79 65.28L41.21 64.72ZM21.21 49.72L41.21 64.72L40.79 65.28L20.79 50.28L21.21 49.72Z" fill="url(#paint3_linear_164_12844)"/>
<defs>
<linearGradient id="paint0_linear_164_12844" x1="41.3106" y1="11.4141" x2="21.2837" y2="26.3783" gradientUnits="userSpaceOnUse">
<stop stop-color="#171717"/>
<stop offset="1" stop-color="#2FCC71"/>
</linearGradient>
<linearGradient id="paint1_linear_164_12844" x1="166.518" y1="0.999999" x2="166.492" y2="20" gradientUnits="userSpaceOnUse">
<stop stop-color="#171717"/>
<stop offset="1" stop-color="#2FCC71"/>
</linearGradient>
<linearGradient id="paint2_linear_164_12844" x1="165.482" y1="78" x2="165.517" y2="56" gradientUnits="userSpaceOnUse">
<stop stop-color="#171717"/>
<stop offset="1" stop-color="#2FCC71"/>
</linearGradient>
<linearGradient id="paint3_linear_164_12844" x1="41.3106" y1="64.5859" x2="21.2837" y2="49.6217" gradientUnits="userSpaceOnUse">
<stop stop-color="#171717"/>
<stop offset="1" stop-color="#2FCC71"/>
</linearGradient>
</defs>
</svg>
