<svg width="32" height="32" viewBox="0 0 32 32" fill="none" xmlns="http://www.w3.org/2000/svg">
<path fill-rule="evenodd" clip-rule="evenodd" d="M2.36559 7.00445L4.10151 8.74456C4.30302 8.94817 4.3471 9.25883 4.20856 9.50863C3.73838 10.3629 3.36056 11.2634 3.0856 12.1996C3.02473 12.4998 2.76025 12.716 2.45378 12.716H0V19.2819H2.45587C2.74134 19.284 2.99113 19.4729 3.07088 19.7458C3.34585 20.6862 3.71946 21.595 4.19175 22.4536C4.35128 22.7097 4.31349 23.0413 4.10149 23.2533L2.36346 24.9913L7.00653 29.6344L8.74456 27.8964C8.94817 27.6949 9.25882 27.6508 9.50862 27.7893C10.3629 28.2595 11.2634 28.6373 12.1996 28.9123C12.4997 28.9732 12.716 29.2377 12.716 29.5441V32H19.2819V29.5441C19.284 29.2587 19.4729 29.0068 19.7458 28.927C20.6862 28.6542 21.595 28.2784 22.4536 27.8083C22.7076 27.6487 23.0392 27.6844 23.2512 27.8964L24.9892 29.6344L29.6323 24.9914L27.8964 23.2533C27.6949 23.0497 27.6508 22.7391 27.7893 22.4893C28.2595 21.635 28.6373 20.7345 28.9123 19.7983C28.9732 19.4981 29.2377 19.2819 29.5441 19.2819H32V12.716H29.5441C29.2587 12.7139 29.0068 12.525 28.927 12.2521C28.6541 11.3117 28.2784 10.4029 27.8083 9.54433C27.6466 9.29034 27.6844 8.95872 27.8964 8.74458L29.6344 7.00656L24.9914 2.36349L23.2533 4.10151C23.0497 4.30302 22.7391 4.3471 22.4893 4.20857C21.635 3.73838 20.7345 3.36057 19.7983 3.0856C19.4981 3.02473 19.2819 2.76025 19.2819 2.45378V0H12.716V2.45587C12.716 2.74134 12.5271 2.99113 12.2521 3.07088C11.7756 3.20941 11.3096 3.37314 10.852 3.56415C10.4049 3.74887 9.96835 3.95878 9.54432 4.19178C9.29034 4.35131 8.95656 4.31563 8.74458 4.10152L7.00656 2.3635L2.36349 7.00657L2.36559 7.00445ZM15.9988 6.91838C13.1756 6.91838 10.514 8.23028 8.79504 10.4721C7.07593 12.7118 6.49661 15.6231 7.22913 18.3497C7.95961 21.0763 9.91591 23.3077 12.525 24.3885C15.1321 25.4695 18.0958 25.2743 20.5413 23.8637C22.9846 22.4511 24.6344 19.9826 25.0039 17.1844C25.3712 14.3843 24.4183 11.5739 22.422 9.57761C20.7197 7.87108 18.4084 6.91419 15.9988 6.91838Z" fill="white"/>
</svg>
