<svg width="99" height="44" viewBox="0 0 99 44" fill="none" xmlns="http://www.w3.org/2000/svg">
<rect width="99" height="41" fill="url(#paint0_linear_2001_9161)"/>
<path d="M3.5 35L0 33.5V44H99V34.5H98.5H94L89.5 36L84.5 38L78.5 36L72 34.5L62.5 36L56.5 34.5L49.5 36H43.5L40.5 34.5L21.5 31.5L17 29.5L11.5 33.5L8 31.5L3.5 35Z" fill="url(#paint1_linear_2001_9161)"/>
<rect x="6.06836" y="4.56909" width="9.93071" height="9.93101" fill="#2FCC71"/>
<mask id="mask0_2001_9161" style="mask-type:alpha" maskUnits="userSpaceOnUse" x="6" y="4" width="10" height="11">
<rect x="6" y="4.5" width="9.93071" height="9.93101" fill="#D9D9D9"/>
</mask>
<g mask="url(#mask0_2001_9161)">
<path d="M10.1375 11.2861L8.48242 9.63096L9.06171 9.05165L10.1375 10.1275L12.8685 7.39648L13.4478 7.97579L10.1375 11.2861Z" fill="black"/>
</g>
<path d="M20.782 12V6.16H21.414V8.688H23.382V6.16H24.014V12H23.382V9.272H21.414V12H20.782ZM27.1949 12.08C26.8536 12.08 26.5576 12.0133 26.3069 11.88C26.0563 11.7413 25.8616 11.5467 25.7229 11.296C25.5843 11.0453 25.5149 10.7547 25.5149 10.424V9.176C25.5149 8.84 25.5843 8.54933 25.7229 8.304C25.8616 8.05333 26.0563 7.86133 26.3069 7.728C26.5576 7.58933 26.8536 7.52 27.1949 7.52C27.5363 7.52 27.8323 7.58933 28.0829 7.728C28.3336 7.86133 28.5283 8.05333 28.6669 8.304C28.8056 8.54933 28.8749 8.84 28.8749 9.176V9.952H26.1389V10.424C26.1389 10.7813 26.2296 11.0587 26.4109 11.256C26.5976 11.448 26.8589 11.544 27.1949 11.544C27.4776 11.544 27.7069 11.488 27.8829 11.376C28.0643 11.264 28.1789 11.1013 28.2269 10.888H28.8589C28.8003 11.256 28.6216 11.5467 28.3229 11.76C28.0243 11.9733 27.6483 12.08 27.1949 12.08ZM28.2509 9.528V9.176C28.2509 8.81867 28.1603 8.544 27.9789 8.352C27.7976 8.15467 27.5363 8.056 27.1949 8.056C26.8589 8.056 26.5976 8.15467 26.4109 8.352C26.2296 8.544 26.1389 8.81867 26.1389 9.176V9.456H28.3149L28.2509 9.528ZM31.6478 12.08C31.1838 12.08 30.8185 11.9627 30.5518 11.728C30.2851 11.488 30.1518 11.1653 30.1518 10.76C30.1518 10.36 30.2825 10.0453 30.5438 9.816C30.8051 9.58133 31.1571 9.464 31.5998 9.464H32.9998V9C32.9998 8.70667 32.9145 8.48 32.7438 8.32C32.5731 8.16 32.3305 8.08 32.0158 8.08C31.7385 8.08 31.5065 8.14133 31.3198 8.264C31.1385 8.38667 31.0345 8.552 31.0078 8.76H30.3678C30.4211 8.38133 30.5971 8.08 30.8958 7.856C31.1998 7.632 31.5785 7.52 32.0318 7.52C32.5225 7.52 32.9118 7.65333 33.1998 7.92C33.4878 8.18133 33.6318 8.536 33.6318 8.984V12H33.0078V11.144H32.9038L33.0238 11.016C33.0238 11.3413 32.8985 11.6 32.6478 11.792C32.3971 11.984 32.0638 12.08 31.6478 12.08ZM31.7998 11.568C32.1518 11.568 32.4398 11.48 32.6638 11.304C32.8878 11.128 32.9998 10.8987 32.9998 10.616V9.952H31.6078C31.3571 9.952 31.1571 10.0213 31.0078 10.16C30.8585 10.2987 30.7838 10.488 30.7838 10.728C30.7838 10.984 30.8745 11.1893 31.0558 11.344C31.2371 11.4933 31.4851 11.568 31.7998 11.568ZM37.3647 12C37.114 12 36.8953 11.952 36.7087 11.856C36.5273 11.76 36.386 11.6213 36.2847 11.44C36.1833 11.2587 36.1327 11.0453 36.1327 10.8V6.736H34.6687V6.16H36.7647V10.8C36.7647 10.9973 36.818 11.152 36.9247 11.264C37.0313 11.3707 37.178 11.424 37.3647 11.424H38.7647V12H37.3647ZM42.0655 12C41.6975 12 41.4122 11.904 41.2095 11.712C41.0069 11.5147 40.9055 11.2373 40.9055 10.88V8.176H39.6575V7.6H40.9055V6.36H41.5455V7.6H43.3135V8.176H41.5455V10.88C41.5455 11.2427 41.7189 11.424 42.0655 11.424H43.2335V12H42.0655ZM44.7584 12V6.16H45.3904V7.536V8.384H45.5504L45.3744 8.64C45.3744 8.288 45.4811 8.01333 45.6944 7.816C45.9131 7.61867 46.2091 7.52 46.5824 7.52C47.0198 7.52 47.3691 7.65867 47.6304 7.936C47.8918 8.208 48.0224 8.57867 48.0224 9.048V12H47.3904V9.12C47.3904 8.784 47.3024 8.52267 47.1264 8.336C46.9504 8.14933 46.7104 8.056 46.4064 8.056C46.0918 8.056 45.8438 8.15467 45.6624 8.352C45.4811 8.54933 45.3904 8.824 45.3904 9.176V12H44.7584ZM50.2513 13.44L50.8993 11.72L49.2673 7.6H49.9713L51.0113 10.344C51.054 10.4507 51.094 10.5707 51.1313 10.704C51.174 10.832 51.206 10.9387 51.2273 11.024C51.254 10.9387 51.286 10.8293 51.3233 10.696C51.3606 10.5627 51.398 10.4427 51.4353 10.336L52.4113 7.6H53.0913L50.9233 13.44H50.2513ZM60.765 12.08C60.269 12.08 59.8717 11.9307 59.573 11.632C59.2797 11.3333 59.133 10.928 59.133 10.416V7.6H59.765V10.416C59.765 10.7627 59.853 11.0347 60.029 11.232C60.2104 11.424 60.4557 11.52 60.765 11.52C61.0797 11.52 61.3277 11.424 61.509 11.232C61.6904 11.0347 61.781 10.7627 61.781 10.416V7.6H62.413V10.416C62.413 10.928 62.2637 11.3333 61.965 11.632C61.6664 11.9307 61.2664 12.08 60.765 12.08ZM65.4099 12.072C65.1219 12.072 64.8686 12.024 64.6499 11.928C64.4313 11.832 64.2579 11.6987 64.1299 11.528C64.0019 11.352 63.9246 11.1493 63.8979 10.92H64.5299C64.5673 11.096 64.6606 11.2373 64.8099 11.344C64.9646 11.4507 65.1646 11.504 65.4099 11.504H65.8019C66.0846 11.504 66.2979 11.4427 66.4419 11.32C66.5913 11.192 66.6659 11.024 66.6659 10.816C66.6659 10.6187 66.6019 10.4587 66.4739 10.336C66.3459 10.2133 66.1619 10.1333 65.9219 10.096L65.2579 9.992C64.8419 9.92267 64.5273 9.78933 64.3139 9.592C64.1059 9.39467 64.0019 9.11733 64.0019 8.76C64.0019 8.37067 64.1273 8.06933 64.3779 7.856C64.6339 7.63733 65.0019 7.528 65.4819 7.528H65.7939C66.2099 7.528 66.5433 7.62667 66.7939 7.824C67.0499 8.02133 67.2046 8.288 67.2579 8.624H66.6179C66.5859 8.464 66.4979 8.336 66.3539 8.24C66.2153 8.144 66.0286 8.096 65.7939 8.096H65.4819C65.1993 8.096 64.9886 8.15467 64.8499 8.272C64.7113 8.384 64.6419 8.54667 64.6419 8.76C64.6419 8.952 64.7006 9.09867 64.8179 9.2C64.9353 9.296 65.1139 9.36267 65.3539 9.4L66.0099 9.504C66.4473 9.57333 66.7726 9.712 66.9859 9.92C67.1993 10.1227 67.3059 10.408 67.3059 10.776C67.3059 11.176 67.1779 11.4933 66.9219 11.728C66.6659 11.9573 66.2926 12.072 65.8019 12.072H65.4099ZM70.0228 12.08C69.5588 12.08 69.1935 11.9627 68.9268 11.728C68.6601 11.488 68.5268 11.1653 68.5268 10.76C68.5268 10.36 68.6575 10.0453 68.9188 9.816C69.1801 9.58133 69.5321 9.464 69.9748 9.464H71.3748V9C71.3748 8.70667 71.2895 8.48 71.1188 8.32C70.9481 8.16 70.7055 8.08 70.3908 8.08C70.1135 8.08 69.8815 8.14133 69.6948 8.264C69.5135 8.38667 69.4095 8.552 69.3828 8.76H68.7428C68.7961 8.38133 68.9721 8.08 69.2708 7.856C69.5748 7.632 69.9535 7.52 70.4068 7.52C70.8975 7.52 71.2868 7.65333 71.5748 7.92C71.8628 8.18133 72.0068 8.536 72.0068 8.984V12H71.3828V11.144H71.2788L71.3988 11.016C71.3988 11.3413 71.2735 11.6 71.0228 11.792C70.7721 11.984 70.4388 12.08 70.0228 12.08ZM70.1748 11.568C70.5268 11.568 70.8148 11.48 71.0388 11.304C71.2628 11.128 71.3748 10.8987 71.3748 10.616V9.952H69.9828C69.7321 9.952 69.5321 10.0213 69.3828 10.16C69.2335 10.2987 69.1588 10.488 69.1588 10.728C69.1588 10.984 69.2495 11.1893 69.4308 11.344C69.6121 11.4933 69.8601 11.568 70.1748 11.568ZM74.0757 13.44V12.864H75.4117C75.6623 12.864 75.8463 12.8053 75.9637 12.688C76.0863 12.5707 76.1477 12.392 76.1477 12.152V11.64L76.1637 10.808H76.0197L76.1717 10.624C76.1717 10.9547 76.0623 11.2187 75.8437 11.416C75.625 11.6133 75.3317 11.712 74.9637 11.712C74.5157 11.712 74.161 11.5653 73.8997 11.272C73.6383 10.9733 73.5077 10.576 73.5077 10.08V9.144C73.5077 8.648 73.6383 8.25333 73.8997 7.96C74.161 7.66667 74.5157 7.52 74.9637 7.52C75.3317 7.52 75.625 7.61867 75.8437 7.816C76.0623 8.008 76.1717 8.26933 76.1717 8.6L76.0277 8.416H76.1557V7.6H76.7797V12.152C76.7797 12.5573 76.6597 12.872 76.4197 13.096C76.185 13.3253 75.849 13.44 75.4117 13.44H74.0757ZM75.1477 11.16C75.4623 11.16 75.7077 11.064 75.8837 10.872C76.065 10.6747 76.1557 10.4027 76.1557 10.056V9.176C76.1557 8.82933 76.065 8.56 75.8837 8.368C75.7077 8.17067 75.4623 8.072 75.1477 8.072C74.8277 8.072 74.5797 8.168 74.4037 8.36C74.2277 8.552 74.1397 8.824 74.1397 9.176V10.056C74.1397 10.408 74.2277 10.68 74.4037 10.872C74.5797 11.064 74.8277 11.16 75.1477 11.16ZM79.9605 12.08C79.6192 12.08 79.3232 12.0133 79.0725 11.88C78.8219 11.7413 78.6272 11.5467 78.4885 11.296C78.3499 11.0453 78.2805 10.7547 78.2805 10.424V9.176C78.2805 8.84 78.3499 8.54933 78.4885 8.304C78.6272 8.05333 78.8219 7.86133 79.0725 7.728C79.3232 7.58933 79.6192 7.52 79.9605 7.52C80.3019 7.52 80.5979 7.58933 80.8485 7.728C81.0992 7.86133 81.2939 8.05333 81.4325 8.304C81.5712 8.54933 81.6405 8.84 81.6405 9.176V9.952H78.9045V10.424C78.9045 10.7813 78.9952 11.0587 79.1765 11.256C79.3632 11.448 79.6245 11.544 79.9605 11.544C80.2432 11.544 80.4725 11.488 80.6485 11.376C80.8299 11.264 80.9445 11.1013 80.9925 10.888H81.6245C81.5659 11.256 81.3872 11.5467 81.0885 11.76C80.7899 11.9733 80.4139 12.08 79.9605 12.08ZM81.0165 9.528V9.176C81.0165 8.81867 80.9259 8.544 80.7445 8.352C80.5632 8.15467 80.3019 8.056 79.9605 8.056C79.6245 8.056 79.3632 8.15467 79.1765 8.352C78.9952 8.544 78.9045 8.81867 78.9045 9.176V9.456H81.0805L81.0165 9.528Z" fill="#45C079"/>
<defs>
<linearGradient id="paint0_linear_2001_9161" x1="96" y1="1.5" x2="-1.04481e-06" y2="41" gradientUnits="userSpaceOnUse">
<stop stop-color="#171717"/>
<stop offset="1" stop-color="#2B2B2B"/>
</linearGradient>
<linearGradient id="paint1_linear_2001_9161" x1="50" y1="34.5" x2="50" y2="53" gradientUnits="userSpaceOnUse">
<stop stop-color="#20A558"/>
<stop offset="1" stop-color="#4E4E4E"/>
</linearGradient>
</defs>
</svg>
