<svg width="39" height="22" viewBox="0 0 39 22" fill="none" xmlns="http://www.w3.org/2000/svg">
<path d="M14.3867 1.58008V20.761" stroke="#A2A2A2" stroke-width="1.59841" stroke-dasharray="2 1.2"/>
<mask id="path-2-inside-1_1_940" fill="white">
<path fill-rule="evenodd" clip-rule="evenodd" d="M38.3617 0.779297H0V5.63092C0.261117 5.59355 0.52805 5.57422 0.7995 5.57422C3.88921 5.57422 6.39392 8.07893 6.39392 11.1686C6.39392 14.2584 3.88921 16.7631 0.7995 16.7631C0.52805 16.7631 0.261117 16.7437 0 16.7064V21.5586H38.3617V0.779297Z"/>
</mask>
<path d="M0 0.779297V-0.819109H-1.59841V0.779297H0ZM38.3617 0.779297H39.9602V-0.819109H38.3617V0.779297ZM0 5.63092H-1.59841V7.47432L0.226415 7.2132L0 5.63092ZM0 16.7064L0.226415 15.1241L-1.59841 14.863V16.7064H0ZM0 21.5586H-1.59841V23.157H0V21.5586ZM38.3617 21.5586V23.157H39.9602V21.5586H38.3617ZM0 2.3777H38.3617V-0.819109H0V2.3777ZM1.59841 5.63092V0.779297H-1.59841V5.63092H1.59841ZM0.226415 7.2132C0.412768 7.18654 0.604041 7.17263 0.7995 7.17263V3.97581C0.45206 3.97581 0.109466 4.00056 -0.226415 4.04863L0.226415 7.2132ZM0.7995 7.17263C3.00644 7.17263 4.79551 8.9617 4.79551 11.1686H7.99233C7.99233 7.19615 4.77199 3.97581 0.7995 3.97581V7.17263ZM4.79551 11.1686C4.79551 13.3756 3.00644 15.1647 0.7995 15.1647V18.3615C4.77199 18.3615 7.99233 15.1411 7.99233 11.1686H4.79551ZM0.7995 15.1647C0.604041 15.1647 0.412768 15.1507 0.226415 15.1241L-0.226415 18.2887C0.109466 18.3367 0.45206 18.3615 0.7995 18.3615V15.1647ZM1.59841 21.5586V16.7064H-1.59841V21.5586H1.59841ZM38.3617 19.9602H0V23.157H38.3617V19.9602ZM36.7633 0.779297V21.5586H39.9602V0.779297H36.7633Z" fill="#A2A2A2" mask="url(#path-2-inside-1_1_940)"/>
</svg>
