<svg width="20" height="24" viewBox="0 0 20 24" fill="none" xmlns="http://www.w3.org/2000/svg">
<path d="M19.9668 18.8758C19.9668 14.505 15.6603 10.9326 10.4002 10.9326C5.14001 10.9326 0.833496 14.5088 0.833496 18.8758V23.9997H5.62061V21.4643C5.62061 19.2807 7.77008 17.4946 10.4002 17.4946C13.0302 17.4946 15.1797 19.2807 15.1797 21.4643V23.9997H19.9668V18.8758ZM10.4002 16.8172C9.07944 16.8172 8.00849 15.7462 8.00849 14.4255C8.00849 13.1048 9.07944 12.0338 10.4002 12.0338C11.7209 12.0338 12.7918 13.1048 12.7918 14.4255C12.7918 15.7462 11.7209 16.8172 10.4002 16.8172Z" fill="#A2A2A2"/>
<path d="M10.4 9.56666C13.0418 9.56666 15.1834 7.42509 15.1834 4.78333C15.1834 2.14157 13.0418 0 10.4 0C7.75827 0 5.6167 2.14157 5.6167 4.78333C5.6167 7.42509 7.75827 9.56666 10.4 9.56666Z" fill="#A2A2A2"/>
</svg>
