<svg width="193" height="25" viewBox="0 0 833 100" fill="none" xmlns="http://www.w3.org/2000/svg">
<path d="M76.1562 28.5586H28.56C12.788 28.5586 0.0022583 41.3443 0.0022583 57.1163H47.5985C63.3705 57.1163 76.1562 44.3306 76.1562 28.5586Z" fill="white"/>
<path d="M76.1562 71.3984H28.56C12.788 71.3984 0.0022583 84.1842 0.0022583 99.9562H47.5985C63.3705 99.9562 76.1562 87.1704 76.1562 71.3984Z" fill="white"/>
<path d="M152.289 0H104.693C88.9208 0 76.1351 12.7857 76.1351 28.5577H123.731C139.503 28.5577 152.289 15.772 152.289 0Z" fill="white"/>
<path d="M152.289 42.8281H104.693C88.9208 42.8281 76.1351 55.6139 76.1351 71.3859H123.731C139.503 71.3859 152.289 58.6001 152.289 42.8281Z" fill="white"/>
<path d="M239.923 78.78C236.075 78.78 232.773 78.156 230.017 76.908C227.261 75.608 225.129 73.788 223.621 71.448C222.113 69.056 221.359 66.222 221.359 62.946H229.705C229.705 65.546 230.615 67.6 232.435 69.108C234.255 70.564 236.777 71.292 240.001 71.292C243.017 71.292 245.383 70.564 247.099 69.108C248.815 67.652 249.673 65.65 249.673 63.102C249.673 60.97 249.075 59.124 247.879 57.564C246.735 56.004 245.071 54.938 242.887 54.366L235.711 52.26C231.551 51.064 228.327 49.036 226.039 46.176C223.803 43.264 222.685 39.806 222.685 35.802C222.685 32.682 223.387 29.952 224.791 27.612C226.195 25.272 228.197 23.452 230.797 22.152C233.397 20.852 236.465 20.202 240.001 20.202C245.201 20.202 249.361 21.606 252.481 24.414C255.653 27.222 257.265 30.992 257.317 35.724H248.893C248.893 33.228 248.087 31.278 246.475 29.874C244.915 28.418 242.705 27.69 239.845 27.69C237.089 27.69 234.931 28.366 233.371 29.718C231.811 31.018 231.031 32.864 231.031 35.256C231.031 37.388 231.603 39.234 232.747 40.794C233.943 42.354 235.633 43.446 237.817 44.07L245.071 46.254C249.231 47.398 252.429 49.426 254.665 52.338C256.901 55.25 258.019 58.734 258.019 62.79C258.019 65.962 257.265 68.77 255.757 71.214C254.249 73.606 252.143 75.478 249.439 76.83C246.735 78.13 243.563 78.78 239.923 78.78ZM289.891 78V21.06H298.315V44.772H305.881L317.503 21.06H326.707L313.291 48.36L327.331 78H317.893L305.725 52.338H298.315V78H289.891ZM369.576 78V57.018L352.65 21.06H361.386L371.448 42.588C372.124 43.992 372.67 45.318 373.086 46.566C373.502 47.762 373.788 48.698 373.944 49.374C374.048 48.698 374.308 47.762 374.724 46.566C375.192 45.318 375.738 43.992 376.362 42.588L386.19 21.06H394.926L378 57.018V78H369.576ZM424.302 78V20.982H458.7V28.782H432.492V45.786H456.672V53.586H432.648V78H424.302ZM487.841 78L502.349 21.06H513.425L527.933 78H519.431L515.999 63.57H499.853L496.421 78H487.841ZM501.413 56.628H514.361L510.461 40.17C509.785 37.258 509.213 34.736 508.745 32.604C508.329 30.42 508.043 28.938 507.887 28.158C507.731 28.938 507.445 30.42 507.029 32.604C506.613 34.736 506.041 37.232 505.313 40.092L501.413 56.628ZM560.039 78V21.06H568.463V70.278H593.345V78H560.039ZM627.088 78V21.06H635.512V70.278H660.394V78H627.088Z" fill="white"/>
<path d="M721.643 78L736.151 21.06H747.227L761.735 78H753.233L749.801 63.57H733.655L730.223 78H721.643ZM735.215 56.628H748.163L744.263 40.17C743.587 37.258 743.015 34.736 742.547 32.604C742.131 30.42 741.845 28.938 741.689 28.158C741.533 28.938 741.247 30.42 740.831 32.604C740.415 34.736 739.843 37.232 739.115 40.092L735.215 56.628ZM792.983 78V70.512H804.449V28.548H792.983V21.06H824.495V28.548H813.029V70.512H824.495V78H792.983Z" fill="white"/>
</svg>
