<svg width="107" height="107" viewBox="0 0 107 107" fill="none" xmlns="http://www.w3.org/2000/svg">
<circle cx="53.4636" cy="53.4657" r="39" transform="rotate(-30.7765 53.4636 53.4657)" fill="url(#paint0_linear_336_24692)"/>
<circle cx="52.9027" cy="53.3137" r="28" transform="rotate(-1.45005 52.9027 53.3137)" fill="url(#paint1_linear_336_24692)"/>
<path fill-rule="evenodd" clip-rule="evenodd" d="M53 69C61.8366 69 69 61.8366 69 53C69 44.1634 61.8366 37 53 37C44.1634 37 37 44.1634 37 53C37 61.8366 44.1634 69 53 69ZM52.7054 43.1221C52.7822 43.0454 52.8858 43 52.9943 43C53.1068 42.9986 53.2151 43.0425 53.2946 43.1221L55.7905 45.618C56.1999 46.0107 55.594 46.6166 55.2013 46.2072L53.4167 44.4225V49.25C53.4167 51.8894 55.4514 54.0391 58.0407 54.2313C58.2481 53.0615 59.2727 52.1667 60.5 52.1667C61.8758 52.1667 63 53.2909 63 54.6667C63 56.0425 61.8758 57.1667 60.5 57.1667C59.2597 57.1667 58.227 56.2518 58.035 55.0638C56.0723 54.9359 54.3752 53.8363 53.4167 52.2391V58H55.5V63H50.5V58H52.5833V52.2391C51.6249 53.8363 49.9278 54.9359 47.965 55.0638C47.773 56.2518 46.7403 57.1667 45.5 57.1667C44.1242 57.1667 43 56.0425 43 54.6667C43 53.2909 44.1242 52.1667 45.5 52.1667C46.7273 52.1667 47.7519 53.0615 47.9593 54.2313C50.5486 54.0391 52.5833 51.8894 52.5833 49.25V44.4225L50.7987 46.2072C50.406 46.6178 49.7988 46.0107 50.2095 45.618L52.7054 43.1221ZM54.6667 62.1667V58.8334H51.3333V62.1667H54.6667Z" fill="white"/>
<defs>
<linearGradient id="paint0_linear_336_24692" x1="53.4636" y1="14.4657" x2="53.4636" y2="92.4657" gradientUnits="userSpaceOnUse">
<stop stop-color="#171717" stop-opacity="0"/>
<stop offset="1" stop-color="#3F3F3F"/>
</linearGradient>
<linearGradient id="paint1_linear_336_24692" x1="52.9027" y1="25.3137" x2="52.9027" y2="81.3137" gradientUnits="userSpaceOnUse">
<stop stop-color="#171717" stop-opacity="0"/>
<stop offset="1" stop-color="#626262"/>
</linearGradient>
</defs>
</svg>
