<svg width="20" height="20" viewBox="0 0 20 20" fill="none" xmlns="http://www.w3.org/2000/svg">
<path d="M17.7635 19.0532L15.1016 16.3913V18.399H13.2969V13.3008H18.3951V15.1055H16.3648L19.0268 17.7674L17.7635 19.0532ZM9.6875 18.7148C8.43926 18.7148 7.26621 18.478 6.16836 18.0042C5.07051 17.5305 4.11553 16.8876 3.30342 16.0755C2.49131 15.2634 1.84839 14.3084 1.37466 13.2105C0.900928 12.1127 0.664062 10.9396 0.664062 9.69141C0.664062 8.44316 0.900928 7.27012 1.37466 6.17227C1.84839 5.07441 2.49131 4.11943 3.30342 3.30732C4.11553 2.49521 5.07051 1.85229 6.16836 1.37856C7.26621 0.904834 8.43926 0.667969 9.6875 0.667969C10.9357 0.667969 12.1088 0.904834 13.2066 1.37856C14.3045 1.85229 15.2595 2.49521 16.0716 3.30732C16.8837 4.11943 17.5266 5.07441 18.0003 6.17227C18.4741 7.27012 18.7109 8.44316 18.7109 9.69141C18.7109 9.99219 18.6959 10.293 18.6658 10.5938C18.6357 10.8945 18.5906 11.1953 18.5305 11.4961H16.6807C16.7559 11.1953 16.8123 10.8945 16.8499 10.5938C16.8875 10.293 16.9063 9.99219 16.9063 9.69141C16.9063 9.39062 16.8875 9.08984 16.8499 8.78906C16.8123 8.48828 16.7559 8.1875 16.6807 7.88672H13.6127C13.6578 8.1875 13.6917 8.48828 13.7142 8.78906C13.7368 9.08984 13.748 9.39062 13.748 9.69141C13.748 9.99219 13.7368 10.293 13.7142 10.5938C13.6917 10.8945 13.6578 11.1953 13.6127 11.4961H11.808C11.8531 11.1953 11.887 10.8945 11.9095 10.5938C11.9321 10.293 11.9434 9.99219 11.9434 9.69141C11.9434 9.39062 11.9321 9.08984 11.9095 8.78906C11.887 8.48828 11.8531 8.1875 11.808 7.88672H7.56699C7.52188 8.1875 7.48804 8.48828 7.46548 8.78906C7.44292 9.08984 7.43164 9.39062 7.43164 9.69141C7.43164 9.99219 7.44292 10.293 7.46548 10.5938C7.48804 10.8945 7.52188 11.1953 7.56699 11.4961H10.5898V13.3008H7.97305C8.15352 13.9475 8.38662 14.5678 8.67236 15.1619C8.95811 15.7559 9.29649 16.3236 9.6875 16.865C9.98828 16.865 10.2891 16.8462 10.5898 16.8086C10.8906 16.771 11.1914 16.7372 11.4922 16.7071V18.5569C11.1914 18.587 10.8906 18.6208 10.5898 18.6584C10.2891 18.696 9.98828 18.7148 9.6875 18.7148ZM2.69434 11.4961H5.76231C5.71719 11.1953 5.68335 10.8945 5.66079 10.5938C5.63823 10.293 5.62695 9.99219 5.62695 9.69141C5.62695 9.39062 5.63823 9.08984 5.66079 8.78906C5.68335 8.48828 5.71719 8.1875 5.76231 7.88672H2.69434C2.61914 8.1875 2.56274 8.48828 2.52515 8.78906C2.48755 9.08984 2.46875 9.39062 2.46875 9.69141C2.46875 9.99219 2.48755 10.293 2.52515 10.5938C2.56274 10.8945 2.61914 11.1953 2.69434 11.4961ZM3.46133 6.08203H6.12324C6.25859 5.52559 6.42778 4.98042 6.63081 4.44653C6.83384 3.91265 7.0707 3.39004 7.34141 2.87871C6.51426 3.14941 5.76982 3.55923 5.10811 4.10815C4.44639 4.65708 3.89746 5.31504 3.46133 6.08203ZM7.34141 16.5041C7.0707 15.9928 6.83384 15.4702 6.63081 14.9363C6.42778 14.4024 6.25859 13.8572 6.12324 13.3008H3.46133C3.89746 14.0678 4.44639 14.7257 5.10811 15.2747C5.76982 15.8236 6.51426 16.2334 7.34141 16.5041ZM7.97305 6.08203H11.402C11.2215 5.43535 10.9884 4.81499 10.7026 4.22095C10.4169 3.6269 10.0785 3.05918 9.6875 2.51777C9.29649 3.05918 8.95811 3.6269 8.67236 4.22095C8.38662 4.81499 8.15352 5.43535 7.97305 6.08203ZM13.2518 6.08203H15.9137C15.4775 5.31504 14.9286 4.65708 14.2669 4.10815C13.6052 3.55923 12.8607 3.14941 12.0336 2.87871C12.3043 3.39004 12.5412 3.91265 12.7442 4.44653C12.9472 4.98042 13.1164 5.52559 13.2518 6.08203Z" fill="white"/>
</svg>
