<svg width="35" height="35" viewBox="0 0 35 35" fill="none" xmlns="http://www.w3.org/2000/svg">
<path d="M31.9154 34.2943L26.9987 29.3776V33.0859H23.6654V23.6693H33.082V27.0026H29.332L34.2487 31.9193L31.9154 34.2943ZM16.9987 33.6693C14.6931 33.6693 12.5265 33.2318 10.4987 32.3568C8.47092 31.4818 6.70703 30.2943 5.20703 28.7943C3.70703 27.2943 2.51953 25.5304 1.64453 23.5026C0.769531 21.4748 0.332031 19.3082 0.332031 17.0026C0.332031 14.697 0.769531 12.5304 1.64453 10.5026C2.51953 8.47483 3.70703 6.71094 5.20703 5.21094C6.70703 3.71094 8.47092 2.52344 10.4987 1.64844C12.5265 0.773437 14.6931 0.335938 16.9987 0.335938C19.3043 0.335938 21.4709 0.773437 23.4987 1.64844C25.5265 2.52344 27.2904 3.71094 28.7904 5.21094C30.2904 6.71094 31.4779 8.47483 32.3529 10.5026C33.2279 12.5304 33.6654 14.697 33.6654 17.0026C33.6654 17.5582 33.6376 18.1137 33.582 18.6693C33.5265 19.2248 33.4431 19.7804 33.332 20.3359H29.9154C30.0543 19.7804 30.1584 19.2248 30.2279 18.6693C30.2973 18.1137 30.332 17.5582 30.332 17.0026C30.332 16.447 30.2973 15.8915 30.2279 15.3359C30.1584 14.7804 30.0543 14.2248 29.9154 13.6693H24.2487C24.332 14.2248 24.3945 14.7804 24.4362 15.3359C24.4779 15.8915 24.4987 16.447 24.4987 17.0026C24.4987 17.5582 24.4779 18.1137 24.4362 18.6693C24.3945 19.2248 24.332 19.7804 24.2487 20.3359H20.9154C20.9987 19.7804 21.0612 19.2248 21.1029 18.6693C21.1445 18.1137 21.1654 17.5582 21.1654 17.0026C21.1654 16.447 21.1445 15.8915 21.1029 15.3359C21.0612 14.7804 20.9987 14.2248 20.9154 13.6693H13.082C12.9987 14.2248 12.9362 14.7804 12.8945 15.3359C12.8529 15.8915 12.832 16.447 12.832 17.0026C12.832 17.5582 12.8529 18.1137 12.8945 18.6693C12.9362 19.2248 12.9987 19.7804 13.082 20.3359H18.6654V23.6693H13.832C14.1654 24.8637 14.5959 26.0095 15.1237 27.1068C15.6515 28.204 16.2765 29.2526 16.9987 30.2526C17.5543 30.2526 18.1098 30.2179 18.6654 30.1484C19.2209 30.079 19.7765 30.0165 20.332 29.9609V33.3776C19.7765 33.4332 19.2209 33.4957 18.6654 33.5651C18.1098 33.6345 17.5543 33.6693 16.9987 33.6693ZM4.08203 20.3359H9.7487C9.66537 19.7804 9.60287 19.2248 9.5612 18.6693C9.51953 18.1137 9.4987 17.5582 9.4987 17.0026C9.4987 16.447 9.51953 15.8915 9.5612 15.3359C9.60287 14.7804 9.66537 14.2248 9.7487 13.6693H4.08203C3.94314 14.2248 3.83898 14.7804 3.76953 15.3359C3.70009 15.8915 3.66536 16.447 3.66536 17.0026C3.66536 17.5582 3.70009 18.1137 3.76953 18.6693C3.83898 19.2248 3.94314 19.7804 4.08203 20.3359ZM5.4987 10.3359H10.4154C10.6654 9.30816 10.9779 8.30122 11.3529 7.3151C11.7279 6.32899 12.1654 5.36372 12.6654 4.41927C11.1376 4.91927 9.76259 5.67622 8.54037 6.6901C7.31814 7.70399 6.30425 8.91927 5.4987 10.3359ZM12.6654 29.5859C12.1654 28.6415 11.7279 27.6762 11.3529 26.6901C10.9779 25.704 10.6654 24.697 10.4154 23.6693H5.4987C6.30425 25.0859 7.31814 26.3012 8.54037 27.3151C9.76259 28.329 11.1376 29.0859 12.6654 29.5859ZM13.832 10.3359H20.1654C19.832 9.14149 19.4015 7.99566 18.8737 6.89844C18.3459 5.80122 17.7209 4.7526 16.9987 3.7526C16.2765 4.7526 15.6515 5.80122 15.1237 6.89844C14.5959 7.99566 14.1654 9.14149 13.832 10.3359ZM23.582 10.3359H28.4987C27.6931 8.91927 26.6793 7.70399 25.457 6.6901C24.2348 5.67622 22.8598 4.91927 21.332 4.41927C21.832 5.36372 22.2695 6.32899 22.6445 7.3151C23.0195 8.30122 23.332 9.30816 23.582 10.3359Z" fill="white"/>
</svg>
