<svg width="21" height="21" viewBox="0 0 21 21" fill="none" xmlns="http://www.w3.org/2000/svg">
<path d="M19.4724 20.926L16.4717 17.9253V20.1885H14.4374V14.4415H20.1844V16.4759H17.8958L20.8964 19.4765L19.4724 20.926ZM10.3687 20.5445C8.96163 20.5445 7.63931 20.2775 6.40175 19.7435C5.1642 19.2095 4.08769 18.4848 3.17224 17.5693C2.25679 16.6539 1.53206 15.5774 0.998042 14.3398C0.464028 13.1023 0.197021 11.7799 0.197021 10.3729C0.197021 8.96578 0.464028 7.64346 0.998042 6.4059C1.53206 5.16835 2.25679 4.09184 3.17224 3.17639C4.08769 2.26094 5.1642 1.53621 6.40175 1.00219C7.63931 0.468179 8.96163 0.201172 10.3687 0.201172C11.7758 0.201172 13.0981 0.468179 14.3357 1.00219C15.5732 1.53621 16.6497 2.26094 17.5652 3.17639C18.4806 4.09184 19.2054 5.16835 19.7394 6.4059C20.2734 7.64346 20.5404 8.96578 20.5404 10.3729C20.5404 10.7119 20.5234 11.051 20.4895 11.39C20.4556 11.7291 20.4048 12.0681 20.337 12.4072H18.2518C18.3365 12.0681 18.4001 11.7291 18.4425 11.39C18.4849 11.051 18.5061 10.7119 18.5061 10.3729C18.5061 10.0338 18.4849 9.69475 18.4425 9.35569C18.4001 9.01663 18.3365 8.67758 18.2518 8.33852H14.7934C14.8443 8.67758 14.8824 9.01663 14.9078 9.35569C14.9333 9.69475 14.946 10.0338 14.946 10.3729C14.946 10.7119 14.9333 11.051 14.9078 11.39C14.8824 11.7291 14.8443 12.0681 14.7934 12.4072H12.7591C12.8099 12.0681 12.8481 11.7291 12.8735 11.39C12.8989 11.051 12.9116 10.7119 12.9116 10.3729C12.9116 10.0338 12.8989 9.69475 12.8735 9.35569C12.8481 9.01663 12.8099 8.67758 12.7591 8.33852H7.97836C7.92751 8.67758 7.88936 9.01663 7.86393 9.35569C7.8385 9.69475 7.82579 10.0338 7.82579 10.3729C7.82579 10.7119 7.8385 11.051 7.86393 11.39C7.88936 11.7291 7.92751 12.0681 7.97836 12.4072H11.3859V14.4415H8.43609C8.63952 15.1705 8.90229 15.8698 9.2244 16.5394C9.5465 17.2091 9.92794 17.8491 10.3687 18.4594C10.7078 18.4594 11.0468 18.4382 11.3859 18.3958C11.7249 18.3534 12.064 18.3153 12.403 18.2813V20.3665C12.064 20.4004 11.7249 20.4386 11.3859 20.481C11.0468 20.5234 10.7078 20.5445 10.3687 20.5445ZM2.48565 12.4072H5.94403C5.89317 12.0681 5.85502 11.7291 5.82959 11.39C5.80416 11.051 5.79145 10.7119 5.79145 10.3729C5.79145 10.0338 5.80416 9.69475 5.82959 9.35569C5.85502 9.01663 5.89317 8.67758 5.94403 8.33852H2.48565C2.40089 8.67758 2.33731 9.01663 2.29493 9.35569C2.25255 9.69475 2.23136 10.0338 2.23136 10.3729C2.23136 10.7119 2.25255 11.051 2.29493 11.39C2.33731 11.7291 2.40089 12.0681 2.48565 12.4072ZM3.35025 6.30418H6.35089C6.50347 5.67693 6.69419 5.06239 6.92305 4.46057C7.15191 3.85874 7.41892 3.26963 7.72407 2.69324C6.79167 2.99839 5.9525 3.46035 5.20658 4.07913C4.46065 4.69791 3.84188 5.43959 3.35025 6.30418ZM7.72407 18.0525C7.41892 17.4761 7.15191 16.887 6.92305 16.2852C6.69419 15.6833 6.50347 15.0688 6.35089 14.4415H3.35025C3.84188 15.3061 4.46065 16.0478 5.20658 16.6666C5.9525 17.2854 6.79167 17.7473 7.72407 18.0525ZM8.43609 6.30418H12.3013C12.0979 5.57521 11.8351 4.87591 11.513 4.20627C11.1909 3.53664 10.8095 2.89667 10.3687 2.28637C9.92794 2.89667 9.5465 3.53664 9.2244 4.20627C8.90229 4.87591 8.63952 5.57521 8.43609 6.30418ZM14.3865 6.30418H17.3872C16.8955 5.43959 16.2768 4.69791 15.5308 4.07913C14.7849 3.46035 13.9458 2.99839 13.0133 2.69324C13.3185 3.26963 13.5855 3.85874 13.8144 4.46057C14.0432 5.06239 14.234 5.67693 14.3865 6.30418Z" fill="white"/>
</svg>
