<svg width="254" height="258" viewBox="0 0 254 258" fill="none" xmlns="http://www.w3.org/2000/svg">
<rect x="81.2454" y="83.6446" width="91.1146" height="92.2981" fill="url(#paint0_linear_342_36003)"/>
<path d="M163.872 76.0276L163.872 59.1654L189.609 33.4285L189.609 16.8621L184.58 11.8331" stroke="url(#paint1_linear_342_36003)" stroke-width="0.591654"/>
<rect width="4.14157" height="1.18331" transform="matrix(-1 -8.7423e-08 -8.74226e-08 1 165.942 78.0991)" fill="#33DDA0"/>
<rect width="2.95826" height="2.36662" transform="matrix(-1 -8.7423e-08 -8.74226e-08 1 165.353 75.7313)" fill="#33DDA0"/>
<rect width="4.14157" height="1.18331" transform="matrix(-1 -8.7423e-08 -8.74226e-08 1 157.659 78.0991)" fill="#33DDA0"/>
<rect width="2.95826" height="2.36662" transform="matrix(-1 -8.7423e-08 -8.74226e-08 1 157.069 75.7313)" fill="#33DDA0"/>
<rect width="4.14157" height="1.18331" transform="matrix(-1 -8.7423e-08 -8.74226e-08 1 149.379 78.0991)" fill="#33DDA0"/>
<rect width="2.95826" height="2.36662" transform="matrix(-1 -8.7423e-08 -8.74226e-08 1 148.79 75.7313)" fill="#33DDA0"/>
<rect width="4.14157" height="1.18331" transform="matrix(-1 -8.7423e-08 -8.74226e-08 1 141.092 78.0991)" fill="#33DDA0"/>
<rect width="2.95826" height="2.36662" transform="matrix(-1 -8.7423e-08 -8.74226e-08 1 140.503 75.7313)" fill="#33DDA0"/>
<rect width="4.14157" height="1.18331" transform="matrix(-1 -8.7423e-08 -8.74226e-08 1 132.22 78.0991)" fill="#33DDA0"/>
<rect width="2.95826" height="2.36662" transform="matrix(-1 -8.7423e-08 -8.74226e-08 1 131.63 75.7313)" fill="#33DDA0"/>
<rect width="4.14157" height="1.18331" transform="matrix(-1 -8.7423e-08 -8.74226e-08 1 123.934 78.0991)" fill="#33DDA0"/>
<rect width="2.95826" height="2.36662" transform="matrix(-1 -8.7423e-08 -8.74226e-08 1 123.345 75.7313)" fill="#33DDA0"/>
<rect width="4.14157" height="1.18331" transform="matrix(-1 -8.7423e-08 -8.74226e-08 1 115.653 78.0991)" fill="#33DDA0"/>
<rect width="2.95826" height="2.36662" transform="matrix(-1 -8.7423e-08 -8.74226e-08 1 115.063 75.7313)" fill="#33DDA0"/>
<rect width="4.14157" height="1.18331" transform="matrix(-1 -8.7423e-08 -8.74226e-08 1 107.369 78.0991)" fill="#33DDA0"/>
<rect width="2.95826" height="2.36662" transform="matrix(-1 -8.7423e-08 -8.74226e-08 1 106.78 75.7313)" fill="#33DDA0"/>
<rect width="4.14157" height="1.18331" transform="matrix(-1 -8.7423e-08 -8.74226e-08 1 98.4987 78.0991)" fill="#33DDA0"/>
<rect width="2.95826" height="2.36662" transform="matrix(-1 -8.7423e-08 -8.74226e-08 1 97.9092 75.7313)" fill="#33DDA0"/>
<rect width="4.14157" height="1.18331" transform="matrix(-1 -8.7423e-08 -8.74226e-08 1 90.7987 78.0991)" fill="#33DDA0"/>
<rect width="2.95826" height="2.36662" transform="matrix(-1 -8.7423e-08 -8.74226e-08 1 90.2092 75.7313)" fill="#33DDA0"/>
<ellipse cx="1.47913" cy="1.47914" rx="1.47913" ry="1.47914" transform="matrix(-1 -8.7423e-08 -8.74226e-08 1 165.35 70.4088)" fill="#74FFD1"/>
<path d="M122.158 75.7329L122.158 61.8291L112.692 52.6584L112.692 35.7963L117.129 31.9505L117.129 14.2009L104.408 2.3678" stroke="url(#paint2_linear_342_36003)" stroke-width="0.591654"/>
<path d="M122.158 75.7329L122.158 61.8291L112.692 52.6584L112.692 35.7963L117.129 31.9505L117.129 14.2009L104.408 2.3678" stroke="url(#paint3_linear_342_36003)" stroke-width="0.591654"/>
<path d="M130.44 75.7318L130.44 59.4613L122.453 51.7698L122.453 2.98193e-05" stroke="url(#paint4_linear_342_36003)" stroke-width="0.591654"/>
<path d="M130.44 75.7318L130.44 59.4613L122.453 51.7698L122.453 2.98193e-05" stroke="url(#paint5_linear_342_36003)" stroke-width="0.591654"/>
<path d="M113.58 75.7325L113.58 63.8994L102.93 53.2496L102.93 16.8629L95.8304 9.46722" stroke="url(#paint6_linear_342_36003)" stroke-width="0.591654"/>
<path d="M113.58 75.7325L113.58 63.8994L102.93 53.2496L102.93 16.8629L95.8304 9.46722" stroke="url(#paint7_linear_342_36003)" stroke-width="0.591654"/>
<path d="M139.319 75.7329L139.319 55.6167L133.403 49.4043L133.403 31.3588L141.686 23.0757L141.686 8.28433" stroke="url(#paint8_linear_342_36003)" stroke-width="0.591654"/>
<path d="M139.319 75.7329L139.319 55.6167L133.403 49.4043L133.403 31.3588L141.686 23.0757L141.686 8.28433" stroke="url(#paint9_linear_342_36003)" stroke-width="0.591654"/>
<path d="M155.589 75.7296L155.589 50.2885L174.226 31.3555L174.226 12.4226" stroke="url(#paint10_linear_342_36003)" stroke-width="0.591654"/>
<path d="M155.589 75.7296L155.589 50.2885L174.226 31.3555L174.226 12.4226" stroke="url(#paint11_linear_342_36003)" stroke-width="0.591654"/>
<path d="M147.308 76.0305L147.308 52.956L142.279 48.5186L142.279 39.3479L154.704 27.8107L154.704 8.87772" stroke="url(#paint12_linear_342_36003)" stroke-width="0.591654"/>
<path d="M147.308 76.0305L147.308 52.956L142.279 48.5186L142.279 39.3479L154.704 27.8107L154.704 8.87772" stroke="url(#paint13_linear_342_36003)" stroke-width="0.591654"/>
<path d="M105.3 76.0258L105.3 62.1219L95.8332 52.3596L95.8332 26.031L86.6626 17.1562" stroke="url(#paint14_linear_342_36003)" stroke-width="0.591654"/>
<path d="M105.3 76.0258L105.3 62.1219L95.8332 52.3596L95.8332 26.031L86.6626 17.1562" stroke="url(#paint15_linear_342_36003)" stroke-width="0.591654"/>
<path d="M96.4239 75.7341L96.4239 61.5344L81.9284 47.0389L81.9284 39.3474L87.2533 34.3183L87.2533 25.4435L77.7868 15.977L77.7868 4.73556" stroke="url(#paint16_linear_342_36003)" stroke-width="0.591654"/>
<path d="M96.4239 75.7341L96.4239 61.5344L81.9284 47.0389L81.9284 39.3474L87.2533 34.3183L87.2533 25.4435L77.7868 15.977L77.7868 4.73556" stroke="url(#paint17_linear_342_36003)" stroke-width="0.591654"/>
<path d="M88.4392 75.7341L88.4392 59.1678L65.6606 37.2765L65.6606 19.8227L55.8983 10.6521" stroke="url(#paint18_linear_342_36003)" stroke-width="0.591654"/>
<path d="M88.4392 75.7341L88.4392 59.1678L65.6606 37.2765L65.6606 19.8227L55.8983 10.6521" stroke="url(#paint19_linear_342_36003)" stroke-width="0.591654"/>
<ellipse cx="1.47913" cy="1.47914" rx="1.47913" ry="1.47914" transform="matrix(-1 -8.7423e-08 -8.74226e-08 1 90.2117 70.4088)" fill="#B5FFFF"/>
<ellipse cx="1.47913" cy="1.47914" rx="1.47913" ry="1.47914" transform="matrix(-1 -8.7423e-08 -8.74226e-08 1 140.503 70.4088)" fill="#B5FFFF"/>
<ellipse cx="1.47913" cy="1.47914" rx="1.47913" ry="1.47914" transform="matrix(-1 -8.7423e-08 -8.74226e-08 1 131.627 70.4088)" fill="#B5FFFF"/>
<ellipse cx="1.47913" cy="1.47914" rx="1.47913" ry="1.47914" transform="matrix(-1 -8.7423e-08 -8.74226e-08 1 123.343 70.4088)" fill="#B5FFFF"/>
<ellipse cx="1.47913" cy="1.47914" rx="1.47913" ry="1.47914" transform="matrix(-1 -8.7423e-08 -8.74226e-08 1 115.061 70.4088)" fill="#B5FFFF"/>
<ellipse cx="1.47913" cy="1.47914" rx="1.47913" ry="1.47914" transform="matrix(-1 -8.7423e-08 -8.74226e-08 1 106.778 70.4088)" fill="#B5FFFF"/>
<ellipse cx="1.47913" cy="1.47914" rx="1.47913" ry="1.47914" transform="matrix(-1 -8.7423e-08 -8.74226e-08 1 97.9044 70.4088)" fill="#B5FFFF"/>
<ellipse cx="1.47913" cy="1.47914" rx="1.47913" ry="1.47914" transform="matrix(-1 -8.7423e-08 -8.74226e-08 1 148.785 70.4088)" fill="#B5FFFF"/>
<ellipse cx="1.47913" cy="1.47914" rx="1.47913" ry="1.47914" transform="matrix(-1 -8.7423e-08 -8.74226e-08 1 157.068 70.4088)" fill="#B5FFFF"/>
<path d="M163.872 181.972L163.872 198.835L189.609 224.572L189.609 241.138L184.58 246.167" stroke="url(#paint20_linear_342_36003)" stroke-width="0.591654"/>
<rect x="165.942" y="179.901" width="4.14157" height="1.18331" transform="rotate(180 165.942 179.901)" fill="#33DDA0"/>
<rect x="165.353" y="182.269" width="2.95826" height="2.36662" transform="rotate(180 165.353 182.269)" fill="#33DDA0"/>
<rect x="157.659" y="179.901" width="4.14157" height="1.18331" transform="rotate(180 157.659 179.901)" fill="#33DDA0"/>
<rect x="157.069" y="182.269" width="2.95826" height="2.36662" transform="rotate(180 157.069 182.269)" fill="#33DDA0"/>
<rect x="149.379" y="179.901" width="4.14157" height="1.18331" transform="rotate(180 149.379 179.901)" fill="#33DDA0"/>
<rect x="148.79" y="182.269" width="2.95826" height="2.36662" transform="rotate(180 148.79 182.269)" fill="#33DDA0"/>
<rect x="141.092" y="179.901" width="4.14157" height="1.18331" transform="rotate(180 141.092 179.901)" fill="#33DDA0"/>
<rect x="140.503" y="182.269" width="2.95826" height="2.36662" transform="rotate(180 140.503 182.269)" fill="#33DDA0"/>
<rect x="132.22" y="179.901" width="4.14157" height="1.18331" transform="rotate(180 132.22 179.901)" fill="#33DDA0"/>
<rect x="131.63" y="182.269" width="2.95826" height="2.36662" transform="rotate(180 131.63 182.269)" fill="#33DDA0"/>
<rect x="123.934" y="179.901" width="4.14157" height="1.18331" transform="rotate(180 123.934 179.901)" fill="#33DDA0"/>
<rect x="123.345" y="182.269" width="2.95826" height="2.36662" transform="rotate(180 123.345 182.269)" fill="#33DDA0"/>
<rect x="115.653" y="179.901" width="4.14157" height="1.18331" transform="rotate(180 115.653 179.901)" fill="#33DDA0"/>
<rect x="115.063" y="182.269" width="2.95826" height="2.36662" transform="rotate(180 115.063 182.269)" fill="#33DDA0"/>
<rect x="107.369" y="179.901" width="4.14157" height="1.18331" transform="rotate(180 107.369 179.901)" fill="#33DDA0"/>
<rect x="106.78" y="182.269" width="2.95826" height="2.36662" transform="rotate(180 106.78 182.269)" fill="#33DDA0"/>
<rect x="98.4987" y="179.901" width="4.14157" height="1.18331" transform="rotate(180 98.4987 179.901)" fill="#33DDA0"/>
<rect x="97.9092" y="182.269" width="2.95826" height="2.36662" transform="rotate(180 97.9092 182.269)" fill="#33DDA0"/>
<rect x="90.7987" y="179.901" width="4.14157" height="1.18331" transform="rotate(180 90.7987 179.901)" fill="#33DDA0"/>
<rect x="90.2092" y="182.269" width="2.95826" height="2.36662" transform="rotate(180 90.2092 182.269)" fill="#33DDA0"/>
<ellipse cx="163.871" cy="186.112" rx="1.47913" ry="1.47914" transform="rotate(180 163.871 186.112)" fill="#74FFD1"/>
<path d="M122.158 182.267L122.158 196.171L112.692 205.342L112.692 222.204L117.129 226.049L117.129 243.799L104.408 255.632" stroke="url(#paint21_linear_342_36003)" stroke-width="0.591654"/>
<path d="M122.158 182.267L122.158 196.171L112.692 205.342L112.692 222.204L117.129 226.049L117.129 243.799L104.408 255.632" stroke="url(#paint22_linear_342_36003)" stroke-width="0.591654"/>
<path d="M130.44 182.268L130.44 198.539L122.453 206.23L122.453 258" stroke="url(#paint23_linear_342_36003)" stroke-width="0.591654"/>
<path d="M130.44 182.268L130.44 198.539L122.453 206.23L122.453 258" stroke="url(#paint24_linear_342_36003)" stroke-width="0.591654"/>
<path d="M113.58 182.267L113.58 194.101L102.93 204.75L102.93 241.137L95.8304 248.533" stroke="url(#paint25_linear_342_36003)" stroke-width="0.591654"/>
<path d="M113.58 182.267L113.58 194.101L102.93 204.75L102.93 241.137L95.8304 248.533" stroke="url(#paint26_linear_342_36003)" stroke-width="0.591654"/>
<path d="M139.319 182.267L139.319 202.383L133.403 208.596L133.403 226.641L141.686 234.924L141.686 249.716" stroke="url(#paint27_linear_342_36003)" stroke-width="0.591654"/>
<path d="M139.319 182.267L139.319 202.383L133.403 208.596L133.403 226.641L141.686 234.924L141.686 249.716" stroke="url(#paint28_linear_342_36003)" stroke-width="0.591654"/>
<path d="M155.589 182.27L155.589 207.712L174.226 226.645L174.226 245.577" stroke="url(#paint29_linear_342_36003)" stroke-width="0.591654"/>
<path d="M155.589 182.27L155.589 207.712L174.226 226.645L174.226 245.577" stroke="url(#paint30_linear_342_36003)" stroke-width="0.591654"/>
<path d="M147.308 181.97L147.308 205.044L142.279 209.481L142.279 218.652L154.704 230.189L154.704 249.122" stroke="url(#paint31_linear_342_36003)" stroke-width="0.591654"/>
<path d="M147.308 181.97L147.308 205.044L142.279 209.481L142.279 218.652L154.704 230.189L154.704 249.122" stroke="url(#paint32_linear_342_36003)" stroke-width="0.591654"/>
<path d="M105.3 181.974L105.3 195.878L95.8332 205.64L95.8332 231.969L86.6626 240.844" stroke="url(#paint33_linear_342_36003)" stroke-width="0.591654"/>
<path d="M105.3 181.974L105.3 195.878L95.8332 205.64L95.8332 231.969L86.6626 240.844" stroke="url(#paint34_linear_342_36003)" stroke-width="0.591654"/>
<path d="M96.4239 182.266L96.4239 196.466L81.9284 210.961L81.9284 218.653L87.2533 223.682L87.2533 232.557L77.7868 242.023L77.7868 253.264" stroke="url(#paint35_linear_342_36003)" stroke-width="0.591654"/>
<path d="M96.4239 182.266L96.4239 196.466L81.9284 210.961L81.9284 218.653L87.2533 223.682L87.2533 232.557L77.7868 242.023L77.7868 253.264" stroke="url(#paint36_linear_342_36003)" stroke-width="0.591654"/>
<path d="M88.4392 182.266L88.4392 198.832L65.6606 220.724L65.6606 238.177L55.8983 247.348" stroke="url(#paint37_linear_342_36003)" stroke-width="0.591654"/>
<path d="M88.4392 182.266L88.4392 198.832L65.6606 220.724L65.6606 238.177L55.8983 247.348" stroke="url(#paint38_linear_342_36003)" stroke-width="0.591654"/>
<ellipse cx="88.7325" cy="186.112" rx="1.47913" ry="1.47914" transform="rotate(180 88.7325 186.112)" fill="#B5FFFF"/>
<ellipse cx="139.024" cy="186.112" rx="1.47913" ry="1.47914" transform="rotate(180 139.024 186.112)" fill="#B5FFFF"/>
<ellipse cx="130.148" cy="186.112" rx="1.47913" ry="1.47914" transform="rotate(180 130.148 186.112)" fill="#B5FFFF"/>
<ellipse cx="121.864" cy="186.112" rx="1.47913" ry="1.47914" transform="rotate(180 121.864 186.112)" fill="#B5FFFF"/>
<ellipse cx="113.581" cy="186.112" rx="1.47913" ry="1.47914" transform="rotate(180 113.581 186.112)" fill="#B5FFFF"/>
<ellipse cx="105.299" cy="186.112" rx="1.47913" ry="1.47914" transform="rotate(180 105.299 186.112)" fill="#B5FFFF"/>
<ellipse cx="96.4253" cy="186.112" rx="1.47913" ry="1.47914" transform="rotate(180 96.4253 186.112)" fill="#B5FFFF"/>
<ellipse cx="147.306" cy="186.112" rx="1.47913" ry="1.47914" transform="rotate(180 147.306 186.112)" fill="#B5FFFF"/>
<ellipse cx="155.588" cy="186.112" rx="1.47913" ry="1.47914" transform="rotate(180 155.588 186.112)" fill="#B5FFFF"/>
<path d="M177.977 91.6285L194.839 91.6285L220.576 65.8916L237.142 65.8916L242.171 70.9206" stroke="url(#paint39_linear_342_36003)" stroke-width="0.591654"/>
<rect x="175.905" y="89.5582" width="4.14158" height="1.18331" transform="rotate(90 175.905 89.5582)" fill="#33DDA0"/>
<rect x="178.273" y="90.1477" width="2.95827" height="2.36661" transform="rotate(90 178.273 90.1477)" fill="#33DDA0"/>
<rect x="175.905" y="97.8436" width="4.14158" height="1.18331" transform="rotate(90 175.905 97.8436)" fill="#33DDA0"/>
<rect x="178.273" y="98.4331" width="2.95827" height="2.36661" transform="rotate(90 178.273 98.4331)" fill="#33DDA0"/>
<rect x="175.905" y="106.123" width="4.14158" height="1.18331" transform="rotate(90 175.905 106.123)" fill="#33DDA0"/>
<rect x="178.273" y="106.713" width="2.95827" height="2.36661" transform="rotate(90 178.273 106.713)" fill="#33DDA0"/>
<rect x="175.905" y="114.407" width="4.14158" height="1.18331" transform="rotate(90 175.905 114.407)" fill="#33DDA0"/>
<rect x="178.273" y="114.996" width="2.95827" height="2.36661" transform="rotate(90 178.273 114.996)" fill="#33DDA0"/>
<rect x="175.905" y="123.281" width="4.14158" height="1.18331" transform="rotate(90 175.905 123.281)" fill="#33DDA0"/>
<rect x="178.273" y="123.871" width="2.95827" height="2.36661" transform="rotate(90 178.273 123.871)" fill="#33DDA0"/>
<rect x="175.905" y="131.569" width="4.14158" height="1.18331" transform="rotate(90 175.905 131.569)" fill="#33DDA0"/>
<rect x="178.273" y="132.158" width="2.95827" height="2.36661" transform="rotate(90 178.273 132.158)" fill="#33DDA0"/>
<rect x="175.905" y="139.85" width="4.14158" height="1.18331" transform="rotate(90 175.905 139.85)" fill="#33DDA0"/>
<rect x="178.273" y="140.439" width="2.95827" height="2.36661" transform="rotate(90 178.273 140.439)" fill="#33DDA0"/>
<rect x="175.905" y="148.133" width="4.14158" height="1.18331" transform="rotate(90 175.905 148.133)" fill="#33DDA0"/>
<rect x="178.273" y="148.723" width="2.95827" height="2.36661" transform="rotate(90 178.273 148.723)" fill="#33DDA0"/>
<rect x="175.905" y="157.008" width="4.14158" height="1.18331" transform="rotate(90 175.905 157.008)" fill="#33DDA0"/>
<rect x="178.273" y="157.597" width="2.95827" height="2.36661" transform="rotate(90 178.273 157.597)" fill="#33DDA0"/>
<rect x="175.905" y="164.702" width="4.14158" height="1.18331" transform="rotate(90 175.905 164.702)" fill="#33DDA0"/>
<rect x="178.273" y="165.292" width="2.95827" height="2.36661" transform="rotate(90 178.273 165.292)" fill="#33DDA0"/>
<ellipse cx="182.117" cy="91.6302" rx="1.47914" ry="1.47913" transform="rotate(90 182.117 91.6302)" fill="#74FFD1"/>
<path d="M178.272 133.343L192.175 133.343L201.346 142.809L218.208 142.809L222.054 138.372L239.804 138.372L251.637 151.093" stroke="url(#paint40_linear_342_36003)" stroke-width="0.591654"/>
<path d="M178.272 133.343L192.175 133.343L201.346 142.809L218.208 142.809L222.054 138.372L239.804 138.372L251.637 151.093" stroke="url(#paint41_linear_342_36003)" stroke-width="0.591654"/>
<path d="M178.273 125.061L194.543 125.061L202.235 133.048L254.004 133.048" stroke="url(#paint42_linear_342_36003)" stroke-width="0.591654"/>
<path d="M178.273 125.061L194.543 125.061L202.235 133.048L254.004 133.048" stroke="url(#paint43_linear_342_36003)" stroke-width="0.591654"/>
<path d="M178.272 141.921L190.105 141.921L200.755 152.571L237.142 152.571L244.537 159.671" stroke="url(#paint44_linear_342_36003)" stroke-width="0.591654"/>
<path d="M178.272 141.921L190.105 141.921L200.755 152.571L237.142 152.571L244.537 159.671" stroke="url(#paint45_linear_342_36003)" stroke-width="0.591654"/>
<path d="M178.272 116.182L198.388 116.182L204.6 122.098L222.646 122.098L230.929 113.815L245.72 113.815" stroke="url(#paint46_linear_342_36003)" stroke-width="0.591654"/>
<path d="M178.272 116.182L198.388 116.182L204.6 122.098L222.646 122.098L230.929 113.815L245.72 113.815" stroke="url(#paint47_linear_342_36003)" stroke-width="0.591654"/>
<path d="M178.275 99.9124L203.716 99.9124L222.649 81.2753L241.582 81.2753" stroke="url(#paint48_linear_342_36003)" stroke-width="0.591654"/>
<path d="M178.275 99.9124L203.716 99.9124L222.649 81.2753L241.582 81.2753" stroke="url(#paint49_linear_342_36003)" stroke-width="0.591654"/>
<path d="M177.974 108.193L201.049 108.193L205.486 113.222L214.657 113.222L226.194 100.797L245.127 100.797" stroke="url(#paint50_linear_342_36003)" stroke-width="0.591654"/>
<path d="M177.974 108.193L201.049 108.193L205.486 113.222L214.657 113.222L226.194 100.797L245.127 100.797" stroke="url(#paint51_linear_342_36003)" stroke-width="0.591654"/>
<path d="M177.979 150.202L191.883 150.202L201.645 159.668L227.973 159.668L236.848 168.839" stroke="url(#paint52_linear_342_36003)" stroke-width="0.591654"/>
<path d="M177.979 150.202L191.883 150.202L201.645 159.668L227.973 159.668L236.848 168.839" stroke="url(#paint53_linear_342_36003)" stroke-width="0.591654"/>
<path d="M178.27 159.077L192.47 159.077L206.966 173.573L214.657 173.573L219.686 168.248L228.561 168.248L238.027 177.714L249.269 177.714" stroke="url(#paint54_linear_342_36003)" stroke-width="0.591654"/>
<path d="M178.27 159.077L192.47 159.077L206.966 173.573L214.657 173.573L219.686 168.248L228.561 168.248L238.027 177.714L249.269 177.714" stroke="url(#paint55_linear_342_36003)" stroke-width="0.591654"/>
<path d="M178.271 167.062L194.837 167.062L216.728 189.841L234.182 189.841L243.352 199.603" stroke="url(#paint56_linear_342_36003)" stroke-width="0.591654"/>
<path d="M178.271 167.062L194.837 167.062L216.728 189.841L234.182 189.841L243.352 199.603" stroke="url(#paint57_linear_342_36003)" stroke-width="0.591654"/>
<ellipse cx="182.117" cy="166.769" rx="1.47914" ry="1.47913" transform="rotate(90 182.117 166.769)" fill="#B5FFFF"/>
<ellipse cx="182.117" cy="116.477" rx="1.47914" ry="1.47913" transform="rotate(90 182.117 116.477)" fill="#B5FFFF"/>
<ellipse cx="182.117" cy="125.353" rx="1.47914" ry="1.47913" transform="rotate(90 182.117 125.353)" fill="#B5FFFF"/>
<ellipse cx="182.117" cy="133.637" rx="1.47914" ry="1.47913" transform="rotate(90 182.117 133.637)" fill="#B5FFFF"/>
<ellipse cx="182.117" cy="141.92" rx="1.47914" ry="1.47913" transform="rotate(90 182.117 141.92)" fill="#B5FFFF"/>
<ellipse cx="182.117" cy="150.202" rx="1.47914" ry="1.47913" transform="rotate(90 182.117 150.202)" fill="#B5FFFF"/>
<ellipse cx="182.117" cy="159.076" rx="1.47914" ry="1.47913" transform="rotate(90 182.117 159.076)" fill="#B5FFFF"/>
<ellipse cx="182.117" cy="108.195" rx="1.47914" ry="1.47913" transform="rotate(90 182.117 108.195)" fill="#B5FFFF"/>
<ellipse cx="182.117" cy="99.9125" rx="1.47914" ry="1.47913" transform="rotate(90 182.117 99.9125)" fill="#B5FFFF"/>
<path d="M76.0274 91.6285L59.1653 91.6285L33.4284 65.8916L16.8621 65.8916L11.8331 70.9206" stroke="url(#paint58_linear_342_36003)" stroke-width="0.591654"/>
<rect width="4.14158" height="1.18331" transform="matrix(4.37113e-08 1 1 -4.37115e-08 78.0988 89.5582)" fill="#33DDA0"/>
<rect width="2.95827" height="2.36661" transform="matrix(4.37113e-08 1 1 -4.37115e-08 75.731 90.1477)" fill="#33DDA0"/>
<rect width="4.14158" height="1.18331" transform="matrix(4.37113e-08 1 1 -4.37115e-08 78.0988 97.8436)" fill="#33DDA0"/>
<rect width="2.95827" height="2.36661" transform="matrix(4.37113e-08 1 1 -4.37115e-08 75.731 98.4331)" fill="#33DDA0"/>
<rect width="4.14158" height="1.18331" transform="matrix(4.37113e-08 1 1 -4.37115e-08 78.0988 106.123)" fill="#33DDA0"/>
<rect width="2.95827" height="2.36661" transform="matrix(4.37113e-08 1 1 -4.37115e-08 75.731 106.713)" fill="#33DDA0"/>
<rect width="4.14158" height="1.18331" transform="matrix(4.37113e-08 1 1 -4.37115e-08 78.0988 114.407)" fill="#33DDA0"/>
<rect width="2.95827" height="2.36661" transform="matrix(4.37113e-08 1 1 -4.37115e-08 75.731 114.996)" fill="#33DDA0"/>
<rect width="4.14158" height="1.18331" transform="matrix(4.37113e-08 1 1 -4.37115e-08 78.0988 123.281)" fill="#33DDA0"/>
<rect width="2.95827" height="2.36661" transform="matrix(4.37113e-08 1 1 -4.37115e-08 75.731 123.871)" fill="#33DDA0"/>
<rect width="4.14158" height="1.18331" transform="matrix(4.37113e-08 1 1 -4.37115e-08 78.0988 131.568)" fill="#33DDA0"/>
<rect width="2.95827" height="2.36661" transform="matrix(4.37113e-08 1 1 -4.37115e-08 75.731 132.158)" fill="#33DDA0"/>
<rect width="4.14158" height="1.18331" transform="matrix(4.37113e-08 1 1 -4.37115e-08 78.0988 139.85)" fill="#33DDA0"/>
<rect width="2.95827" height="2.36661" transform="matrix(4.37113e-08 1 1 -4.37115e-08 75.731 140.439)" fill="#33DDA0"/>
<rect width="4.14158" height="1.18331" transform="matrix(4.37113e-08 1 1 -4.37115e-08 78.0988 148.133)" fill="#33DDA0"/>
<rect width="2.95827" height="2.36661" transform="matrix(4.37113e-08 1 1 -4.37115e-08 75.731 148.723)" fill="#33DDA0"/>
<rect width="4.14158" height="1.18331" transform="matrix(4.37113e-08 1 1 -4.37115e-08 78.0988 157.008)" fill="#33DDA0"/>
<rect width="2.95827" height="2.36661" transform="matrix(4.37113e-08 1 1 -4.37115e-08 75.731 157.597)" fill="#33DDA0"/>
<rect width="4.14158" height="1.18331" transform="matrix(4.37113e-08 1 1 -4.37115e-08 78.0988 164.702)" fill="#33DDA0"/>
<rect width="2.95827" height="2.36661" transform="matrix(4.37113e-08 1 1 -4.37115e-08 75.731 165.292)" fill="#33DDA0"/>
<ellipse cx="1.47914" cy="1.47913" rx="1.47914" ry="1.47913" transform="matrix(4.37113e-08 1 1 -4.37115e-08 70.4086 90.1511)" fill="#74FFD1"/>
<path d="M75.7328 133.343L61.8289 133.343L52.6583 142.809L35.7962 142.809L31.9505 138.372L14.2009 138.372L2.36781 151.093" stroke="url(#paint59_linear_342_36003)" stroke-width="0.591654"/>
<path d="M75.7328 133.343L61.8289 133.343L52.6583 142.809L35.7962 142.809L31.9505 138.372L14.2009 138.372L2.36781 151.093" stroke="url(#paint60_linear_342_36003)" stroke-width="0.591654"/>
<path d="M75.7316 125.061L59.4612 125.061L51.7697 133.048L4.61255e-05 133.048" stroke="url(#paint61_linear_342_36003)" stroke-width="0.591654"/>
<path d="M75.7316 125.061L59.4612 125.061L51.7697 133.048L4.61255e-05 133.048" stroke="url(#paint62_linear_342_36003)" stroke-width="0.591654"/>
<path d="M75.7324 141.921L63.8993 141.921L53.2496 152.571L16.8629 152.571L9.46724 159.671" stroke="url(#paint63_linear_342_36003)" stroke-width="0.591654"/>
<path d="M75.7324 141.921L63.8993 141.921L53.2496 152.571L16.8629 152.571L9.46724 159.671" stroke="url(#paint64_linear_342_36003)" stroke-width="0.591654"/>
<path d="M75.7327 116.182L55.6165 116.182L49.4042 122.098L31.3588 122.098L23.0756 113.815L8.28432 113.815" stroke="url(#paint65_linear_342_36003)" stroke-width="0.591654"/>
<path d="M75.7327 116.182L55.6165 116.182L49.4042 122.098L31.3588 122.098L23.0756 113.815L8.28432 113.815" stroke="url(#paint66_linear_342_36003)" stroke-width="0.591654"/>
<path d="M75.7294 99.9124L50.2884 99.9124L31.3555 81.2753L12.4226 81.2753" stroke="url(#paint67_linear_342_36003)" stroke-width="0.591654"/>
<path d="M75.7294 99.9124L50.2884 99.9124L31.3555 81.2753L12.4226 81.2753" stroke="url(#paint68_linear_342_36003)" stroke-width="0.591654"/>
<path d="M76.0303 108.193L52.9559 108.193L48.5185 113.222L39.3479 113.222L27.8106 100.797L8.87773 100.797" stroke="url(#paint69_linear_342_36003)" stroke-width="0.591654"/>
<path d="M76.0303 108.193L52.9559 108.193L48.5185 113.222L39.3479 113.222L27.8106 100.797L8.87773 100.797" stroke="url(#paint70_linear_342_36003)" stroke-width="0.591654"/>
<path d="M76.0256 150.202L62.1218 150.202L52.3595 159.668L26.031 159.668L17.1562 168.839" stroke="url(#paint71_linear_342_36003)" stroke-width="0.591654"/>
<path d="M76.0256 150.202L62.1218 150.202L52.3595 159.668L26.031 159.668L17.1562 168.839" stroke="url(#paint72_linear_342_36003)" stroke-width="0.591654"/>
<path d="M75.7339 159.077L61.5343 159.077L47.0388 173.573L39.3473 173.573L34.3182 168.248L25.4434 168.248L15.977 177.714L4.73558 177.714" stroke="url(#paint73_linear_342_36003)" stroke-width="0.591654"/>
<path d="M75.7339 159.077L61.5343 159.077L47.0388 173.573L39.3473 173.573L34.3182 168.248L25.4434 168.248L15.977 177.714L4.73558 177.714" stroke="url(#paint74_linear_342_36003)" stroke-width="0.591654"/>
<path d="M75.7339 167.062L59.1676 167.062L37.2765 189.841L19.8227 189.841L10.6521 199.603" stroke="url(#paint75_linear_342_36003)" stroke-width="0.591654"/>
<path d="M75.7339 167.062L59.1676 167.062L37.2765 189.841L19.8227 189.841L10.6521 199.603" stroke="url(#paint76_linear_342_36003)" stroke-width="0.591654"/>
<ellipse cx="1.47914" cy="1.47913" rx="1.47914" ry="1.47913" transform="matrix(4.37113e-08 1 1 -4.37115e-08 70.4086 165.289)" fill="#B5FFFF"/>
<ellipse cx="1.47914" cy="1.47913" rx="1.47914" ry="1.47913" transform="matrix(4.37113e-08 1 1 -4.37115e-08 70.4086 114.998)" fill="#B5FFFF"/>
<ellipse cx="1.47914" cy="1.47913" rx="1.47914" ry="1.47913" transform="matrix(4.37113e-08 1 1 -4.37115e-08 70.4086 123.874)" fill="#B5FFFF"/>
<ellipse cx="1.47914" cy="1.47913" rx="1.47914" ry="1.47913" transform="matrix(4.37113e-08 1 1 -4.37115e-08 70.4086 132.158)" fill="#B5FFFF"/>
<ellipse cx="1.47914" cy="1.47913" rx="1.47914" ry="1.47913" transform="matrix(4.37113e-08 1 1 -4.37115e-08 70.4086 140.44)" fill="#B5FFFF"/>
<ellipse cx="1.47914" cy="1.47913" rx="1.47914" ry="1.47913" transform="matrix(4.37113e-08 1 1 -4.37115e-08 70.4086 148.723)" fill="#B5FFFF"/>
<ellipse cx="1.47914" cy="1.47913" rx="1.47914" ry="1.47913" transform="matrix(4.37113e-08 1 1 -4.37115e-08 70.4086 157.597)" fill="#B5FFFF"/>
<ellipse cx="1.47914" cy="1.47913" rx="1.47914" ry="1.47913" transform="matrix(4.37113e-08 1 1 -4.37115e-08 70.4086 106.716)" fill="#B5FFFF"/>
<ellipse cx="1.47914" cy="1.47913" rx="1.47914" ry="1.47913" transform="matrix(4.37113e-08 1 1 -4.37115e-08 70.4086 98.4334)" fill="#B5FFFF"/>
<rect x="84.7963" y="88.3764" width="84.0147" height="83.4233" stroke="#FFDAFF" stroke-width="1.18331"/>
<path fill-rule="evenodd" clip-rule="evenodd" d="M88.9371 91.9261H164.669V167.658H88.9371V91.9261ZM127.824 116.864H113.218C108.378 116.864 104.454 120.787 104.454 125.627H119.06C123.9 125.627 127.824 121.704 127.824 116.864ZM113.218 130.01H127.824C127.824 134.85 123.9 138.773 119.06 138.773H104.454C104.454 133.933 108.378 130.01 113.218 130.01ZM151.194 108.101H136.588C131.748 108.101 127.825 112.024 127.825 116.864H142.43C147.27 116.864 151.194 112.941 151.194 108.101ZM136.588 121.247H151.194C151.194 126.087 147.27 130.01 142.43 130.01H127.825C127.825 125.171 131.748 121.247 136.588 121.247Z" fill="url(#paint77_linear_342_36003)"/>
<path d="M150.088 155.778V150.687H150.778V155.15H153.044V155.778H150.088Z" fill="white"/>
<path d="M142.35 155.778V150.687H143.041V155.15H145.307V155.778H142.35Z" fill="white"/>
<path d="M134.039 155.778L135.357 150.687H136.27L137.581 155.778H136.877L136.556 154.453H135.064L134.743 155.778H134.039ZM135.203 153.881H136.417L136.054 152.361C135.984 152.082 135.929 151.845 135.887 151.65C135.845 151.454 135.819 151.322 135.81 151.252C135.801 151.322 135.775 151.454 135.733 151.65C135.692 151.845 135.638 152.08 135.573 152.354L135.203 153.881Z" fill="white"/>
<path d="M126.616 155.778V150.687H129.657V151.322H127.293V152.926H129.475V153.553H127.307V155.778H126.616Z" fill="white"/>
<path d="M119.995 155.778V153.888L118.468 150.687H119.2L120.142 152.696C120.198 152.817 120.242 152.926 120.274 153.023C120.312 153.121 120.335 153.191 120.344 153.233C120.358 153.191 120.381 153.121 120.414 153.023C120.451 152.926 120.5 152.817 120.56 152.696L121.495 150.687H122.206L120.686 153.888V155.778H119.995Z" fill="white"/>
<path d="M111.12 155.778V150.687H111.81V152.849H112.521L113.609 150.687H114.362L113.128 153.135L114.425 155.778H113.644L112.507 153.456H111.81V155.778H111.12Z" fill="white"/>
<path d="M104.89 155.845C104.388 155.845 103.988 155.715 103.69 155.455C103.393 155.19 103.244 154.827 103.244 154.367H103.934C103.934 154.637 104.02 154.848 104.192 155.002C104.364 155.155 104.597 155.232 104.89 155.232C105.169 155.232 105.39 155.155 105.552 155.002C105.72 154.844 105.803 154.634 105.803 154.374C105.803 154.179 105.75 154.009 105.643 153.865C105.536 153.716 105.385 153.616 105.19 153.565L104.437 153.363C104.106 153.27 103.844 153.103 103.649 152.861C103.458 152.614 103.363 152.324 103.363 151.989C103.363 151.715 103.423 151.475 103.544 151.271C103.669 151.062 103.844 150.901 104.067 150.79C104.29 150.674 104.548 150.615 104.841 150.615C105.138 150.615 105.399 150.674 105.622 150.79C105.85 150.901 106.026 151.059 106.152 151.264C106.277 151.469 106.34 151.706 106.34 151.975H105.657C105.657 151.752 105.58 151.571 105.427 151.431C105.278 151.292 105.083 151.222 104.841 151.222C104.599 151.222 104.404 151.292 104.255 151.431C104.111 151.571 104.039 151.752 104.039 151.975C104.039 152.157 104.088 152.31 104.185 152.435C104.283 152.556 104.42 152.642 104.597 152.693L105.371 152.903C105.72 152.996 105.992 153.175 106.187 153.44C106.382 153.7 106.48 154.011 106.48 154.374C106.48 154.672 106.415 154.932 106.284 155.155C106.154 155.373 105.968 155.543 105.727 155.664C105.489 155.785 105.211 155.845 104.89 155.845Z" fill="white"/>
<defs>
<linearGradient id="paint0_linear_342_36003" x1="172.475" y1="83.8106" x2="81.3781" y2="176.122" gradientUnits="userSpaceOnUse">
<stop stop-color="#1D9B95"/>
<stop offset="1" stop-color="#23B9A8"/>
</linearGradient>
<linearGradient id="paint1_linear_342_36003" x1="184.118" y1="11.4041" x2="183.545" y2="76.0276" gradientUnits="userSpaceOnUse">
<stop stop-color="#03091F"/>
<stop offset="1" stop-color="#33DDA0"/>
</linearGradient>
<linearGradient id="paint2_linear_342_36003" x1="113.283" y1="2.3678" x2="113.283" y2="75.7329" gradientUnits="userSpaceOnUse">
<stop stop-color="#03091F"/>
<stop offset="1" stop-color="#377AE5"/>
</linearGradient>
<linearGradient id="paint3_linear_342_36003" x1="118.371" y1="1.87751" x2="117.286" y2="75.7228" gradientUnits="userSpaceOnUse">
<stop stop-color="#03091F"/>
<stop offset="1" stop-color="#33DDA0"/>
</linearGradient>
<linearGradient id="paint4_linear_342_36003" x1="126.447" y1="3.01684e-05" x2="126.447" y2="75.7318" gradientUnits="userSpaceOnUse">
<stop stop-color="#03091F"/>
<stop offset="1" stop-color="#377AE5"/>
</linearGradient>
<linearGradient id="paint5_linear_342_36003" x1="128.736" y1="-0.506078" x2="126.168" y2="75.6512" gradientUnits="userSpaceOnUse">
<stop stop-color="#03091F"/>
<stop offset="1" stop-color="#33DDA0"/>
</linearGradient>
<linearGradient id="paint6_linear_342_36003" x1="104.705" y1="9.46722" x2="104.705" y2="75.7325" gradientUnits="userSpaceOnUse">
<stop stop-color="#03091F"/>
<stop offset="1" stop-color="#377AE5"/>
</linearGradient>
<linearGradient id="paint7_linear_342_36003" x1="109.793" y1="9.02438" x2="108.907" y2="75.726" gradientUnits="userSpaceOnUse">
<stop stop-color="#03091F"/>
<stop offset="1" stop-color="#33DDA0"/>
</linearGradient>
<linearGradient id="paint8_linear_342_36003" x1="137.544" y1="8.28433" x2="137.544" y2="75.7329" gradientUnits="userSpaceOnUse">
<stop stop-color="#03091F"/>
<stop offset="1" stop-color="#377AE5"/>
</linearGradient>
<linearGradient id="paint9_linear_342_36003" x1="139.919" y1="7.83358" x2="137.954" y2="75.6814" gradientUnits="userSpaceOnUse">
<stop stop-color="#03091F"/>
<stop offset="1" stop-color="#33DDA0"/>
</linearGradient>
<linearGradient id="paint10_linear_342_36003" x1="164.907" y1="12.4226" x2="164.907" y2="75.7296" gradientUnits="userSpaceOnUse">
<stop stop-color="#03091F"/>
<stop offset="1" stop-color="#377AE5"/>
</linearGradient>
<linearGradient id="paint11_linear_342_36003" x1="170.249" y1="11.9995" x2="169.479" y2="75.7253" gradientUnits="userSpaceOnUse">
<stop stop-color="#03091F"/>
<stop offset="1" stop-color="#33DDA0"/>
</linearGradient>
<linearGradient id="paint12_linear_342_36003" x1="148.491" y1="8.87772" x2="148.491" y2="76.0305" gradientUnits="userSpaceOnUse">
<stop stop-color="#03091F"/>
<stop offset="1" stop-color="#377AE5"/>
</linearGradient>
<linearGradient id="paint13_linear_342_36003" x1="152.053" y1="8.42894" x2="150.754" y2="76.0108" gradientUnits="userSpaceOnUse">
<stop stop-color="#03091F"/>
<stop offset="1" stop-color="#33DDA0"/>
</linearGradient>
<linearGradient id="paint14_linear_342_36003" x1="95.9811" y1="17.1562" x2="95.9811" y2="76.0258" gradientUnits="userSpaceOnUse">
<stop stop-color="#03091F"/>
<stop offset="1" stop-color="#377AE5"/>
</linearGradient>
<linearGradient id="paint15_linear_342_36003" x1="101.323" y1="16.7628" x2="100.658" y2="76.023" gradientUnits="userSpaceOnUse">
<stop stop-color="#03091F"/>
<stop offset="1" stop-color="#33DDA0"/>
</linearGradient>
<linearGradient id="paint16_linear_342_36003" x1="87.1054" y1="4.73556" x2="87.1054" y2="75.7341" gradientUnits="userSpaceOnUse">
<stop stop-color="#03091F"/>
<stop offset="1" stop-color="#377AE5"/>
</linearGradient>
<linearGradient id="paint17_linear_342_36003" x1="92.4475" y1="4.26109" x2="91.4793" y2="75.7266" gradientUnits="userSpaceOnUse">
<stop stop-color="#03091F"/>
<stop offset="1" stop-color="#33DDA0"/>
</linearGradient>
<linearGradient id="paint18_linear_342_36003" x1="72.1688" y1="10.6521" x2="72.1688" y2="75.7341" gradientUnits="userSpaceOnUse">
<stop stop-color="#03091F"/>
<stop offset="1" stop-color="#377AE5"/>
</linearGradient>
<linearGradient id="paint19_linear_342_36003" x1="81.4963" y1="10.2172" x2="81.0303" y2="75.7359" gradientUnits="userSpaceOnUse">
<stop stop-color="#03091F"/>
<stop offset="1" stop-color="#33DDA0"/>
</linearGradient>
<linearGradient id="paint20_linear_342_36003" x1="184.118" y1="246.596" x2="183.545" y2="181.972" gradientUnits="userSpaceOnUse">
<stop stop-color="#03091F"/>
<stop offset="1" stop-color="#33DDA0"/>
</linearGradient>
<linearGradient id="paint21_linear_342_36003" x1="113.283" y1="255.632" x2="113.283" y2="182.267" gradientUnits="userSpaceOnUse">
<stop stop-color="#03091F"/>
<stop offset="1" stop-color="#377AE5"/>
</linearGradient>
<linearGradient id="paint22_linear_342_36003" x1="118.371" y1="256.122" x2="117.286" y2="182.277" gradientUnits="userSpaceOnUse">
<stop stop-color="#03091F"/>
<stop offset="1" stop-color="#33DDA0"/>
</linearGradient>
<linearGradient id="paint23_linear_342_36003" x1="126.447" y1="258" x2="126.447" y2="182.268" gradientUnits="userSpaceOnUse">
<stop stop-color="#03091F"/>
<stop offset="1" stop-color="#377AE5"/>
</linearGradient>
<linearGradient id="paint24_linear_342_36003" x1="128.736" y1="258.506" x2="126.168" y2="182.349" gradientUnits="userSpaceOnUse">
<stop stop-color="#03091F"/>
<stop offset="1" stop-color="#33DDA0"/>
</linearGradient>
<linearGradient id="paint25_linear_342_36003" x1="104.705" y1="248.533" x2="104.705" y2="182.267" gradientUnits="userSpaceOnUse">
<stop stop-color="#03091F"/>
<stop offset="1" stop-color="#377AE5"/>
</linearGradient>
<linearGradient id="paint26_linear_342_36003" x1="109.793" y1="248.976" x2="108.907" y2="182.274" gradientUnits="userSpaceOnUse">
<stop stop-color="#03091F"/>
<stop offset="1" stop-color="#33DDA0"/>
</linearGradient>
<linearGradient id="paint27_linear_342_36003" x1="137.544" y1="249.716" x2="137.544" y2="182.267" gradientUnits="userSpaceOnUse">
<stop stop-color="#03091F"/>
<stop offset="1" stop-color="#377AE5"/>
</linearGradient>
<linearGradient id="paint28_linear_342_36003" x1="139.919" y1="250.166" x2="137.954" y2="182.319" gradientUnits="userSpaceOnUse">
<stop stop-color="#03091F"/>
<stop offset="1" stop-color="#33DDA0"/>
</linearGradient>
<linearGradient id="paint29_linear_342_36003" x1="164.907" y1="245.577" x2="164.907" y2="182.27" gradientUnits="userSpaceOnUse">
<stop stop-color="#03091F"/>
<stop offset="1" stop-color="#377AE5"/>
</linearGradient>
<linearGradient id="paint30_linear_342_36003" x1="170.249" y1="246.001" x2="169.479" y2="182.275" gradientUnits="userSpaceOnUse">
<stop stop-color="#03091F"/>
<stop offset="1" stop-color="#33DDA0"/>
</linearGradient>
<linearGradient id="paint31_linear_342_36003" x1="148.491" y1="249.122" x2="148.491" y2="181.97" gradientUnits="userSpaceOnUse">
<stop stop-color="#03091F"/>
<stop offset="1" stop-color="#377AE5"/>
</linearGradient>
<linearGradient id="paint32_linear_342_36003" x1="152.053" y1="249.571" x2="150.754" y2="181.989" gradientUnits="userSpaceOnUse">
<stop stop-color="#03091F"/>
<stop offset="1" stop-color="#33DDA0"/>
</linearGradient>
<linearGradient id="paint33_linear_342_36003" x1="95.9811" y1="240.844" x2="95.9811" y2="181.974" gradientUnits="userSpaceOnUse">
<stop stop-color="#03091F"/>
<stop offset="1" stop-color="#377AE5"/>
</linearGradient>
<linearGradient id="paint34_linear_342_36003" x1="101.323" y1="241.237" x2="100.658" y2="181.977" gradientUnits="userSpaceOnUse">
<stop stop-color="#03091F"/>
<stop offset="1" stop-color="#33DDA0"/>
</linearGradient>
<linearGradient id="paint35_linear_342_36003" x1="87.1054" y1="253.264" x2="87.1054" y2="182.266" gradientUnits="userSpaceOnUse">
<stop stop-color="#03091F"/>
<stop offset="1" stop-color="#377AE5"/>
</linearGradient>
<linearGradient id="paint36_linear_342_36003" x1="92.4475" y1="253.739" x2="91.4793" y2="182.273" gradientUnits="userSpaceOnUse">
<stop stop-color="#03091F"/>
<stop offset="1" stop-color="#33DDA0"/>
</linearGradient>
<linearGradient id="paint37_linear_342_36003" x1="72.1688" y1="247.348" x2="72.1688" y2="182.266" gradientUnits="userSpaceOnUse">
<stop stop-color="#03091F"/>
<stop offset="1" stop-color="#377AE5"/>
</linearGradient>
<linearGradient id="paint38_linear_342_36003" x1="81.4963" y1="247.783" x2="81.0303" y2="182.264" gradientUnits="userSpaceOnUse">
<stop stop-color="#03091F"/>
<stop offset="1" stop-color="#33DDA0"/>
</linearGradient>
<linearGradient id="paint39_linear_342_36003" x1="242.6" y1="71.3828" x2="177.977" y2="71.956" gradientUnits="userSpaceOnUse">
<stop stop-color="#03091F"/>
<stop offset="1" stop-color="#33DDA0"/>
</linearGradient>
<linearGradient id="paint40_linear_342_36003" x1="251.637" y1="142.218" x2="178.272" y2="142.218" gradientUnits="userSpaceOnUse">
<stop stop-color="#03091F"/>
<stop offset="1" stop-color="#377AE5"/>
</linearGradient>
<linearGradient id="paint41_linear_342_36003" x1="252.127" y1="137.13" x2="178.282" y2="138.215" gradientUnits="userSpaceOnUse">
<stop stop-color="#03091F"/>
<stop offset="1" stop-color="#33DDA0"/>
</linearGradient>
<linearGradient id="paint42_linear_342_36003" x1="254.004" y1="129.054" x2="178.273" y2="129.054" gradientUnits="userSpaceOnUse">
<stop stop-color="#03091F"/>
<stop offset="1" stop-color="#377AE5"/>
</linearGradient>
<linearGradient id="paint43_linear_342_36003" x1="254.51" y1="126.765" x2="178.353" y2="129.333" gradientUnits="userSpaceOnUse">
<stop stop-color="#03091F"/>
<stop offset="1" stop-color="#33DDA0"/>
</linearGradient>
<linearGradient id="paint44_linear_342_36003" x1="244.537" y1="150.796" x2="178.272" y2="150.796" gradientUnits="userSpaceOnUse">
<stop stop-color="#03091F"/>
<stop offset="1" stop-color="#377AE5"/>
</linearGradient>
<linearGradient id="paint45_linear_342_36003" x1="244.98" y1="145.708" x2="178.279" y2="146.594" gradientUnits="userSpaceOnUse">
<stop stop-color="#03091F"/>
<stop offset="1" stop-color="#33DDA0"/>
</linearGradient>
<linearGradient id="paint46_linear_342_36003" x1="245.72" y1="117.957" x2="178.272" y2="117.957" gradientUnits="userSpaceOnUse">
<stop stop-color="#03091F"/>
<stop offset="1" stop-color="#377AE5"/>
</linearGradient>
<linearGradient id="paint47_linear_342_36003" x1="246.171" y1="115.582" x2="178.323" y2="117.547" gradientUnits="userSpaceOnUse">
<stop stop-color="#03091F"/>
<stop offset="1" stop-color="#33DDA0"/>
</linearGradient>
<linearGradient id="paint48_linear_342_36003" x1="241.582" y1="90.5939" x2="178.275" y2="90.5939" gradientUnits="userSpaceOnUse">
<stop stop-color="#03091F"/>
<stop offset="1" stop-color="#377AE5"/>
</linearGradient>
<linearGradient id="paint49_linear_342_36003" x1="242.005" y1="85.2517" x2="178.279" y2="86.0215" gradientUnits="userSpaceOnUse">
<stop stop-color="#03091F"/>
<stop offset="1" stop-color="#33DDA0"/>
</linearGradient>
<linearGradient id="paint50_linear_342_36003" x1="245.127" y1="107.01" x2="177.974" y2="107.01" gradientUnits="userSpaceOnUse">
<stop stop-color="#03091F"/>
<stop offset="1" stop-color="#377AE5"/>
</linearGradient>
<linearGradient id="paint51_linear_342_36003" x1="245.575" y1="103.448" x2="177.994" y2="104.747" gradientUnits="userSpaceOnUse">
<stop stop-color="#03091F"/>
<stop offset="1" stop-color="#33DDA0"/>
</linearGradient>
<linearGradient id="paint52_linear_342_36003" x1="236.848" y1="159.52" x2="177.979" y2="159.52" gradientUnits="userSpaceOnUse">
<stop stop-color="#03091F"/>
<stop offset="1" stop-color="#377AE5"/>
</linearGradient>
<linearGradient id="paint53_linear_342_36003" x1="237.242" y1="154.178" x2="177.982" y2="154.844" gradientUnits="userSpaceOnUse">
<stop stop-color="#03091F"/>
<stop offset="1" stop-color="#33DDA0"/>
</linearGradient>
<linearGradient id="paint54_linear_342_36003" x1="249.269" y1="168.396" x2="178.27" y2="168.396" gradientUnits="userSpaceOnUse">
<stop stop-color="#03091F"/>
<stop offset="1" stop-color="#377AE5"/>
</linearGradient>
<linearGradient id="paint55_linear_342_36003" x1="249.743" y1="163.054" x2="178.278" y2="164.022" gradientUnits="userSpaceOnUse">
<stop stop-color="#03091F"/>
<stop offset="1" stop-color="#33DDA0"/>
</linearGradient>
<linearGradient id="paint56_linear_342_36003" x1="243.352" y1="183.332" x2="178.271" y2="183.332" gradientUnits="userSpaceOnUse">
<stop stop-color="#03091F"/>
<stop offset="1" stop-color="#377AE5"/>
</linearGradient>
<linearGradient id="paint57_linear_342_36003" x1="243.787" y1="174.005" x2="178.269" y2="174.471" gradientUnits="userSpaceOnUse">
<stop stop-color="#03091F"/>
<stop offset="1" stop-color="#33DDA0"/>
</linearGradient>
<linearGradient id="paint58_linear_342_36003" x1="11.404" y1="71.3828" x2="76.0274" y2="71.956" gradientUnits="userSpaceOnUse">
<stop stop-color="#03091F"/>
<stop offset="1" stop-color="#33DDA0"/>
</linearGradient>
<linearGradient id="paint59_linear_342_36003" x1="2.36781" y1="142.218" x2="75.7328" y2="142.218" gradientUnits="userSpaceOnUse">
<stop stop-color="#03091F"/>
<stop offset="1" stop-color="#377AE5"/>
</linearGradient>
<linearGradient id="paint60_linear_342_36003" x1="1.87752" y1="137.13" x2="75.7226" y2="138.215" gradientUnits="userSpaceOnUse">
<stop stop-color="#03091F"/>
<stop offset="1" stop-color="#33DDA0"/>
</linearGradient>
<linearGradient id="paint61_linear_342_36003" x1="4.59509e-05" y1="129.054" x2="75.7316" y2="129.054" gradientUnits="userSpaceOnUse">
<stop stop-color="#03091F"/>
<stop offset="1" stop-color="#377AE5"/>
</linearGradient>
<linearGradient id="paint62_linear_342_36003" x1="-0.506061" y1="126.765" x2="75.6511" y2="129.333" gradientUnits="userSpaceOnUse">
<stop stop-color="#03091F"/>
<stop offset="1" stop-color="#33DDA0"/>
</linearGradient>
<linearGradient id="paint63_linear_342_36003" x1="9.46724" y1="150.796" x2="75.7324" y2="150.796" gradientUnits="userSpaceOnUse">
<stop stop-color="#03091F"/>
<stop offset="1" stop-color="#377AE5"/>
</linearGradient>
<linearGradient id="paint64_linear_342_36003" x1="9.0244" y1="145.708" x2="75.7259" y2="146.594" gradientUnits="userSpaceOnUse">
<stop stop-color="#03091F"/>
<stop offset="1" stop-color="#33DDA0"/>
</linearGradient>
<linearGradient id="paint65_linear_342_36003" x1="8.28432" y1="117.957" x2="75.7327" y2="117.957" gradientUnits="userSpaceOnUse">
<stop stop-color="#03091F"/>
<stop offset="1" stop-color="#377AE5"/>
</linearGradient>
<linearGradient id="paint66_linear_342_36003" x1="7.83357" y1="115.582" x2="75.6812" y2="117.547" gradientUnits="userSpaceOnUse">
<stop stop-color="#03091F"/>
<stop offset="1" stop-color="#33DDA0"/>
</linearGradient>
<linearGradient id="paint67_linear_342_36003" x1="12.4226" y1="90.5939" x2="75.7294" y2="90.5939" gradientUnits="userSpaceOnUse">
<stop stop-color="#03091F"/>
<stop offset="1" stop-color="#377AE5"/>
</linearGradient>
<linearGradient id="paint68_linear_342_36003" x1="11.9995" y1="85.2517" x2="75.7252" y2="86.0215" gradientUnits="userSpaceOnUse">
<stop stop-color="#03091F"/>
<stop offset="1" stop-color="#33DDA0"/>
</linearGradient>
<linearGradient id="paint69_linear_342_36003" x1="8.87773" y1="107.01" x2="76.0303" y2="107.01" gradientUnits="userSpaceOnUse">
<stop stop-color="#03091F"/>
<stop offset="1" stop-color="#377AE5"/>
</linearGradient>
<linearGradient id="paint70_linear_342_36003" x1="8.42896" y1="103.448" x2="76.0107" y2="104.747" gradientUnits="userSpaceOnUse">
<stop stop-color="#03091F"/>
<stop offset="1" stop-color="#33DDA0"/>
</linearGradient>
<linearGradient id="paint71_linear_342_36003" x1="17.1562" y1="159.52" x2="76.0256" y2="159.52" gradientUnits="userSpaceOnUse">
<stop stop-color="#03091F"/>
<stop offset="1" stop-color="#377AE5"/>
</linearGradient>
<linearGradient id="paint72_linear_342_36003" x1="16.7627" y1="154.178" x2="76.0228" y2="154.844" gradientUnits="userSpaceOnUse">
<stop stop-color="#03091F"/>
<stop offset="1" stop-color="#33DDA0"/>
</linearGradient>
<linearGradient id="paint73_linear_342_36003" x1="4.73558" y1="168.396" x2="75.7339" y2="168.396" gradientUnits="userSpaceOnUse">
<stop stop-color="#03091F"/>
<stop offset="1" stop-color="#377AE5"/>
</linearGradient>
<linearGradient id="paint74_linear_342_36003" x1="4.26111" y1="163.054" x2="75.7265" y2="164.022" gradientUnits="userSpaceOnUse">
<stop stop-color="#03091F"/>
<stop offset="1" stop-color="#33DDA0"/>
</linearGradient>
<linearGradient id="paint75_linear_342_36003" x1="10.6521" y1="183.332" x2="75.7339" y2="183.332" gradientUnits="userSpaceOnUse">
<stop stop-color="#03091F"/>
<stop offset="1" stop-color="#377AE5"/>
</linearGradient>
<linearGradient id="paint76_linear_342_36003" x1="10.2172" y1="174.005" x2="75.7358" y2="174.471" gradientUnits="userSpaceOnUse">
<stop stop-color="#03091F"/>
<stop offset="1" stop-color="#33DDA0"/>
</linearGradient>
<linearGradient id="paint77_linear_342_36003" x1="165.188" y1="92.3104" x2="88.6665" y2="172.476" gradientUnits="userSpaceOnUse">
<stop stop-color="#4B4B4B"/>
<stop offset="0.295" stop-color="#494848"/>
<stop offset="0.68" stop-color="#00221F"/>
<stop offset="1" stop-color="#1C1C1C"/>
</linearGradient>
</defs>
</svg>
