<svg width="104" height="108" viewBox="0 0 104 108" fill="none" xmlns="http://www.w3.org/2000/svg">
<rect width="4.14157" height="1.18331" transform="matrix(-1 -8.7423e-08 -8.74226e-08 1 90.9424 3.09909)" fill="#33DDA0"/>
<rect width="2.95826" height="2.36662" transform="matrix(-1 -8.7423e-08 -8.74226e-08 1 90.3529 0.731323)" fill="#33DDA0"/>
<rect width="4.14157" height="1.18331" transform="matrix(-1 -8.7423e-08 -8.74226e-08 1 82.659 3.09909)" fill="#33DDA0"/>
<rect width="2.95826" height="2.36662" transform="matrix(-1 -8.7423e-08 -8.74226e-08 1 82.0695 0.731323)" fill="#33DDA0"/>
<rect width="4.14157" height="1.18331" transform="matrix(-1 -8.7423e-08 -8.74226e-08 1 74.3794 3.09909)" fill="#33DDA0"/>
<rect width="2.95826" height="2.36662" transform="matrix(-1 -8.7423e-08 -8.74226e-08 1 73.7899 0.731323)" fill="#33DDA0"/>
<rect width="4.14157" height="1.18331" transform="matrix(-1 -8.7423e-08 -8.74226e-08 1 66.0922 3.09909)" fill="#33DDA0"/>
<rect width="2.95826" height="2.36662" transform="matrix(-1 -8.7423e-08 -8.74226e-08 1 65.5027 0.731323)" fill="#33DDA0"/>
<rect width="4.14157" height="1.18331" transform="matrix(-1 -8.7423e-08 -8.74226e-08 1 57.2196 3.09909)" fill="#33DDA0"/>
<rect width="2.95826" height="2.36662" transform="matrix(-1 -8.7423e-08 -8.74226e-08 1 56.6301 0.731323)" fill="#33DDA0"/>
<rect width="4.14157" height="1.18331" transform="matrix(-1 -8.7423e-08 -8.74226e-08 1 48.9342 3.09909)" fill="#33DDA0"/>
<rect width="2.95826" height="2.36662" transform="matrix(-1 -8.7423e-08 -8.74226e-08 1 48.3447 0.731323)" fill="#33DDA0"/>
<rect width="4.14157" height="1.18331" transform="matrix(-1 -8.7423e-08 -8.74226e-08 1 40.6528 3.09909)" fill="#33DDA0"/>
<rect width="2.95826" height="2.36662" transform="matrix(-1 -8.7423e-08 -8.74226e-08 1 40.0633 0.731323)" fill="#33DDA0"/>
<rect width="4.14157" height="1.18331" transform="matrix(-1 -8.7423e-08 -8.74226e-08 1 32.3694 3.09909)" fill="#33DDA0"/>
<rect width="2.95826" height="2.36662" transform="matrix(-1 -8.7423e-08 -8.74226e-08 1 31.7799 0.731323)" fill="#33DDA0"/>
<rect width="4.14157" height="1.18331" transform="matrix(-1 -8.7423e-08 -8.74226e-08 1 23.4987 3.09909)" fill="#33DDA0"/>
<rect width="2.95826" height="2.36662" transform="matrix(-1 -8.7423e-08 -8.74226e-08 1 22.9092 0.731323)" fill="#33DDA0"/>
<rect width="4.14157" height="1.18331" transform="matrix(-1 -8.7423e-08 -8.74226e-08 1 15.7987 3.09909)" fill="#33DDA0"/>
<rect width="2.95826" height="2.36662" transform="matrix(-1 -8.7423e-08 -8.74226e-08 1 15.2092 0.731323)" fill="#33DDA0"/>
<rect x="90.9424" y="104.901" width="4.14157" height="1.18331" transform="rotate(180 90.9424 104.901)" fill="#33DDA0"/>
<rect x="90.3529" y="107.269" width="2.95826" height="2.36662" transform="rotate(180 90.3529 107.269)" fill="#33DDA0"/>
<rect x="82.659" y="104.901" width="4.14157" height="1.18331" transform="rotate(180 82.659 104.901)" fill="#33DDA0"/>
<rect x="82.0695" y="107.269" width="2.95826" height="2.36662" transform="rotate(180 82.0695 107.269)" fill="#33DDA0"/>
<rect x="74.3794" y="104.901" width="4.14157" height="1.18331" transform="rotate(180 74.3794 104.901)" fill="#33DDA0"/>
<rect x="73.7899" y="107.269" width="2.95826" height="2.36662" transform="rotate(180 73.7899 107.269)" fill="#33DDA0"/>
<rect x="66.0922" y="104.901" width="4.14157" height="1.18331" transform="rotate(180 66.0922 104.901)" fill="#33DDA0"/>
<rect x="65.5027" y="107.269" width="2.95826" height="2.36662" transform="rotate(180 65.5027 107.269)" fill="#33DDA0"/>
<rect x="57.2196" y="104.901" width="4.14157" height="1.18331" transform="rotate(180 57.2196 104.901)" fill="#33DDA0"/>
<rect x="56.6301" y="107.269" width="2.95826" height="2.36662" transform="rotate(180 56.6301 107.269)" fill="#33DDA0"/>
<rect x="48.9342" y="104.901" width="4.14157" height="1.18331" transform="rotate(180 48.9342 104.901)" fill="#33DDA0"/>
<rect x="48.3447" y="107.269" width="2.95826" height="2.36662" transform="rotate(180 48.3447 107.269)" fill="#33DDA0"/>
<rect x="40.6528" y="104.901" width="4.14157" height="1.18331" transform="rotate(180 40.6528 104.901)" fill="#33DDA0"/>
<rect x="40.0633" y="107.269" width="2.95826" height="2.36662" transform="rotate(180 40.0633 107.269)" fill="#33DDA0"/>
<rect x="32.3694" y="104.901" width="4.14157" height="1.18331" transform="rotate(180 32.3694 104.901)" fill="#33DDA0"/>
<rect x="31.7799" y="107.269" width="2.95826" height="2.36662" transform="rotate(180 31.7799 107.269)" fill="#33DDA0"/>
<rect x="23.4987" y="104.901" width="4.14157" height="1.18331" transform="rotate(180 23.4987 104.901)" fill="#33DDA0"/>
<rect x="22.9092" y="107.269" width="2.95826" height="2.36662" transform="rotate(180 22.9092 107.269)" fill="#33DDA0"/>
<rect x="15.7987" y="104.901" width="4.14157" height="1.18331" transform="rotate(180 15.7987 104.901)" fill="#33DDA0"/>
<rect x="15.2092" y="107.269" width="2.95826" height="2.36662" transform="rotate(180 15.2092 107.269)" fill="#33DDA0"/>
<rect x="100.905" y="14.5582" width="4.14158" height="1.18331" transform="rotate(90 100.905 14.5582)" fill="#33DDA0"/>
<rect x="103.273" y="15.1477" width="2.95827" height="2.36661" transform="rotate(90 103.273 15.1477)" fill="#33DDA0"/>
<rect x="100.905" y="22.8436" width="4.14158" height="1.18331" transform="rotate(90 100.905 22.8436)" fill="#33DDA0"/>
<rect x="103.273" y="23.4331" width="2.95827" height="2.36661" transform="rotate(90 103.273 23.4331)" fill="#33DDA0"/>
<rect x="100.905" y="31.1231" width="4.14158" height="1.18331" transform="rotate(90 100.905 31.1231)" fill="#33DDA0"/>
<rect x="103.273" y="31.7126" width="2.95827" height="2.36661" transform="rotate(90 103.273 31.7126)" fill="#33DDA0"/>
<rect x="100.905" y="39.4066" width="4.14158" height="1.18331" transform="rotate(90 100.905 39.4066)" fill="#33DDA0"/>
<rect x="103.273" y="39.9962" width="2.95827" height="2.36661" transform="rotate(90 103.273 39.9962)" fill="#33DDA0"/>
<rect x="100.905" y="48.2812" width="4.14158" height="1.18331" transform="rotate(90 100.905 48.2812)" fill="#33DDA0"/>
<rect x="103.273" y="48.8707" width="2.95827" height="2.36661" transform="rotate(90 103.273 48.8707)" fill="#33DDA0"/>
<rect x="100.905" y="56.5686" width="4.14158" height="1.18331" transform="rotate(90 100.905 56.5686)" fill="#33DDA0"/>
<rect x="103.273" y="57.1581" width="2.95827" height="2.36661" transform="rotate(90 103.273 57.1581)" fill="#33DDA0"/>
<rect x="100.905" y="64.85" width="4.14158" height="1.18331" transform="rotate(90 100.905 64.85)" fill="#33DDA0"/>
<rect x="103.273" y="65.4395" width="2.95827" height="2.36661" transform="rotate(90 103.273 65.4395)" fill="#33DDA0"/>
<rect x="100.905" y="73.1333" width="4.14158" height="1.18331" transform="rotate(90 100.905 73.1333)" fill="#33DDA0"/>
<rect x="103.273" y="73.7228" width="2.95827" height="2.36661" transform="rotate(90 103.273 73.7228)" fill="#33DDA0"/>
<rect x="100.905" y="82.008" width="4.14158" height="1.18331" transform="rotate(90 100.905 82.008)" fill="#33DDA0"/>
<rect x="103.273" y="82.5975" width="2.95827" height="2.36661" transform="rotate(90 103.273 82.5975)" fill="#33DDA0"/>
<rect x="100.905" y="89.7022" width="4.14158" height="1.18331" transform="rotate(90 100.905 89.7022)" fill="#33DDA0"/>
<rect x="103.273" y="90.2917" width="2.95827" height="2.36661" transform="rotate(90 103.273 90.2917)" fill="#33DDA0"/>
<rect width="4.14158" height="1.18331" transform="matrix(4.37113e-08 1 1 -4.37115e-08 3.09878 14.5582)" fill="#33DDA0"/>
<rect width="2.95827" height="2.36661" transform="matrix(4.37113e-08 1 1 -4.37115e-08 0.73101 15.1477)" fill="#33DDA0"/>
<rect width="4.14158" height="1.18331" transform="matrix(4.37113e-08 1 1 -4.37115e-08 3.09878 22.8436)" fill="#33DDA0"/>
<rect width="2.95827" height="2.36661" transform="matrix(4.37113e-08 1 1 -4.37115e-08 0.73101 23.4331)" fill="#33DDA0"/>
<rect width="4.14158" height="1.18331" transform="matrix(4.37113e-08 1 1 -4.37115e-08 3.09878 31.1231)" fill="#33DDA0"/>
<rect width="2.95827" height="2.36661" transform="matrix(4.37113e-08 1 1 -4.37115e-08 0.73101 31.7126)" fill="#33DDA0"/>
<rect width="4.14158" height="1.18331" transform="matrix(4.37113e-08 1 1 -4.37115e-08 3.09878 39.4066)" fill="#33DDA0"/>
<rect width="2.95827" height="2.36661" transform="matrix(4.37113e-08 1 1 -4.37115e-08 0.73101 39.9961)" fill="#33DDA0"/>
<rect width="4.14158" height="1.18331" transform="matrix(4.37113e-08 1 1 -4.37115e-08 3.09878 48.2812)" fill="#33DDA0"/>
<rect width="2.95827" height="2.36661" transform="matrix(4.37113e-08 1 1 -4.37115e-08 0.73101 48.8707)" fill="#33DDA0"/>
<rect width="4.14158" height="1.18331" transform="matrix(4.37113e-08 1 1 -4.37115e-08 3.09878 56.5685)" fill="#33DDA0"/>
<rect width="2.95827" height="2.36661" transform="matrix(4.37113e-08 1 1 -4.37115e-08 0.73101 57.158)" fill="#33DDA0"/>
<rect width="4.14158" height="1.18331" transform="matrix(4.37113e-08 1 1 -4.37115e-08 3.09878 64.85)" fill="#33DDA0"/>
<rect width="2.95827" height="2.36661" transform="matrix(4.37113e-08 1 1 -4.37115e-08 0.73101 65.4395)" fill="#33DDA0"/>
<rect width="4.14158" height="1.18331" transform="matrix(4.37113e-08 1 1 -4.37115e-08 3.09878 73.1334)" fill="#33DDA0"/>
<rect width="2.95827" height="2.36661" transform="matrix(4.37113e-08 1 1 -4.37115e-08 0.73101 73.7229)" fill="#33DDA0"/>
<rect width="4.14158" height="1.18331" transform="matrix(4.37113e-08 1 1 -4.37115e-08 3.09878 82.008)" fill="#33DDA0"/>
<rect width="2.95827" height="2.36661" transform="matrix(4.37113e-08 1 1 -4.37115e-08 0.73101 82.5975)" fill="#33DDA0"/>
<rect width="4.14158" height="1.18331" transform="matrix(4.37113e-08 1 1 -4.37115e-08 3.09878 89.7022)" fill="#33DDA0"/>
<rect width="2.95827" height="2.36661" transform="matrix(4.37113e-08 1 1 -4.37115e-08 0.73101 90.2917)" fill="#33DDA0"/>
<rect x="6.24544" y="8.64456" width="91.1146" height="92.2981" fill="url(#paint0_linear_2002_35360)"/>
<rect x="9.79632" y="13.3764" width="84.0147" height="83.4233" stroke="#FFDAFF" stroke-width="1.18331"/>
<path fill-rule="evenodd" clip-rule="evenodd" d="M13.9371 16.9261H89.6687V92.6579H13.9371V16.9261ZM52.8237 41.8636H38.2179C33.3779 41.8636 29.4544 45.7871 29.4544 50.6271H44.0602C48.9001 50.6271 52.8237 46.7035 52.8237 41.8636ZM38.2179 55.0099H52.8237C52.8237 59.8498 48.9001 63.7734 44.0602 63.7734H29.4544C29.4544 58.9334 33.3779 55.0099 38.2179 55.0099ZM76.194 33.1007H61.5882C56.7482 33.1007 52.8247 37.0242 52.8247 41.8642H67.4305C72.2704 41.8642 76.194 37.9406 76.194 33.1007ZM61.5882 46.247H76.194C76.194 51.0869 72.2704 55.0105 67.4305 55.0105H52.8247C52.8247 50.1705 56.7482 46.247 61.5882 46.247Z" fill="url(#paint1_linear_2002_35360)"/>
<path d="M75.0878 80.7779V75.6874H75.7782V80.1503H78.0444V80.7779H75.0878Z" fill="white"/>
<path d="M67.3502 80.7779V75.6874H68.0406V80.1503H70.3069V80.7779H67.3502Z" fill="white"/>
<path d="M59.0389 80.7777L60.3568 75.6873H61.2703L62.5813 80.7777H61.877L61.5562 79.4528H60.0639L59.7432 80.7777H59.0389ZM60.2034 78.881H61.4167L61.0541 77.3609C60.9844 77.082 60.9286 76.8449 60.8868 76.6496C60.8449 76.4544 60.8194 76.3219 60.8101 76.2521C60.8008 76.3219 60.7752 76.4544 60.7334 76.6496C60.6915 76.8449 60.6381 77.0796 60.573 77.3539L60.2034 78.881Z" fill="white"/>
<path d="M51.6163 80.7779V75.6874H54.6566V76.322H52.2927V77.9258H54.4753V78.5534H52.3067V80.7779H51.6163Z" fill="white"/>
<path d="M44.9954 80.7779V78.8881L43.4683 75.6874H44.2004L45.1418 77.6957C45.1976 77.8166 45.2418 77.9258 45.2743 78.0235C45.3115 78.1211 45.3347 78.1908 45.344 78.2327C45.358 78.1908 45.3812 78.1211 45.4138 78.0235C45.451 77.9258 45.4998 77.8166 45.5602 77.6957L46.4946 75.6874H47.2059L45.6857 78.8881V80.7779H44.9954Z" fill="white"/>
<path d="M36.1198 80.7779V75.6874H36.8102V77.8491H37.5214L38.6092 75.6874H39.3623L38.1281 78.135L39.4251 80.7779H38.6441L37.5075 78.4558H36.8102V80.7779H36.1198Z" fill="white"/>
<path d="M29.8898 80.8453C29.3877 80.8453 28.9879 80.7152 28.6904 80.4548C28.3929 80.1899 28.2441 79.8273 28.2441 79.367H28.9344C28.9344 79.6367 29.0204 79.8482 29.1925 80.0016C29.3645 80.155 29.5969 80.2317 29.8898 80.2317C30.1687 80.2317 30.3895 80.155 30.5522 80.0016C30.7196 79.8435 30.8033 79.6343 30.8033 79.374C30.8033 79.1788 30.7498 79.0091 30.6429 78.865C30.536 78.7162 30.3849 78.6162 30.1896 78.5651L29.4365 78.3629C29.1065 78.2699 28.8438 78.1026 28.6485 77.8608C28.4579 77.6144 28.3626 77.3239 28.3626 76.9892C28.3626 76.7149 28.4231 76.4755 28.5439 76.2709C28.6695 76.0617 28.8438 75.9013 29.0669 75.7898C29.2901 75.6736 29.5481 75.6154 29.841 75.6154C30.1385 75.6154 30.3988 75.6736 30.622 75.7898C30.8497 75.9013 31.0264 76.0594 31.1519 76.264C31.2774 76.4685 31.3402 76.7056 31.3402 76.9752H30.6568C30.6568 76.7521 30.5801 76.5708 30.4267 76.4313C30.2779 76.2918 30.0827 76.2221 29.841 76.2221C29.5992 76.2221 29.404 76.2918 29.2552 76.4313C29.1111 76.5708 29.039 76.7521 29.039 76.9752C29.039 77.1565 29.0879 77.3099 29.1855 77.4355C29.2831 77.5563 29.4202 77.6423 29.5969 77.6935L30.3709 77.9027C30.7196 77.9956 30.9915 78.1746 31.1868 78.4396C31.382 78.6999 31.4797 79.0114 31.4797 79.374C31.4797 79.6715 31.4146 79.9319 31.2844 80.155C31.1542 80.3735 30.9683 80.5432 30.7266 80.664C30.4895 80.7849 30.2105 80.8453 29.8898 80.8453Z" fill="white"/>
<defs>
<linearGradient id="paint0_linear_2002_35360" x1="97.4754" y1="8.81062" x2="6.37806" y2="101.122" gradientUnits="userSpaceOnUse">
<stop stop-color="#1D9B95"/>
<stop offset="1" stop-color="#23B9A8"/>
</linearGradient>
<linearGradient id="paint1_linear_2002_35360" x1="90.1883" y1="17.3104" x2="13.6665" y2="97.4759" gradientUnits="userSpaceOnUse">
<stop stop-color="#4B4B4B"/>
<stop offset="0.295" stop-color="#494848"/>
<stop offset="0.68" stop-color="#00221F"/>
<stop offset="1" stop-color="#1C1C1C"/>
</linearGradient>
</defs>
</svg>
