<svg width="107" height="107" viewBox="0 0 107 107" fill="none" xmlns="http://www.w3.org/2000/svg">
<circle cx="53.4636" cy="53.4657" r="39" transform="rotate(-30.7765 53.4636 53.4657)" fill="url(#paint0_linear_336_24650)"/>
<circle cx="52.9027" cy="53.3137" r="28" transform="rotate(-1.45005 52.9027 53.3137)" fill="url(#paint1_linear_336_24650)"/>
<path fill-rule="evenodd" clip-rule="evenodd" d="M53 69C61.8366 69 69 61.8366 69 53C69 44.1634 61.8366 37 53 37C44.1634 37 37 44.1634 37 53C37 61.8366 44.1634 69 53 69ZM53 63C58.5142 63 63 58.5142 63 53C63 47.4858 58.5142 43 53 43C50.818 43 48.744 43.6909 47.0025 44.9972C46.6946 45.2288 46.6319 45.6658 46.8636 45.9742C47.0952 46.2822 47.5322 46.3453 47.8401 46.1136C49.3381 44.9895 51.1223 44.3953 53 44.3953C57.7447 44.3953 61.6047 48.2553 61.6047 53C61.6047 57.7447 57.7447 61.6047 53 61.6047C48.2553 61.6047 44.3953 57.7447 44.3953 53C44.3953 51.7273 44.677 50.4727 45.2138 49.3327L47.2445 50.4989C46.9032 51.2849 46.7209 52.1357 46.7209 53C46.7209 56.4625 49.538 59.2791 53 59.2791C56.462 59.2791 59.2791 56.4625 59.2791 53C59.2791 49.5375 56.462 46.7209 53 46.7209C52.0652 46.7209 51.1659 46.9217 50.3265 47.3169C49.9777 47.4813 49.8278 47.8969 49.9922 48.2457C50.1557 48.5928 50.5718 48.7422 50.9206 48.5796C51.5729 48.2721 52.2723 48.1163 53 48.1163C55.6926 48.1163 57.8837 50.307 57.8837 53C57.8837 55.693 55.6926 57.8837 53 57.8837C50.3074 57.8837 48.1163 55.693 48.1163 53C48.1163 52.3805 48.2391 51.7706 48.4653 51.2L52.653 53.605C52.9873 53.7971 53.4142 53.6809 53.605 53.3475C53.7967 53.0132 53.6813 52.5871 53.347 52.395L45.2793 47.7615C44.9459 47.5708 44.5198 47.6857 44.3281 48.0182C43.4588 49.5262 43 51.2485 43 53C43 58.5142 47.4858 63 53 63Z" fill="white"/>
<defs>
<linearGradient id="paint0_linear_336_24650" x1="53.4636" y1="14.4657" x2="53.4636" y2="92.4657" gradientUnits="userSpaceOnUse">
<stop stop-color="#171717" stop-opacity="0"/>
<stop offset="1" stop-color="#3F3F3F"/>
</linearGradient>
<linearGradient id="paint1_linear_336_24650" x1="52.9027" y1="25.3137" x2="52.9027" y2="81.3137" gradientUnits="userSpaceOnUse">
<stop stop-color="#171717" stop-opacity="0"/>
<stop offset="1" stop-color="#626262"/>
</linearGradient>
</defs>
</svg>
