<svg width="21" height="21" viewBox="0 0 21 21" fill="none" xmlns="http://www.w3.org/2000/svg">
<path d="M5.29033 20.3343C4.60017 20.3343 3.94633 20.0801 3.47411 19.5715L1.3673 17.4647C0.350222 16.4476 0.350222 14.8494 1.3673 13.8323L5.65357 9.54601C6.67066 8.52893 8.26893 8.52893 9.28601 9.54601C9.7219 9.98191 9.7219 10.6721 9.28601 11.0716C8.85011 11.4712 8.15995 11.5075 7.76039 11.0716C7.61509 10.9263 7.36082 10.9263 7.21552 11.0716L2.89293 15.3942C2.74763 15.5395 2.74763 15.7938 2.89293 15.9391L4.99974 18.0459C5.14503 18.1912 5.3993 18.1912 5.5446 18.0459L9.83087 13.7596C9.97617 13.6143 9.97617 13.3601 9.83087 13.2148C9.39498 12.7789 9.39498 12.0887 9.83087 11.6892C10.2668 11.2533 10.9569 11.2533 11.3565 11.6892C12.3736 12.7062 12.3736 14.3045 11.3565 15.3216L7.10655 19.5715C6.59801 20.0801 5.94417 20.3343 5.29033 20.3343Z" fill="white"/>
<path d="M14.0812 11.5109C13.391 11.5109 12.7372 11.2566 12.2649 10.7481C11.829 10.3122 11.829 9.62204 12.2649 9.22247C12.7008 8.82291 13.391 8.78658 13.7906 9.22247C13.9359 9.36777 14.1901 9.36777 14.3354 9.22247L18.6217 4.9362C18.767 4.7909 18.767 4.53663 18.6217 4.39134L16.5149 2.28453C16.3696 2.13923 16.1153 2.13923 15.97 2.28453L11.7201 6.5708C11.5748 6.71609 11.5748 6.97037 11.7201 7.11566C12.156 7.55155 12.156 8.24172 11.7201 8.64128C11.2842 9.04085 10.594 9.07718 10.1945 8.64128C9.17737 7.6242 9.17737 6.02593 10.1945 5.00885L14.4444 0.758905C15.4615 -0.258177 17.0597 -0.258177 18.0768 0.758905L20.1836 2.86572C21.2007 3.8828 21.2007 5.48107 20.1836 6.49815L15.9337 10.7481C15.4252 11.2566 14.7713 11.5109 14.0812 11.5109Z" fill="white"/>
<path d="M5.1097 5.98724C4.8191 5.98724 4.52851 5.87826 4.34689 5.66032L3.03921 4.35264C2.63964 3.91675 2.63964 3.22659 3.11186 2.82702C3.51143 2.42745 4.16526 2.42745 4.60116 2.82702L5.90883 4.09837C6.34472 4.53426 6.34472 5.22443 5.90883 5.62399C5.69089 5.84194 5.40029 5.98724 5.1097 5.98724Z" fill="white"/>
<path d="M7.86849 4.71733C7.2873 4.71733 6.85141 4.28143 6.77876 3.73657L6.63346 1.92035C6.59714 1.30284 7.03303 0.794298 7.61422 0.757974C8.19541 0.72165 8.74027 1.15754 8.7766 1.73873L8.9219 3.55495C8.95822 4.17246 8.52233 4.681 7.94114 4.75365C7.94114 4.71733 7.90481 4.71733 7.86849 4.71733Z" fill="white"/>
<path d="M3.8738 8.71164C3.83747 8.71164 3.80115 8.71164 3.76482 8.71164L1.94861 8.56634C1.36742 8.49369 0.8952 7.98515 0.967849 7.36764C1.0405 6.78645 1.54904 6.35056 2.13023 6.38688L3.94644 6.53218C4.56396 6.5685 4.99985 7.11337 4.9272 7.73088C4.89088 8.27574 4.45498 8.71164 3.8738 8.71164Z" fill="white"/>
<path d="M17.7124 17.8337C17.4219 17.8337 17.1313 17.7248 16.9496 17.5068L15.642 16.2355C15.2424 15.7996 15.2424 15.1094 15.6783 14.7098C16.1142 14.3103 16.7317 14.3103 17.1676 14.7098L18.4753 15.9812C18.9112 16.4171 18.9112 17.1072 18.4753 17.5068C18.2936 17.7248 18.003 17.8337 17.7124 17.8337Z" fill="white"/>
<path d="M13.8284 19.6051C13.2472 19.6051 12.8113 19.1693 12.7387 18.6244L12.5934 16.8082C12.5207 16.227 12.9566 15.6821 13.5741 15.6095C14.1916 15.5368 14.7002 15.9727 14.7728 16.5902V16.6266L14.9181 18.4428C14.9544 19.0603 14.5185 19.5688 13.9374 19.6415C13.901 19.6051 13.8647 19.6051 13.8284 19.6051Z" fill="white"/>
<path d="M19.493 13.9421C19.4567 13.9421 19.4204 13.9421 19.384 13.9421L17.5678 13.7968C16.9866 13.7242 16.5508 13.1793 16.5871 12.5981C16.6597 12.0169 17.1683 11.581 17.7495 11.6173L19.5657 11.7626C20.1832 11.799 20.6191 12.3438 20.5464 12.925C20.5464 13.5062 20.0742 13.9421 19.493 13.9421Z" fill="white"/>
</svg>
