<svg width="19" height="19" viewBox="0 0 19 19" fill="none" xmlns="http://www.w3.org/2000/svg">
<path d="M4.42305 18.984C3.80108 18.984 3.21184 18.7549 2.78628 18.2966L0.887636 16.3979C-0.0289517 15.4814 -0.0289517 14.041 0.887636 13.1244L4.7504 9.26166C5.66699 8.34507 7.10734 8.34507 8.02393 9.26166C8.41675 9.65448 8.41675 10.2765 8.02393 10.6365C7.6311 10.9966 7.00913 11.0294 6.64905 10.6365C6.5181 10.5056 6.28896 10.5056 6.15802 10.6365L2.26252 14.532C2.13158 14.663 2.13158 14.8921 2.26252 15.0231L4.16116 16.9217C4.29211 17.0527 4.52125 17.0527 4.65219 16.9217L8.51496 13.059C8.6459 12.928 8.6459 12.6989 8.51496 12.5679C8.12213 12.1751 8.12213 11.5531 8.51496 11.193C8.90778 10.8002 9.52975 10.8002 9.88984 11.193C10.8064 12.1096 10.8064 13.55 9.88984 14.4666L6.05981 18.2966C5.60152 18.7549 5.01228 18.984 4.42305 18.984Z" fill="white"/>
<path d="M12.3449 11.0275C11.7229 11.0275 11.1337 10.7983 10.7081 10.34C10.3153 9.94721 10.3153 9.32524 10.7081 8.96515C11.101 8.60506 11.7229 8.57233 12.083 8.96515C12.214 9.09609 12.4431 9.09609 12.574 8.96515L16.4368 5.10239C16.5677 4.97145 16.5677 4.7423 16.4368 4.61136L14.5382 2.71271C14.4072 2.58177 14.1781 2.58177 14.0471 2.71271L10.2171 6.57548C10.0862 6.70642 10.0862 6.93556 10.2171 7.0665C10.6099 7.45933 10.6099 8.0813 10.2171 8.44139C9.82428 8.80147 9.20231 8.83421 8.84223 8.44139C7.92564 7.5248 7.92564 6.08445 8.84223 5.16786L12.6723 1.33783C13.5888 0.421244 15.0292 0.421244 15.9458 1.33783L17.8444 3.23648C18.761 4.15306 18.761 5.59342 17.8444 6.51L14.0144 10.34C13.5561 10.7983 12.9669 11.0275 12.3449 11.0275Z" fill="white"/>
<path d="M4.26014 6.04968C3.99826 6.04968 3.73638 5.95147 3.5727 5.75506L2.39423 4.57659C2.03414 4.18376 2.03414 3.56179 2.4597 3.20171C2.81979 2.84162 3.40902 2.84162 3.80185 3.20171L4.98032 4.34744C5.37314 4.74026 5.37314 5.36223 4.98032 5.72232C4.78391 5.91873 4.52202 6.04968 4.26014 6.04968Z" fill="white"/>
<path d="M6.74625 4.90599C6.22249 4.90599 5.82966 4.51316 5.76419 4.02214L5.63325 2.38537C5.60052 1.82887 5.99334 1.37058 6.51711 1.33784C7.04087 1.30511 7.5319 1.69793 7.56463 2.2217L7.69558 3.85846C7.72831 4.41496 7.33549 4.87325 6.81172 4.93872C6.81172 4.90599 6.77899 4.90599 6.74625 4.90599Z" fill="white"/>
<path d="M3.14551 8.50712C3.11277 8.50712 3.08004 8.50712 3.0473 8.50712L1.41054 8.37618C0.886776 8.31071 0.461217 7.85241 0.526688 7.29591C0.592158 6.77215 1.05045 6.37933 1.57422 6.41206L3.21098 6.543C3.76748 6.57574 4.1603 7.06677 4.09483 7.62327C4.0621 8.1143 3.66927 8.50712 3.14551 8.50712Z" fill="white"/>
<path d="M15.6183 16.724C15.3565 16.724 15.0946 16.6258 14.9309 16.4294L13.7524 15.2836C13.3923 14.8908 13.3923 14.2688 13.7852 13.9087C14.178 13.5486 14.7345 13.5486 15.1273 13.9087L16.3058 15.0545C16.6986 15.4473 16.6986 16.0693 16.3058 16.4294C16.1421 16.6258 15.8802 16.724 15.6183 16.724Z" fill="white"/>
<path d="M12.1162 18.3268C11.5925 18.3268 11.1996 17.9339 11.1342 17.4429L11.0032 15.8061C10.9377 15.2824 11.3306 14.7913 11.8871 14.7259C12.4436 14.6604 12.9019 15.0532 12.9673 15.6097V15.6425L13.0983 17.2792C13.131 17.8357 12.7382 18.294 12.2144 18.3595C12.1817 18.3268 12.149 18.3268 12.1162 18.3268Z" fill="white"/>
<path d="M17.2218 13.222C17.1891 13.222 17.1563 13.222 17.1236 13.222L15.4868 13.091C14.9631 13.0256 14.5702 12.5345 14.603 12.0108C14.6685 11.487 15.1267 11.0942 15.6505 11.1269L17.2873 11.2578C17.8438 11.2906 18.2366 11.7816 18.1711 12.3054C18.1711 12.8291 17.7456 13.222 17.2218 13.222Z" fill="white"/>
</svg>
