<svg width="34" height="34" viewBox="0 0 34 34" fill="none" xmlns="http://www.w3.org/2000/svg">
<path d="M7.67791 33.3293C6.54706 33.3293 5.47572 32.9127 4.70198 32.0794L1.24989 28.6273C-0.416631 26.9608 -0.416631 24.342 1.24989 22.6754L8.2731 15.6522C9.93962 13.9857 12.5584 13.9857 14.225 15.6522C14.9392 16.3665 14.9392 17.4973 14.225 18.152C13.5107 18.8067 12.3799 18.8662 11.7252 18.152C11.4871 17.9139 11.0705 17.9139 10.8324 18.152L3.74968 25.2347C3.5116 25.4728 3.5116 25.8895 3.74968 26.1275L7.20176 29.5796C7.43984 29.8177 7.85647 29.8177 8.09454 29.5796L15.1177 22.5564C15.3558 22.3183 15.3558 21.9017 15.1177 21.6636C14.4035 20.9494 14.4035 19.8185 15.1177 19.1638C15.832 18.4496 16.9628 18.4496 17.6175 19.1638C19.2841 20.8304 19.2841 23.4492 17.6175 25.1157L10.6538 32.0794C9.82058 32.9127 8.74925 33.3293 7.67791 33.3293Z" fill="white"/>
<path d="M22.0813 18.8674C20.9504 18.8674 19.8791 18.4508 19.1053 17.6175C18.3911 16.9033 18.3911 15.7725 19.1053 15.1177C19.8196 14.463 20.9504 14.4035 21.6051 15.1177C21.8432 15.3558 22.2598 15.3558 22.4979 15.1177L29.5211 8.09454C29.7592 7.85647 29.7592 7.43984 29.5211 7.20176L26.069 3.74968C25.831 3.5116 25.4143 3.5116 25.1763 3.74968L18.2126 10.7729C17.9745 11.011 17.9745 11.4276 18.2126 11.6657C18.9268 12.3799 18.9268 13.5107 18.2126 14.1654C17.4983 14.8202 16.3675 14.8797 15.7128 14.1654C14.0463 12.4989 14.0463 9.8801 15.7128 8.21358L22.6765 1.24989C24.343 -0.416631 26.9618 -0.416631 28.6283 1.24989L32.0804 4.70198C33.7469 6.3685 33.7469 8.98732 32.0804 10.6538L25.1167 17.6175C24.2835 18.4508 23.2121 18.8674 22.0813 18.8674Z" fill="white"/>
<path d="M7.38136 9.81759C6.90521 9.81759 6.42907 9.63904 6.13147 9.28192L3.9888 7.13925C3.33409 6.42503 3.33409 5.29417 4.10784 4.63947C4.76254 3.98476 5.83388 3.98476 6.5481 4.63947L8.69078 6.72262C9.405 7.43685 9.405 8.5677 8.69078 9.22241C8.33366 9.57952 7.85751 9.81759 7.38136 9.81759Z" fill="white"/>
<path d="M11.9021 7.7371C10.9498 7.7371 10.2356 7.02287 10.1165 6.13009L9.87846 3.15416C9.81895 2.14234 10.5332 1.30908 11.4855 1.24956C12.4378 1.19004 13.3305 1.90426 13.3901 2.85656L13.6281 5.8325C13.6877 6.84432 12.9734 7.67758 12.0211 7.79661C12.0211 7.7371 11.9616 7.7371 11.9021 7.7371Z" fill="white"/>
<path d="M5.35565 14.2814C5.29613 14.2814 5.23661 14.2814 5.17709 14.2814L2.20116 14.0433C1.24886 13.9243 0.475118 13.091 0.594156 12.0792C0.713193 11.1269 1.54645 10.4127 2.49875 10.4722L5.47469 10.7103C6.48651 10.7698 7.20073 11.6626 7.08169 12.6744C7.02217 13.5672 6.30795 14.2814 5.35565 14.2814Z" fill="white"/>
<path d="M28.0326 29.2268C27.5565 29.2268 27.0803 29.0483 26.7828 28.6912L24.6401 26.608C23.9854 25.8938 23.9854 24.7629 24.6996 24.1082C25.4138 23.4535 26.4256 23.4535 27.1399 24.1082L29.2825 26.1914C29.9968 26.9056 29.9968 28.0365 29.2825 28.6912C28.9849 29.0483 28.5088 29.2268 28.0326 29.2268Z" fill="white"/>
<path d="M21.6655 32.1381C20.7132 32.1381 19.999 31.4239 19.8799 30.5311L19.6419 27.5552C19.5228 26.6029 20.237 25.7101 21.2489 25.5911C22.2607 25.472 23.0939 26.1863 23.213 27.1981V27.2576L23.4511 30.2335C23.5106 31.2454 22.7964 32.0786 21.8441 32.1977C21.7845 32.1381 21.725 32.1381 21.6655 32.1381Z" fill="white"/>
<path d="M30.9486 22.8556C30.889 22.8556 30.8295 22.8556 30.77 22.8556L27.7941 22.6176C26.8418 22.4985 26.1275 21.6057 26.1871 20.6534C26.3061 19.7011 27.1394 18.9869 28.0917 19.0464L31.0676 19.2845C32.0794 19.344 32.7936 20.2368 32.6746 21.1891C32.6746 22.1414 31.9009 22.8556 30.9486 22.8556Z" fill="white"/>
</svg>
