<svg width="107" height="107" viewBox="0 0 107 107" fill="none" xmlns="http://www.w3.org/2000/svg">
<circle cx="53.4636" cy="53.4657" r="39" transform="rotate(-30.7765 53.4636 53.4657)" fill="url(#paint0_linear_336_23684)"/>
<circle cx="52.9027" cy="53.3137" r="28" transform="rotate(-1.45005 52.9027 53.3137)" fill="url(#paint1_linear_336_23684)"/>
<path fill-rule="evenodd" clip-rule="evenodd" d="M53 68.9141C61.8366 68.9141 69 61.7506 69 52.9141C69 44.0775 61.8366 36.9141 53 36.9141C44.1634 36.9141 37 44.0775 37 52.9141C37 61.7506 44.1634 68.9141 53 68.9141ZM50.2219 43.4693C50.2219 43.163 49.974 42.9141 49.6667 42.9141C49.3594 42.9141 49.1115 43.163 49.1115 43.4693V45.1359C46.9635 45.1359 45.2219 46.8776 45.2219 49.0255H43.5552C43.249 49.0255 43 49.2735 43 49.5807C43 49.888 43.249 50.1359 43.5552 50.1359H45.2219V52.3589H43.5552C43.249 52.3589 43 52.6068 43 52.9141C43 53.2213 43.249 53.4693 43.5552 53.4693H45.2219V55.6922H43.5552C43.249 55.6922 43 55.9401 43 56.2474C43 56.5547 43.249 56.8026 43.5552 56.8026H45.2219C45.2219 58.9505 46.9636 60.6922 49.1115 60.6922V62.3589C49.1115 62.6651 49.3594 62.9141 49.6667 62.9141C49.974 62.9141 50.2219 62.6651 50.2219 62.3589V60.6922H52.4448V62.3589C52.4448 62.6651 52.6927 62.9141 53 62.9141C53.3073 62.9141 53.5552 62.6651 53.5552 62.3589V60.6922H55.7781V62.3589C55.7781 62.6651 56.026 62.9141 56.3333 62.9141C56.6406 62.9141 56.8885 62.6651 56.8885 62.3589V60.6922C59.0365 60.6922 60.7781 58.9505 60.7781 56.8026H62.4448C62.751 56.8026 63 56.5547 63 56.2474C63 55.9401 62.751 55.6922 62.4448 55.6922H60.7781V53.4693H62.4448C62.751 53.4693 63 53.2213 63 52.9141C63 52.6068 62.751 52.3589 62.4448 52.3589H60.7781V50.1359H62.4448C62.751 50.1359 63 49.888 63 49.5807C63 49.2735 62.751 49.0255 62.4448 49.0255H60.7781C60.7781 46.8776 59.0364 45.1359 56.8885 45.1359V43.4693C56.8885 43.163 56.6406 42.9141 56.3333 42.9141C56.026 42.9141 55.7781 43.163 55.7781 43.4693V45.1359H53.5552V43.4693C53.5552 43.163 53.3073 42.9141 53 42.9141C52.6927 42.9141 52.4448 43.163 52.4448 43.4693V45.1359H50.2219V43.4693ZM46.3333 49.0255C46.3333 47.4912 47.5771 46.2474 49.1115 46.2474H56.8886C58.4229 46.2474 59.6667 47.4912 59.6667 49.0255V56.8026C59.6667 58.337 58.4229 59.5808 56.8886 59.5808H49.1115C47.5771 59.5808 46.3333 58.337 46.3333 56.8026V49.0255ZM48.5552 50.1359C48.5552 49.2162 49.3021 48.4693 50.2219 48.4693H55.7782C56.698 48.4693 57.4448 49.2162 57.4448 50.1359V55.6922C57.4448 56.612 56.698 57.3589 55.7782 57.3589H50.2219C49.3021 57.3589 48.5552 56.612 48.5552 55.6922V50.1359ZM50.2219 49.5807C49.9157 49.5807 49.6667 49.8297 49.6667 50.1359V55.6922C49.6667 55.9985 49.9157 56.2474 50.2219 56.2474H55.7782C56.0844 56.2474 56.3334 55.9985 56.3334 55.6922V50.1359C56.3334 49.8297 56.0844 49.5807 55.7782 49.5807H50.2219ZM53.9481 51.64C54.1658 51.4234 54.1658 51.0713 53.9481 50.8546C53.7314 50.638 53.3793 50.638 53.1627 50.8546L52.0522 51.9661C51.8345 52.1828 51.8345 52.5348 52.0522 52.7515L52.7699 53.4692L52.0522 54.188C51.8345 54.4046 51.8345 54.7567 52.0522 54.9734C52.2689 55.19 52.621 55.19 52.8377 54.9734L53.9481 53.8619C54.1658 53.6452 54.1658 53.2932 53.9481 53.0765L53.2304 52.3588L53.9481 51.64Z" fill="white"/>
<defs>
<linearGradient id="paint0_linear_336_23684" x1="53.4636" y1="14.4657" x2="53.4636" y2="92.4657" gradientUnits="userSpaceOnUse">
<stop stop-color="#171717" stop-opacity="0"/>
<stop offset="1" stop-color="#3F3F3F"/>
</linearGradient>
<linearGradient id="paint1_linear_336_23684" x1="52.9027" y1="25.3137" x2="52.9027" y2="81.3137" gradientUnits="userSpaceOnUse">
<stop stop-color="#171717" stop-opacity="0"/>
<stop offset="1" stop-color="#626262"/>
</linearGradient>
</defs>
</svg>
