<svg width="27" height="27" viewBox="0 0 27 27" fill="none" xmlns="http://www.w3.org/2000/svg">
<g clip-path="url(#clip0_1248_45494)" filter="url(#filter0_d_1248_45494)">
<mask id="mask0_1248_45494" style="mask-type:alpha" maskUnits="userSpaceOnUse" x="2" y="7" width="17" height="17">
<rect x="2.35107" y="7.72656" width="16.25" height="16.25" fill="#D9D9D9"/>
</mask>
<g mask="url(#mask0_1248_45494)">
<path d="M3.03174 23.196V21.1105C3.03174 20.6885 3.14035 20.3006 3.35758 19.9468C3.57482 19.593 3.86342 19.323 4.22341 19.1369C4.99302 18.752 5.77505 18.4634 6.5695 18.271C7.36394 18.0786 8.1708 17.9824 8.99007 17.9824C9.80934 17.9824 10.6162 18.0786 11.4106 18.271C12.2051 18.4634 12.9871 18.752 13.7567 19.1369C14.1167 19.323 14.4053 19.593 14.6226 19.9468C14.8398 20.3006 14.9484 20.6885 14.9484 21.1105V23.196H3.03174ZM16.438 23.196V20.9616C16.438 20.4154 16.2859 19.891 15.9818 19.3882C15.6777 18.8855 15.2463 18.4541 14.6877 18.0941C15.3208 18.1686 15.9166 18.2959 16.4752 18.4758C17.0338 18.6558 17.5552 18.8762 18.0393 19.1369C18.4862 19.3851 18.8275 19.6613 19.0634 19.9654C19.2992 20.2696 19.4172 20.6016 19.4172 20.9616V23.196H16.438ZM8.99007 17.2376C8.1708 17.2376 7.46946 16.9459 6.88604 16.3625C6.30262 15.7791 6.01091 15.0777 6.01091 14.2585C6.01091 13.4392 6.30262 12.7378 6.88604 12.1544C7.46946 11.571 8.1708 11.2793 8.99007 11.2793C9.80934 11.2793 10.5107 11.571 11.0941 12.1544C11.6775 12.7378 11.9692 13.4392 11.9692 14.2585C11.9692 15.0777 11.6775 15.7791 11.0941 16.3625C10.5107 16.9459 9.80934 17.2376 8.99007 17.2376ZM16.438 14.2585C16.438 15.0777 16.1463 15.7791 15.5629 16.3625C14.9794 16.9459 14.2781 17.2376 13.4588 17.2376C13.3223 17.2376 13.1485 17.2221 12.9375 17.1911C12.7264 17.16 12.5527 17.1259 12.4161 17.0887C12.7513 16.6915 13.0088 16.2508 13.1888 15.7667C13.3688 15.2826 13.4588 14.7798 13.4588 14.2585C13.4588 13.7371 13.3688 13.2344 13.1888 12.7503C13.0088 12.2661 12.7513 11.8255 12.4161 11.4283C12.5899 11.3662 12.7637 11.3258 12.9375 11.3072C13.1113 11.2886 13.285 11.2793 13.4588 11.2793C14.2781 11.2793 14.9794 11.571 15.5629 12.1544C16.1463 12.7378 16.438 13.4392 16.438 14.2585ZM4.52132 21.7064H13.4588V21.1105C13.4588 20.974 13.4247 20.8499 13.3564 20.7382C13.2881 20.6264 13.1981 20.5395 13.0864 20.4775C12.4161 20.1423 11.7396 19.891 11.0569 19.7234C10.3741 19.5558 9.68521 19.472 8.99007 19.472C8.29493 19.472 7.606 19.5558 6.92327 19.7234C6.24055 19.891 5.56403 20.1423 4.89372 20.4775C4.782 20.5395 4.692 20.6264 4.62373 20.7382C4.55546 20.8499 4.52132 20.974 4.52132 21.1105V21.7064ZM8.99007 15.748C9.39971 15.748 9.75038 15.6022 10.0421 15.3105C10.3338 15.0188 10.4797 14.6681 10.4797 14.2585C10.4797 13.8488 10.3338 13.4982 10.0421 13.2064C9.75038 12.9147 9.39971 12.7689 8.99007 12.7689C8.58044 12.7689 8.22976 12.9147 7.93805 13.2064C7.64634 13.4982 7.50049 13.8488 7.50049 14.2585C7.50049 14.6681 7.64634 15.0188 7.93805 15.3105C8.22976 15.6022 8.58044 15.748 8.99007 15.748Z" fill="white"/>
</g>
<mask id="mask1_1248_45494" style="mask-type:alpha" maskUnits="userSpaceOnUse" x="8" y="-2" width="16" height="16">
<rect x="8.60107" y="-1.02344" width="15" height="15" fill="#D9D9D9"/>
</mask>
<g mask="url(#mask1_1248_45494)">
<path d="M20.1611 11.0469V9.67188H21.9486L18.3736 6.13125L15.6236 8.88125L10.5361 3.75938L11.4986 2.79688L15.6236 6.92188L18.3736 4.17188L22.9111 8.70938V6.92188H24.2861V11.0469H20.1611Z" fill="white"/>
</g>
</g>
<defs>
<filter id="filter0_d_1248_45494" x="0.5" y="0.125" width="27" height="27" filterUnits="userSpaceOnUse" color-interpolation-filters="sRGB">
<feFlood flood-opacity="0" result="BackgroundImageFix"/>
<feColorMatrix in="SourceAlpha" type="matrix" values="0 0 0 0 0 0 0 0 0 0 0 0 0 0 0 0 0 0 127 0" result="hardAlpha"/>
<feOffset dy="0.625"/>
<feGaussianBlur stdDeviation="1.25"/>
<feComposite in2="hardAlpha" operator="out"/>
<feColorMatrix type="matrix" values="0 0 0 0 0.243137 0 0 0 0 0.301961 0 0 0 0 0.8 0 0 0 0.15 0"/>
<feBlend mode="normal" in2="BackgroundImageFix" result="effect1_dropShadow_1248_45494"/>
<feBlend mode="normal" in="SourceGraphic" in2="effect1_dropShadow_1248_45494" result="shape"/>
</filter>
<clipPath id="clip0_1248_45494">
<rect width="22" height="22" fill="white" transform="translate(3 2)"/>
</clipPath>
</defs>
</svg>
