<svg width="50" height="51" viewBox="0 0 50 51" fill="none" xmlns="http://www.w3.org/2000/svg">
<g filter="url(#filter0_d_1237_32954)">
<mask id="mask0_1237_32954" style="mask-type:alpha" maskUnits="userSpaceOnUse" x="3" y="17" width="34" height="33">
<rect x="3.75" y="17.5" width="32.5" height="32.5" fill="#D9D9D9"/>
</mask>
<g mask="url(#mask0_1237_32954)">
<path d="M5.10547 44.5846V40.793C5.10547 40.0256 5.30295 39.3203 5.69792 38.6771C6.09288 38.0339 6.61762 37.543 7.27214 37.2044C8.67144 36.5048 10.0933 35.98 11.5378 35.6302C12.9822 35.2804 14.4492 35.1055 15.9388 35.1055C17.4284 35.1055 18.8954 35.2804 20.3398 35.6302C21.7843 35.98 23.2062 36.5048 24.6055 37.2044C25.26 37.543 25.7847 38.0339 26.1797 38.6771C26.5747 39.3203 26.7721 40.0256 26.7721 40.793V44.5846H5.10547ZM29.4805 44.5846V40.5221C29.4805 39.5291 29.204 38.5755 28.651 37.6615C28.0981 36.7474 27.3138 35.9631 26.2982 35.3086C27.4492 35.444 28.5326 35.6753 29.5482 36.0026C30.5638 36.3299 31.5117 36.7305 32.3919 37.2044C33.2044 37.6558 33.8251 38.158 34.2539 38.7109C34.6827 39.2639 34.8971 39.8676 34.8971 40.5221V44.5846H29.4805ZM15.9388 33.7513C14.4492 33.7513 13.174 33.2209 12.1133 32.1602C11.0525 31.0994 10.5221 29.8242 10.5221 28.3346C10.5221 26.8451 11.0525 25.5699 12.1133 24.5091C13.174 23.4484 14.4492 22.918 15.9388 22.918C17.4284 22.918 18.7036 23.4484 19.7643 24.5091C20.8251 25.5699 21.3555 26.8451 21.3555 28.3346C21.3555 29.8242 20.8251 31.0994 19.7643 32.1602C18.7036 33.2209 17.4284 33.7513 15.9388 33.7513ZM29.4805 28.3346C29.4805 29.8242 28.9501 31.0994 27.8893 32.1602C26.8286 33.2209 25.5534 33.7513 24.0638 33.7513C23.8155 33.7513 23.4996 33.7231 23.1159 33.6667C22.7322 33.6102 22.4162 33.5482 22.168 33.4805C22.7773 32.7582 23.2457 31.957 23.5729 31.0768C23.9002 30.1966 24.0638 29.2826 24.0638 28.3346C24.0638 27.3867 23.9002 26.4727 23.5729 25.5924C23.2457 24.7122 22.7773 23.911 22.168 23.1888C22.4839 23.076 22.7999 23.0026 23.1159 22.9688C23.4319 22.9349 23.7478 22.918 24.0638 22.918C25.5534 22.918 26.8286 23.4484 27.8893 24.5091C28.9501 25.5699 29.4805 26.8451 29.4805 28.3346ZM7.8138 41.8763H24.0638V40.793C24.0638 40.5447 24.0017 40.319 23.8776 40.1159C23.7535 39.9128 23.5898 39.7548 23.3867 39.6419C22.168 39.0326 20.9379 38.5755 19.6966 38.2708C18.4553 37.9661 17.2027 37.8138 15.9388 37.8138C14.6749 37.8138 13.4223 37.9661 12.181 38.2708C10.9397 38.5755 9.70964 39.0326 8.49089 39.6419C8.28776 39.7548 8.12413 39.9128 8 40.1159C7.87587 40.319 7.8138 40.5447 7.8138 40.793V41.8763ZM15.9388 31.043C16.6836 31.043 17.3212 30.7778 17.8516 30.2474C18.3819 29.717 18.6471 29.0794 18.6471 28.3346C18.6471 27.5898 18.3819 26.9523 17.8516 26.4219C17.3212 25.8915 16.6836 25.6263 15.9388 25.6263C15.194 25.6263 14.5564 25.8915 14.026 26.4219C13.4957 26.9523 13.2305 27.5898 13.2305 28.3346C13.2305 29.0794 13.4957 29.717 14.026 30.2474C14.5564 30.7778 15.194 31.043 15.9388 31.043Z" fill="white"/>
</g>
<mask id="mask1_1237_32954" style="mask-type:alpha" maskUnits="userSpaceOnUse" x="16" y="0" width="31" height="30">
<rect x="16.25" width="30" height="30" fill="#D9D9D9"/>
</mask>
<g mask="url(#mask1_1237_32954)">
<path d="M36.25 22.5V20H39.5L33 13.5625L28 18.5625L18.75 9.25L20.5 7.5L28 15L33 10L41.25 18.25V15H43.75V22.5H36.25Z" fill="white"/>
</g>
</g>
<defs>
<filter id="filter0_d_1237_32954" x="-5" y="-3.75" width="60" height="60" filterUnits="userSpaceOnUse" color-interpolation-filters="sRGB">
<feFlood flood-opacity="0" result="BackgroundImageFix"/>
<feColorMatrix in="SourceAlpha" type="matrix" values="0 0 0 0 0 0 0 0 0 0 0 0 0 0 0 0 0 0 127 0" result="hardAlpha"/>
<feOffset dy="1.25"/>
<feGaussianBlur stdDeviation="2.5"/>
<feComposite in2="hardAlpha" operator="out"/>
<feColorMatrix type="matrix" values="0 0 0 0 0.243137 0 0 0 0 0.301961 0 0 0 0 0.8 0 0 0 0.15 0"/>
<feBlend mode="normal" in2="BackgroundImageFix" result="effect1_dropShadow_1237_32954"/>
<feBlend mode="normal" in="SourceGraphic" in2="effect1_dropShadow_1237_32954" result="shape"/>
</filter>
</defs>
</svg>
