<svg width="28" height="28" viewBox="0 0 28 28" fill="none" xmlns="http://www.w3.org/2000/svg">
<g clip-path="url(#clip0_1237_40089)" filter="url(#filter0_d_1237_40089)">
<mask id="mask0_1237_40089" style="mask-type:alpha" maskUnits="userSpaceOnUse" x="2" y="7" width="18" height="19">
<rect x="2.19531" y="7.80469" width="17.7508" height="17.7508" fill="#D9D9D9"/>
</mask>
<g mask="url(#mask0_1237_40089)">
<path d="M3.02051 24.4683V22.2091C3.02051 21.7519 3.13817 21.3316 3.37351 20.9484C3.60884 20.5651 3.9215 20.2726 4.31147 20.0709C5.14522 19.654 5.99242 19.3414 6.85307 19.1329C7.71371 18.9245 8.5878 18.8203 9.47534 18.8203C10.3629 18.8203 11.237 18.9245 12.0976 19.1329C12.9583 19.3414 13.8055 19.654 14.6392 20.0709C15.0292 20.2726 15.3418 20.5651 15.5772 20.9484C15.8125 21.3316 15.9302 21.7519 15.9302 22.2091V24.4683H3.02051ZM17.5439 24.4683V22.0477C17.5439 21.456 17.3792 20.8878 17.0497 20.3432C16.7202 19.7986 16.2529 19.3313 15.6478 18.9413C16.3336 19.022 16.9791 19.1598 17.5842 19.3548C18.1894 19.5498 18.7542 19.7885 19.2786 20.0709C19.7627 20.3399 20.1325 20.6391 20.388 20.9685C20.6436 21.298 20.7713 21.6577 20.7713 22.0477V24.4683H17.5439ZM9.47534 18.0134C8.5878 18.0134 7.82802 17.6974 7.19598 17.0654C6.56394 16.4333 6.24793 15.6736 6.24793 14.786C6.24793 13.8985 6.56394 13.1387 7.19598 12.5066C7.82802 11.8746 8.5878 11.5586 9.47534 11.5586C10.3629 11.5586 11.1227 11.8746 11.7547 12.5066C12.3867 13.1387 12.7028 13.8985 12.7028 14.786C12.7028 15.6736 12.3867 16.4333 11.7547 17.0654C11.1227 17.6974 10.3629 18.0134 9.47534 18.0134ZM17.5439 14.786C17.5439 15.6736 17.2279 16.4333 16.5958 17.0654C15.9638 17.6974 15.204 18.0134 14.3165 18.0134C14.1685 18.0134 13.9803 17.9966 13.7517 17.963C13.5231 17.9294 13.3348 17.8924 13.1869 17.8521C13.55 17.4217 13.829 16.9443 14.024 16.4199C14.219 15.8954 14.3165 15.3508 14.3165 14.786C14.3165 14.2212 14.219 13.6766 14.024 13.1521C13.829 12.6277 13.55 12.1503 13.1869 11.72C13.3751 11.6527 13.5634 11.609 13.7517 11.5889C13.9399 11.5687 14.1282 11.5586 14.3165 11.5586C15.204 11.5586 15.9638 11.8746 16.5958 12.5066C17.2279 13.1387 17.5439 13.8985 17.5439 14.786ZM4.63422 22.8546H14.3165V22.2091C14.3165 22.0611 14.2795 21.9267 14.2055 21.8056C14.1316 21.6846 14.0341 21.5905 13.913 21.5232C13.1869 21.1602 12.454 20.8878 11.7144 20.7063C10.9747 20.5248 10.2284 20.434 9.47534 20.434C8.72228 20.434 7.97594 20.5248 7.23632 20.7063C6.49671 20.8878 5.76381 21.1602 5.03764 21.5232C4.91662 21.5905 4.81912 21.6846 4.74516 21.8056C4.6712 21.9267 4.63422 22.0611 4.63422 22.2091V22.8546ZM9.47534 16.3997C9.91911 16.3997 10.299 16.2417 10.615 15.9257C10.931 15.6097 11.0891 15.2298 11.0891 14.786C11.0891 14.3422 10.931 13.9623 10.615 13.6463C10.299 13.3303 9.91911 13.1723 9.47534 13.1723C9.03157 13.1723 8.65168 13.3303 8.33566 13.6463C8.01964 13.9623 7.86163 14.3422 7.86163 14.786C7.86163 15.2298 8.01964 15.6097 8.33566 15.9257C8.65168 16.2417 9.03157 16.3997 9.47534 16.3997Z" fill="white"/>
</g>
<mask id="mask1_1237_40089" style="mask-type:alpha" maskUnits="userSpaceOnUse" x="8" y="-2" width="17" height="17">
<rect x="8.02344" y="-1.75391" width="16.3854" height="16.3854" fill="#D9D9D9"/>
</mask>
<g mask="url(#mask1_1237_40089)">
<path d="M20.4873 11.3086V9.81898H22.4238L18.5509 5.98332L15.5717 8.96247L10.0603 3.4138L11.103 2.37109L15.5717 6.83983L18.5509 3.86067L23.4665 8.77628V6.83983H24.9561V11.3086H20.4873Z" fill="white"/>
</g>
</g>
<defs>
<filter id="filter0_d_1237_40089" x="-0.730892" y="-0.0481688" width="29.4618" height="29.4618" filterUnits="userSpaceOnUse" color-interpolation-filters="sRGB">
<feFlood flood-opacity="0" result="BackgroundImageFix"/>
<feColorMatrix in="SourceAlpha" type="matrix" values="0 0 0 0 0 0 0 0 0 0 0 0 0 0 0 0 0 0 127 0" result="hardAlpha"/>
<feOffset dy="0.682723"/>
<feGaussianBlur stdDeviation="1.36545"/>
<feComposite in2="hardAlpha" operator="out"/>
<feColorMatrix type="matrix" values="0 0 0 0 0.243137 0 0 0 0 0.301961 0 0 0 0 0.8 0 0 0 0.15 0"/>
<feBlend mode="normal" in2="BackgroundImageFix" result="effect1_dropShadow_1237_40089"/>
<feBlend mode="normal" in="SourceGraphic" in2="effect1_dropShadow_1237_40089" result="shape"/>
</filter>
<clipPath id="clip0_1237_40089">
<rect width="24" height="24" fill="white" transform="translate(2 2)"/>
</clipPath>
</defs>
</svg>
