<svg width="107" height="107" viewBox="0 0 107 107" fill="none" xmlns="http://www.w3.org/2000/svg">
<circle cx="53.4636" cy="53.4657" r="39" transform="rotate(-30.7765 53.4636 53.4657)" fill="url(#paint0_linear_336_23705)"/>
<circle cx="52.9027" cy="53.3137" r="28" transform="rotate(-1.45005 52.9027 53.3137)" fill="url(#paint1_linear_336_23705)"/>
<path d="M53 36.9141C44.1747 36.9141 37 44.0888 37 52.9141C37 61.7393 44.1747 68.9141 53 68.9141C61.8253 68.9141 69 61.7393 69 52.9141C69 44.0888 61.8253 36.9141 53 36.9141ZM61.4547 54.3288H59.2316L56.9747 59.7183C56.7389 60.2572 56.2337 60.5941 55.6611 60.5941C55.0884 60.5941 54.5832 60.2572 54.3474 59.7183L50.3726 50.3204L49.0589 53.453C48.8232 53.992 48.3179 54.3288 47.7453 54.3288H44.5453C43.7705 54.3288 43.1305 53.6888 43.1305 52.9141C43.1305 52.1393 43.7705 51.4993 44.5453 51.4993H46.8021L49.0589 46.1099C49.4968 45.0656 51.2484 45.0656 51.6863 46.1099L55.6274 55.4741L56.9411 52.3414C57.1768 51.8025 57.6821 51.4656 58.2547 51.4656H61.4211C62.1958 51.4656 62.8358 52.1056 62.8358 52.8804C62.8358 53.6551 62.2295 54.3288 61.4547 54.3288Z" fill="white"/>
<defs>
<linearGradient id="paint0_linear_336_23705" x1="53.4636" y1="14.4657" x2="53.4636" y2="92.4657" gradientUnits="userSpaceOnUse">
<stop stop-color="#171717" stop-opacity="0"/>
<stop offset="1" stop-color="#3F3F3F"/>
</linearGradient>
<linearGradient id="paint1_linear_336_23705" x1="52.9027" y1="25.3137" x2="52.9027" y2="81.3137" gradientUnits="userSpaceOnUse">
<stop stop-color="#171717" stop-opacity="0"/>
<stop offset="1" stop-color="#626262"/>
</linearGradient>
</defs>
</svg>
