<svg width="107" height="108" viewBox="0 0 107 108" fill="none" xmlns="http://www.w3.org/2000/svg">
<circle cx="53.4636" cy="53.5517" r="39" transform="rotate(-30.7765 53.4636 53.5517)" fill="url(#paint0_linear_336_24671)"/>
<circle cx="52.9027" cy="53.3997" r="28" transform="rotate(-1.45005 52.9027 53.3997)" fill="url(#paint1_linear_336_24671)"/>
<path fill-rule="evenodd" clip-rule="evenodd" d="M53 69C61.8366 69 69 61.8366 69 53C69 44.1634 61.8366 37 53 37C44.1634 37 37 44.1634 37 53C37 61.8366 44.1634 69 53 69ZM61.9999 45.9997C61.9999 44.8953 61.1046 44 60.0003 44L57.0002 44C56.448 44 55.9999 44.4481 55.9999 45.0003C55.9999 45.5525 56.448 45.9997 57.0002 45.9997H60.0002V48.9997C60.0002 49.5519 60.4474 50 60.9996 50C61.5518 50 61.9999 49.5519 61.9999 48.9997V45.9997ZM45.0003 51.9997H60.9996C61.5518 51.9997 62 52.4478 62 53C62 53.5128 61.6137 53.9356 61.1168 53.9937L60.9996 54.0003H45.0003C44.4481 54.0003 44 53.5522 44 53C44 52.4872 44.3863 52.0644 44.8831 52.0062L45.0003 51.9997ZM45.9997 57.0003C45.9997 56.4481 45.5525 56 45.0003 56C44.4481 56 44 56.4481 44 57.0003V60.0003C44 61.1047 44.8953 62 45.9997 62H48.9997C49.5519 62 50 61.5519 50 60.9997C50 60.4475 49.5519 60.0003 48.9997 60.0003H45.9997V57.0003ZM62 57.0003C62 56.4481 61.5518 56 60.9996 56C60.4474 56 60.0003 56.4481 60.0003 57.0003V60.0003H57.0003C56.4481 60.0003 56 60.4475 56 60.9997C56 61.5518 56.4481 62 57.0003 62H60.0003C61.1046 62 62 61.1047 62 60.0003V57.0003ZM48.9997 44C49.5519 44 50 44.4482 50 45.0003C50 45.5525 49.5519 45.9997 48.9997 45.9997H45.9997V48.9997C45.9997 49.5519 45.5525 50 45.0003 50C44.4481 50 44 49.5519 44 48.9997V45.9997C44 44.8953 44.8953 44 45.9997 44H48.9997Z" fill="white"/>
<defs>
<linearGradient id="paint0_linear_336_24671" x1="53.4636" y1="14.5517" x2="53.4636" y2="92.5517" gradientUnits="userSpaceOnUse">
<stop stop-color="#171717" stop-opacity="0"/>
<stop offset="1" stop-color="#3F3F3F"/>
</linearGradient>
<linearGradient id="paint1_linear_336_24671" x1="52.9027" y1="25.3997" x2="52.9027" y2="81.3997" gradientUnits="userSpaceOnUse">
<stop stop-color="#171717" stop-opacity="0"/>
<stop offset="1" stop-color="#626262"/>
</linearGradient>
</defs>
</svg>
