<svg width="67" height="66" viewBox="0 0 67 66" fill="none" xmlns="http://www.w3.org/2000/svg">
<circle cx="32" cy="32" r="32" fill="url(#paint0_linear_414_243)"/>
<circle cx="33.106" cy="32.959" r="24" transform="rotate(31.1829 33.106 32.959)" fill="url(#paint1_linear_414_243)"/>
<path fill-rule="evenodd" clip-rule="evenodd" d="M33 24C28.0294 24 24 28.0294 24 33H21C21 26.3726 26.3726 21 33 21C36.5855 21 39.8021 22.5726 42 25.0629V21H45V28.5V30H43.5H42.4895H36V27H39.7087C38.0597 25.1576 35.6642 24 33 24ZM33 42C37.9706 42 42 37.9706 42 33H45C45 39.6275 39.6275 45 33 45C29.4145 45 26.1979 43.4274 24 40.9371V45H21V37.5V36H22.5H23.5104H30V39H26.2913C27.9403 40.8424 30.3358 42 33 42Z" fill="white"/>
<defs>
<linearGradient id="paint0_linear_414_243" x1="32" y1="0" x2="32" y2="64" gradientUnits="userSpaceOnUse">
<stop stop-color="#171717" stop-opacity="0"/>
<stop offset="1" stop-color="#2FCC71"/>
</linearGradient>
<linearGradient id="paint1_linear_414_243" x1="33.106" y1="8.95897" x2="33.106" y2="56.959" gradientUnits="userSpaceOnUse">
<stop stop-color="#171717" stop-opacity="0"/>
<stop offset="1" stop-color="#2FCC71"/>
</linearGradient>
</defs>
</svg>
