<svg width="107" height="107" viewBox="0 0 107 107" fill="none" xmlns="http://www.w3.org/2000/svg">
<circle cx="53.4636" cy="53.4657" r="39" transform="rotate(-30.7765 53.4636 53.4657)" fill="url(#paint0_linear_336_23656)"/>
<circle cx="52.9027" cy="53.3137" r="28" transform="rotate(-1.45005 52.9027 53.3137)" fill="url(#paint1_linear_336_23656)"/>
<path fill-rule="evenodd" clip-rule="evenodd" d="M69 53C69 61.8366 61.8366 69 53 69C44.1634 69 37 61.8366 37 53C37 44.1634 44.1634 37 53 37C61.8366 37 69 44.1634 69 53ZM49.7812 44.8645C50.4427 43.7112 51.6705 43 53 43C54.3295 43 55.5573 43.7112 56.2188 44.8645L62.5697 55.9375C62.8517 56.4291 63 56.9859 63 57.5526C63 59.3452 61.5467 60.7985 59.754 60.7985H46.2461C44.4533 60.7985 43 59.3452 43 57.5526C43 56.9859 43.1483 56.4291 43.4303 55.9375L49.7812 44.8645ZM53 44.6667C52.2677 44.6667 51.5913 45.0584 51.227 45.6937L44.876 56.7667C44.7389 57.0059 44.6667 57.2768 44.6667 57.5526C44.6667 58.4249 45.3738 59.1319 46.2461 59.1319H59.754C60.6262 59.1319 61.3333 58.4249 61.3333 57.5526C61.3333 57.2768 61.2612 57.0059 61.124 56.7667L54.773 45.6937C54.4087 45.0584 53.7323 44.6667 53 44.6667ZM53.8336 48.8083C53.8336 48.3481 53.4605 47.975 53.0003 47.975C52.54 47.975 52.1669 48.3481 52.1669 48.8083V53.1777C52.1669 53.6379 52.54 54.011 53.0003 54.011C53.4605 54.011 53.8336 53.6379 53.8336 53.1777V48.8083ZM53.8336 56.4848C53.8336 56.0246 53.4605 55.6515 53.0003 55.6515C52.54 55.6515 52.1669 56.0246 52.1669 56.4848V56.8807C52.1669 57.3409 52.54 57.7141 53.0003 57.7141C53.4605 57.7141 53.8336 57.3409 53.8336 56.8807V56.4848Z" fill="#D9D9D9"/>
<defs>
<linearGradient id="paint0_linear_336_23656" x1="53.4636" y1="14.4657" x2="53.4636" y2="92.4657" gradientUnits="userSpaceOnUse">
<stop stop-color="#171717" stop-opacity="0"/>
<stop offset="1" stop-color="#3F3F3F"/>
</linearGradient>
<linearGradient id="paint1_linear_336_23656" x1="52.9027" y1="25.3137" x2="52.9027" y2="81.3137" gradientUnits="userSpaceOnUse">
<stop stop-color="#171717" stop-opacity="0"/>
<stop offset="1" stop-color="#626262"/>
</linearGradient>
</defs>
</svg>
