<svg width="40" height="40" viewBox="0 0 40 40" fill="none" xmlns="http://www.w3.org/2000/svg">
<mask id="mask0_1237_32965" style="mask-type:alpha" maskUnits="userSpaceOnUse" x="0" y="0" width="40" height="40">
<rect width="40" height="40" fill="#D9D9D9"/>
</mask>
<g mask="url(#mask0_1237_32965)">
<path d="M18.3333 23.332H21.6667V11.6654H18.3333V23.332ZM23.3333 20.832H26.6667V13.332H23.3333V20.832ZM13.3333 19.9987H16.6667V13.332H13.3333V19.9987ZM10 36.6654V29.4987C8.41667 28.0543 7.1875 26.3668 6.3125 24.4362C5.4375 22.5056 5 20.4709 5 18.332C5 14.1654 6.45833 10.6237 9.375 7.70703C12.2917 4.79036 15.8333 3.33203 20 3.33203C23.4722 3.33203 26.5486 4.35286 29.2292 6.39453C31.9097 8.4362 33.6528 11.0959 34.4583 14.3737L36.625 22.9154C36.7639 23.4431 36.6667 23.9223 36.3333 24.3529C36 24.7834 35.5556 24.9987 35 24.9987H31.6667V29.9987C31.6667 30.9154 31.3403 31.7001 30.6875 32.3529C30.0347 33.0056 29.25 33.332 28.3333 33.332H25V36.6654H21.6667V29.9987H28.3333V21.6654H32.8333L31.25 15.207C30.6111 12.6793 29.25 10.6237 27.1667 9.04036C25.0833 7.45703 22.6944 6.66536 20 6.66536C16.7778 6.66536 14.0278 7.79036 11.75 10.0404C9.47222 12.2904 8.33333 15.0265 8.33333 18.2487C8.33333 19.9154 8.67361 21.4987 9.35417 22.9987C10.0347 24.4987 11 25.832 12.25 26.9987L13.3333 27.9987V36.6654H10Z" fill="white"/>
</g>
</svg>
