<svg width="20" height="21" viewBox="0 0 20 21" fill="none" xmlns="http://www.w3.org/2000/svg">
<path d="M8.35366 12.4072H10.388V5.28702H8.35366V12.4072ZM11.4052 10.8814H13.4395V6.30418H11.4052V10.8814ZM5.30215 10.3729H7.33649V6.30418H5.30215V10.3729ZM3.26781 20.5445V16.1707C2.3015 15.2892 1.55134 14.2593 1.01733 13.0811C0.483315 11.9029 0.216309 10.6611 0.216309 9.35569C0.216309 6.81277 1.10633 4.65129 2.88638 2.87124C4.66642 1.09119 6.82791 0.201172 9.37083 0.201172C11.4899 0.201172 13.3675 0.824188 15.0034 2.07022C16.6393 3.31625 17.7031 4.93948 18.1948 6.93991L19.5171 12.1529C19.6019 12.475 19.5425 12.7674 19.3391 13.0302C19.1356 13.293 18.8644 13.4244 18.5253 13.4244H16.491V16.4759C16.491 17.0353 16.2918 17.5142 15.8934 17.9126C15.495 18.311 15.0161 18.5102 14.4567 18.5102H12.4223V20.5445H10.388V16.4759H14.4567V11.39H17.203L16.2367 7.4485C15.8468 5.90579 15.0161 4.65129 13.7447 3.68497C12.4732 2.71866 11.0153 2.23551 9.37083 2.23551C7.4043 2.23551 5.72597 2.9221 4.33584 4.29528C2.94571 5.66845 2.25065 7.33831 2.25065 9.30483C2.25065 10.322 2.45832 11.2883 2.87366 12.2038C3.28901 13.1192 3.87812 13.933 4.64099 14.645L5.30215 15.2553V20.5445H3.26781Z" fill="white"/>
</svg>
