<svg width="19" height="20" viewBox="0 0 19 20" fill="none" xmlns="http://www.w3.org/2000/svg">
<path d="M8.08333 11.834H9.91667V5.41732H8.08333V11.834ZM10.8333 10.459H12.6667V6.33398H10.8333V10.459ZM5.33333 10.0006H7.16667V6.33398H5.33333V10.0006ZM3.5 19.1673V15.2256C2.62917 14.4312 1.95312 13.5031 1.47188 12.4413C0.990625 11.3795 0.75 10.2604 0.75 9.08398C0.75 6.79232 1.55208 4.8444 3.15625 3.24023C4.76042 1.63607 6.70833 0.833984 9 0.833984C10.9097 0.833984 12.6017 1.39544 14.076 2.51836C15.5503 3.64128 16.509 5.10412 16.9521 6.9069L18.1437 11.6048C18.2201 11.8951 18.1667 12.1586 17.9833 12.3954C17.8 12.6322 17.5556 12.7506 17.25 12.7506H15.4167V15.5006C15.4167 16.0048 15.2372 16.4364 14.8781 16.7954C14.5191 17.1545 14.0875 17.334 13.5833 17.334H11.75V19.1673H9.91667V15.5006H13.5833V10.9173H16.0583L15.1875 7.36523C14.8361 5.97496 14.0875 4.8444 12.9417 3.97357C11.7958 3.10273 10.4819 2.66732 9 2.66732C7.22778 2.66732 5.71528 3.28607 4.4625 4.52357C3.20972 5.76107 2.58333 7.26593 2.58333 9.03815C2.58333 9.95482 2.77049 10.8256 3.14479 11.6506C3.5191 12.4756 4.05 13.209 4.7375 13.8506L5.33333 14.4006V19.1673H3.5Z" fill="white"/>
</svg>
