<svg width="107" height="107" viewBox="0 0 107 107" fill="none" xmlns="http://www.w3.org/2000/svg">
<circle cx="53.4636" cy="53.4657" r="39" transform="rotate(-30.7765 53.4636 53.4657)" fill="url(#paint0_linear_336_23696)"/>
<circle cx="52.9027" cy="53.3137" r="28" transform="rotate(-1.45005 52.9027 53.3137)" fill="url(#paint1_linear_336_23696)"/>
<path fill-rule="evenodd" clip-rule="evenodd" d="M53 69C61.8366 69 69 61.8366 69 53C69 44.1634 61.8366 37 53 37C44.1634 37 37 44.1634 37 53C37 61.8366 44.1634 69 53 69ZM60.938 52C60.4868 48.3812 57.6187 45.5132 54 45.0619V44C54 43.4478 53.5522 43 53 43C52.4478 43 52 43.4478 52 44V45.0619C48.3813 45.5132 45.5132 48.3812 45.062 52H44C43.4478 52 43 52.4478 43 53C43 53.5522 43.4478 54 44 54H45.062C45.5132 57.6188 48.3813 60.4868 52 60.9381V62C52 62.5522 52.4478 63 53 63C53.5522 63 54 62.5522 54 62V60.9381C57.6187 60.4868 60.4868 57.6188 60.938 54H62C62.5522 54 63 53.5522 63 53C63 52.4478 62.5522 52 62 52H60.938ZM54 48V47.083C56.5125 47.5045 58.4954 49.4874 58.917 52H58C57.4478 52 57 52.4478 57 53C57 53.5522 57.4478 54 58 54H58.917C58.4954 56.5126 56.5125 58.4955 54 58.917V58C54 57.4478 53.5522 57 53 57C52.4478 57 52 57.4478 52 58V58.917C49.4875 58.4955 47.5046 56.5126 47.083 54H48C48.5522 54 49 53.5522 49 53C49 52.4478 48.5522 52 48 52H47.083C47.5046 49.4874 49.4875 47.5045 52 47.083V48C52 48.5522 52.4478 49 53 49C53.5522 49 54 48.5522 54 48Z" fill="white"/>
<defs>
<linearGradient id="paint0_linear_336_23696" x1="53.4636" y1="14.4657" x2="53.4636" y2="92.4657" gradientUnits="userSpaceOnUse">
<stop stop-color="#171717" stop-opacity="0"/>
<stop offset="1" stop-color="#3F3F3F"/>
</linearGradient>
<linearGradient id="paint1_linear_336_23696" x1="52.9027" y1="25.3137" x2="52.9027" y2="81.3137" gradientUnits="userSpaceOnUse">
<stop stop-color="#171717" stop-opacity="0"/>
<stop offset="1" stop-color="#626262"/>
</linearGradient>
</defs>
</svg>
