<svg width="107" height="108" viewBox="0 0 107 108" fill="none" xmlns="http://www.w3.org/2000/svg">
<circle cx="53.4636" cy="53.5517" r="39" transform="rotate(-30.7765 53.4636 53.5517)" fill="url(#paint0_linear_336_23667)"/>
<circle cx="52.9027" cy="53.3997" r="28" transform="rotate(-1.45005 52.9027 53.3997)" fill="url(#paint1_linear_336_23667)"/>
<path fill-rule="evenodd" clip-rule="evenodd" d="M53 69C61.8366 69 69 61.8366 69 53C69 44.1634 61.8366 37 53 37C44.1634 37 37 44.1634 37 53C37 61.8366 44.1634 69 53 69ZM56.7665 50.2789H49.2319C48.4227 50.2789 47.7665 50.935 47.7665 51.7442V54.2558C47.7665 54.9119 48.4227 55.7211 49.2319 55.7211H56.7665C57.5757 55.7211 58.2319 55.065 58.2319 54.2558V51.7442C58.2319 51.0881 57.5757 50.2789 56.7665 50.2789ZM49.2319 44H56.7665C57.5757 44 58.2319 44.8092 58.2319 45.4653V47.9769C58.2319 48.7861 57.5757 49.4422 56.7665 49.4422H49.2319C48.4227 49.4422 47.7665 48.633 47.7665 47.9769V45.4653C47.7665 44.6562 48.4227 44 49.2319 44ZM56.7665 56.5578H49.2319C48.4227 56.5578 47.7665 57.2139 47.7665 58.0231V60.5347C47.7665 61.1908 48.4227 62 49.2319 62H56.7665C57.5757 62 58.2319 61.3438 58.2319 60.5347V58.0231C58.2319 57.367 57.5757 56.5578 56.7665 56.5578ZM44.6271 48.6048C44.4678 48.6048 44.3092 48.5459 44.1837 48.4203C43.9411 48.1778 43.9411 47.776 44.1837 47.5327L44.996 46.7203L44.1837 45.908C43.9411 45.6655 43.9411 45.2636 44.1837 45.0203C44.4262 44.7778 44.828 44.7778 45.0713 45.0203L46.3271 46.2761C46.5696 46.5186 46.5696 46.9204 46.3271 47.1638L45.0713 48.4195C44.9458 48.5451 44.7864 48.604 44.6279 48.604L44.6271 48.6048ZM59.6721 60.9781C59.7977 61.1037 59.9562 61.1625 60.1155 61.1625L60.1163 61.1617C60.2748 61.1617 60.4342 61.1029 60.5598 60.9773L61.8155 59.7215C62.0581 59.4782 62.0581 59.0763 61.8155 58.8338L60.5598 57.5781C60.3164 57.3355 59.9146 57.3355 59.6721 57.5781C59.4296 57.8214 59.4296 58.2232 59.6721 58.4657L60.4844 59.2781L59.6721 60.0904C59.4296 60.3337 59.4296 60.7356 59.6721 60.9781ZM59.6964 53.6279H59.2781C58.9351 53.6279 58.6502 53.343 58.6502 53C58.6502 52.657 58.9351 52.3721 59.2781 52.3721H59.6964C60.2741 52.3721 60.7426 51.9036 60.7426 51.3259V48.396C60.7426 47.8184 60.2741 47.3498 59.6964 47.3498H59.2781C58.9351 47.3498 58.6502 47.0649 58.6502 46.7219C58.6502 46.379 58.9351 46.094 59.2781 46.094H59.6964C60.9687 46.094 61.9984 47.1238 61.9984 48.396V51.3259C61.9984 52.5982 60.9687 53.6279 59.6964 53.6279ZM46.302 59.9068H46.7203C47.0633 59.9068 47.3482 59.6219 47.3482 59.2789C47.3482 58.9359 47.0633 58.651 46.7203 58.651H46.302C45.7243 58.651 45.2558 58.1824 45.2558 57.6048V54.6749C45.2558 54.0973 45.7243 53.6287 46.302 53.6287H46.7203C47.0633 53.6287 47.3482 53.3438 47.3482 53.0008C47.3482 52.6578 47.0633 52.3729 46.7203 52.3729H46.302C45.0297 52.3729 44 53.4027 44 54.6749V57.6048C44 58.877 45.0297 59.9068 46.302 59.9068Z" fill="white"/>
<defs>
<linearGradient id="paint0_linear_336_23667" x1="53.4636" y1="14.5517" x2="53.4636" y2="92.5517" gradientUnits="userSpaceOnUse">
<stop stop-color="#171717" stop-opacity="0"/>
<stop offset="1" stop-color="#3F3F3F"/>
</linearGradient>
<linearGradient id="paint1_linear_336_23667" x1="52.9027" y1="25.3997" x2="52.9027" y2="81.3997" gradientUnits="userSpaceOnUse">
<stop stop-color="#171717" stop-opacity="0"/>
<stop offset="1" stop-color="#626262"/>
</linearGradient>
</defs>
</svg>
