<svg width="107" height="108" viewBox="0 0 107 108" fill="none" xmlns="http://www.w3.org/2000/svg">
<circle cx="53.4636" cy="53.5517" r="39" transform="rotate(-30.7765 53.4636 53.5517)" fill="url(#paint0_linear_336_24660)"/>
<circle cx="52.9027" cy="53.3997" r="28" transform="rotate(-1.45005 52.9027 53.3997)" fill="url(#paint1_linear_336_24660)"/>
<path fill-rule="evenodd" clip-rule="evenodd" d="M69 53C69 61.8366 61.8366 69 53 69C44.1634 69 37 61.8366 37 53C37 44.1634 44.1634 37 53 37C61.8366 37 69 44.1634 69 53ZM58.75 44H50C49.0054 44 48.0516 44.3951 47.3483 45.0983C46.6451 45.8016 46.25 46.7554 46.25 47.75V50.25C46.25 50.5815 46.3817 50.8995 46.6161 51.1339C46.8505 51.3683 47.1685 51.5 47.5 51.5C47.8315 51.5 48.1495 51.3683 48.3839 51.1339C48.6183 50.8995 48.75 50.5815 48.75 50.25V47.75C48.75 47.4185 48.8817 47.1005 49.1161 46.8661C49.3505 46.6317 49.6685 46.5 50 46.5H58.75C59.0815 46.5 59.3995 46.6317 59.6339 46.8661C59.8683 47.1005 60 47.4185 60 47.75V56.5C60 56.8315 59.8683 57.1495 59.6339 57.3839C59.3995 57.6183 59.0815 57.75 58.75 57.75H56.25C55.9185 57.75 55.6005 57.8817 55.3661 58.1161C55.1317 58.3505 55 58.6685 55 59C55 59.3315 55.1317 59.6495 55.3661 59.8839C55.6005 60.1183 55.9185 60.25 56.25 60.25H58.75C59.7446 60.25 60.6984 59.8549 61.4017 59.1517C62.1049 58.4484 62.5 57.4946 62.5 56.5V47.75C62.5 46.7554 62.1049 45.8016 61.4017 45.0983C60.6984 44.3951 59.7446 44 58.75 44ZM46.25 60.25H43.75C43.4185 60.25 43.1005 60.1183 42.8661 59.8839C42.6317 59.6495 42.5 59.3315 42.5 59C42.5 58.6685 42.6317 58.3505 42.8661 58.1161C43.1005 57.8817 43.4185 57.75 43.75 57.75H46.25V55.25C46.25 54.9185 46.3817 54.6005 46.6161 54.3661C46.8505 54.1317 47.1685 54 47.5 54C47.8315 54 48.1495 54.1317 48.3839 54.3661C48.6183 54.6005 48.75 54.9185 48.75 55.25V57.75H51.25C51.5815 57.75 51.8995 57.8817 52.1339 58.1161C52.3683 58.3505 52.5 58.6685 52.5 59C52.5 59.3315 52.3683 59.6495 52.1339 59.8839C51.8995 60.1183 51.5815 60.25 51.25 60.25H48.75V62.75C48.75 63.0815 48.6183 63.3995 48.3839 63.6339C48.1495 63.8683 47.8315 64 47.5 64C47.1685 64 46.8505 63.8683 46.6161 63.6339C46.3817 63.3995 46.25 63.0815 46.25 62.75V60.25Z" fill="white"/>
<defs>
<linearGradient id="paint0_linear_336_24660" x1="53.4636" y1="14.5517" x2="53.4636" y2="92.5517" gradientUnits="userSpaceOnUse">
<stop stop-color="#171717" stop-opacity="0"/>
<stop offset="1" stop-color="#3F3F3F"/>
</linearGradient>
<linearGradient id="paint1_linear_336_24660" x1="52.9027" y1="25.3997" x2="52.9027" y2="81.3997" gradientUnits="userSpaceOnUse">
<stop stop-color="#171717" stop-opacity="0"/>
<stop offset="1" stop-color="#626262"/>
</linearGradient>
</defs>
</svg>
