<svg width="84" height="303" viewBox="0 0 84 303" fill="none" xmlns="http://www.w3.org/2000/svg">
<path d="M0 150.5H38C46.8366 150.5 54 143.337 54 134.5V18.5C54 9.66344 61.1634 2.5 70 2.5H82.5" stroke="#5AC487" stroke-width="1.5"/>
<path d="M0 150.5H38C46.8366 150.5 54 143.337 54 134.5V18.5C54 9.66344 61.1634 2.5 70 2.5H82.5" stroke="url(#paint0_linear_336_14168)" stroke-width="1.5"/>
<path d="M12 150.5H58C62.4183 150.5 66 146.918 66 142.5V110.5C66 106.082 69.5817 102.5 74 102.5H82.5" stroke="#5AC487" stroke-width="1.5"/>
<path d="M12 150.5H58C62.4183 150.5 66 146.918 66 142.5V110.5C66 106.082 69.5817 102.5 74 102.5H82.5" stroke="url(#paint1_linear_336_14168)" stroke-width="1.5"/>
<path d="M12 150.5H58C62.4183 150.5 66 146.918 66 142.5V110.5C66 106.082 69.5817 102.5 74 102.5H82.5" stroke="url(#paint2_linear_336_14168)" stroke-width="1.5"/>
<path d="M12 150.5H58C62.4183 150.5 66 154.082 66 158.5V190.5C66 194.918 69.5817 198.5 74 198.5H82.5" stroke="#5AC487" stroke-width="1.5"/>
<path d="M12 150.5H58C62.4183 150.5 66 154.082 66 158.5V190.5C66 194.918 69.5817 198.5 74 198.5H82.5" stroke="url(#paint3_linear_336_14168)" stroke-width="1.5"/>
<path d="M12 150.5H58C62.4183 150.5 66 154.082 66 158.5V190.5C66 194.918 69.5817 198.5 74 198.5H82.5" stroke="url(#paint4_linear_336_14168)" stroke-width="1.5"/>
<path d="M0 150.5H38C46.8366 150.5 54 157.663 54 166.5V284.5C54 293.337 61.1634 300.5 70 300.5H82.5" stroke="#5AC487" stroke-width="1.5"/>
<path d="M0 150.5H38C46.8366 150.5 54 157.663 54 166.5V284.5C54 293.337 61.1634 300.5 70 300.5H82.5" stroke="url(#paint5_linear_336_14168)" stroke-width="1.5"/>
<circle cx="82" cy="2.5" r="2" fill="#5AC487"/>
<circle cx="61" cy="5.5" r="2" fill="#5AC487"/>
<circle cx="54" cy="38.5" r="2" fill="#5AC487"/>
<circle cx="54" cy="21.5" r="2" fill="#5AC487"/>
<circle cx="54" cy="58.5" r="2" fill="#5AC487"/>
<circle cx="54" cy="78.5" r="2" fill="#5AC487"/>
<circle cx="54" cy="98.5" r="2" fill="#5AC487"/>
<circle cx="54" cy="118.5" r="2" fill="#5AC487"/>
<circle cx="54" cy="138.5" r="2" fill="#5AC487"/>
<circle cx="54" cy="165.5" r="2" fill="#5AC487"/>
<circle cx="54" cy="150.5" r="2" fill="#5AC487"/>
<circle cx="66" cy="142.5" r="2" fill="#5AC487"/>
<circle cx="66" cy="158.5" r="2" fill="#5AC487"/>
<circle cx="66" cy="178.5" r="2" fill="#5AC487"/>
<circle cx="66" cy="122.5" r="2" fill="#5AC487"/>
<circle cx="82" cy="102.5" r="2" fill="#5AC487"/>
<circle cx="82" cy="198.5" r="2" fill="#5AC487"/>
<circle cx="82" cy="300.5" r="2" fill="#5AC487"/>
<circle cx="62" cy="298.5" r="2" fill="#5AC487"/>
<circle cx="39" cy="150.5" r="2" fill="#5AC487"/>
<circle cx="24" cy="150.5" r="2" fill="#5AC487"/>
<circle cx="54" cy="185.5" r="2" fill="#5AC487"/>
<circle cx="54" cy="205.5" r="2" fill="#5AC487"/>
<circle cx="54" cy="225.5" r="2" fill="#5AC487"/>
<circle cx="54" cy="245.5" r="2" fill="#5AC487"/>
<circle cx="54" cy="265.5" r="2" fill="#5AC487"/>
<circle cx="54" cy="283.5" r="2" fill="#5AC487"/>
<defs>
<linearGradient id="paint0_linear_336_14168" x1="67" y1="15" x2="116.178" y2="79.9612" gradientUnits="userSpaceOnUse">
<stop stop-color="#3CEDA6"/>
<stop offset="1" stop-color="#198C5B"/>
</linearGradient>
<linearGradient id="paint1_linear_336_14168" x1="78.9999" y1="15" x2="128.178" y2="79.9612" gradientUnits="userSpaceOnUse">
<stop stop-color="#3CEDA6"/>
<stop offset="1" stop-color="#198C5B"/>
</linearGradient>
<linearGradient id="paint2_linear_336_14168" x1="79.0818" y1="102.5" x2="87.9245" y2="135.356" gradientUnits="userSpaceOnUse">
<stop stop-color="#3CEDA6"/>
<stop offset="1" stop-color="#198C5B"/>
</linearGradient>
<linearGradient id="paint3_linear_336_14168" x1="78.9999" y1="286" x2="128.178" y2="221.039" gradientUnits="userSpaceOnUse">
<stop stop-color="#3CEDA6"/>
<stop offset="1" stop-color="#198C5B"/>
</linearGradient>
<linearGradient id="paint4_linear_336_14168" x1="79.0818" y1="198.5" x2="87.9245" y2="165.644" gradientUnits="userSpaceOnUse">
<stop stop-color="#3CEDA6"/>
<stop offset="1" stop-color="#198C5B"/>
</linearGradient>
<linearGradient id="paint5_linear_336_14168" x1="78.5" y1="282.5" x2="122.274" y2="213.288" gradientUnits="userSpaceOnUse">
<stop stop-color="#3CEDA6"/>
<stop offset="1" stop-color="#198C5B"/>
</linearGradient>
</defs>
</svg>
