<svg width="467" height="263" viewBox="0 0 467 263" fill="none" xmlns="http://www.w3.org/2000/svg">
<path d="M186 72L466.5 131" stroke="url(#paint0_linear_336_14323)"/>
<path d="M186 72L466.5 131" stroke="url(#paint1_linear_336_14323)"/>
<path d="M307.5 23.5L465.5 131" stroke="url(#paint2_linear_336_14323)"/>
<path d="M225.5 131H465.5" stroke="url(#paint3_linear_336_14323)"/>
<path d="M225.5 131H465.5" stroke="url(#paint4_linear_336_14323)"/>
<path d="M225.5 131H465.5" stroke="url(#paint5_linear_336_14323)"/>
<path d="M313 238.5L465 131" stroke="url(#paint6_linear_336_14323)"/>
<path d="M313 238.5L465 131" stroke="url(#paint7_linear_336_14323)"/>
<path d="M313 238.5L465 131" stroke="url(#paint8_linear_336_14323)"/>
<rect x="110.5" y="47" width="158" height="25" fill="#A5EDFF"/>
<rect x="110.5" y="47" width="158" height="25" fill="#101010"/>
<rect x="110.5" y="47" width="158" height="25" stroke="#585858"/>
<path d="M122.402 64.64C121.73 64.64 121.152 64.528 120.666 64.304C120.19 64.08 119.822 63.758 119.56 63.338C119.299 62.918 119.164 62.4187 119.154 61.84H120.414C120.414 62.3533 120.587 62.7593 120.932 63.058C121.287 63.3567 121.777 63.506 122.402 63.506C122.99 63.506 123.448 63.3613 123.774 63.072C124.11 62.7827 124.278 62.3813 124.278 61.868C124.278 61.4573 124.166 61.098 123.942 60.79C123.728 60.482 123.415 60.2673 123.004 60.146L121.618 59.712C120.918 59.4973 120.377 59.138 119.994 58.634C119.621 58.13 119.434 57.5373 119.434 56.856C119.434 56.3053 119.556 55.8293 119.798 55.428C120.05 55.0173 120.4 54.7 120.848 54.476C121.296 54.2427 121.824 54.126 122.43 54.126C123.326 54.126 124.045 54.378 124.586 54.882C125.128 55.3767 125.403 56.0393 125.412 56.87H124.152C124.152 56.366 123.998 55.974 123.69 55.694C123.392 55.4047 122.967 55.26 122.416 55.26C121.875 55.26 121.45 55.3907 121.142 55.652C120.844 55.9133 120.694 56.2773 120.694 56.744C120.694 57.164 120.806 57.528 121.03 57.836C121.254 58.144 121.576 58.3633 121.996 58.494L123.396 58.942C124.078 59.1567 124.605 59.5207 124.978 60.034C125.352 60.5473 125.538 61.1493 125.538 61.84C125.538 62.4 125.408 62.89 125.146 63.31C124.885 63.73 124.516 64.0567 124.04 64.29C123.574 64.5233 123.028 64.64 122.402 64.64ZM130.741 64.64C130.134 64.64 129.602 64.5187 129.145 64.276C128.697 64.0333 128.347 63.6927 128.095 63.254C127.852 62.806 127.731 62.288 127.731 61.7V59.6C127.731 59.0027 127.852 58.4847 128.095 58.046C128.347 57.6073 128.697 57.2667 129.145 57.024C129.602 56.7813 130.134 56.66 130.741 56.66C131.348 56.66 131.875 56.7813 132.323 57.024C132.78 57.2667 133.13 57.6073 133.373 58.046C133.625 58.4847 133.751 59.0027 133.751 59.6V60.958H128.963V61.7C128.963 62.3067 129.117 62.7733 129.425 63.1C129.733 63.4173 130.172 63.576 130.741 63.576C131.226 63.576 131.618 63.492 131.917 63.324C132.216 63.1467 132.398 62.8853 132.463 62.54H133.723C133.639 63.184 133.322 63.6973 132.771 64.08C132.23 64.4533 131.553 64.64 130.741 64.64ZM132.519 60.118V59.6C132.519 58.9933 132.365 58.5267 132.057 58.2C131.758 57.8733 131.32 57.71 130.741 57.71C130.172 57.71 129.733 57.8733 129.425 58.2C129.117 58.5267 128.963 58.9933 128.963 59.6V60.006H132.617L132.519 60.118ZM139.192 64.64C138.576 64.64 138.034 64.5233 137.568 64.29C137.11 64.0567 136.756 63.7207 136.504 63.282C136.252 62.834 136.126 62.3067 136.126 61.7V59.6C136.126 58.984 136.252 58.4567 136.504 58.018C136.756 57.5793 137.11 57.2433 137.568 57.01C138.034 56.7767 138.576 56.66 139.192 56.66C140.078 56.66 140.792 56.898 141.334 57.374C141.875 57.85 142.16 58.4987 142.188 59.32H140.928C140.9 58.8253 140.732 58.4473 140.424 58.186C140.125 57.9153 139.714 57.78 139.192 57.78C138.641 57.78 138.202 57.9387 137.876 58.256C137.549 58.564 137.386 59.0073 137.386 59.586V61.7C137.386 62.2787 137.549 62.7267 137.876 63.044C138.202 63.3613 138.641 63.52 139.192 63.52C139.714 63.52 140.125 63.3847 140.424 63.114C140.732 62.8433 140.9 62.4653 140.928 61.98H142.188C142.16 62.8013 141.875 63.45 141.334 63.926C140.792 64.402 140.078 64.64 139.192 64.64ZM147.516 64.64C146.629 64.64 145.92 64.3787 145.388 63.856C144.856 63.324 144.59 62.6053 144.59 61.7V56.8H145.85V61.7C145.85 62.2787 145.999 62.7313 146.298 63.058C146.597 63.3753 147.003 63.534 147.516 63.534C148.039 63.534 148.449 63.3753 148.748 63.058C149.056 62.7313 149.21 62.2787 149.21 61.7V56.8H150.47V61.7C150.47 62.6053 150.199 63.324 149.658 63.856C149.117 64.3787 148.403 64.64 147.516 64.64ZM153.279 64.5V56.8H154.511V58.27H154.805L154.399 59.18C154.399 58.3493 154.576 57.724 154.931 57.304C155.295 56.8747 155.831 56.66 156.541 56.66C157.353 56.66 157.997 56.9167 158.473 57.43C158.958 57.934 159.201 58.62 159.201 59.488V59.95H157.941V59.6C157.941 58.9933 157.791 58.5313 157.493 58.214C157.203 57.8873 156.788 57.724 156.247 57.724C155.715 57.724 155.295 57.8873 154.987 58.214C154.688 58.5407 154.539 59.0027 154.539 59.6V64.5H153.279ZM161.309 64.5V63.352H164.039V57.948H161.659V56.8H165.299V63.352H167.889V64.5H161.309ZM164.529 55.414C164.221 55.414 163.978 55.3347 163.801 55.176C163.624 55.0173 163.535 54.8027 163.535 54.532C163.535 54.252 163.624 54.0327 163.801 53.874C163.978 53.706 164.221 53.622 164.529 53.622C164.837 53.622 165.08 53.706 165.257 53.874C165.434 54.0327 165.523 54.252 165.523 54.532C165.523 54.8027 165.434 55.0173 165.257 55.176C165.08 55.3347 164.837 55.414 164.529 55.414ZM173.554 64.5C172.891 64.5 172.373 64.3227 172 63.968C171.636 63.6133 171.454 63.114 171.454 62.47V57.948H169.284V56.8H171.454V54.63H172.714V56.8H175.794V57.948H172.714V62.47C172.714 63.058 172.994 63.352 173.554 63.352H175.654V64.5H173.554ZM179.4 67.02L180.534 64.024L177.678 56.8H179.078L180.87 61.56C180.936 61.7187 180.996 61.91 181.052 62.134C181.108 62.3487 181.155 62.5307 181.192 62.68C181.23 62.5307 181.276 62.3487 181.332 62.134C181.388 61.91 181.444 61.7187 181.5 61.56L183.18 56.8H184.538L180.744 67.02H179.4ZM194.985 64.5V54.28H198.275C198.91 54.28 199.461 54.406 199.927 54.658C200.394 54.9007 200.753 55.246 201.005 55.694C201.267 56.142 201.397 56.674 201.397 57.29C201.397 57.8967 201.267 58.4287 201.005 58.886C200.753 59.334 200.394 59.684 199.927 59.936C199.461 60.1787 198.91 60.3 198.275 60.3H196.245V64.5H194.985ZM196.245 59.166H198.275C198.826 59.166 199.265 58.998 199.591 58.662C199.927 58.3167 200.095 57.8593 200.095 57.29C200.095 56.7113 199.927 56.254 199.591 55.918C199.265 55.582 198.826 55.414 198.275 55.414H196.245V59.166ZM206.292 64.612C205.676 64.612 205.144 64.4953 204.696 64.262C204.248 64.0287 203.898 63.6927 203.646 63.254C203.403 62.806 203.282 62.2787 203.282 61.672V59.628C203.282 59.012 203.403 58.4847 203.646 58.046C203.898 57.6073 204.248 57.2713 204.696 57.038C205.144 56.8047 205.676 56.688 206.292 56.688C206.908 56.688 207.44 56.8047 207.888 57.038C208.336 57.2713 208.681 57.6073 208.924 58.046C209.176 58.4847 209.302 59.0073 209.302 59.614V61.672C209.302 62.2787 209.176 62.806 208.924 63.254C208.681 63.6927 208.336 64.0287 207.888 64.262C207.44 64.4953 206.908 64.612 206.292 64.612ZM206.292 63.492C206.842 63.492 207.272 63.338 207.58 63.03C207.888 62.722 208.042 62.2693 208.042 61.672V59.628C208.042 59.0307 207.888 58.578 207.58 58.27C207.272 57.962 206.842 57.808 206.292 57.808C205.75 57.808 205.321 57.962 205.004 58.27C204.696 58.578 204.542 59.0307 204.542 59.628V61.672C204.542 62.2693 204.696 62.722 205.004 63.03C205.321 63.338 205.75 63.492 206.292 63.492ZM215.736 64.5C215.288 64.5 214.896 64.4113 214.56 64.234C214.224 64.0567 213.963 63.8047 213.776 63.478C213.59 63.1513 213.496 62.7687 213.496 62.33V55.428H210.906V54.28H214.756V62.33C214.756 62.6473 214.845 62.8993 215.022 63.086C215.2 63.2633 215.438 63.352 215.736 63.352H218.186V64.5H215.736ZM220.071 64.5V63.352H222.801V57.948H220.421V56.8H224.061V63.352H226.651V64.5H220.071ZM223.291 55.414C222.983 55.414 222.74 55.3347 222.563 55.176C222.386 55.0173 222.297 54.8027 222.297 54.532C222.297 54.252 222.386 54.0327 222.563 53.874C222.74 53.706 222.983 53.622 223.291 53.622C223.599 53.622 223.842 53.706 224.019 53.874C224.196 54.0327 224.285 54.252 224.285 54.532C224.285 54.8027 224.196 55.0173 224.019 55.176C223.842 55.3347 223.599 55.414 223.291 55.414ZM231.531 64.64C230.915 64.64 230.374 64.5233 229.907 64.29C229.45 64.0567 229.095 63.7207 228.843 63.282C228.591 62.834 228.465 62.3067 228.465 61.7V59.6C228.465 58.984 228.591 58.4567 228.843 58.018C229.095 57.5793 229.45 57.2433 229.907 57.01C230.374 56.7767 230.915 56.66 231.531 56.66C232.418 56.66 233.132 56.898 233.673 57.374C234.215 57.85 234.499 58.4987 234.527 59.32H233.267C233.239 58.8253 233.071 58.4473 232.763 58.186C232.465 57.9153 232.054 57.78 231.531 57.78C230.981 57.78 230.542 57.9387 230.215 58.256C229.889 58.564 229.725 59.0073 229.725 59.586V61.7C229.725 62.2787 229.889 62.7267 230.215 63.044C230.542 63.3613 230.981 63.52 231.531 63.52C232.054 63.52 232.465 63.3847 232.763 63.114C233.071 62.8433 233.239 62.4653 233.267 61.98H234.527C234.499 62.8013 234.215 63.45 233.673 63.926C233.132 64.402 232.418 64.64 231.531 64.64ZM236.86 64.5V63.352H239.59V57.948H237.21V56.8H240.85V63.352H243.44V64.5H236.86ZM240.08 55.414C239.772 55.414 239.529 55.3347 239.352 55.176C239.175 55.0173 239.086 54.8027 239.086 54.532C239.086 54.252 239.175 54.0327 239.352 53.874C239.529 53.706 239.772 53.622 240.08 53.622C240.388 53.622 240.631 53.706 240.808 53.874C240.985 54.0327 241.074 54.252 241.074 54.532C241.074 54.8027 240.985 55.0173 240.808 55.176C240.631 55.3347 240.388 55.414 240.08 55.414ZM248.264 64.64C247.658 64.64 247.126 64.5187 246.668 64.276C246.22 64.0333 245.87 63.6927 245.618 63.254C245.376 62.806 245.254 62.288 245.254 61.7V59.6C245.254 59.0027 245.376 58.4847 245.618 58.046C245.87 57.6073 246.22 57.2667 246.668 57.024C247.126 56.7813 247.658 56.66 248.264 56.66C248.871 56.66 249.398 56.7813 249.846 57.024C250.304 57.2667 250.654 57.6073 250.896 58.046C251.148 58.4847 251.274 59.0027 251.274 59.6V60.958H246.486V61.7C246.486 62.3067 246.64 62.7733 246.948 63.1C247.256 63.4173 247.695 63.576 248.264 63.576C248.75 63.576 249.142 63.492 249.44 63.324C249.739 63.1467 249.921 62.8853 249.986 62.54H251.246C251.162 63.184 250.845 63.6973 250.294 64.08C249.753 64.4533 249.076 64.64 248.264 64.64ZM250.042 60.118V59.6C250.042 58.9933 249.888 58.5267 249.58 58.2C249.282 57.8733 248.843 57.71 248.264 57.71C247.695 57.71 247.256 57.8733 246.948 58.2C246.64 58.5267 246.486 58.9933 246.486 59.6V60.006H250.14L250.042 60.118ZM256.421 64.612C255.898 64.612 255.441 64.5327 255.049 64.374C254.666 64.206 254.358 63.9727 254.125 63.674C253.901 63.3753 253.766 63.0207 253.719 62.61H254.979C255.035 62.8807 255.184 63.0953 255.427 63.254C255.679 63.4127 256.01 63.492 256.421 63.492H257.009C257.504 63.492 257.872 63.394 258.115 63.198C258.358 62.9927 258.479 62.722 258.479 62.386C258.479 62.0593 258.367 61.8027 258.143 61.616C257.928 61.42 257.606 61.2893 257.177 61.224L256.141 61.056C255.385 60.9253 254.82 60.692 254.447 60.356C254.083 60.0107 253.901 59.5113 253.901 58.858C253.901 58.1673 254.12 57.6353 254.559 57.262C254.998 56.8793 255.656 56.688 256.533 56.688H257.065C257.802 56.688 258.395 56.8607 258.843 57.206C259.291 57.5513 259.562 58.018 259.655 58.606H258.395C258.339 58.3633 258.199 58.172 257.975 58.032C257.751 57.8827 257.448 57.808 257.065 57.808H256.533C256.057 57.808 255.707 57.8967 255.483 58.074C255.268 58.2513 255.161 58.5173 255.161 58.872C255.161 59.1893 255.254 59.4227 255.441 59.572C255.628 59.7213 255.922 59.8287 256.323 59.894L257.359 60.062C258.19 60.1927 258.792 60.4353 259.165 60.79C259.548 61.1447 259.739 61.658 259.739 62.33C259.739 63.0393 259.51 63.5993 259.053 64.01C258.605 64.4113 257.924 64.612 257.009 64.612H256.421Z" fill="white"/>
<rect x="254.5" y="1" width="99" height="25" fill="#101010"/>
<rect x="254.5" y="1" width="99" height="25" stroke="#585858"/>
<path d="M266.283 18.64C265.667 18.64 265.131 18.5233 264.673 18.29C264.225 18.0567 263.875 17.7207 263.623 17.282C263.381 16.834 263.259 16.3067 263.259 15.7V11.08C263.259 10.464 263.381 9.93667 263.623 9.498C263.875 9.05933 264.225 8.72333 264.673 8.49C265.131 8.25667 265.667 8.14 266.283 8.14C266.899 8.14 267.431 8.26133 267.879 8.504C268.327 8.73733 268.673 9.07333 268.915 9.512C269.158 9.95067 269.279 10.4733 269.279 11.08H268.019C268.019 10.5013 267.865 10.058 267.557 9.75C267.259 9.43267 266.834 9.274 266.283 9.274C265.733 9.274 265.299 9.428 264.981 9.736C264.673 10.044 264.519 10.4873 264.519 11.066V15.7C264.519 16.2787 264.673 16.7267 264.981 17.044C265.299 17.352 265.733 17.506 266.283 17.506C266.834 17.506 267.259 17.352 267.557 17.044C267.865 16.7267 268.019 16.2787 268.019 15.7H269.279C269.279 16.2973 269.158 16.82 268.915 17.268C268.673 17.7067 268.327 18.0473 267.879 18.29C267.431 18.5233 266.899 18.64 266.283 18.64ZM274.622 18.612C274.006 18.612 273.474 18.4953 273.026 18.262C272.578 18.0287 272.228 17.6927 271.976 17.254C271.733 16.806 271.612 16.2787 271.612 15.672V13.628C271.612 13.012 271.733 12.4847 271.976 12.046C272.228 11.6073 272.578 11.2713 273.026 11.038C273.474 10.8047 274.006 10.688 274.622 10.688C275.238 10.688 275.77 10.8047 276.218 11.038C276.666 11.2713 277.011 11.6073 277.254 12.046C277.506 12.4847 277.632 13.0073 277.632 13.614V15.672C277.632 16.2787 277.506 16.806 277.254 17.254C277.011 17.6927 276.666 18.0287 276.218 18.262C275.77 18.4953 275.238 18.612 274.622 18.612ZM274.622 17.492C275.173 17.492 275.602 17.338 275.91 17.03C276.218 16.722 276.372 16.2693 276.372 15.672V13.628C276.372 13.0307 276.218 12.578 275.91 12.27C275.602 11.962 275.173 11.808 274.622 11.808C274.081 11.808 273.651 11.962 273.334 12.27C273.026 12.578 272.872 13.0307 272.872 13.628V15.672C272.872 16.2693 273.026 16.722 273.334 17.03C273.651 17.338 274.081 17.492 274.622 17.492ZM279.74 18.5V10.8H280.846V11.724H281.098L280.902 12.06C280.902 11.6307 281.014 11.29 281.238 11.038C281.472 10.786 281.784 10.66 282.176 10.66C282.606 10.66 282.937 10.8187 283.17 11.136C283.404 11.4533 283.52 11.9013 283.52 12.48L283.142 11.724H283.73L283.464 12.06C283.464 11.6307 283.581 11.29 283.814 11.038C284.057 10.786 284.374 10.66 284.766 10.66C285.252 10.66 285.625 10.842 285.886 11.206C286.157 11.57 286.292 12.0507 286.292 12.648V18.5H285.13V12.634C285.13 12.3167 285.06 12.0693 284.92 11.892C284.79 11.7147 284.594 11.626 284.332 11.626C284.08 11.626 283.88 11.7147 283.73 11.892C283.59 12.06 283.52 12.3027 283.52 12.62V18.5H282.512V12.634C282.512 12.3073 282.438 12.06 282.288 11.892C282.148 11.7147 281.948 11.626 281.686 11.626C281.425 11.626 281.229 11.7147 281.098 11.892C280.968 12.06 280.902 12.3027 280.902 12.62V18.5H279.74ZM288.499 21.02V10.8H289.759V12.27H290.011L289.759 12.564C289.759 11.976 289.95 11.514 290.333 11.178C290.725 10.8327 291.238 10.66 291.873 10.66C292.648 10.66 293.264 10.9167 293.721 11.43C294.188 11.934 294.421 12.6293 294.421 13.516V15.77C294.421 16.358 294.314 16.8667 294.099 17.296C293.894 17.7253 293.6 18.0567 293.217 18.29C292.844 18.5233 292.396 18.64 291.873 18.64C291.248 18.64 290.739 18.4673 290.347 18.122C289.955 17.7767 289.759 17.3147 289.759 16.736L290.011 17.03H289.731L289.759 18.78V21.02H288.499ZM291.453 17.548C291.985 17.548 292.4 17.3893 292.699 17.072C293.007 16.7547 293.161 16.2973 293.161 15.7V13.6C293.161 13.0027 293.007 12.5453 292.699 12.228C292.4 11.9107 291.985 11.752 291.453 11.752C290.94 11.752 290.529 11.9153 290.221 12.242C289.913 12.5687 289.759 13.0213 289.759 13.6V15.7C289.759 16.2787 289.913 16.7313 290.221 17.058C290.529 17.3847 290.94 17.548 291.453 17.548ZM300.855 18.5C300.407 18.5 300.015 18.4113 299.679 18.234C299.343 18.0567 299.082 17.8047 298.895 17.478C298.709 17.1513 298.615 16.7687 298.615 16.33V9.428H296.025V8.28H299.875V16.33C299.875 16.6473 299.964 16.8993 300.141 17.086C300.319 17.2633 300.557 17.352 300.855 17.352H303.305V18.5H300.855ZM305.19 18.5V17.352H307.92V11.948H305.54V10.8H309.18V17.352H311.77V18.5H305.19ZM308.41 9.414C308.102 9.414 307.859 9.33467 307.682 9.176C307.505 9.01733 307.416 8.80267 307.416 8.532C307.416 8.252 307.505 8.03267 307.682 7.874C307.859 7.706 308.102 7.622 308.41 7.622C308.718 7.622 308.961 7.706 309.138 7.874C309.315 8.03267 309.404 8.252 309.404 8.532C309.404 8.80267 309.315 9.01733 309.138 9.176C308.961 9.33467 308.718 9.414 308.41 9.414ZM315.923 18.64C315.111 18.64 314.471 18.4347 314.005 18.024C313.538 17.604 313.305 17.0393 313.305 16.33C313.305 15.6113 313.538 15.0467 314.005 14.636C314.471 14.2253 315.101 14.02 315.895 14.02H318.275V13.25C318.275 12.774 318.13 12.41 317.841 12.158C317.561 11.8967 317.159 11.766 316.637 11.766C316.179 11.766 315.797 11.864 315.489 12.06C315.181 12.2467 315.003 12.5033 314.957 12.83H313.697C313.781 12.1673 314.093 11.64 314.635 11.248C315.176 10.856 315.853 10.66 316.665 10.66C317.551 10.66 318.251 10.8887 318.765 11.346C319.278 11.8033 319.535 12.424 319.535 13.208V18.5H318.303V17.03H318.093L318.303 16.82C318.303 17.38 318.083 17.8233 317.645 18.15C317.215 18.4767 316.641 18.64 315.923 18.64ZM316.231 17.646C316.828 17.646 317.318 17.4967 317.701 17.198C318.083 16.8993 318.275 16.5167 318.275 16.05V14.958H315.923C315.503 14.958 315.171 15.0747 314.929 15.308C314.686 15.5413 314.565 15.8587 314.565 16.26C314.565 16.6893 314.709 17.03 314.999 17.282C315.297 17.5247 315.708 17.646 316.231 17.646ZM322.077 18.5V10.8H323.337V12.27H323.603L323.337 12.564C323.337 11.9573 323.519 11.4907 323.883 11.164C324.247 10.828 324.751 10.66 325.395 10.66C326.17 10.66 326.786 10.898 327.243 11.374C327.7 11.85 327.929 12.4987 327.929 13.32V18.5H326.669V13.46C326.669 12.9093 326.52 12.4893 326.221 12.2C325.932 11.9013 325.535 11.752 325.031 11.752C324.508 11.752 324.093 11.9107 323.785 12.228C323.486 12.5453 323.337 13.0027 323.337 13.6V18.5H322.077ZM333.44 18.64C332.824 18.64 332.282 18.5233 331.816 18.29C331.358 18.0567 331.004 17.7207 330.752 17.282C330.5 16.834 330.374 16.3067 330.374 15.7V13.6C330.374 12.984 330.5 12.4567 330.752 12.018C331.004 11.5793 331.358 11.2433 331.816 11.01C332.282 10.7767 332.824 10.66 333.44 10.66C334.326 10.66 335.04 10.898 335.582 11.374C336.123 11.85 336.408 12.4987 336.436 13.32H335.176C335.148 12.8253 334.98 12.4473 334.672 12.186C334.373 11.9153 333.962 11.78 333.44 11.78C332.889 11.78 332.45 11.9387 332.124 12.256C331.797 12.564 331.634 13.0073 331.634 13.586V15.7C331.634 16.2787 331.797 16.7267 332.124 17.044C332.45 17.3613 332.889 17.52 333.44 17.52C333.962 17.52 334.373 17.3847 334.672 17.114C334.98 16.8433 335.148 16.4653 335.176 15.98H336.436C336.408 16.8013 336.123 17.45 335.582 17.926C335.04 18.402 334.326 18.64 333.44 18.64ZM341.778 18.64C341.171 18.64 340.639 18.5187 340.182 18.276C339.734 18.0333 339.384 17.6927 339.132 17.254C338.889 16.806 338.768 16.288 338.768 15.7V13.6C338.768 13.0027 338.889 12.4847 339.132 12.046C339.384 11.6073 339.734 11.2667 340.182 11.024C340.639 10.7813 341.171 10.66 341.778 10.66C342.385 10.66 342.912 10.7813 343.36 11.024C343.817 11.2667 344.167 11.6073 344.41 12.046C344.662 12.4847 344.788 13.0027 344.788 13.6V14.958H340V15.7C340 16.3067 340.154 16.7733 340.462 17.1C340.77 17.4173 341.209 17.576 341.778 17.576C342.263 17.576 342.655 17.492 342.954 17.324C343.253 17.1467 343.435 16.8853 343.5 16.54H344.76C344.676 17.184 344.359 17.6973 343.808 18.08C343.267 18.4533 342.59 18.64 341.778 18.64ZM343.556 14.118V13.6C343.556 12.9933 343.402 12.5267 343.094 12.2C342.795 11.8733 342.357 11.71 341.778 11.71C341.209 11.71 340.77 11.8733 340.462 12.2C340.154 12.5267 340 12.9933 340 13.6V14.006H343.654L343.556 14.118Z" fill="white"/>
<rect x="254.5" y="237" width="91" height="25" fill="#EC8FFF"/>
<rect x="254.5" y="237" width="91" height="25" fill="#101010"/>
<rect x="254.5" y="237" width="91" height="25" stroke="#585858"/>
<path d="M266.481 254.64C265.865 254.64 265.328 254.523 264.871 254.29C264.423 254.057 264.073 253.721 263.821 253.282C263.578 252.834 263.457 252.307 263.457 251.7V247.08C263.457 246.464 263.578 245.937 263.821 245.498C264.073 245.059 264.423 244.723 264.871 244.49C265.328 244.257 265.865 244.14 266.481 244.14C267.097 244.14 267.629 244.261 268.077 244.504C268.525 244.737 268.87 245.073 269.113 245.512C269.355 245.951 269.477 246.473 269.477 247.08H268.217C268.217 246.501 268.063 246.058 267.755 245.75C267.456 245.433 267.031 245.274 266.481 245.274C265.93 245.274 265.496 245.428 265.179 245.736C264.871 246.044 264.717 246.487 264.717 247.066V251.7C264.717 252.279 264.871 252.727 265.179 253.044C265.496 253.352 265.93 253.506 266.481 253.506C267.031 253.506 267.456 253.352 267.755 253.044C268.063 252.727 268.217 252.279 268.217 251.7H269.477C269.477 252.297 269.355 252.82 269.113 253.268C268.87 253.707 268.525 254.047 268.077 254.29C267.629 254.523 267.097 254.64 266.481 254.64ZM274.819 254.612C274.203 254.612 273.671 254.495 273.223 254.262C272.775 254.029 272.425 253.693 272.173 253.254C271.93 252.806 271.809 252.279 271.809 251.672V249.628C271.809 249.012 271.93 248.485 272.173 248.046C272.425 247.607 272.775 247.271 273.223 247.038C273.671 246.805 274.203 246.688 274.819 246.688C275.435 246.688 275.967 246.805 276.415 247.038C276.863 247.271 277.208 247.607 277.451 248.046C277.703 248.485 277.829 249.007 277.829 249.614V251.672C277.829 252.279 277.703 252.806 277.451 253.254C277.208 253.693 276.863 254.029 276.415 254.262C275.967 254.495 275.435 254.612 274.819 254.612ZM274.819 253.492C275.37 253.492 275.799 253.338 276.107 253.03C276.415 252.722 276.569 252.269 276.569 251.672V249.628C276.569 249.031 276.415 248.578 276.107 248.27C275.799 247.962 275.37 247.808 274.819 247.808C274.278 247.808 273.848 247.962 273.531 248.27C273.223 248.578 273.069 249.031 273.069 249.628V251.672C273.069 252.269 273.223 252.722 273.531 253.03C273.848 253.338 274.278 253.492 274.819 253.492ZM280.302 254.5V246.8H281.562V248.27H281.828L281.562 248.564C281.562 247.957 281.744 247.491 282.108 247.164C282.472 246.828 282.976 246.66 283.62 246.66C284.394 246.66 285.01 246.898 285.468 247.374C285.925 247.85 286.154 248.499 286.154 249.32V254.5H284.894V249.46C284.894 248.909 284.744 248.489 284.446 248.2C284.156 247.901 283.76 247.752 283.256 247.752C282.733 247.752 282.318 247.911 282.01 248.228C281.711 248.545 281.562 249.003 281.562 249.6V254.5H280.302ZM292.448 254.5C291.786 254.5 291.268 254.323 290.894 253.968C290.53 253.613 290.348 253.114 290.348 252.47V247.948H288.178V246.8H290.348V244.63H291.608V246.8H294.688V247.948H291.608V252.47C291.608 253.058 291.888 253.352 292.448 253.352H294.548V254.5H292.448ZM297.357 254.5V246.8H298.589V248.27H298.883L298.477 249.18C298.477 248.349 298.654 247.724 299.009 247.304C299.373 246.875 299.909 246.66 300.619 246.66C301.431 246.66 302.075 246.917 302.551 247.43C303.036 247.934 303.279 248.62 303.279 249.488V249.95H302.019V249.6C302.019 248.993 301.869 248.531 301.571 248.214C301.281 247.887 300.866 247.724 300.325 247.724C299.793 247.724 299.373 247.887 299.065 248.214C298.766 248.541 298.617 249.003 298.617 249.6V254.5H297.357ZM307.725 254.64C306.913 254.64 306.274 254.435 305.807 254.024C305.341 253.604 305.107 253.039 305.107 252.33C305.107 251.611 305.341 251.047 305.807 250.636C306.274 250.225 306.904 250.02 307.697 250.02H310.077V249.25C310.077 248.774 309.933 248.41 309.643 248.158C309.363 247.897 308.962 247.766 308.439 247.766C307.982 247.766 307.599 247.864 307.291 248.06C306.983 248.247 306.806 248.503 306.759 248.83H305.499C305.583 248.167 305.896 247.64 306.437 247.248C306.979 246.856 307.655 246.66 308.467 246.66C309.354 246.66 310.054 246.889 310.567 247.346C311.081 247.803 311.337 248.424 311.337 249.208V254.5H310.105V253.03H309.895L310.105 252.82C310.105 253.38 309.886 253.823 309.447 254.15C309.018 254.477 308.444 254.64 307.725 254.64ZM308.033 253.646C308.631 253.646 309.121 253.497 309.503 253.198C309.886 252.899 310.077 252.517 310.077 252.05V250.958H307.725C307.305 250.958 306.974 251.075 306.731 251.308C306.489 251.541 306.367 251.859 306.367 252.26C306.367 252.689 306.512 253.03 306.801 253.282C307.1 253.525 307.511 253.646 308.033 253.646ZM316.848 254.64C316.232 254.64 315.69 254.523 315.224 254.29C314.766 254.057 314.412 253.721 314.16 253.282C313.908 252.834 313.782 252.307 313.782 251.7V249.6C313.782 248.984 313.908 248.457 314.16 248.018C314.412 247.579 314.766 247.243 315.224 247.01C315.69 246.777 316.232 246.66 316.848 246.66C317.734 246.66 318.448 246.898 318.99 247.374C319.531 247.85 319.816 248.499 319.844 249.32H318.584C318.556 248.825 318.388 248.447 318.08 248.186C317.781 247.915 317.37 247.78 316.848 247.78C316.297 247.78 315.858 247.939 315.532 248.256C315.205 248.564 315.042 249.007 315.042 249.586V251.7C315.042 252.279 315.205 252.727 315.532 253.044C315.858 253.361 316.297 253.52 316.848 253.52C317.37 253.52 317.781 253.385 318.08 253.114C318.388 252.843 318.556 252.465 318.584 251.98H319.844C319.816 252.801 319.531 253.45 318.99 253.926C318.448 254.402 317.734 254.64 316.848 254.64ZM326.026 254.5C325.364 254.5 324.846 254.323 324.472 253.968C324.108 253.613 323.926 253.114 323.926 252.47V247.948H321.756V246.8H323.926V244.63H325.186V246.8H328.266V247.948H325.186V252.47C325.186 253.058 325.466 253.352 326.026 253.352H328.126V254.5H326.026ZM333.343 254.612C332.82 254.612 332.363 254.533 331.971 254.374C331.588 254.206 331.28 253.973 331.047 253.674C330.823 253.375 330.688 253.021 330.641 252.61H331.901C331.957 252.881 332.106 253.095 332.349 253.254C332.601 253.413 332.932 253.492 333.343 253.492H333.931C334.426 253.492 334.794 253.394 335.037 253.198C335.28 252.993 335.401 252.722 335.401 252.386C335.401 252.059 335.289 251.803 335.065 251.616C334.85 251.42 334.528 251.289 334.099 251.224L333.063 251.056C332.307 250.925 331.742 250.692 331.369 250.356C331.005 250.011 330.823 249.511 330.823 248.858C330.823 248.167 331.042 247.635 331.481 247.262C331.92 246.879 332.578 246.688 333.455 246.688H333.987C334.724 246.688 335.317 246.861 335.765 247.206C336.213 247.551 336.484 248.018 336.577 248.606H335.317C335.261 248.363 335.121 248.172 334.897 248.032C334.673 247.883 334.37 247.808 333.987 247.808H333.455C332.979 247.808 332.629 247.897 332.405 248.074C332.19 248.251 332.083 248.517 332.083 248.872C332.083 249.189 332.176 249.423 332.363 249.572C332.55 249.721 332.844 249.829 333.245 249.894L334.281 250.062C335.112 250.193 335.714 250.435 336.087 250.79C336.47 251.145 336.661 251.658 336.661 252.33C336.661 253.039 336.432 253.599 335.975 254.01C335.527 254.411 334.846 254.612 333.931 254.612H333.343Z" fill="white"/>
<rect x="0.5" y="119" width="217" height="25" fill="#F3FF76"/>
<rect x="0.5" y="119" width="217" height="25" fill="#101010"/>
<rect x="0.5" y="119" width="217" height="25" stroke="#585858"/>
<path d="M11.57 136.5V127.414H8.77V126.266H15.63V127.414H12.83V136.5H11.57ZM17.6825 136.5V126.28H18.9425V128.8V130.27H19.2085L18.9425 130.564C18.9425 129.957 19.1245 129.491 19.4885 129.164C19.8525 128.828 20.3565 128.66 21.0005 128.66C21.7752 128.66 22.3912 128.898 22.8485 129.374C23.3059 129.85 23.5345 130.499 23.5345 131.32V136.5H22.2745V131.46C22.2745 130.909 22.1252 130.485 21.8265 130.186C21.5372 129.878 21.1405 129.724 20.6365 129.724C20.1139 129.724 19.6985 129.887 19.3905 130.214C19.0919 130.541 18.9425 131.003 18.9425 131.6V136.5H17.6825ZM25.9791 136.5V135.352H28.7091V129.948H26.3291V128.8H29.9691V135.352H32.5591V136.5H25.9791ZM29.1991 127.414C28.8911 127.414 28.6484 127.335 28.4711 127.176C28.2937 127.017 28.2051 126.803 28.2051 126.532C28.2051 126.252 28.2937 126.033 28.4711 125.874C28.6484 125.706 28.8911 125.622 29.1991 125.622C29.5071 125.622 29.7497 125.706 29.9271 125.874C30.1044 126.033 30.1931 126.252 30.1931 126.532C30.1931 126.803 30.1044 127.017 29.9271 127.176C29.7497 127.335 29.5071 127.414 29.1991 127.414ZM34.7376 136.5V128.8H35.9696V130.27H36.2636L35.8576 131.18C35.8576 130.349 36.0349 129.724 36.3896 129.304C36.7536 128.875 37.2903 128.66 37.9996 128.66C38.8116 128.66 39.4556 128.917 39.9316 129.43C40.4169 129.934 40.6596 130.62 40.6596 131.488V131.95H39.3996V131.6C39.3996 130.993 39.2503 130.531 38.9516 130.214C38.6623 129.887 38.2469 129.724 37.7056 129.724C37.1736 129.724 36.7536 129.887 36.4456 130.214C36.1469 130.541 35.9976 131.003 35.9976 131.6V136.5H34.7376ZM45.3301 136.64C44.5648 136.64 43.9441 136.383 43.4681 135.87C43.0015 135.357 42.7681 134.661 42.7681 133.784V131.53C42.7681 130.643 43.0015 129.943 43.4681 129.43C43.9348 128.917 44.5555 128.66 45.3301 128.66C45.9648 128.66 46.4735 128.833 46.8561 129.178C47.2388 129.523 47.4301 129.985 47.4301 130.564L47.1781 130.27H47.4581L47.4301 128.52V126.28H48.6901V136.5H47.4301V135.03H47.1781L47.4301 134.736C47.4301 135.324 47.2388 135.791 46.8561 136.136C46.4735 136.472 45.9648 136.64 45.3301 136.64ZM45.7501 135.548C46.2728 135.548 46.6835 135.385 46.9821 135.058C47.2808 134.731 47.4301 134.279 47.4301 133.7V131.6C47.4301 131.021 47.2808 130.569 46.9821 130.242C46.6835 129.915 46.2728 129.752 45.7501 129.752C45.2181 129.752 44.7981 129.911 44.4901 130.228C44.1821 130.545 44.0281 131.003 44.0281 131.6V133.7C44.0281 134.297 44.1821 134.755 44.4901 135.072C44.7981 135.389 45.2181 135.548 45.7501 135.548ZM59.6552 136.5V126.28H62.9452C63.5799 126.28 64.1305 126.406 64.5972 126.658C65.0639 126.901 65.4232 127.246 65.6752 127.694C65.9365 128.142 66.0672 128.674 66.0672 129.29C66.0672 129.897 65.9365 130.429 65.6752 130.886C65.4232 131.334 65.0639 131.684 64.5972 131.936C64.1305 132.179 63.5799 132.3 62.9452 132.3H60.9152V136.5H59.6552ZM60.9152 131.166H62.9452C63.4959 131.166 63.9345 130.998 64.2612 130.662C64.5972 130.317 64.7652 129.859 64.7652 129.29C64.7652 128.711 64.5972 128.254 64.2612 127.918C63.9345 127.582 63.4959 127.414 62.9452 127.414H60.9152V131.166ZM70.2897 136.64C69.4777 136.64 68.8384 136.435 68.3717 136.024C67.9051 135.604 67.6717 135.039 67.6717 134.33C67.6717 133.611 67.9051 133.047 68.3717 132.636C68.8384 132.225 69.4684 132.02 70.2617 132.02H72.6417V131.25C72.6417 130.774 72.4971 130.41 72.2077 130.158C71.9277 129.897 71.5264 129.766 71.0037 129.766C70.5464 129.766 70.1637 129.864 69.8557 130.06C69.5477 130.247 69.3704 130.503 69.3237 130.83H68.0637C68.1477 130.167 68.4604 129.64 69.0017 129.248C69.5431 128.856 70.2197 128.66 71.0317 128.66C71.9184 128.66 72.6184 128.889 73.1317 129.346C73.6451 129.803 73.9017 130.424 73.9017 131.208V136.5H72.6697V135.03H72.4597L72.6697 134.82C72.6697 135.38 72.4504 135.823 72.0117 136.15C71.5824 136.477 71.0084 136.64 70.2897 136.64ZM70.5977 135.646C71.1951 135.646 71.6851 135.497 72.0677 135.198C72.4504 134.899 72.6417 134.517 72.6417 134.05V132.958H70.2897C69.8697 132.958 69.5384 133.075 69.2957 133.308C69.0531 133.541 68.9317 133.859 68.9317 134.26C68.9317 134.689 69.0764 135.03 69.3657 135.282C69.6644 135.525 70.0751 135.646 70.5977 135.646ZM76.7103 136.5V128.8H77.9423V130.27H78.2363L77.8303 131.18C77.8303 130.349 78.0076 129.724 78.3623 129.304C78.7263 128.875 79.2629 128.66 79.9723 128.66C80.7843 128.66 81.4283 128.917 81.9043 129.43C82.3896 129.934 82.6323 130.62 82.6323 131.488V131.95H81.3723V131.6C81.3723 130.993 81.2229 130.531 80.9243 130.214C80.6349 129.887 80.2196 129.724 79.6783 129.724C79.1463 129.724 78.7263 129.887 78.4183 130.214C78.1196 130.541 77.9703 131.003 77.9703 131.6V136.5H76.7103ZM88.5908 136.5C87.9281 136.5 87.4101 136.323 87.0368 135.968C86.6728 135.613 86.4908 135.114 86.4908 134.47V129.948H84.3208V128.8H86.4908V126.63H87.7508V128.8H90.8308V129.948H87.7508V134.47C87.7508 135.058 88.0308 135.352 88.5908 135.352H90.6908V136.5H88.5908ZM94.4373 139.02L95.5713 136.024L92.7153 128.8H94.1153L95.9073 133.56C95.9726 133.719 96.0333 133.91 96.0893 134.134C96.1453 134.349 96.192 134.531 96.2293 134.68C96.2666 134.531 96.3133 134.349 96.3693 134.134C96.4253 133.91 96.4813 133.719 96.5373 133.56L98.2173 128.8H99.5753L95.7813 139.02H94.4373ZM110.204 136.5V135.352H112.29V127.428H110.204V126.28H115.664V127.428H113.578V135.352H115.664V136.5H110.204ZM118.417 136.5V128.8H119.677V130.27H119.943L119.677 130.564C119.677 129.957 119.859 129.491 120.223 129.164C120.587 128.828 121.091 128.66 121.735 128.66C122.51 128.66 123.126 128.898 123.583 129.374C124.04 129.85 124.269 130.499 124.269 131.32V136.5H123.009V131.46C123.009 130.909 122.86 130.489 122.561 130.2C122.272 129.901 121.875 129.752 121.371 129.752C120.848 129.752 120.433 129.911 120.125 130.228C119.826 130.545 119.677 131.003 119.677 131.6V136.5H118.417ZM130.563 136.5C129.901 136.5 129.383 136.323 129.009 135.968C128.645 135.613 128.463 135.114 128.463 134.47V129.948H126.293V128.8H128.463V126.63H129.723V128.8H132.803V129.948H129.723V134.47C129.723 135.058 130.003 135.352 130.563 135.352H132.663V136.5H130.563ZM138.118 136.64C137.511 136.64 136.979 136.519 136.522 136.276C136.074 136.033 135.724 135.693 135.472 135.254C135.229 134.806 135.108 134.288 135.108 133.7V131.6C135.108 131.003 135.229 130.485 135.472 130.046C135.724 129.607 136.074 129.267 136.522 129.024C136.979 128.781 137.511 128.66 138.118 128.66C138.725 128.66 139.252 128.781 139.7 129.024C140.157 129.267 140.507 129.607 140.75 130.046C141.002 130.485 141.128 131.003 141.128 131.6V132.958H136.34V133.7C136.34 134.307 136.494 134.773 136.802 135.1C137.11 135.417 137.549 135.576 138.118 135.576C138.603 135.576 138.995 135.492 139.294 135.324C139.593 135.147 139.775 134.885 139.84 134.54H141.1C141.016 135.184 140.699 135.697 140.148 136.08C139.607 136.453 138.93 136.64 138.118 136.64ZM139.896 132.118V131.6C139.896 130.993 139.742 130.527 139.434 130.2C139.135 129.873 138.697 129.71 138.118 129.71C137.549 129.71 137.11 129.873 136.802 130.2C136.494 130.527 136.34 130.993 136.34 131.6V132.006H139.994L139.896 132.118ZM144.567 139.02V137.872H147.017C147.409 137.872 147.693 137.783 147.871 137.606C148.057 137.429 148.151 137.153 148.151 136.78V135.8L148.179 134.4H147.927L148.165 134.19C148.165 134.75 147.978 135.193 147.605 135.52C147.231 135.847 146.732 136.01 146.107 136.01C145.313 136.01 144.688 135.753 144.231 135.24C143.773 134.717 143.545 134.017 143.545 133.14V131.516C143.545 130.639 143.773 129.943 144.231 129.43C144.688 128.917 145.313 128.66 146.107 128.66C146.732 128.66 147.231 128.823 147.605 129.15C147.978 129.477 148.165 129.92 148.165 130.48L147.927 130.27H148.165V128.8H149.411V136.78C149.411 137.471 149.196 138.017 148.767 138.418C148.347 138.819 147.759 139.02 147.003 139.02H144.567ZM146.485 134.918C147.007 134.918 147.418 134.755 147.717 134.428C148.015 134.101 148.165 133.649 148.165 133.07V131.6C148.165 131.021 148.015 130.569 147.717 130.242C147.418 129.915 147.007 129.752 146.485 129.752C145.953 129.752 145.537 129.911 145.239 130.228C144.949 130.545 144.805 131.003 144.805 131.6V133.07C144.805 133.667 144.949 134.125 145.239 134.442C145.537 134.759 145.953 134.918 146.485 134.918ZM152.261 136.5V128.8H153.493V130.27H153.787L153.381 131.18C153.381 130.349 153.558 129.724 153.913 129.304C154.277 128.875 154.814 128.66 155.523 128.66C156.335 128.66 156.979 128.917 157.455 129.43C157.94 129.934 158.183 130.62 158.183 131.488V131.95H156.923V131.6C156.923 130.993 156.774 130.531 156.475 130.214C156.186 129.887 155.77 129.724 155.229 129.724C154.697 129.724 154.277 129.887 153.969 130.214C153.67 130.541 153.521 131.003 153.521 131.6V136.5H152.261ZM162.63 136.64C161.818 136.64 161.178 136.435 160.712 136.024C160.245 135.604 160.012 135.039 160.012 134.33C160.012 133.611 160.245 133.047 160.712 132.636C161.178 132.225 161.808 132.02 162.602 132.02H164.982V131.25C164.982 130.774 164.837 130.41 164.548 130.158C164.268 129.897 163.866 129.766 163.344 129.766C162.886 129.766 162.504 129.864 162.196 130.06C161.888 130.247 161.71 130.503 161.664 130.83H160.404C160.488 130.167 160.8 129.64 161.342 129.248C161.883 128.856 162.56 128.66 163.372 128.66C164.258 128.66 164.958 128.889 165.472 129.346C165.985 129.803 166.242 130.424 166.242 131.208V136.5H165.01V135.03H164.8L165.01 134.82C165.01 135.38 164.79 135.823 164.352 136.15C163.922 136.477 163.348 136.64 162.63 136.64ZM162.938 135.646C163.535 135.646 164.025 135.497 164.408 135.198C164.79 134.899 164.982 134.517 164.982 134.05V132.958H162.63C162.21 132.958 161.878 133.075 161.636 133.308C161.393 133.541 161.272 133.859 161.272 134.26C161.272 134.689 161.416 135.03 161.706 135.282C162.004 135.525 162.415 135.646 162.938 135.646ZM172.536 136.5C171.873 136.5 171.355 136.323 170.982 135.968C170.618 135.613 170.436 135.114 170.436 134.47V129.948H168.266V128.8H170.436V126.63H171.696V128.8H174.776V129.948H171.696V134.47C171.696 135.058 171.976 135.352 172.536 135.352H174.636V136.5H172.536ZM177.081 136.5V135.352H179.811V129.948H177.431V128.8H181.071V135.352H183.661V136.5H177.081ZM180.301 127.414C179.993 127.414 179.75 127.335 179.573 127.176C179.395 127.017 179.307 126.803 179.307 126.532C179.307 126.252 179.395 126.033 179.573 125.874C179.75 125.706 179.993 125.622 180.301 125.622C180.609 125.622 180.851 125.706 181.029 125.874C181.206 126.033 181.295 126.252 181.295 126.532C181.295 126.803 181.206 127.017 181.029 127.176C180.851 127.335 180.609 127.414 180.301 127.414ZM188.485 136.612C187.869 136.612 187.337 136.495 186.889 136.262C186.441 136.029 186.091 135.693 185.839 135.254C185.596 134.806 185.475 134.279 185.475 133.672V131.628C185.475 131.012 185.596 130.485 185.839 130.046C186.091 129.607 186.441 129.271 186.889 129.038C187.337 128.805 187.869 128.688 188.485 128.688C189.101 128.688 189.633 128.805 190.081 129.038C190.529 129.271 190.874 129.607 191.117 130.046C191.369 130.485 191.495 131.007 191.495 131.614V133.672C191.495 134.279 191.369 134.806 191.117 135.254C190.874 135.693 190.529 136.029 190.081 136.262C189.633 136.495 189.101 136.612 188.485 136.612ZM188.485 135.492C189.036 135.492 189.465 135.338 189.773 135.03C190.081 134.722 190.235 134.269 190.235 133.672V131.628C190.235 131.031 190.081 130.578 189.773 130.27C189.465 129.962 189.036 129.808 188.485 129.808C187.944 129.808 187.514 129.962 187.197 130.27C186.889 130.578 186.735 131.031 186.735 131.628V133.672C186.735 134.269 186.889 134.722 187.197 135.03C187.514 135.338 187.944 135.492 188.485 135.492ZM193.968 136.5V128.8H195.228V130.27H195.494L195.228 130.564C195.228 129.957 195.41 129.491 195.774 129.164C196.138 128.828 196.642 128.66 197.286 128.66C198.06 128.66 198.676 128.898 199.134 129.374C199.591 129.85 199.82 130.499 199.82 131.32V136.5H198.56V131.46C198.56 130.909 198.41 130.489 198.112 130.2C197.822 129.901 197.426 129.752 196.922 129.752C196.399 129.752 195.984 129.911 195.676 130.228C195.377 130.545 195.228 131.003 195.228 131.6V136.5H193.968ZM205.036 136.612C204.514 136.612 204.056 136.533 203.664 136.374C203.282 136.206 202.974 135.973 202.74 135.674C202.516 135.375 202.381 135.021 202.334 134.61H203.594C203.65 134.881 203.8 135.095 204.042 135.254C204.294 135.413 204.626 135.492 205.036 135.492H205.624C206.119 135.492 206.488 135.394 206.73 135.198C206.973 134.993 207.094 134.722 207.094 134.386C207.094 134.059 206.982 133.803 206.758 133.616C206.544 133.42 206.222 133.289 205.792 133.224L204.756 133.056C204 132.925 203.436 132.692 203.062 132.356C202.698 132.011 202.516 131.511 202.516 130.858C202.516 130.167 202.736 129.635 203.174 129.262C203.613 128.879 204.271 128.688 205.148 128.688H205.68C206.418 128.688 207.01 128.861 207.458 129.206C207.906 129.551 208.177 130.018 208.27 130.606H207.01C206.954 130.363 206.814 130.172 206.59 130.032C206.366 129.883 206.063 129.808 205.68 129.808H205.148C204.672 129.808 204.322 129.897 204.098 130.074C203.884 130.251 203.776 130.517 203.776 130.872C203.776 131.189 203.87 131.423 204.056 131.572C204.243 131.721 204.537 131.829 204.938 131.894L205.974 132.062C206.805 132.193 207.407 132.435 207.78 132.79C208.163 133.145 208.354 133.658 208.354 134.33C208.354 135.039 208.126 135.599 207.668 136.01C207.22 136.411 206.539 136.612 205.624 136.612H205.036Z" fill="white"/>
<path d="M178 192.5L465.5 131" stroke="black"/>
<path d="M178 192.5L465.5 131" stroke="url(#paint9_linear_336_14323)"/>
<rect x="110.5" y="191" width="175" height="25" fill="#FF9F68"/>
<rect x="110.5" y="191" width="175" height="25" fill="#101010"/>
<rect x="110.5" y="191" width="175" height="25" stroke="#585858"/>
<path d="M119.778 208.5L118.602 198.28H119.806L120.576 205.84C120.595 206.045 120.613 206.26 120.632 206.484C120.651 206.699 120.665 206.904 120.674 207.1C120.693 207.296 120.702 207.459 120.702 207.59C120.721 207.459 120.735 207.296 120.744 207.1C120.763 206.904 120.781 206.699 120.8 206.484C120.828 206.26 120.856 206.045 120.884 205.84L121.836 198.28H123.138L124.006 205.84C124.034 206.045 124.057 206.26 124.076 206.484C124.104 206.699 124.127 206.904 124.146 207.1C124.174 207.296 124.193 207.459 124.202 207.59C124.211 207.459 124.221 207.296 124.23 207.1C124.249 206.904 124.267 206.699 124.286 206.484C124.314 206.26 124.337 206.045 124.356 205.84L125.154 198.28H126.302L125.098 208.5H123.516L122.648 200.8C122.629 200.585 122.606 200.375 122.578 200.17C122.559 199.965 122.541 199.773 122.522 199.596C122.503 199.419 122.489 199.274 122.48 199.162C122.471 199.274 122.452 199.419 122.424 199.596C122.405 199.773 122.387 199.965 122.368 200.17C122.349 200.375 122.326 200.585 122.298 200.8L121.36 208.5H119.778ZM130.846 208.612C130.23 208.612 129.698 208.495 129.25 208.262C128.802 208.029 128.452 207.693 128.2 207.254C127.958 206.806 127.836 206.279 127.836 205.672V203.628C127.836 203.012 127.958 202.485 128.2 202.046C128.452 201.607 128.802 201.271 129.25 201.038C129.698 200.805 130.23 200.688 130.846 200.688C131.462 200.688 131.994 200.805 132.442 201.038C132.89 201.271 133.236 201.607 133.478 202.046C133.73 202.485 133.856 203.007 133.856 203.614V205.672C133.856 206.279 133.73 206.806 133.478 207.254C133.236 207.693 132.89 208.029 132.442 208.262C131.994 208.495 131.462 208.612 130.846 208.612ZM130.846 207.492C131.397 207.492 131.826 207.338 132.134 207.03C132.442 206.722 132.596 206.269 132.596 205.672V203.628C132.596 203.031 132.442 202.578 132.134 202.27C131.826 201.962 131.397 201.808 130.846 201.808C130.305 201.808 129.876 201.962 129.558 202.27C129.25 202.578 129.096 203.031 129.096 203.628V205.672C129.096 206.269 129.25 206.722 129.558 207.03C129.876 207.338 130.305 207.492 130.846 207.492ZM136.595 208.5V200.8H137.827V202.27H138.121L137.715 203.18C137.715 202.349 137.892 201.724 138.247 201.304C138.611 200.875 139.148 200.66 139.857 200.66C140.669 200.66 141.313 200.917 141.789 201.43C142.274 201.934 142.517 202.62 142.517 203.488V203.95H141.257V203.6C141.257 202.993 141.108 202.531 140.809 202.214C140.52 201.887 140.104 201.724 139.563 201.724C139.031 201.724 138.611 201.887 138.303 202.214C138.004 202.541 137.855 203.003 137.855 203.6V208.5H136.595ZM144.766 208.5V198.28H146.026V203.978H147.51L149.75 200.8H151.192L148.602 204.468L151.234 208.5H149.764L147.524 205.07H146.026V208.5H144.766ZM154.91 208.5V202.718H152.67V201.57H154.91V200.24C154.91 199.633 155.101 199.157 155.484 198.812C155.867 198.457 156.394 198.28 157.066 198.28H159.32V199.428H157.066C156.777 199.428 156.553 199.498 156.394 199.638C156.245 199.769 156.17 199.969 156.17 200.24V201.57H159.32V202.718H156.17V208.5H154.91ZM165.475 208.5C165.027 208.5 164.635 208.411 164.299 208.234C163.963 208.057 163.701 207.805 163.515 207.478C163.328 207.151 163.235 206.769 163.235 206.33V199.428H160.645V198.28H164.495V206.33C164.495 206.647 164.583 206.899 164.761 207.086C164.938 207.263 165.176 207.352 165.475 207.352H167.925V208.5H165.475ZM172.819 208.612C172.203 208.612 171.671 208.495 171.223 208.262C170.775 208.029 170.425 207.693 170.173 207.254C169.93 206.806 169.809 206.279 169.809 205.672V203.628C169.809 203.012 169.93 202.485 170.173 202.046C170.425 201.607 170.775 201.271 171.223 201.038C171.671 200.805 172.203 200.688 172.819 200.688C173.435 200.688 173.967 200.805 174.415 201.038C174.863 201.271 175.208 201.607 175.451 202.046C175.703 202.485 175.829 203.007 175.829 203.614V205.672C175.829 206.279 175.703 206.806 175.451 207.254C175.208 207.693 174.863 208.029 174.415 208.262C173.967 208.495 173.435 208.612 172.819 208.612ZM172.819 207.492C173.37 207.492 173.799 207.338 174.107 207.03C174.415 206.722 174.569 206.269 174.569 205.672V203.628C174.569 203.031 174.415 202.578 174.107 202.27C173.799 201.962 173.37 201.808 172.819 201.808C172.278 201.808 171.848 201.962 171.531 202.27C171.223 202.578 171.069 203.031 171.069 203.628V205.672C171.069 206.269 171.223 206.722 171.531 207.03C171.848 207.338 172.278 207.492 172.819 207.492ZM178.736 208.5L177.504 200.8H178.624L179.394 206.26C179.422 206.465 179.45 206.689 179.478 206.932C179.515 207.165 179.543 207.361 179.562 207.52C179.58 207.361 179.608 207.165 179.646 206.932C179.692 206.689 179.73 206.465 179.758 206.26L180.612 200.8H181.816L182.67 206.26C182.698 206.465 182.73 206.689 182.768 206.932C182.814 207.165 182.847 207.361 182.866 207.52C182.884 207.361 182.912 207.165 182.95 206.932C182.996 206.689 183.034 206.465 183.062 206.26L183.86 200.8H184.924L183.636 208.5H182.25L181.424 203.18C181.386 202.919 181.344 202.657 181.298 202.396C181.251 202.135 181.218 201.929 181.2 201.78C181.181 201.929 181.153 202.135 181.116 202.396C181.078 202.657 181.036 202.919 180.99 203.18L180.122 208.5H178.736ZM194.503 208.5L197.163 198.28H198.857L201.503 208.5H200.229L199.557 205.784H196.463L195.791 208.5H194.503ZM196.715 204.72H199.291L198.507 201.57C198.357 200.973 198.241 200.473 198.157 200.072C198.073 199.671 198.021 199.409 198.003 199.288C197.984 199.409 197.933 199.671 197.849 200.072C197.765 200.473 197.648 200.968 197.499 201.556L196.715 204.72ZM206.383 208.64C205.497 208.64 204.787 208.379 204.255 207.856C203.723 207.324 203.457 206.605 203.457 205.7V200.8H204.717V205.7C204.717 206.279 204.867 206.731 205.165 207.058C205.464 207.375 205.87 207.534 206.383 207.534C206.906 207.534 207.317 207.375 207.615 207.058C207.923 206.731 208.077 206.279 208.077 205.7V200.8H209.337V205.7C209.337 206.605 209.067 207.324 208.525 207.856C207.984 208.379 207.27 208.64 206.383 208.64ZM215.632 208.5C214.969 208.5 214.451 208.323 214.078 207.968C213.714 207.613 213.532 207.114 213.532 206.47V201.948H211.362V200.8H213.532V198.63H214.792V200.8H217.872V201.948H214.792V206.47C214.792 207.058 215.072 207.352 215.632 207.352H217.732V208.5H215.632ZM223.186 208.612C222.57 208.612 222.038 208.495 221.59 208.262C221.142 208.029 220.792 207.693 220.54 207.254C220.298 206.806 220.176 206.279 220.176 205.672V203.628C220.176 203.012 220.298 202.485 220.54 202.046C220.792 201.607 221.142 201.271 221.59 201.038C222.038 200.805 222.57 200.688 223.186 200.688C223.802 200.688 224.334 200.805 224.782 201.038C225.23 201.271 225.576 201.607 225.818 202.046C226.07 202.485 226.196 203.007 226.196 203.614V205.672C226.196 206.279 226.07 206.806 225.818 207.254C225.576 207.693 225.23 208.029 224.782 208.262C224.334 208.495 223.802 208.612 223.186 208.612ZM223.186 207.492C223.737 207.492 224.166 207.338 224.474 207.03C224.782 206.722 224.936 206.269 224.936 205.672V203.628C224.936 203.031 224.782 202.578 224.474 202.27C224.166 201.962 223.737 201.808 223.186 201.808C222.645 201.808 222.216 201.962 221.898 202.27C221.59 202.578 221.436 203.031 221.436 203.628V205.672C221.436 206.269 221.59 206.722 221.898 207.03C222.216 207.338 222.645 207.492 223.186 207.492ZM228.305 208.5V200.8H229.411V201.724H229.663L229.467 202.06C229.467 201.631 229.579 201.29 229.803 201.038C230.036 200.786 230.349 200.66 230.741 200.66C231.17 200.66 231.502 200.819 231.735 201.136C231.968 201.453 232.085 201.901 232.085 202.48L231.707 201.724H232.295L232.029 202.06C232.029 201.631 232.146 201.29 232.379 201.038C232.622 200.786 232.939 200.66 233.331 200.66C233.816 200.66 234.19 200.842 234.451 201.206C234.722 201.57 234.857 202.051 234.857 202.648V208.5H233.695V202.634C233.695 202.317 233.625 202.069 233.485 201.892C233.354 201.715 233.158 201.626 232.897 201.626C232.645 201.626 232.444 201.715 232.295 201.892C232.155 202.06 232.085 202.303 232.085 202.62V208.5H231.077V202.634C231.077 202.307 231.002 202.06 230.853 201.892C230.713 201.715 230.512 201.626 230.251 201.626C229.99 201.626 229.794 201.715 229.663 201.892C229.532 202.06 229.467 202.303 229.467 202.62V208.5H228.305ZM239.303 208.64C238.491 208.64 237.852 208.435 237.385 208.024C236.919 207.604 236.685 207.039 236.685 206.33C236.685 205.611 236.919 205.047 237.385 204.636C237.852 204.225 238.482 204.02 239.275 204.02H241.655V203.25C241.655 202.774 241.511 202.41 241.221 202.158C240.941 201.897 240.54 201.766 240.017 201.766C239.56 201.766 239.177 201.864 238.869 202.06C238.561 202.247 238.384 202.503 238.337 202.83H237.077C237.161 202.167 237.474 201.64 238.015 201.248C238.557 200.856 239.233 200.66 240.045 200.66C240.932 200.66 241.632 200.889 242.145 201.346C242.659 201.803 242.915 202.424 242.915 203.208V208.5H241.683V207.03H241.473L241.683 206.82C241.683 207.38 241.464 207.823 241.025 208.15C240.596 208.477 240.022 208.64 239.303 208.64ZM239.611 207.646C240.209 207.646 240.699 207.497 241.081 207.198C241.464 206.899 241.655 206.517 241.655 206.05V204.958H239.303C238.883 204.958 238.552 205.075 238.309 205.308C238.067 205.541 237.945 205.859 237.945 206.26C237.945 206.689 238.09 207.03 238.379 207.282C238.678 207.525 239.089 207.646 239.611 207.646ZM249.21 208.5C248.547 208.5 248.029 208.323 247.656 207.968C247.292 207.613 247.11 207.114 247.11 206.47V201.948H244.94V200.8H247.11V198.63H248.37V200.8H251.45V201.948H248.37V206.47C248.37 207.058 248.65 207.352 249.21 207.352H251.31V208.5H249.21ZM253.754 208.5V207.352H256.484V201.948H254.104V200.8H257.744V207.352H260.334V208.5H253.754ZM256.974 199.414C256.666 199.414 256.424 199.335 256.246 199.176C256.069 199.017 255.98 198.803 255.98 198.532C255.98 198.252 256.069 198.033 256.246 197.874C256.424 197.706 256.666 197.622 256.974 197.622C257.282 197.622 257.525 197.706 257.702 197.874C257.88 198.033 257.968 198.252 257.968 198.532C257.968 198.803 257.88 199.017 257.702 199.176C257.525 199.335 257.282 199.414 256.974 199.414ZM265.159 208.612C264.543 208.612 264.011 208.495 263.563 208.262C263.115 208.029 262.765 207.693 262.513 207.254C262.27 206.806 262.149 206.279 262.149 205.672V203.628C262.149 203.012 262.27 202.485 262.513 202.046C262.765 201.607 263.115 201.271 263.563 201.038C264.011 200.805 264.543 200.688 265.159 200.688C265.775 200.688 266.307 200.805 266.755 201.038C267.203 201.271 267.548 201.607 267.791 202.046C268.043 202.485 268.169 203.007 268.169 203.614V205.672C268.169 206.279 268.043 206.806 267.791 207.254C267.548 207.693 267.203 208.029 266.755 208.262C266.307 208.495 265.775 208.612 265.159 208.612ZM265.159 207.492C265.71 207.492 266.139 207.338 266.447 207.03C266.755 206.722 266.909 206.269 266.909 205.672V203.628C266.909 203.031 266.755 202.578 266.447 202.27C266.139 201.962 265.71 201.808 265.159 201.808C264.618 201.808 264.188 201.962 263.871 202.27C263.563 202.578 263.409 203.031 263.409 203.628V205.672C263.409 206.269 263.563 206.722 263.871 207.03C264.188 207.338 264.618 207.492 265.159 207.492ZM270.642 208.5V200.8H271.902V202.27H272.168L271.902 202.564C271.902 201.957 272.084 201.491 272.448 201.164C272.812 200.828 273.316 200.66 273.96 200.66C274.734 200.66 275.35 200.898 275.808 201.374C276.265 201.85 276.494 202.499 276.494 203.32V208.5H275.234V203.46C275.234 202.909 275.084 202.489 274.786 202.2C274.496 201.901 274.1 201.752 273.596 201.752C273.073 201.752 272.658 201.911 272.35 202.228C272.051 202.545 271.902 203.003 271.902 203.6V208.5H270.642Z" fill="white"/>
<circle cx="389.5" cy="80" r="2.5" fill="#3FC791"/>
<circle cx="366.5" cy="109" r="2.5" fill="#3FC791"/>
<circle cx="348.5" cy="130" r="2.5" fill="#3FC791"/>
<circle cx="366.5" cy="153" r="2.5" fill="#3FC791"/>
<circle cx="389.5" cy="184" r="2.5" fill="#3FC791"/>
<defs>
<linearGradient id="paint0_linear_336_14323" x1="89.5067" y1="-46.5002" x2="450.383" y2="158.522" gradientUnits="userSpaceOnUse">
<stop stop-color="#2DC484"/>
<stop offset="1" stop-color="#1E9B68"/>
</linearGradient>
<linearGradient id="paint1_linear_336_14323" x1="201.382" y1="74.6287" x2="431.283" y2="196.696" gradientUnits="userSpaceOnUse">
<stop stop-color="#585858"/>
<stop offset="1" stop-color="#20A16D"/>
</linearGradient>
<linearGradient id="paint2_linear_336_14323" x1="319" y1="34.5" x2="477.207" y2="61.6153" gradientUnits="userSpaceOnUse">
<stop stop-color="#585858"/>
<stop offset="1" stop-color="#20A16D"/>
</linearGradient>
<linearGradient id="paint3_linear_336_14323" x1="84.65" y1="131" x2="110.99" y2="254.176" gradientUnits="userSpaceOnUse">
<stop stop-color="#999999"/>
<stop offset="1" stop-color="white"/>
</linearGradient>
<linearGradient id="paint4_linear_336_14323" x1="85.0019" y1="131" x2="178.67" y2="321.669" gradientUnits="userSpaceOnUse">
<stop stop-color="#198C5B"/>
<stop offset="1" stop-color="#20A16D"/>
</linearGradient>
<linearGradient id="paint5_linear_336_14323" x1="238.661" y1="131.045" x2="239.012" y2="140.439" gradientUnits="userSpaceOnUse">
<stop stop-color="#585858"/>
<stop offset="1" stop-color="#20A16D"/>
</linearGradient>
<linearGradient id="paint6_linear_336_14323" x1="350.745" y1="131" x2="479.881" y2="212.606" gradientUnits="userSpaceOnUse">
<stop stop-color="#999999"/>
<stop offset="1" stop-color="white"/>
</linearGradient>
<linearGradient id="paint7_linear_336_14323" x1="350.851" y1="131" x2="485.22" y2="167.962" gradientUnits="userSpaceOnUse">
<stop stop-color="#198C5B"/>
<stop offset="1" stop-color="#20A16D"/>
</linearGradient>
<linearGradient id="paint8_linear_336_14323" x1="324.171" y1="135.678" x2="476.885" y2="159.88" gradientUnits="userSpaceOnUse">
<stop stop-color="#585858"/>
<stop offset="1" stop-color="#20A16D"/>
</linearGradient>
<linearGradient id="paint9_linear_336_14323" x1="193.766" y1="133.74" x2="431.134" y2="257.666" gradientUnits="userSpaceOnUse">
<stop stop-color="#585858"/>
<stop offset="1" stop-color="#20A16D"/>
</linearGradient>
</defs>
</svg>
