<svg width="1218" height="361" viewBox="0 0 1218 361" fill="none" xmlns="http://www.w3.org/2000/svg">
<g clip-path="url(#clip0_1_683)">
<g filter="url(#filter0_f_1_683)">
<ellipse cx="608.5" cy="331.5" rx="154.5" ry="171.5" fill="#33DDA0"/>
</g>
<g clip-path="url(#clip1_1_683)">
<g filter="url(#filter1_b_1_683)">
<ellipse cx="304.5" cy="215.5" rx="304.5" ry="215.5" transform="matrix(-1 0 0 1 609 201)" fill="url(#paint0_linear_1_683)" fill-opacity="0.4"/>
<path d="M1 416.5C1 475.598 34.8455 529.199 89.7637 568.065C144.679 606.93 220.597 631 304.5 631C388.403 631 464.321 606.93 519.236 568.065C574.155 529.199 608 475.598 608 416.5C608 357.402 574.155 303.801 519.236 264.935C464.321 226.07 388.403 202 304.5 202C220.597 202 144.679 226.07 89.7637 264.935C34.8455 303.801 1 357.402 1 416.5Z" stroke="url(#paint1_linear_1_683)" stroke-width="2"/>
</g>
<g filter="url(#filter2_b_1_683)">
<ellipse cx="235.5" cy="215.5" rx="235.5" ry="215.5" transform="matrix(-1 0 0 1 609 201)" fill="url(#paint2_linear_1_683)" fill-opacity="0.4"/>
<path d="M139 416.5C139 534.883 243.904 631 373.5 631C503.096 631 608 534.883 608 416.5C608 298.117 503.096 202 373.5 202C243.904 202 139 298.117 139 416.5Z" stroke="url(#paint3_linear_1_683)" stroke-width="2"/>
</g>
<g filter="url(#filter3_b_1_683)">
<ellipse cx="180.5" cy="215.5" rx="180.5" ry="215.5" transform="matrix(-1 0 0 1 609 201)" fill="url(#paint4_linear_1_683)" fill-opacity="0.4"/>
<path d="M249 416.5C249 535.138 329.524 631 428.5 631C527.476 631 608 535.138 608 416.5C608 297.862 527.476 202 428.5 202C329.524 202 249 297.862 249 416.5Z" stroke="url(#paint5_linear_1_683)" stroke-width="2"/>
</g>
<g filter="url(#filter4_b_1_683)">
<ellipse cx="133.5" cy="215.5" rx="133.5" ry="215.5" transform="matrix(-1 0 0 1 609 201)" fill="url(#paint6_linear_1_683)" fill-opacity="0.4"/>
<path d="M343 416.5C343 475.853 357.905 529.539 381.951 568.355C406.007 607.186 439.109 631 475.5 631C511.891 631 544.993 607.186 569.049 568.355C593.095 529.539 608 475.853 608 416.5C608 357.147 593.095 303.461 569.049 264.645C544.993 225.814 511.891 202 475.5 202C439.109 202 406.007 225.814 381.951 264.645C357.905 303.461 343 357.147 343 416.5Z" stroke="url(#paint7_linear_1_683)" stroke-width="2"/>
</g>
<g filter="url(#filter5_b_1_683)">
<ellipse cx="103" cy="215.5" rx="103" ry="215.5" transform="matrix(-1 0 0 1 609 201)" fill="url(#paint8_linear_1_683)" fill-opacity="0.4"/>
<path d="M404 416.5C404 475.893 415.508 529.615 434.07 568.45C452.667 607.359 478.164 631 506 631C533.836 631 559.333 607.359 577.93 568.45C596.492 529.615 608 475.893 608 416.5C608 357.107 596.492 303.385 577.93 264.55C559.333 225.641 533.836 202 506 202C478.164 202 452.667 225.641 434.07 264.55C415.508 303.385 404 357.107 404 416.5Z" stroke="url(#paint9_linear_1_683)" stroke-width="2"/>
</g>
<g filter="url(#filter6_b_1_683)">
<ellipse cx="75.5" cy="215.5" rx="75.5" ry="215.5" transform="matrix(-1 0 0 1 609 201)" fill="url(#paint10_linear_1_683)" fill-opacity="0.4"/>
<path d="M459 416.5C459 475.927 467.441 529.685 481.057 568.551C487.867 587.988 495.953 603.647 504.882 614.427C513.816 625.213 523.492 631 533.5 631C543.508 631 553.184 625.213 562.118 614.427C571.047 603.647 579.133 587.988 585.943 568.551C599.559 529.685 608 475.927 608 416.5C608 357.073 599.559 303.315 585.943 264.449C579.133 245.012 571.047 229.353 562.118 218.573C553.184 207.787 543.508 202 533.5 202C523.492 202 513.816 207.787 504.882 218.573C495.953 229.353 487.867 245.012 481.057 264.449C467.441 303.315 459 357.073 459 416.5Z" stroke="url(#paint11_linear_1_683)" stroke-width="2"/>
</g>
<g filter="url(#filter7_b_1_683)">
<ellipse cx="51.5" cy="215.5" rx="51.5" ry="215.5" transform="matrix(-1 0 0 1 609 201)" fill="url(#paint12_linear_1_683)" fill-opacity="0.4"/>
<path d="M507 416.5C507 475.954 512.76 529.747 522.057 568.649C526.707 588.108 532.229 603.785 538.325 614.573C544.465 625.442 550.983 631 557.5 631C564.017 631 570.535 625.442 576.675 614.573C582.771 603.785 588.293 588.108 592.943 568.649C602.24 529.747 608 475.954 608 416.5C608 357.046 602.24 303.253 592.943 264.351C588.293 244.892 582.771 229.215 576.675 218.427C570.535 207.558 564.017 202 557.5 202C550.983 202 544.465 207.558 538.325 218.427C532.229 229.215 526.707 244.892 522.057 264.351C512.76 303.253 507 357.046 507 416.5Z" stroke="url(#paint13_linear_1_683)" stroke-width="2"/>
</g>
<g filter="url(#filter8_b_1_683)">
<ellipse cx="33.5" cy="215.5" rx="33.5" ry="215.5" transform="matrix(-1 0 0 1 609 201)" fill="url(#paint14_linear_1_683)" fill-opacity="0.4"/>
<path d="M543 416.5C543 475.974 546.748 529.795 552.8 568.728C555.827 588.202 559.425 603.906 563.399 614.72C565.388 620.132 567.451 624.26 569.545 627.017C571.655 629.795 573.654 631 575.5 631C577.346 631 579.345 629.795 581.455 627.017C583.549 624.26 585.612 620.132 587.601 614.72C591.575 603.906 595.173 588.202 598.2 568.728C604.252 529.795 608 475.974 608 416.5C608 357.026 604.252 303.205 598.2 264.272C595.173 244.798 591.575 229.094 587.601 218.28C585.612 212.868 583.549 208.739 581.455 205.983C579.345 203.205 577.346 202 575.5 202C573.654 202 571.655 203.205 569.545 205.983C567.451 208.739 565.388 212.868 563.399 218.28C559.425 229.094 555.827 244.798 552.8 264.272C546.748 303.205 543 357.026 543 416.5Z" stroke="url(#paint15_linear_1_683)" stroke-width="2"/>
</g>
<g filter="url(#filter9_b_1_683)">
<ellipse cx="913.5" cy="416.5" rx="304.5" ry="215.5" fill="url(#paint16_linear_1_683)" fill-opacity="0.4"/>
<path d="M1217 416.5C1217 475.598 1183.15 529.199 1128.24 568.065C1073.32 606.93 997.403 631 913.5 631C829.597 631 753.679 606.93 698.764 568.065C643.845 529.199 610 475.598 610 416.5C610 357.402 643.845 303.801 698.764 264.935C753.679 226.07 829.597 202 913.5 202C997.403 202 1073.32 226.07 1128.24 264.935C1183.15 303.801 1217 357.402 1217 416.5Z" stroke="url(#paint17_linear_1_683)" stroke-width="2"/>
</g>
<g filter="url(#filter10_b_1_683)">
<ellipse cx="844.5" cy="416.5" rx="235.5" ry="215.5" fill="url(#paint18_linear_1_683)" fill-opacity="0.4"/>
<path d="M1079 416.5C1079 534.883 974.096 631 844.5 631C714.904 631 610 534.883 610 416.5C610 298.117 714.904 202 844.5 202C974.096 202 1079 298.117 1079 416.5Z" stroke="url(#paint19_linear_1_683)" stroke-width="2"/>
</g>
<g filter="url(#filter11_b_1_683)">
<ellipse cx="789.5" cy="416.5" rx="180.5" ry="215.5" fill="url(#paint20_linear_1_683)" fill-opacity="0.4"/>
<path d="M969 416.5C969 535.138 888.476 631 789.5 631C690.524 631 610 535.138 610 416.5C610 297.862 690.524 202 789.5 202C888.476 202 969 297.862 969 416.5Z" stroke="url(#paint21_linear_1_683)" stroke-width="2"/>
</g>
<g filter="url(#filter12_b_1_683)">
<ellipse cx="742.5" cy="416.5" rx="133.5" ry="215.5" fill="url(#paint22_linear_1_683)" fill-opacity="0.4"/>
<path d="M875 416.5C875 475.853 860.095 529.539 836.049 568.355C811.993 607.186 778.891 631 742.5 631C706.109 631 673.007 607.186 648.951 568.355C624.905 529.539 610 475.853 610 416.5C610 357.147 624.905 303.461 648.951 264.645C673.007 225.814 706.109 202 742.5 202C778.891 202 811.993 225.814 836.049 264.645C860.095 303.461 875 357.147 875 416.5Z" stroke="url(#paint23_linear_1_683)" stroke-width="2"/>
</g>
<g filter="url(#filter13_b_1_683)">
<ellipse cx="712" cy="416.5" rx="103" ry="215.5" fill="url(#paint24_linear_1_683)" fill-opacity="0.4"/>
<path d="M814 416.5C814 475.893 802.492 529.615 783.93 568.45C765.333 607.359 739.836 631 712 631C684.164 631 658.667 607.359 640.07 568.45C621.508 529.615 610 475.893 610 416.5C610 357.107 621.508 303.385 640.07 264.55C658.667 225.641 684.164 202 712 202C739.836 202 765.333 225.641 783.93 264.55C802.492 303.385 814 357.107 814 416.5Z" stroke="url(#paint25_linear_1_683)" stroke-width="2"/>
</g>
<g filter="url(#filter14_b_1_683)">
<ellipse cx="684.5" cy="416.5" rx="75.5" ry="215.5" fill="url(#paint26_linear_1_683)" fill-opacity="0.4"/>
<path d="M759 416.5C759 475.927 750.559 529.685 736.943 568.551C730.133 587.988 722.047 603.647 713.118 614.427C704.184 625.213 694.508 631 684.5 631C674.492 631 664.816 625.213 655.882 614.427C646.953 603.647 638.867 587.988 632.057 568.551C618.441 529.685 610 475.927 610 416.5C610 357.073 618.441 303.315 632.057 264.449C638.867 245.012 646.953 229.353 655.882 218.573C664.816 207.787 674.492 202 684.5 202C694.508 202 704.184 207.787 713.118 218.573C722.047 229.353 730.133 245.012 736.943 264.449C750.559 303.315 759 357.073 759 416.5Z" stroke="url(#paint27_linear_1_683)" stroke-width="2"/>
</g>
<g filter="url(#filter15_b_1_683)">
<ellipse cx="660.5" cy="416.5" rx="51.5" ry="215.5" fill="url(#paint28_linear_1_683)" fill-opacity="0.4"/>
<path d="M711 416.5C711 475.954 705.24 529.747 695.943 568.649C691.293 588.108 685.771 603.785 679.675 614.573C673.535 625.442 667.017 631 660.5 631C653.983 631 647.465 625.442 641.325 614.573C635.229 603.785 629.707 588.108 625.057 568.649C615.76 529.747 610 475.954 610 416.5C610 357.046 615.76 303.253 625.057 264.351C629.707 244.892 635.229 229.215 641.325 218.427C647.465 207.558 653.983 202 660.5 202C667.017 202 673.535 207.558 679.675 218.427C685.771 229.215 691.293 244.892 695.943 264.351C705.24 303.253 711 357.046 711 416.5Z" stroke="url(#paint29_linear_1_683)" stroke-width="2"/>
</g>
<g filter="url(#filter16_b_1_683)">
<ellipse cx="642.5" cy="416.5" rx="33.5" ry="215.5" fill="url(#paint30_linear_1_683)" fill-opacity="0.4"/>
<path d="M675 416.5C675 475.974 671.252 529.795 665.2 568.728C662.173 588.202 658.575 603.906 654.601 614.72C652.612 620.132 650.549 624.26 648.455 627.017C646.345 629.795 644.346 631 642.5 631C640.654 631 638.655 629.795 636.545 627.017C634.451 624.26 632.388 620.132 630.399 614.72C626.425 603.906 622.827 588.202 619.8 568.728C613.748 529.795 610 475.974 610 416.5C610 357.026 613.748 303.205 619.8 264.272C622.827 244.798 626.425 229.094 630.399 218.28C632.388 212.868 634.451 208.739 636.545 205.983C638.655 203.205 640.654 202 642.5 202C644.346 202 646.345 203.205 648.455 205.983C650.549 208.739 652.612 212.868 654.601 218.28C658.575 229.094 662.173 244.798 665.2 264.272C671.252 303.205 675 357.026 675 416.5Z" stroke="url(#paint31_linear_1_683)" stroke-width="2"/>
</g>
</g>
</g>
<defs>
<filter id="filter0_f_1_683" x="277.2" y="-16.8" width="662.6" height="696.6" filterUnits="userSpaceOnUse" color-interpolation-filters="sRGB">
<feFlood flood-opacity="0" result="BackgroundImageFix"/>
<feBlend mode="normal" in="SourceGraphic" in2="BackgroundImageFix" result="shape"/>
<feGaussianBlur stdDeviation="88.4" result="effect1_foregroundBlur_1_683"/>
</filter>
<filter id="filter1_b_1_683" x="-4" y="197" width="617" height="439" filterUnits="userSpaceOnUse" color-interpolation-filters="sRGB">
<feFlood flood-opacity="0" result="BackgroundImageFix"/>
<feGaussianBlur in="BackgroundImageFix" stdDeviation="2"/>
<feComposite in2="SourceAlpha" operator="in" result="effect1_backgroundBlur_1_683"/>
<feBlend mode="normal" in="SourceGraphic" in2="effect1_backgroundBlur_1_683" result="shape"/>
</filter>
<filter id="filter2_b_1_683" x="134" y="197" width="479" height="439" filterUnits="userSpaceOnUse" color-interpolation-filters="sRGB">
<feFlood flood-opacity="0" result="BackgroundImageFix"/>
<feGaussianBlur in="BackgroundImageFix" stdDeviation="2"/>
<feComposite in2="SourceAlpha" operator="in" result="effect1_backgroundBlur_1_683"/>
<feBlend mode="normal" in="SourceGraphic" in2="effect1_backgroundBlur_1_683" result="shape"/>
</filter>
<filter id="filter3_b_1_683" x="244" y="197" width="369" height="439" filterUnits="userSpaceOnUse" color-interpolation-filters="sRGB">
<feFlood flood-opacity="0" result="BackgroundImageFix"/>
<feGaussianBlur in="BackgroundImageFix" stdDeviation="2"/>
<feComposite in2="SourceAlpha" operator="in" result="effect1_backgroundBlur_1_683"/>
<feBlend mode="normal" in="SourceGraphic" in2="effect1_backgroundBlur_1_683" result="shape"/>
</filter>
<filter id="filter4_b_1_683" x="338" y="197" width="275" height="439" filterUnits="userSpaceOnUse" color-interpolation-filters="sRGB">
<feFlood flood-opacity="0" result="BackgroundImageFix"/>
<feGaussianBlur in="BackgroundImageFix" stdDeviation="2"/>
<feComposite in2="SourceAlpha" operator="in" result="effect1_backgroundBlur_1_683"/>
<feBlend mode="normal" in="SourceGraphic" in2="effect1_backgroundBlur_1_683" result="shape"/>
</filter>
<filter id="filter5_b_1_683" x="399" y="197" width="214" height="439" filterUnits="userSpaceOnUse" color-interpolation-filters="sRGB">
<feFlood flood-opacity="0" result="BackgroundImageFix"/>
<feGaussianBlur in="BackgroundImageFix" stdDeviation="2"/>
<feComposite in2="SourceAlpha" operator="in" result="effect1_backgroundBlur_1_683"/>
<feBlend mode="normal" in="SourceGraphic" in2="effect1_backgroundBlur_1_683" result="shape"/>
</filter>
<filter id="filter6_b_1_683" x="454" y="197" width="159" height="439" filterUnits="userSpaceOnUse" color-interpolation-filters="sRGB">
<feFlood flood-opacity="0" result="BackgroundImageFix"/>
<feGaussianBlur in="BackgroundImageFix" stdDeviation="2"/>
<feComposite in2="SourceAlpha" operator="in" result="effect1_backgroundBlur_1_683"/>
<feBlend mode="normal" in="SourceGraphic" in2="effect1_backgroundBlur_1_683" result="shape"/>
</filter>
<filter id="filter7_b_1_683" x="502" y="197" width="111" height="439" filterUnits="userSpaceOnUse" color-interpolation-filters="sRGB">
<feFlood flood-opacity="0" result="BackgroundImageFix"/>
<feGaussianBlur in="BackgroundImageFix" stdDeviation="2"/>
<feComposite in2="SourceAlpha" operator="in" result="effect1_backgroundBlur_1_683"/>
<feBlend mode="normal" in="SourceGraphic" in2="effect1_backgroundBlur_1_683" result="shape"/>
</filter>
<filter id="filter8_b_1_683" x="538" y="197" width="75" height="439" filterUnits="userSpaceOnUse" color-interpolation-filters="sRGB">
<feFlood flood-opacity="0" result="BackgroundImageFix"/>
<feGaussianBlur in="BackgroundImageFix" stdDeviation="2"/>
<feComposite in2="SourceAlpha" operator="in" result="effect1_backgroundBlur_1_683"/>
<feBlend mode="normal" in="SourceGraphic" in2="effect1_backgroundBlur_1_683" result="shape"/>
</filter>
<filter id="filter9_b_1_683" x="605" y="197" width="617" height="439" filterUnits="userSpaceOnUse" color-interpolation-filters="sRGB">
<feFlood flood-opacity="0" result="BackgroundImageFix"/>
<feGaussianBlur in="BackgroundImageFix" stdDeviation="2"/>
<feComposite in2="SourceAlpha" operator="in" result="effect1_backgroundBlur_1_683"/>
<feBlend mode="normal" in="SourceGraphic" in2="effect1_backgroundBlur_1_683" result="shape"/>
</filter>
<filter id="filter10_b_1_683" x="605" y="197" width="479" height="439" filterUnits="userSpaceOnUse" color-interpolation-filters="sRGB">
<feFlood flood-opacity="0" result="BackgroundImageFix"/>
<feGaussianBlur in="BackgroundImageFix" stdDeviation="2"/>
<feComposite in2="SourceAlpha" operator="in" result="effect1_backgroundBlur_1_683"/>
<feBlend mode="normal" in="SourceGraphic" in2="effect1_backgroundBlur_1_683" result="shape"/>
</filter>
<filter id="filter11_b_1_683" x="605" y="197" width="369" height="439" filterUnits="userSpaceOnUse" color-interpolation-filters="sRGB">
<feFlood flood-opacity="0" result="BackgroundImageFix"/>
<feGaussianBlur in="BackgroundImageFix" stdDeviation="2"/>
<feComposite in2="SourceAlpha" operator="in" result="effect1_backgroundBlur_1_683"/>
<feBlend mode="normal" in="SourceGraphic" in2="effect1_backgroundBlur_1_683" result="shape"/>
</filter>
<filter id="filter12_b_1_683" x="605" y="197" width="275" height="439" filterUnits="userSpaceOnUse" color-interpolation-filters="sRGB">
<feFlood flood-opacity="0" result="BackgroundImageFix"/>
<feGaussianBlur in="BackgroundImageFix" stdDeviation="2"/>
<feComposite in2="SourceAlpha" operator="in" result="effect1_backgroundBlur_1_683"/>
<feBlend mode="normal" in="SourceGraphic" in2="effect1_backgroundBlur_1_683" result="shape"/>
</filter>
<filter id="filter13_b_1_683" x="605" y="197" width="214" height="439" filterUnits="userSpaceOnUse" color-interpolation-filters="sRGB">
<feFlood flood-opacity="0" result="BackgroundImageFix"/>
<feGaussianBlur in="BackgroundImageFix" stdDeviation="2"/>
<feComposite in2="SourceAlpha" operator="in" result="effect1_backgroundBlur_1_683"/>
<feBlend mode="normal" in="SourceGraphic" in2="effect1_backgroundBlur_1_683" result="shape"/>
</filter>
<filter id="filter14_b_1_683" x="605" y="197" width="159" height="439" filterUnits="userSpaceOnUse" color-interpolation-filters="sRGB">
<feFlood flood-opacity="0" result="BackgroundImageFix"/>
<feGaussianBlur in="BackgroundImageFix" stdDeviation="2"/>
<feComposite in2="SourceAlpha" operator="in" result="effect1_backgroundBlur_1_683"/>
<feBlend mode="normal" in="SourceGraphic" in2="effect1_backgroundBlur_1_683" result="shape"/>
</filter>
<filter id="filter15_b_1_683" x="605" y="197" width="111" height="439" filterUnits="userSpaceOnUse" color-interpolation-filters="sRGB">
<feFlood flood-opacity="0" result="BackgroundImageFix"/>
<feGaussianBlur in="BackgroundImageFix" stdDeviation="2"/>
<feComposite in2="SourceAlpha" operator="in" result="effect1_backgroundBlur_1_683"/>
<feBlend mode="normal" in="SourceGraphic" in2="effect1_backgroundBlur_1_683" result="shape"/>
</filter>
<filter id="filter16_b_1_683" x="605" y="197" width="75" height="439" filterUnits="userSpaceOnUse" color-interpolation-filters="sRGB">
<feFlood flood-opacity="0" result="BackgroundImageFix"/>
<feGaussianBlur in="BackgroundImageFix" stdDeviation="2"/>
<feComposite in2="SourceAlpha" operator="in" result="effect1_backgroundBlur_1_683"/>
<feBlend mode="normal" in="SourceGraphic" in2="effect1_backgroundBlur_1_683" result="shape"/>
</filter>
<linearGradient id="paint0_linear_1_683" x1="609" y1="215.5" x2="0" y2="215.5" gradientUnits="userSpaceOnUse">
<stop stop-color="#444444"/>
<stop offset="0.66" stop-color="#1E1E1E"/>
</linearGradient>
<linearGradient id="paint1_linear_1_683" x1="0" y1="416.5" x2="609" y2="416.5" gradientUnits="userSpaceOnUse">
<stop stop-color="#666666"/>
<stop offset="0.65" stop-color="#0A0A0A"/>
</linearGradient>
<linearGradient id="paint2_linear_1_683" x1="471" y1="215.5" x2="0" y2="215.5" gradientUnits="userSpaceOnUse">
<stop stop-color="#444444"/>
<stop offset="0.66" stop-color="#1E1E1E"/>
</linearGradient>
<linearGradient id="paint3_linear_1_683" x1="138" y1="416.5" x2="609" y2="416.5" gradientUnits="userSpaceOnUse">
<stop stop-color="#666666"/>
<stop offset="0.65" stop-color="#0A0A0A"/>
</linearGradient>
<linearGradient id="paint4_linear_1_683" x1="361" y1="215.5" x2="0" y2="215.5" gradientUnits="userSpaceOnUse">
<stop stop-color="#444444"/>
<stop offset="0.66" stop-color="#1E1E1E"/>
</linearGradient>
<linearGradient id="paint5_linear_1_683" x1="248" y1="416.5" x2="609" y2="416.5" gradientUnits="userSpaceOnUse">
<stop stop-color="#666666"/>
<stop offset="0.65" stop-color="#0A0A0A"/>
</linearGradient>
<linearGradient id="paint6_linear_1_683" x1="267" y1="215.5" x2="0" y2="215.5" gradientUnits="userSpaceOnUse">
<stop stop-color="#444444"/>
<stop offset="0.66" stop-color="#1E1E1E"/>
</linearGradient>
<linearGradient id="paint7_linear_1_683" x1="342" y1="416.5" x2="609" y2="416.5" gradientUnits="userSpaceOnUse">
<stop stop-color="#666666"/>
<stop offset="0.65" stop-color="#0A0A0A"/>
</linearGradient>
<linearGradient id="paint8_linear_1_683" x1="206" y1="215.5" x2="0" y2="215.5" gradientUnits="userSpaceOnUse">
<stop stop-color="#444444"/>
<stop offset="0.66" stop-color="#1E1E1E"/>
</linearGradient>
<linearGradient id="paint9_linear_1_683" x1="403" y1="416.5" x2="609" y2="416.5" gradientUnits="userSpaceOnUse">
<stop stop-color="#666666"/>
<stop offset="0.65" stop-color="#0A0A0A"/>
</linearGradient>
<linearGradient id="paint10_linear_1_683" x1="151" y1="215.5" x2="0" y2="215.5" gradientUnits="userSpaceOnUse">
<stop stop-color="#444444"/>
<stop offset="0.66" stop-color="#1E1E1E"/>
</linearGradient>
<linearGradient id="paint11_linear_1_683" x1="458" y1="416.5" x2="609" y2="416.5" gradientUnits="userSpaceOnUse">
<stop stop-color="#666666"/>
<stop offset="0.65" stop-color="#0A0A0A"/>
</linearGradient>
<linearGradient id="paint12_linear_1_683" x1="103" y1="215.5" x2="0" y2="215.5" gradientUnits="userSpaceOnUse">
<stop stop-color="#444444"/>
<stop offset="0.66" stop-color="#1E1E1E"/>
</linearGradient>
<linearGradient id="paint13_linear_1_683" x1="506" y1="416.5" x2="609" y2="416.5" gradientUnits="userSpaceOnUse">
<stop stop-color="#666666"/>
<stop offset="0.65" stop-color="#0A0A0A"/>
</linearGradient>
<linearGradient id="paint14_linear_1_683" x1="67" y1="215.5" x2="0" y2="215.5" gradientUnits="userSpaceOnUse">
<stop stop-color="#444444"/>
<stop offset="0.66" stop-color="#1E1E1E"/>
</linearGradient>
<linearGradient id="paint15_linear_1_683" x1="542" y1="416.5" x2="609" y2="416.5" gradientUnits="userSpaceOnUse">
<stop stop-color="#666666"/>
<stop offset="0.65" stop-color="#0A0A0A"/>
</linearGradient>
<linearGradient id="paint16_linear_1_683" x1="1218" y1="416.5" x2="609" y2="416.5" gradientUnits="userSpaceOnUse">
<stop stop-color="#444444"/>
<stop offset="0.66" stop-color="#1E1E1E"/>
</linearGradient>
<linearGradient id="paint17_linear_1_683" x1="1218" y1="416.5" x2="609" y2="416.5" gradientUnits="userSpaceOnUse">
<stop stop-color="#666666"/>
<stop offset="0.65" stop-color="#0A0A0A"/>
</linearGradient>
<linearGradient id="paint18_linear_1_683" x1="1080" y1="416.5" x2="609" y2="416.5" gradientUnits="userSpaceOnUse">
<stop stop-color="#444444"/>
<stop offset="0.66" stop-color="#1E1E1E"/>
</linearGradient>
<linearGradient id="paint19_linear_1_683" x1="1080" y1="416.5" x2="609" y2="416.5" gradientUnits="userSpaceOnUse">
<stop stop-color="#666666"/>
<stop offset="0.65" stop-color="#0A0A0A"/>
</linearGradient>
<linearGradient id="paint20_linear_1_683" x1="970" y1="416.5" x2="609" y2="416.5" gradientUnits="userSpaceOnUse">
<stop stop-color="#444444"/>
<stop offset="0.66" stop-color="#1E1E1E"/>
</linearGradient>
<linearGradient id="paint21_linear_1_683" x1="970" y1="416.5" x2="609" y2="416.5" gradientUnits="userSpaceOnUse">
<stop stop-color="#666666"/>
<stop offset="0.65" stop-color="#0A0A0A"/>
</linearGradient>
<linearGradient id="paint22_linear_1_683" x1="876" y1="416.5" x2="609" y2="416.5" gradientUnits="userSpaceOnUse">
<stop stop-color="#444444"/>
<stop offset="0.66" stop-color="#1E1E1E"/>
</linearGradient>
<linearGradient id="paint23_linear_1_683" x1="876" y1="416.5" x2="609" y2="416.5" gradientUnits="userSpaceOnUse">
<stop stop-color="#666666"/>
<stop offset="0.65" stop-color="#0A0A0A"/>
</linearGradient>
<linearGradient id="paint24_linear_1_683" x1="815" y1="416.5" x2="609" y2="416.5" gradientUnits="userSpaceOnUse">
<stop stop-color="#444444"/>
<stop offset="0.66" stop-color="#1E1E1E"/>
</linearGradient>
<linearGradient id="paint25_linear_1_683" x1="815" y1="416.5" x2="609" y2="416.5" gradientUnits="userSpaceOnUse">
<stop stop-color="#666666"/>
<stop offset="0.65" stop-color="#0A0A0A"/>
</linearGradient>
<linearGradient id="paint26_linear_1_683" x1="760" y1="416.5" x2="609" y2="416.5" gradientUnits="userSpaceOnUse">
<stop stop-color="#444444"/>
<stop offset="0.66" stop-color="#1E1E1E"/>
</linearGradient>
<linearGradient id="paint27_linear_1_683" x1="760" y1="416.5" x2="609" y2="416.5" gradientUnits="userSpaceOnUse">
<stop stop-color="#666666"/>
<stop offset="0.65" stop-color="#0A0A0A"/>
</linearGradient>
<linearGradient id="paint28_linear_1_683" x1="712" y1="416.5" x2="609" y2="416.5" gradientUnits="userSpaceOnUse">
<stop stop-color="#444444"/>
<stop offset="0.66" stop-color="#1E1E1E"/>
</linearGradient>
<linearGradient id="paint29_linear_1_683" x1="712" y1="416.5" x2="609" y2="416.5" gradientUnits="userSpaceOnUse">
<stop stop-color="#666666"/>
<stop offset="0.65" stop-color="#0A0A0A"/>
</linearGradient>
<linearGradient id="paint30_linear_1_683" x1="676" y1="416.5" x2="609" y2="416.5" gradientUnits="userSpaceOnUse">
<stop stop-color="#444444"/>
<stop offset="0.66" stop-color="#1E1E1E"/>
</linearGradient>
<linearGradient id="paint31_linear_1_683" x1="676" y1="416.5" x2="609" y2="416.5" gradientUnits="userSpaceOnUse">
<stop stop-color="#666666"/>
<stop offset="0.65" stop-color="#0A0A0A"/>
</linearGradient>
<clipPath id="clip0_1_683">
<rect width="1218" height="360" fill="white" transform="translate(0 0.5)"/>
</clipPath>
<clipPath id="clip1_1_683">
<rect width="1218" height="160" fill="white" transform="translate(0 201)"/>
</clipPath>
</defs>
</svg>
