<svg width="750" height="49" viewBox="0 0 750 49" fill="none" xmlns="http://www.w3.org/2000/svg">
<path d="M749.534 49H682.681V0.665039H692.909V38.7715H739.305V30.8828H749.534V49Z" fill="white"/>
<path d="M677.359 49H610.505V14.9717H620.734V20.6542H648.679V30.8828H620.734V38.7715H677.359V49ZM677.359 10.8936H610.505V0.665039H677.359V10.8936Z" fill="white"/>
<path d="M594.019 49H538.33V14.9717H548.559V38.7715H589.74L594.955 33.5569V16.0413L589.74 10.8936H538.33V0.665039H594.019L605.183 11.8295V37.8355L594.019 49Z" fill="white"/>
<path d="M533.006 48.9332H477.317L466.22 37.8355V0.665039H521.909L533.006 11.8295V48.9332ZM522.778 38.7715V16.0413L517.63 10.8936H476.381V33.5569L481.596 38.7715H522.778Z" fill="white"/>
<path d="M460.897 49H450.669V10.8936H437.031L431.883 16.0413V49H421.654V16.0413L416.44 10.8936H404.273V49H394.044V0.665039H420.718L426.735 6.68184L432.752 0.665039H460.897V49Z" fill="white"/>
<path d="M344.946 49H289.257V14.9717H299.485V38.7715H340.667L345.882 33.5569V16.0413L340.667 10.8936H289.257V0.665039H344.946L356.11 11.8295V37.8355L344.946 49Z" fill="white"/>
<path d="M283.934 49H217.081V0.665039H227.31V38.7715H273.706V30.8828H283.934V49Z" fill="white"/>
<path d="M211.758 49H201.529V39.3731L195.111 32.8884H155.133V49H144.971V14.9717H155.133V22.6598H196.381C199.858 19.2503 198.12 20.9885 201.529 17.5121V16.0413L196.381 10.8936H144.971V0.665039H200.66L211.758 11.8295V21.7907L205.072 28.476C209.552 32.8884 207.345 30.6822 211.758 35.1614V49Z" fill="white"/>
<path d="M139.647 48.9332H83.9585L72.8608 37.8355V0.665039H128.55L139.647 11.8295V48.9332ZM129.419 38.7715V16.0413L124.271 10.8936H83.0226V33.5569L88.2371 38.7715H129.419Z" fill="white"/>
<path d="M67.5389 49H39.3936L33.3768 42.9164L27.36 49H0.685547V0.665039H10.9141V38.7715H23.0814L28.2291 33.5569V0.665039H38.4577V33.5569L43.6723 38.7715H57.3103V0.665039H67.5389V49Z" fill="white"/>
</svg>
