<svg width="92" height="93" viewBox="0 0 92 93" fill="none" xmlns="http://www.w3.org/2000/svg">
<rect x="0.245438" y="0.644562" width="91.1146" height="92.2981" fill="url(#paint0_linear_342_36004)"/>
<rect x="0.79632" y="1.37641" width="84.0147" height="83.4233" stroke="#FFDAFF" stroke-width="1.18331"/>
<path d="M47.0878 5.77787V0.687439H47.7782V5.15028H50.0444V5.77787H47.0878Z" fill="white"/>
<path d="M39.3502 5.77787V0.687439H40.0406V5.15028H42.3069V5.77787H39.3502Z" fill="white"/>
<path d="M31.0389 5.77775L32.3568 0.687317H33.2703L34.5813 5.77775H33.877L33.5562 4.45284H32.0639L31.7432 5.77775H31.0389ZM32.2034 3.88104H33.4167L33.0541 2.36088C32.9844 2.08196 32.9286 1.84487 32.8868 1.64962C32.8449 1.45437 32.8194 1.32188 32.8101 1.25215C32.8008 1.32188 32.7752 1.45437 32.7334 1.64962C32.6915 1.84487 32.6381 2.07963 32.573 2.35391L32.2034 3.88104Z" fill="white"/>
<path d="M23.6163 5.77787V0.687439H26.6566V1.322H24.2927V2.92583H26.4753V3.55342H24.3067V5.77787H23.6163Z" fill="white"/>
<path d="M16.9954 5.77787V3.88814L15.4683 0.687439H16.2004L17.1418 2.69572C17.1976 2.81659 17.2418 2.92583 17.2743 3.02346C17.3115 3.12108 17.3347 3.19082 17.344 3.23266C17.358 3.19082 17.3812 3.12108 17.4138 3.02346C17.451 2.92583 17.4998 2.81659 17.5602 2.69572L18.4946 0.687439H19.2059L17.6857 3.88814V5.77787H16.9954Z" fill="white"/>
<path d="M8.11981 5.77787V0.687439H8.81015V2.84913H9.52142L10.6092 0.687439H11.3623L10.1281 3.13503L11.4251 5.77787H10.6441L9.50747 3.4558H8.81015V5.77787H8.11981Z" fill="white"/>
<path d="M1.88977 5.84534C1.3877 5.84534 0.987908 5.71518 0.690386 5.45485C0.392864 5.18986 0.244102 4.82726 0.244102 4.36703H0.934447C0.934447 4.63666 1.02045 4.84818 1.19245 5.00159C1.36446 5.155 1.5969 5.2317 1.88977 5.2317C2.1687 5.2317 2.38952 5.155 2.55222 5.00159C2.71958 4.84353 2.80326 4.63433 2.80326 4.374C2.80326 4.17875 2.7498 4.00907 2.64288 3.86496C2.53595 3.7162 2.38487 3.61625 2.18962 3.56511L1.43652 3.36289C1.10645 3.26991 0.843796 3.10255 0.648547 2.86082C0.457947 2.61443 0.362646 2.32388 0.362646 1.98917C0.362646 1.71489 0.423081 1.47548 0.543949 1.27093C0.669466 1.06173 0.843796 0.901349 1.06694 0.789778C1.29008 0.673558 1.54809 0.615448 1.84096 0.615448C2.13848 0.615448 2.39881 0.673558 2.62196 0.789778C2.84975 0.901349 3.0264 1.05941 3.15192 1.26396C3.27743 1.4685 3.34019 1.70559 3.34019 1.97522H2.65682C2.65682 1.75208 2.58012 1.57078 2.42671 1.43131C2.27795 1.29185 2.0827 1.22212 1.84096 1.22212C1.59922 1.22212 1.40397 1.29185 1.25521 1.43131C1.1111 1.57078 1.03904 1.75208 1.03904 1.97522C1.03904 2.15652 1.08786 2.30993 1.18548 2.43545C1.28311 2.55632 1.42025 2.64232 1.5969 2.69346L2.37092 2.90266C2.71958 2.99563 2.99153 3.17461 3.18678 3.43959C3.38203 3.69992 3.47966 4.01139 3.47966 4.374C3.47966 4.67152 3.41457 4.93186 3.28441 5.155C3.15424 5.37349 2.96829 5.54317 2.72655 5.66404C2.48947 5.78491 2.21054 5.84534 1.88977 5.84534Z" fill="white"/>
<path fill-rule="evenodd" clip-rule="evenodd" d="M0.937141 0.926086H76.6687V76.6579H0.937141V0.926086ZM39.8237 25.8636H25.2179C20.3779 25.8636 16.4544 29.7871 16.4544 34.6271H31.0602C35.9001 34.6271 39.8237 30.7035 39.8237 25.8636ZM25.2179 39.0099H39.8237C39.8237 43.8498 35.9001 47.7734 31.0602 47.7734H16.4544C16.4544 42.9334 20.3779 39.0099 25.2179 39.0099ZM63.194 17.1007H48.5882C43.7482 17.1007 39.8247 21.0242 39.8247 25.8642H54.4305C59.2704 25.8642 63.194 21.9406 63.194 17.1007ZM48.5882 30.247H63.194C63.194 35.0869 59.2704 39.0105 54.4305 39.0105H39.8247C39.8247 34.1705 43.7482 30.247 48.5882 30.247Z" fill="url(#paint0_linear_342_36210)"/>
<defs>
<linearGradient id="paint0_linear_342_36004" x1="91.4754" y1="0.810623" x2="0.378063" y2="93.1224" gradientUnits="userSpaceOnUse">
<stop stop-color="#1D9B95"/>
<stop offset="1" stop-color="#23B9A8"/>
</linearGradient>
<linearGradient id="paint0_linear_342_36210" x1="77.1883" y1="1.3104" x2="0.666505" y2="81.4759" gradientUnits="userSpaceOnUse">
<stop stop-color="#4B4B4B"/>
<stop offset="0.295" stop-color="#494848"/>
<stop offset="0.68" stop-color="#00221F"/>
<stop offset="1" stop-color="#1C1C1C"/>
</linearGradient>
</defs>
</svg>
