<svg width="77" height="77" viewBox="0 0 77 77" fill="none" xmlns="http://www.w3.org/2000/svg">
<path fill-rule="evenodd" clip-rule="evenodd" d="M0.937141 0.926086H76.6687V76.6579H0.937141V0.926086ZM39.8237 25.8636H25.2179C20.3779 25.8636 16.4544 29.7871 16.4544 34.6271H31.0602C35.9001 34.6271 39.8237 30.7035 39.8237 25.8636ZM25.2179 39.0099H39.8237C39.8237 43.8498 35.9001 47.7734 31.0602 47.7734H16.4544C16.4544 42.9334 20.3779 39.0099 25.2179 39.0099ZM63.194 17.1007H48.5882C43.7482 17.1007 39.8247 21.0242 39.8247 25.8642H54.4305C59.2704 25.8642 63.194 21.9406 63.194 17.1007ZM48.5882 30.247H63.194C63.194 35.0869 59.2704 39.0105 54.4305 39.0105H39.8247C39.8247 34.1705 43.7482 30.247 48.5882 30.247Z" fill="url(#paint0_linear_342_36210)"/>
<defs>
<linearGradient id="paint0_linear_342_36210" x1="77.1883" y1="1.3104" x2="0.666505" y2="81.4759" gradientUnits="userSpaceOnUse">
<stop stop-color="#4B4B4B"/>
<stop offset="0.295" stop-color="#494848"/>
<stop offset="0.68" stop-color="#00221F"/>
<stop offset="1" stop-color="#1C1C1C"/>
</linearGradient>
</defs>
</svg>
