<svg width="542" height="167" viewBox="0 0 542 167" fill="none" xmlns="http://www.w3.org/2000/svg">
<path fill-rule="evenodd" clip-rule="evenodd" d="M258 140.355C262.418 140.355 266 136.773 266 132.355V89H274V132.355C274 136.773 277.582 140.355 282 140.355H526C534.837 140.355 542 147.518 542 156.355V167H534V156.355C534 151.937 530.418 148.355 526 148.355H282C277.221 148.355 272.932 146.26 270 142.938C267.068 146.26 262.779 148.355 258 148.355H16C11.5817 148.355 8 151.937 8 156.355V167H0V156.355C0 147.518 7.16345 140.355 16 140.355H258Z" fill="#363636"/>
<g clip-path="url(#clip0_1_868)">
<circle cx="3" cy="3" r="3" transform="matrix(-1 0 0 1 272.5 0)" fill="#20A558"/>
<circle cx="3" cy="3" r="3" transform="matrix(-1 0 0 1 272.5 22)" fill="#20A558"/>
<circle cx="3" cy="3" r="3" transform="matrix(-1 0 0 1 272.5 44)" fill="#20A558"/>
<circle cx="3" cy="3" r="3" transform="matrix(-1 0 0 1 272.5 66)" fill="#20A558"/>
<circle cx="3" cy="3" r="3" transform="matrix(-1 0 0 1 272.5 88)" fill="#20A558"/>
<circle cx="3" cy="3" r="3" transform="matrix(-1 0 0 1 272.5 110)" fill="#20A558"/>
<circle cx="3" cy="3" r="3" transform="matrix(-1 0 0 1 272.5 132)" fill="#20A558"/>
</g>
<g clip-path="url(#clip1_1_868)">
<circle cx="3" cy="3" r="3" transform="matrix(-1 0 0 1 541 156)" fill="#20A558"/>
</g>
<g clip-path="url(#clip2_1_868)">
<circle cx="3" cy="3" r="3" transform="matrix(-1 0 0 1 7 157)" fill="#20A558"/>
</g>
<g clip-path="url(#clip3_1_868)">
<circle cx="3" cy="3" r="3" transform="matrix(-1 0 0 1 285.5 141)" fill="#20A558"/>
<circle cx="3" cy="3" r="3" transform="matrix(-1 0 0 1 307.5 141)" fill="#20A558"/>
<circle cx="3" cy="3" r="3" transform="matrix(-1 0 0 1 329.5 141)" fill="#20A558"/>
<circle cx="3" cy="3" r="3" transform="matrix(-1 0 0 1 351.5 141)" fill="#20A558"/>
<circle cx="3" cy="3" r="3" transform="matrix(-1 0 0 1 373.5 141)" fill="#20A558"/>
<circle cx="3" cy="3" r="3" transform="matrix(-1 0 0 1 395.5 141)" fill="#20A558"/>
<circle cx="3" cy="3" r="3" transform="matrix(-1 0 0 1 417.5 141)" fill="#20A558"/>
<circle cx="3" cy="3" r="3" transform="matrix(-1 0 0 1 439.5 141)" fill="#20A558"/>
<circle cx="3" cy="3" r="3" transform="matrix(-1 0 0 1 461.5 141)" fill="#20A558"/>
<circle cx="3" cy="3" r="3" transform="matrix(-1 0 0 1 483.5 141)" fill="#20A558"/>
<circle cx="3" cy="3" r="3" transform="matrix(-1 0 0 1 505.5 141)" fill="#20A558"/>
<circle cx="3" cy="3" r="3" transform="matrix(-1 0 0 1 527.5 141)" fill="#20A558"/>
</g>
<g clip-path="url(#clip4_1_868)">
<circle cx="3" cy="3" r="3" transform="matrix(-1 0 0 1 18.5 141)" fill="#20A558"/>
<circle cx="3" cy="3" r="3" transform="matrix(-1 0 0 1 40.5 141)" fill="#20A558"/>
<circle cx="3" cy="3" r="3" transform="matrix(-1 0 0 1 62.5 141)" fill="#20A558"/>
<circle cx="3" cy="3" r="3" transform="matrix(-1 0 0 1 84.5 141)" fill="#20A558"/>
<circle cx="3" cy="3" r="3" transform="matrix(-1 0 0 1 106.5 141)" fill="#20A558"/>
<circle cx="3" cy="3" r="3" transform="matrix(-1 0 0 1 128.5 141)" fill="#20A558"/>
<circle cx="3" cy="3" r="3" transform="matrix(-1 0 0 1 150.5 141)" fill="#20A558"/>
<circle cx="3" cy="3" r="3" transform="matrix(-1 0 0 1 172.5 141)" fill="#20A558"/>
<circle cx="3" cy="3" r="3" transform="matrix(-1 0 0 1 194.5 141)" fill="#20A558"/>
<circle cx="3" cy="3" r="3" transform="matrix(-1 0 0 1 216.5 141)" fill="#20A558"/>
<circle cx="3" cy="3" r="3" transform="matrix(-1 0 0 1 238.5 141)" fill="#20A558"/>
<circle cx="3" cy="3" r="3" transform="matrix(-1 0 0 1 260.5 141)" fill="#20A558"/>
</g>
<defs>
<clipPath id="clip0_1_868">
<rect width="6" height="138" fill="white" transform="translate(266.5)"/>
</clipPath>
<clipPath id="clip1_1_868">
<rect width="6" height="6" fill="white" transform="translate(535 156)"/>
</clipPath>
<clipPath id="clip2_1_868">
<rect width="6" height="6" fill="white" transform="translate(1 157)"/>
</clipPath>
<clipPath id="clip3_1_868">
<rect width="248" height="6" fill="white" transform="translate(279.5 141)"/>
</clipPath>
<clipPath id="clip4_1_868">
<rect width="248" height="6" fill="white" transform="translate(12.5 141)"/>
</clipPath>
</defs>
</svg>
