<svg width="8" height="82" viewBox="0 0 8 82" fill="none" xmlns="http://www.w3.org/2000/svg">
<g clip-path="url(#clip0_1_849)">
<path fill-rule="evenodd" clip-rule="evenodd" d="M0 82V0H8V82H0Z" fill="#363636"/>
<path d="M1 2C1 3.65685 2.34315 5 4 5C5.65685 5 7 3.65685 7 2C7 0.343146 5.65685 -1 4 -1C2.34315 -1 1 0.343146 1 2Z" fill="#FF4242"/>
<path d="M1 24C1 25.6569 2.34315 27 4 27C5.65685 27 7 25.6569 7 24C7 22.3431 5.65685 21 4 21C2.34315 21 1 22.3431 1 24Z" fill="#FF4242"/>
<path d="M1 46C1 47.6569 2.34315 49 4 49C5.65685 49 7 47.6569 7 46C7 44.3431 5.65685 43 4 43C2.34315 43 1 44.3431 1 46Z" fill="#FF4242"/>
<path d="M1 68C1 69.6569 2.34315 71 4 71C5.65685 71 7 69.6569 7 68C7 66.3431 5.65685 65 4 65C2.34315 65 1 66.3431 1 68Z" fill="#FF4242"/>
</g>
<defs>
<clipPath id="clip0_1_849">
<rect width="8" height="82" fill="white"/>
</clipPath>
</defs>
</svg>
