<svg width="52" height="51" viewBox="0 0 52 51" fill="none" xmlns="http://www.w3.org/2000/svg">
<g clip-path="url(#clip0_115_2)">
<path d="M45.6174 0.000244141H6.0258C2.67814 0.000244141 0 2.67827 0 6.02594V30.754C0 34.057 2.67814 36.7798 6.0258 36.7798L30.1289 36.8244L44.0105 50.706V36.7798H45.6174C48.9205 36.7798 51.6432 34.1016 51.6432 30.754V6.02594C51.6432 2.67827 48.9205 0.000244141 45.6174 0.000244141ZM30.0396 5.75824C31.7804 5.75824 33.2087 8.25786 33.2087 11.293C33.2087 14.3282 31.7804 16.8278 30.0396 16.8278C28.2988 16.8278 26.8706 14.3282 26.8706 11.293C26.8706 8.25786 28.2989 5.75824 30.0396 5.75824ZM17.2293 5.75824C18.9701 5.75824 20.3983 8.25786 20.3983 11.293C20.3983 14.3282 18.9701 16.8278 17.2293 16.8278C15.4439 16.8278 14.0602 14.3282 14.0602 11.293C14.0602 8.25786 15.4885 5.75824 17.2293 5.75824ZM38.5203 22.0054C37.8954 21.7376 37.3152 21.3359 36.8241 20.8449C36.1099 23.166 34.8155 25.3084 33.0748 27.0046C31.0216 28.9686 28.388 30.3077 25.6207 30.8432C22.8086 31.2895 19.9073 30.9772 17.3185 29.8166C14.7296 28.7007 12.4978 26.7368 11.0248 24.3712L11.2481 24.1925C13.6138 25.8887 15.8902 27.0492 18.2112 27.6741C20.5322 28.2544 22.8532 28.299 25.0851 27.9418C27.3169 27.5401 29.4593 26.6921 31.4233 25.3084C33.2087 24.0139 34.8155 22.4071 36.2885 20.3093C35.8868 19.8629 35.5297 19.3272 35.3065 18.747C34.994 18.0327 34.8155 17.274 34.8601 16.5153C35.3511 17.0955 35.7975 17.6311 36.2439 18.1667C36.6902 18.6577 37.1366 19.1487 37.583 19.6396C38.0739 20.1305 38.5649 20.577 39.0558 21.0234C39.5469 21.4697 40.0825 21.916 40.6627 22.4516C39.8594 22.4965 39.1006 22.318 38.5203 22.0054Z" fill="#F9633B"/>
</g>
<defs>
<clipPath id="clip0_115_2">
<rect width="52" height="51" fill="white"/>
</clipPath>
</defs>
</svg>
